<svg xmlns="http://www.w3.org/2000/svg" fill="none" viewBox="-0.5 -0.5 400 400" height="400" width="400"><g id="be-creative--work-be-creative"><path id="Subtract" fill="#38a1ff" fill-rule="evenodd" d="M238.967 330.334c17.897 14.468 38.903 27.77 61.408 27.77v-0.002c22.591 0 48.58 -14.899 47.068 -46.896 -0.708 -15.026 -6.789 -29.464 -10.216 -37.602l-0.176 -0.417c-1.642 1.422 -3.433 2.977 -5.385 4.674 11.346 27.625 16.138 54.777 -10.691 68.516 -28.939 14.821 -59.918 -5.925 -84.4 -26.827l0.004 -0.002c-0.237 -0.201 -0.483 -0.417 -0.74 -0.638l-0.144 -0.126a97.795 97.795 0 0 0 -1.498 3.709c3.697 1.127 4.624 4.209 4.77 7.84Zm-75.263 -2.256c0.379 -2.627 1.546 -4.726 4.563 -5.59a74.912 74.912 0 0 0 -1.269 -3.162c-9.313 3.711 -17.706 8.349 -25.636 12.732 -16.311 9.013 -30.673 16.952 -47.068 13.538 -8.086 -1.684 -14.976 -4.116 -20.864 -7.116 -2.937 0.824 -6.011 1.67 -9.233 2.542 7.749 4.999 17.177 8.792 28.714 11.192 18.807 3.914 34.4 -4.696 51.535 -14.161 6.149 -3.395 12.495 -6.899 19.258 -9.975Zm-133.511 -47.928c1.746 -1.863 3.796 -3.539 6.055 -5.019 -1.077 -12.403 8.958 -29.015 16.588 -41.648a331.27 331.27 0 0 0 4.433 -7.477c9.299 -16.399 -9.686 -28.684 -26.093 -37.097C14.56 180.388 15.342 162.088 18.254 142.948c0.778 -5.127 2.967 -9.588 6.139 -13.428a38.908 38.908 0 0 1 0.231 -9.909C17.959 125.148 13.007 132.428 11.563 141.926c-4.465 29.342 0.321 44.694 16.523 53.001 12.449 6.382 29.843 16.177 23.29 27.732 -1.426 2.516 -3.056 5.217 -4.768 8.056 -8.674 14.394 -19.465 32.297 -16.808 47.274 0.128 0.724 0.259 1.444 0.393 2.161Zm80.458 -186.752a63.906 63.906 0 0 1 6.22 4.289c12.179 -9.001 20.199 -21.694 27.79 -33.708 6.318 -10.001 12.341 -19.531 20.217 -26.075 8.495 -7.054 18.951 -11.012 34.968 -13.239 14.091 -1.957 25.494 3.737 34.432 12.189 2.971 -1.444 4.255 -1.981 5.546 -1.981 1.185 0 2.504 0.844 3.91 2.011 -11.621 -13.181 -26.613 -21.456 -44.82 -18.927 -35.082 4.874 -46.128 18.258 -64.69 49.929 -7.044 12.02 -15.218 20.13 -23.575 25.512Zm156.007 -0.042 6.35 -2.747c10.049 13.915 24.542 18.709 41.285 24.247 15.577 5.151 33.101 10.949 50.799 25.335 11.812 9.602 19.824 19.918 21.977 28.299 7.547 29.374 -8.429 60.249 -19.3 66.597 -2.145 1.251 -5.363 3.459 -8.958 6.192 0.778 -3.761 0.543 -6.502 -2.177 -6.883 2.941 -2.147 5.626 -3.932 7.719 -5.153 8.092 -4.722 22.941 -32.658 16.158 -59.068 -3.348 -13.031 -28.273 -37.037 -61.252 -46.527 -25.255 -7.27 -41.931 -14.737 -52.6 -30.292Z" clip-rule="evenodd" stroke-width="1"></path><g id="pencil"><path id="vector" fill="#38a1ff" d="M278.656 320.585c-3.93 0.401 -10.49 -7.932 -12.511 -11.326 -3.743 -6.28 -4.289 -4.229 67.106 -67.828 1.173 -1.045 0.517 -0.64 21.552 -4.7 4.012 -0.774 2.238 1.339 -2.514 18.5 -1.177 4.249 -13.281 12.06 -61.003 55.655 -10.095 9.221 -10.661 9.849 -12.63 9.702v-0.002Zm57.612 -76.291c-1.414 -1.72 -0.984 -1.255 -23.441 18.492 -29.574 26.003 -30.039 25.428 -28.672 26.978 12.16 13.789 11.358 14.332 13.347 12.531 9.929 -8.981 37.626 -33.929 49.6 -44.375 1.562 -1.363 0.906 -1.037 -5.341 -7.551 -1.081 -1.129 -0.608 -0.83 -10.017 7.322 -38.037 32.953 -35.557 30.873 -38.809 33.442 -1.063 0.84 -1.744 -0.447 -0.994 -1.181 4.467 -4.369 47.24 -40.584 47.285 -40.624 1.355 -1.189 0.704 -0.577 -2.961 -5.033h0.002Zm-49.32 67.393c1.367 -1.045 1.039 -0.417 -10.853 -13.847 -0.796 -0.898 -0.834 -1.009 -7.302 6.017 -2.366 2.572 0.144 5.319 6.637 12.227 3.388 3.605 3.639 1.636 11.517 -4.397Zm4.598 -6.751c-0.381 1.383 -1.149 0.571 -2.121 -0.497 -10.867 -11.938 -9.905 -12.197 -12.048 -10.587 -1.337 1.005 -0.319 1.76 2.28 4.529 10.322 10.994 8.479 12.565 11.423 9.779 3.433 -3.248 4.451 -3.413 2.971 -5.041 -12.154 -13.359 -11.206 -13.708 -13.245 -12.173 -1.891 1.422 2.163 3.244 10.739 13.991Zm46.244 -62.328c12.395 12.794 11.763 12.92 12.413 10.879 3.042 -9.572 3.18 -9.558 2.625 -10.206 -3.39 -3.964 -2.113 -3.188 -15.038 -0.672Z" stroke-width="1"></path></g><g id="light bulb"><path id="vector_2" fill="#191919" d="M280.264 232.009c5.652 -30.358 -10.587 -66.352 -35.369 -78.699 -28.094 -13.991 -56.602 -14.891 -86.615 -0.339 -19.557 9.476 -30.649 29.726 -35.621 50.565 -5.702 23.902 2.448 45.019 16.247 65.117 15.369 22.392 26.819 31.088 35.465 57.644 -5.784 0.479 -6.145 0.172 -6.296 3.465 -0.233 5.193 -0.299 7.547 2.963 7.802 3.775 0.295 1.496 0.275 38.282 0.345 23.405 0.042 24.902 0.509 25.079 -3.713 0.315 -7.609 -0.411 -7.395 -3.507 -7.667 -2.863 -0.249 -2.843 -0.241 -1.887 -2.994 13.015 -37.466 44.453 -54.972 51.262 -91.529l-0.002 0.002Zm-55.339 94.168c-1.329 0.281 -5.059 0.072 -15.677 0.072 -20.674 -1.203 -28.028 0.215 -30.779 0.092 -0.71 -3.858 -3.643 -13.091 -10.184 -24.1 -17.618 -29.64 -68.329 -66.984 -30.629 -126.515 23.677 -37.386 90.759 -40.499 120.662 -8.355 10.976 11.802 20.387 33.57 19.93 52.201 -1.115 45.787 -51.611 75.058 -53.322 106.605Z" stroke-width="1"></path><path id="vector_3" fill="#191919" d="M203.703 356.086c22.683 -0.052 22.54 -0.808 21.712 2.843 -1.837 8.098 -10.661 16.959 -21.929 17.963 -13.516 1.203 -25.167 -9.345 -26.535 -18.162 -0.575 -3.701 -0.459 -2.58 26.753 -2.641v-0.002Z" stroke-width="1"></path><path id="vector_4" fill="#191919" d="M201.114 340.409c29.037 0.002 29.079 -0.796 29.049 1.662 -0.126 10.731 0.156 10.214 -2.749 10.344 -15.451 0.696 -37.299 0.337 -52.54 -0.016 -3.04 -0.07 -2.426 -0.415 -2.568 -10.292 -0.036 -2.56 -0.086 -1.7 28.808 -1.698Z" stroke-width="1"></path><path id="vector_5" fill="#38a1ff" d="M241.239 215.376c2.893 -1.829 2.105 -7.409 3.064 -7.635 1.177 -0.277 4.606 3.042 2.334 9.055 -1.325 3.503 -1.243 4.255 1.428 6.819 8.213 7.886 -1.263 14.966 0.624 20.01 2.524 6.751 -3.076 13.157 -8.052 15.236 -14.073 5.881 -22.49 0.303 -23.082 1.752 -0.704 1.728 9.462 6.021 20.132 1.935 1.189 -0.455 1.648 -0.182 1.189 1.215 -2.544 7.727 -7.08 10.494 -14.266 10.101 -12.122 -0.662 -12.235 1.373 -14.55 -1.983 -2.412 -3.499 -3.196 -6.474 -7.248 -8.074 -0.529 -0.209 -1.345 -0.383 -1.65 0.118 -0.401 0.66 0.399 0.964 0.846 1.285 5.133 3.685 4.333 6.771 7.527 9.388 0.684 0.563 0.591 0.886 -0.028 1.472 -5.62 5.315 -4.387 18.368 -4.61 45.342 -0.014 1.588 -0.353 2.23 -2.047 2.021 -5.081 -0.628 -6.017 0.744 -6.039 -1.738 -0.511 -59.01 -3.671 -52.026 -21.929 -57.841 -5.464 -1.74 -7.15 -10.246 -6.055 -15.276 1.385 -6.354 4.93 -5.861 11.477 -11.144 7.802 -6.296 13.384 0.624 17.63 -7.318 1.177 -2.202 3.709 -1.869 3.659 -2.733 -0.062 -1.087 -2.695 -1.027 -4.786 1.093 -0.94 0.952 -2.498 3.667 -4.618 3.487 -4.774 -0.407 -9.225 0.475 -13.376 3.314 -0.333 -1.911 -0.393 -3.601 -1.189 -5.139 -2.969 -5.736 -10.254 -3.836 -9.845 -2.394 0.299 1.053 4.732 -1.159 7.477 2.278 2.28 2.855 1.588 7.342 -1.628 9.045 -4.475 2.37 -7.056 5.895 -7.244 11.018 -0.064 1.748 -4.311 0.303 -4.898 -3.507 -1.347 -8.762 -10.53 -10.699 -2.595 -16.662 0.357 -0.267 1.013 -0.547 0.772 -0.998 -1.143 -2.129 -10.296 3.591 -3.561 11.18 5.119 5.768 2.177 10.847 9.365 13.201 1.682 0.551 1.125 2.141 1.267 3.286 0.158 1.255 -1.071 0.77 -1.698 0.844 -4.269 0.497 -10.35 -0.632 -12.01 -5.261 -3.004 -8.375 0.475 -9.795 -6.51 -20.734 -3.15 -4.934 -2.741 -8.519 2.175 -13.025 0.541 -0.497 1.109 -1.093 1.464 0.215 1.143 4.199 5.261 6.133 9.955 2.881 2.183 -1.512 3.906 -3.551 5.76 -5.426 5.63 -5.696 8.551 0.974 9.776 -1.353 0.431 -0.816 -0.702 -1.333 -1.355 -1.768 -7.172 -4.792 -10.685 4.561 -16.345 7.457 -4.948 2.532 -7.264 -2.867 -6.23 -5.57 1.704 -4.463 2.47 -1.119 4.07 -8.142 1.035 -4.545 5.62 -8.618 13.618 -7.85 7.838 0.752 13.291 -3.038 19.96 -7.517 8.429 -5.66 12.946 4.253 22.508 0.706 9.143 -3.392 8.245 8.245 9.41 8.267 1.013 0.02 1.516 -2.657 1.131 -3.733 -0.515 -1.44 0.311 -1.867 1.414 -1.963 7.052 -0.608 11.32 1.099 15.439 7.782 2.645 4.291 1.977 7.395 1.977 12.981l-0.004 -0.004Zm-53.426 40.407c0.485 1.813 1.65 2.476 2.893 3.018 5.979 2.609 10.783 1.602 15.501 -3.635 5.835 -6.474 11.423 -5.574 20.321 -5.985 12.572 -0.579 14.336 -17.335 11.485 -17.019 -0.706 0.078 -0.293 0.994 -0.291 1.518 0.03 6.448 -4.435 11.958 -10.739 12.932 -4.505 0.696 -14.55 -1.359 -21.416 5.887 -5.353 5.648 -8.146 6.689 -17.754 3.282v0.002Zm32.774 -20.784c3.946 -5.756 3.844 -12.527 -0.14 -14.976 0.283 1.157 0.533 2.163 0.776 3.17 1.931 8.036 -2.384 12.924 -8.65 13.065 -7.725 0.174 -12.108 4.852 -11.501 5.795 0.956 1.488 0.782 -2.42 12.76 -3.832 2.268 -0.267 4.632 -0.327 6.769 -1.029 11.743 -3.862 17.133 -16.967 13.093 -25.741 -0.602 1.817 -0.6 3.318 -0.618 4.816 -0.134 10.352 -6.843 17.4 -12.487 18.733h-0.002Zm-15.513 -18.536c-1.205 -0.253 -2.095 0.317 -3.044 0.541 -4.345 1.025 -6.791 -1.367 -5.857 -5.71 1.089 -5.061 4.694 -8.519 4.413 -13.981 -0.271 -5.275 -6.546 -6.99 -6.875 -5.4 -0.156 0.744 0.64 0.696 1.107 0.806 2.819 0.672 4.19 3.697 3.639 6.368 -0.999 4.848 -4.594 8.842 -4.676 13.919 -0.128 7.974 8.65 8.03 11.292 3.455l0.002 0.002Zm-21.805 1.075c-0.205 -1.706 -1.704 -3.336 0.098 -7.006 2.025 -4.128 5.406 -8.249 2.49 -11.02 -2.959 -2.807 -6.759 -0.591 -6.564 0.207 0.259 1.045 3.218 -1.225 5.165 1.343 1.355 1.788 -0.608 3.575 -2.991 8.407 -1.367 2.773 -0.529 6.583 1.801 8.068v0.002Zm5.041 30.38c-1.432 -3.11 -10.705 -2.21 -13.482 3.543 -2.113 4.377 0.595 7.938 1.801 7.328 1.247 -0.632 -3.392 -7.421 5.049 -10.129 2.109 -0.676 4.283 -0.389 6.633 -0.742h-0.002Zm36.503 -46.32c-9.923 0.052 -12.295 13.167 -7.453 6.707 4.487 -5.985 9.085 -4.281 11.583 -4.401 1.706 -0.082 -0.14 -2.326 -4.13 -2.306Z" stroke-width="1"></path></g><g id="musical note"><g id="group"><path id="vector_6" fill="#38a1ff" d="M313.981 165.188c-0.948 3.783 -5.825 5.394 -8.758 2.957 -3.565 -2.961 1.636 -7.34 5.52 -5.76 1.111 0.453 1.62 0.291 1.728 -0.928 1.375 -15.673 2.167 -16.858 -0.664 -16.884a68.255 68.255 0 0 0 -13.839 1.243c-3.33 0.656 0.978 6.815 -5.554 22.733 -1.478 3.601 -9.684 5.538 -10.091 -0.016 -0.229 -3.126 4.648 -4.962 7.695 -3.417 0.71 0.361 0.994 0.243 1.231 -0.509 5.774 -18.326 -0.439 -29.119 3.691 -30.793 5.574 -2.26 11.362 -2.753 17.289 -2.187 4.114 0.393 6.051 16.395 1.752 33.558l0.002 0.002Zm-17.65 -22.392c-0.07 2.753 3.386 -1.428 15.665 0.082 1.927 0.237 1.526 -0.936 0.319 -7.264 -0.64 -3.356 -10.57 -1.041 -13.859 -0.12 -3.527 0.99 -1.957 0.684 -2.125 7.302Z" stroke-width="1"></path></g><g id="group_2"><path id="vector_7" fill="#38a1ff" d="M331.346 190.084c-1.273 3.87 -4.565 5.508 -8.355 4.377 -3.425 -1.021 -3.537 -4.64 -1.263 -6.045 5.889 -3.643 6.955 1.692 7.822 -1.351 5.137 -18.035 -3.639 -24.658 2.917 -24.128 5.484 0.447 11.517 -1.41 11.772 0.08 0.148 0.852 -0.812 1.073 -1.422 1.327 -7.314 3.04 -11.356 -0.782 -10.418 3.014 0.63 2.556 0.559 2.536 3.2 2.554 2.641 0.014 5.351 -0.618 7.928 -1.454 0.403 -0.13 0.952 -0.545 1.293 -0.046 0.341 0.499 -0.241 0.87 -0.541 1.157 -5.708 5.486 -11.124 0.678 -10.657 4.421 0.796 6.366 -0.834 11.719 -2.272 16.092l-0.004 0.002Z" stroke-width="1"></path></g><g id="group_3"><path id="vector_8" fill="#38a1ff" d="M82.28 232.673c-1.273 3.868 -4.565 5.508 -8.355 4.377 -3.425 -1.021 -3.537 -4.64 -1.263 -6.047 5.889 -3.641 6.955 1.694 7.822 -1.349 5.137 -18.035 -3.639 -24.66 2.917 -24.128 5.484 0.447 11.517 -1.41 11.772 0.078 0.148 0.854 -0.812 1.075 -1.422 1.329 -7.314 3.04 -11.356 -0.782 -10.418 3.014 0.63 2.556 0.559 2.536 3.2 2.552 2.641 0.016 5.351 -0.616 7.928 -1.452 0.403 -0.13 0.952 -0.545 1.293 -0.046 0.341 0.499 -0.241 0.87 -0.541 1.157 -5.708 5.486 -11.124 0.676 -10.657 4.421 0.796 6.366 -0.834 11.719 -2.272 16.092l-0.004 0.002Z" stroke-width="1"></path></g></g><g id="camera"><path id="vector_9" fill="#38a1ff" d="M191.582 108.678c-0.072 -11.162 5.199 -27.042 6.937 -30.559 0.604 -1.223 -2.155 -4.636 2.661 -7.597 2.272 -1.397 -2.354 -3.192 1.961 -5.107 1.017 -0.451 1.915 -0.792 1.251 -2.288 -0.463 -1.045 -0.509 -2.28 -0.746 -3.431 -0.569 -2.749 0.964 -2.354 8.293 -5.536 3.635 -1.578 4.241 5.247 6.583 4.545 1.341 -0.403 2.564 -0.902 2.629 -2.773 0.102 -2.867 0.577 -5.722 0.742 -8.592 0.086 -1.468 0.622 -2.36 1.973 -2.987 15.78 -7.328 15.451 -8.269 17.618 -6.378 8.582 7.493 8.565 7.306 9.909 6.719 16.411 -7.166 15.589 -7.435 17.141 -4.094 0.225 0.485 0.018 0.026 12.503 27.535 6.278 13.835 6.813 13.574 4.443 14.603 -54.97 23.872 -60.622 25.887 -63.838 27.597 -2.522 1.341 -2.695 -1.337 -15.358 -30.288 -0.239 -0.545 -0.545 -1.516 -1.309 -0.938 -0.764 0.583 -2.486 -0.379 -2.37 1.774 0.511 9.512 -0.473 16.11 8.806 28.82 3.928 5.383 8.806 10.996 10.23 16.896 3.571 14.795 -29.845 15.591 -30.063 -17.921l0.002 0Zm36.548 -41.458c-0.481 3.318 -0.217 2.54 -18.757 10.308 -2.28 0.956 -1.307 1.147 1.794 8.168 10.057 22.773 9.041 23.122 11.9 21.777 4.926 -2.318 36.646 -16.128 39.403 -17.337 21.684 -9.484 22.308 -8.223 20.912 -11.056 -1.885 -3.83 -12.179 -27.012 -12.199 -27.056 -0.684 -1.536 -0.401 -1.053 -13.508 4.696 -1.829 0.802 -4.449 2.189 -5.229 0.349 -0.413 -0.974 0.874 -0.83 1.387 -1.057a697.398 697.398 0 0 1 14.372 -6.198c3.044 -1.277 -0.203 -3.092 -1.301 -7.681 -0.7 -2.933 -9.013 3.246 -62.426 25.291 -1.608 0.664 -0.441 1.115 1.883 7.655 0.826 2.322 0.164 1.526 21.773 -7.854l-0.004 -0.004ZM193.655 108.243c-0.152 19.324 11.004 27.076 21.297 25.402 3.81 -0.62 5.921 -3.533 3.589 -9.017 -3.649 -8.58 -13.652 -16.431 -16.748 -28.305 -3.407 -13.069 0.291 -16.884 -1.402 -17.187 -1.029 -0.184 -6.661 19.607 -6.735 29.107Zm29.759 -52.927c-0.245 2.244 0.182 1.257 23.359 -8.698 1.805 -0.774 0.742 -0.559 -6.37 -6.45 -1.51 -1.251 -0.952 -0.778 -14.841 5.817 -1.652 0.784 -1.209 0.742 -2.149 9.333v-0.002Zm-16.896 3.36c-0.602 0.267 -0.632 0.832 -0.435 1.367 0.421 1.141 0.104 2.484 0.964 3.471 0.196 0.227 1.542 -0.543 8.09 -3.332 1.013 -0.429 0.571 -0.662 -0.858 -2.566 -1.502 -2.001 -0.417 -2.195 -7.761 1.057Zm-3.433 18.194c0.533 -0.044 1.632 -0.076 1.456 -0.618 -1.307 -4.052 -1.534 -4.249 -2.222 -3.755 -2.657 1.895 -1.414 4.561 0.766 4.377v-0.002Z" stroke-width="1"></path><path id="vector_10" fill="#38a1ff" d="M228.278 74.813c-0.022 -9.698 7.555 -17.364 17.113 -17.319 9.237 0.042 16.752 7.707 16.78 17.113 0.028 9.48 -7.675 16.997 -17.416 17.003 -8.864 0.01 -16.457 -7.737 -16.477 -16.802v0.004Zm31.425 -0.094c0.058 -19.631 -29.065 -19.338 -29.297 -0.219 -0.094 7.741 6.755 14.689 14.364 14.697 8.441 0.01 14.907 -6.264 14.931 -14.48h0.002Z" stroke-width="1"></path><path id="vector_11" fill="#38a1ff" d="M254.057 74.661c0.02 4.918 -3.826 8.724 -8.89 8.786 -4.545 0.056 -8.75 -4.152 -8.676 -8.688 0.19 -11.611 17.516 -11.613 17.564 -0.1h0.002Zm-8.646 6.829c3.577 -0.024 6.631 -3.24 6.556 -6.903 -0.076 -3.611 -3.126 -6.693 -6.611 -6.677 -9.019 0.04 -9.123 13.644 0.058 13.582l-0.002 -0.002Z" stroke-width="1"></path></g><g id="paint"><path id="vector_12" fill="#38a1ff" d="M64.177 167.456c-1.821 1.309 -3.465 1.53 -5.512 0.579C1.387 141.394 25.975 73.911 89.38 87.367c25.141 5.337 47.527 26.134 44.866 51.848 -0.265 2.572 -2.683 0.092 -7.691 -0.283 -8.425 -0.63 -14.781 4.539 -17.498 11.535 -0.63 1.624 -3.753 3.212 -3.174 0.816 2.691 -11.152 13.628 -17.652 24.812 -14.554 4.778 1.325 -0.221 -36 -39.866 -46.158C31.934 75.479 0.283 140.448 64.175 167.456Z" stroke-width="1"></path><path id="vector_13" fill="#38a1ff" d="M50.785 182.032c-10.599 -3.571 6.607 -8.259 51.537 -25.961 20.189 -7.954 17.313 -8.535 20.55 -1.063 0.373 0.862 0.108 1.444 -0.886 1.907 -1.484 0.69 -62.795 23.06 -71.2 25.115l-0.002 0Zm0.632 -1.981c2.183 -0.034 1.514 -0.285 61.787 -22.093 2.528 -0.914 2.496 -0.866 1.51 -3.292 -0.692 -1.698 -0.772 -1.201 -8.227 1.708C69.713 170.716 42.454 180.186 51.419 180.049h-0.002Zm69.42 -25.137c-0.058 -1.285 -1.285 -3.368 -1.853 -3.364 -1.215 0.008 -3.272 1.243 -2.971 1.809 0.543 1.015 0.283 2.877 1.51 2.961 1.045 0.072 2.588 -0.333 3.314 -1.406Z" stroke-width="1"></path><path id="vector_14" fill="#38a1ff" d="M49.257 132.402c-13.017 -0.439 -18.478 -13.436 -8.239 -18.966 5.311 -2.869 12.912 -1.702 17.085 2.633 6.823 7.09 0.148 16.636 -8.844 16.333Zm-0.608 -2.44c6.759 0.176 11.401 -4.393 9.221 -9.345 -2.819 -6.404 -12.744 -8.421 -17.847 -3.631 -5.103 4.788 -0.533 12.736 8.626 12.973Z" stroke-width="1"></path><path id="vector_15" fill="#38a1ff" d="M77.584 112.291c-9.225 -0.186 -9.011 -14.041 0.327 -13.845 9.384 0.2 8.646 14.025 -0.327 13.845Z" stroke-width="1"></path><path id="vector_16" fill="#38a1ff" d="M117.26 132.713c-9.574 0.096 -9.283 -13.971 -0.435 -14.053 9.5 -0.088 9.053 13.965 0.435 14.053Z" stroke-width="1"></path><path id="vector_17" fill="#38a1ff" d="M108.323 111.84c-0.531 10.312 -14.386 8.559 -13.827 -0.271 0.233 -3.701 3.605 -6.871 7.06 -6.645 3.868 0.253 6.949 3.401 6.769 6.917h-0.002Z" stroke-width="1"></path><path id="vector_18" fill="#38a1ff" d="M80.261 173.553c8.545 -4.692 11.385 0.2 27.397 -6.149 3.465 -1.375 -1.829 -2.789 0.385 -4.066 2.105 -1.213 2.053 1.039 3.761 2.843 1.205 1.273 0.692 1.861 -0.684 2.478 -10.071 4.509 -20.078 5.873 -30.859 4.894Z" stroke-width="1"></path><path id="vector_19" fill="#38a1ff" d="M129.569 155.279c-7.531 0.02 -8.832 -10.338 0.373 -10.39 1.616 -0.01 5.524 1.197 9.971 -1.095 1.363 -0.702 2.504 0.255 2.039 1.797 -1.285 4.259 -7.609 9.678 -12.383 9.688Zm10.169 -9.52c-3.196 2.009 -6.883 0.872 -10.945 1.045 -4.012 0.172 -5.325 4.333 -1.067 6.149 4.068 1.736 12.732 -5.205 12.01 -7.194h0.002Z" stroke-width="1"></path></g><g id="notebook"><path id="vector_20" fill="#38a1ff" d="M78.038 274.52c1.799 1.993 0.05 -4.519 14.669 -9.993 4.557 -1.706 16.395 -4.106 19.705 -0.541 33.169 35.71 36.285 37.861 31.445 37.881 -13.462 0.056 -26.432 8.864 -32.724 19.044 -1.127 1.825 -1.666 1.949 -3.577 0.952 -20.694 -10.789 -40.939 -5.257 -53.779 10.013 -2.594 3.084 -1.71 2.065 -22.404 -32.937 -3.898 -6.591 -5.049 -7.573 -3.775 -10.751 6.992 -17.424 41.145 -23.962 50.442 -13.668h-0.002Zm28.175 43.992c-13.303 -19.505 -19.455 -28.327 -27.138 -40.281 -7.08 -11.014 -36.776 -7.677 -48.05 8.176 -3.294 4.63 -2.322 2.601 20.501 41.955 1.925 3.318 1.337 -0.632 10.157 -6.316 22.268 -14.35 37.582 -5.698 44.53 -3.531v-0.002Zm36.195 -18.783 -31.938 -34.545c-2.039 -2.206 -15.417 -1.291 -25.48 5.668 -2.051 1.418 -5.776 5.033 -4.319 7.022 6.194 8.463 11.623 16.736 27.9 41.015 2.029 3.028 0.505 -1.432 9.267 -8.922 6.949 -5.939 15.477 -10.037 24.57 -10.238Z" stroke-width="1"></path><path id="vector_21" fill="#38a1ff" d="M52.862 341.686c-1.406 -0.198 -1.54 -1.175 -0.772 -1.941 0.994 -0.988 45.741 -13.57 54.202 -15.633 0.555 -0.136 1.414 -0.726 1.666 0.19 0.507 1.849 -51.864 16.543 -55.096 17.384Z" stroke-width="1"></path><path id="vector_22" fill="#38a1ff" d="M22.881 300.79c1.612 0.09 24.912 39.796 24.936 39.842 0.844 1.594 -0.912 2.594 -1.883 1.033 -6.593 -10.583 -16.844 -27.12 -22.52 -37.151 -0.485 -0.856 -1.464 -1.422 -1.375 -2.641 0.05 -0.668 0.275 -0.964 0.84 -1.083h0.002Z" stroke-width="1"></path><path id="vector_23" fill="#38a1ff" d="M112.674 323.8c-7.737 -0.026 21.251 -11.788 29.041 -15.202 1.313 -0.575 2.827 -1.141 3.306 0.004 0.551 1.317 -0.505 1.891 -4.479 3.635 -2.031 0.89 -26.035 11.569 -27.87 11.563Z" stroke-width="1"></path><path id="vector_24" fill="#38a1ff" d="M103.67 322.629c-2.731 2.661 -15.78 -9.953 -48.52 13.372 -4.024 2.867 17.358 -23.623 48.52 -13.372Z" stroke-width="1"></path><path id="vector_25" fill="#38a1ff" d="M27.97 301.552c-0.63 -1.095 -2.28 -2.621 -1.091 -3.433 1.045 -0.714 1.748 1.43 2.396 2.424 31.567 48.391 14.292 28.078 -1.305 1.009Z" stroke-width="1"></path><path id="vector_26" fill="#38a1ff" d="M113.316 320.589c3.28 -7.868 26.198 -16.764 26.743 -14.426 0.249 1.075 -10.544 2.406 -24.112 12.561 -0.768 0.575 -1.337 1.444 -2.629 1.867v-0.002Z" stroke-width="1"></path><path id="vector_27" fill="#38a1ff" d="M75.044 286.977c-13.335 0.99 -21.227 0.882 -32.798 11.653 -5.943 5.534 2.839 -12.429 22.162 -12.981 2.707 -0.078 8.708 -0.579 10.635 1.329Z" stroke-width="1"></path><path id="vector_28" fill="#38a1ff" d="M72.694 280.116c-30.346 -1.58 -34.759 15 -36.622 13.847 -1.484 -0.92 9.969 -17.761 32.668 -15.369 1.333 0.14 2.534 0.571 3.954 1.522Z" stroke-width="1"></path></g></g></svg>