<svg xmlns="http://www.w3.org/2000/svg" fill="none" viewBox="-0.5 -0.5 14 14" height="14" width="14"><g id="clipboard-check--checkmark-edit-task-edition-checklist-check-success-clipboard-form"><path id="Rectangle 659" fill="#8fbffa" d="M1.161 2.321A1.393 1.393 0 0 1 2.554 0.929h7.893a1.393 1.393 0 0 1 1.393 1.393v9.286a1.393 1.393 0 0 1 -1.393 1.393h-7.893a1.393 1.393 0 0 1 -1.393 -1.393v-9.286Z" stroke-width="1"></path><path id="Union" fill="#2859c5" fill-rule="evenodd" d="M5.107 0a0.929 0.929 0 0 0 -0.929 0.929v0.464a0.929 0.929 0 0 0 0.929 0.929h2.786a0.929 0.929 0 0 0 0.929 -0.929V0.929a0.929 0.929 0 0 0 -0.929 -0.929h-2.786Zm4.271 6.454a0.696 0.696 0 0 0 -1.114 -0.836L5.874 8.805l-0.845 -0.563a0.696 0.696 0 0 0 -0.773 1.159l1.393 0.929A0.696 0.696 0 0 0 6.593 10.168l2.786 -3.714Z" clip-rule="evenodd" stroke-width="1"></path></g></svg>