<svg xmlns="http://www.w3.org/2000/svg" fill="none" viewBox="-0.5 -0.5 14 14" height="14" width="14"><g id="controller-wireless--remote-gaming-drones-drone-control-controller-technology-console"><path id="Union" fill="#2859c5" fill-rule="evenodd" d="M3.354 2.275c0.328 -0.218 1.517 -0.766 3.146 -0.766 1.628 0 2.818 0.548 3.145 0.766a0.696 0.696 0 0 0 0.773 -1.159C9.861 0.745 8.404 0.116 6.5 0.116S3.138 0.746 2.581 1.116a0.696 0.696 0 1 0 0.773 1.159Zm1.692 2.251c0.245 -0.123 0.899 -0.368 1.454 -0.368 0.554 0 1.209 0.245 1.454 0.368a0.696 0.696 0 0 0 0.623 -1.246C8.235 3.109 7.358 2.765 6.5 2.765c-0.858 0 -1.735 0.344 -2.077 0.514a0.696 0.696 0 0 0 0.622 1.246Z" clip-rule="evenodd" stroke-width="1"></path><path id="Union_2" fill="#8fbffa" fill-rule="evenodd" d="M3.36 5.571a3.352 3.352 0 1 0 2.048 6.007h2.151A3.352 3.352 0 1 0 9.605 5.571l-0.015 0 -0.007 0H3.519c-0.016 0 -0.03 0 -0.044 0.002A3.412 3.412 0 0 0 3.36 5.571Z" clip-rule="evenodd" stroke-width="1"></path><path id="Union_3" fill="#2859c5" fill-rule="evenodd" d="M10.519 8.622a0.71 0.71 0 1 0 0 -1.421 0.71 0.71 0 0 0 0 1.421Zm-1.634 1.746a0.71 0.71 0 1 0 0 -1.421 0.71 0.71 0 0 0 0 1.421Zm-5.711 -3.036c0.32 0 0.58 0.26 0.58 0.58v0.416h0.416a0.58 0.58 0 0 1 0 1.161h-0.416v0.416a0.58 0.58 0 1 1 -1.161 0v-0.416h-0.417a0.58 0.58 0 1 1 0 -1.161h0.417V7.911c0 -0.32 0.26 -0.58 0.58 -0.58Z" clip-rule="evenodd" stroke-width="1"></path></g></svg>