<svg xmlns="http://www.w3.org/2000/svg" viewBox="0 0 200 200" height="800" width="800"><path d="M182.292 72.765s2.329-8.46 1.32-8.877c-.623-.237-8.179 2.7-8.428 3.345-.2.523.71 1.508 2.492 2.691-4.48 4.94-10.348 10.1-14.447 15.082-1.588-1.19-7.88-7.893-8.59-7.737-1.2.268-7.4 8.833-10.907 13.169-.506.623.442 1.763.977 1.177 3.228-3.507 7.189-8.665 10.1-12.34.84.928 7.625 7.749 8.484 7.257 2.043-1.165 13.55-13.549 15.717-15.829.659.355 2.74 2.33 3.282 2.062Z" fill="#38a1ff"></path><path d="M169.684 173.683c-44.057-.651-88.129-.623-132.19-.741a.79.79 0 0 0-.81.772c-.011.437.335 1.182.773 1.193h132.189c.444.01.812.042.822-.4a.8.8 0 0 0-.784-.824Z" fill="#191919"></path><path d="M111.463 122.576c.051-.991.062-1.975.087-2.966.05-1.744-.885-1.75-1.165-.18-.729 4.27.967 5.302 1.078 3.146Z" fill="#191919"></path><path d="M99.925 131.229c1.547.885 3.334-.542 1.246-.947-.386-.075-.492-.069-.523-.48-.156-2.037-.168-2.024 1.763-2.591a.654.654 0 0 0 .462-.8c-.289-1.076-2.939-.159-3.5 1.343-.22.516-.427 2.914.552 3.475Z" fill="#191919"></path><path d="M107.868 134.811c-.322-.886-2.492-.449-3.3-2.623a17.719 17.719 0 0 0-.623-2.317c-1.1-2.293-2.691-1.595-2.266-.829.273.5 1.052.829 1.363 1.744.455 1.358.343 3.651 3.3 4.523.417.125 1.896.516 1.526-.498Z" fill="#191919"></path><path d="M106.616 122.19c-2.448-1.67-5.226.093-4.174.623.586.311 1.782-.792 3.414.286a.623.623 0 0 0 .76-.909Z" fill="#191919"></path><path d="M100.7 125.423c.543.472 1.246-.691 2.349-.686.81 0 1.445.356 1.619-.261a.622.622 0 0 0-.367-.735c-1.684-.747-4.523.876-3.601 1.682Z" fill="#191919"></path><path d="M107.4 121.417c1.743 2.019 3.781 7.476 4.641 8.3a.567.567 0 0 0 .984-.467c-.15-1.159-3.794-7.731-4.473-8.553-1.7-2.044-5.2-3.47-6.777-4.928-.356-.33-1.041.15-.774.623.999 1.948 4.431 2.752 6.399 5.025Z" fill="#191919"></path><path d="M91.914 154.278c6.431-1.393 7.139-2.137 12.335 2.136.536.437 1.077 1.134 1.806 1.134a.369.369 0 0 0 .318-.414c-.106-.716-1.022-1.249-1.532-1.7-4.7-4.186-6.853-3.918-12.877-2.535a6.306 6.306 0 0 0-2.361.716c-.236.171-.728 1.321 2.311.663Z" fill="#191919"></path><path d="M88.625 162.476c-.4 1.744 5.158 1.134 6.8-.953a.542.542 0 0 0-.147-.752c-.719-.486-1.7 1.15-4.481 1.287-.982.042-1.979-.424-2.172.418Z" fill="#191919"></path><path d="M96.761 164.108c1.663-.262 2.267-1.209 2.236-2.916a2.572 2.572 0 0 0-1.071-2.292c-.723-.405-2.654-.367-2.436.48s1.869-.119 2.162.922c.791 2.89-1 2.274-2.336 2.822-.53.223-.848 1.345 1.445.984Z" fill="#191919"></path><path d="M100.162 157.928c-.685-1.623-2.548-1.949-2.66-1.065s.8.386 1.377 1.246c.71 1.058.106 2.367.623 2.909.673.661 1.426-1.275.66-3.09Z" fill="#191919"></path><path d="M105.414 159.423c.668.408 1.395-.485.754-.984a34.051 34.051 0 0 0-6.436-3.675c-2.492-.81-2.816.623-2.229.829 1.781.56.877-.275 4.024 1.432 1.339.729 2.595 1.608 3.887 2.398Z" fill="#191919"></path><path d="M62.754 171.048c9.931 1.765 18.253-3.035 24.719-5.981.417-.187.965-.28.778-.841a17.877 17.877 0 0 1-.4-11.033c.143-.461.068-1.108-.524-1.052-1.869.174-4.634.816-6.678 1.183a36.755 36.755 0 0 1 .991-5.731c.666-.81 3.115-3.588 3.258-4.323a.537.537 0 0 0-.742-.623c-.51.268-9.693 11.119-10.272 11.923-.218.144-4.984.8-7.774 2.536a.48.48 0 0 0 .38.872c6.8-1.968 13.007-2.872 19.778-4.261a19.383 19.383 0 0 0 .48 10.341c-7.083 3.483-14.9 6.765-22.943 5.868-7.071-.785-9.089-5.351-5.949-13.63 5.961-15.723 17.05-26.619 33.57-31.3.891 3.738 4.928 8.516 10.323 9.008 1.245.119 1.158-.873.517-.929-4.61-.411-8.9-4.952-9.706-8.721-.1-.46-.131-1.015-.7-.865-17.237 4.516-29.029 15.985-35.234 32.256-2.905 7.571-2.262 13.811 6.128 15.303Zm16.677-17.5-3.6.654 4.024-4.492a16.571 16.571 0 0 0-.424 3.833Z" fill="#191919"></path><path d="M113.182 122.713c-.573-.181-.86.779-.293 1.015 13.356 5.563 21.41 18.994 24.544 33.26 1.52 6.914 2.112 16.464-8.235 13.381-12.8-3.819-19.311-23.106-21.118-32.805 3.115-.779 5.438-3.295 7.2-5.825 6.117 6.23 14.054 18.863 17.966 25.442.156.261.7 0 .623-.312-1.744-6.672-14.833-23.311-18.221-26.538-1.165-1.1-.941 1.732-4.411 4.081-4.791 3.239-4.784 1.314-4.1 4.859 2.217 11.456 9.93 28.824 21.629 32.305 10.459 3.115 11.649-5.313 10.372-12.844-1.891-11.182-10.607-31.16-25.956-36.019Z" fill="#191919"></path><path d="M102.573 111.126a.747.747 0 0 0-.249-.941c-1.009-.529-.53 1.657-3.47 1.963-.243 0-1.246-.031-1.071.461.28.779 3.357 1.083 4.79-1.483Z" fill="#191919"></path><path d="M102.181 103.869c.306.747 1.2.486.978-.393-.412-1.651-2.112-2.853-2.492-1.688-.355.941.893.566 1.514 2.081Z" fill="#191919"></path><path d="M97.147 109.425c1.594.385 1.246-.623 1-.76-.361-.18-1.246.094-2.087-.622 1.626-1.726 1.134-3.252-.056-1.458-.542.8-1.476 1.246-.9 1.912a6 6 0 0 0 2.043.928Z" fill="#191919"></path><path d="M94.749 105.189c.809.01.847-2.167.23-2.193-.785-.037-1.022 2.184-.23 2.193Z" fill="#191919"></path><path d="M95.87 101.489c.829.219 1.053-1.246.293-1.383-2.6-.417-3.52 2.6-1.807 1.595a1.6 1.6 0 0 1 1.514-.212Z" fill="#191919"></path><path d="M99.907 106.479c.929.39 1.4-1.869.7-2.087-.526-.143-1.583 1.716-.7 2.087Z" fill="#191919"></path><path d="M75 50.059c.88.488 6.336.5 7.364.2a.562.562 0 0 0 0-1.072c-.754-.249-6.23-.529-7.364 0a.507.507 0 0 0 0 .872Z" fill="#191919"></path><path d="M95.658 62.916c.381.286 1.047-.131.7-.586-2.625-3.476-6.658-6.179-7.527-10.73-1.514-7.992 8.428-15.68 17.044-12.154 6.36 2.592 9.294 9.918 4.679 16.16-1.34 1.812-2.892 3.6-3.253 5.905-.143.891 1.246 1.246 1.377.324.716-4.055 5.277-5.93 5.575-12a12.1 12.1 0 0 0-6.577-11.135c-8.722-4.61-20.234 1.794-20.421 11.213-.106 5.141 4.565 10.118 8.403 13.003Z" fill="#191919"></path><path d="M87.411 37.076c.659.375 1.47-.168.623-1.2-.692-.816-3.576-3.9-4.411-4.124-1.607-.436-1.2.517-1.065.623 1.171 1.157 3.693 4.042 4.853 4.701Z" fill="#191919"></path><path d="M101.19 33.712c.673-1.259-.286-7.9-.922-8.79a.53.53 0 0 0-.94.2 50.332 50.332 0 0 0 .978 8.653.517.517 0 0 0 .884-.063Z" fill="#191919"></path><path d="M87.56 63.7a15.9 15.9 0 0 0-4.884 3.115.5.5 0 0 0 .623.766 44.988 44.988 0 0 1 4.554-2.535c2.024-.859 1.141-1.936-.293-1.346Z" fill="#191919"></path><path d="M119.293 49.193a14.584 14.584 0 0 1 4.485-.356c.436 0 2.225.237 1.694-.772-.622-1.128-4.845-.853-6.534 0a.624.624 0 0 0 .355 1.128Z" fill="#191919"></path><path d="M114.322 36.285c1.246-1.364 2.429-2.766 3.663-4.13.268-.293 1.819-1.869.685-2.112-1.246-.287-4.74 4.361-5.37 5.526a.624.624 0 1 0 1.022.716Z" fill="#191919"></path><path d="M122.807 63.4c-.21-.574-5.745-3.2-6.76-3.632a.624.624 0 0 0-.623.978 33.981 33.981 0 0 0 5.656 3.115c.549.214 2.156.71 1.727-.461Z" fill="#191919"></path><path d="M188.546 88.245c-14.851 1.464-30.057 1.906-44.41 2.99-.174-6.161-1.171-27.409-2.672-33.284-.113-.436-.9-.492-.853.031.909 10.946 1.744 22.844 2.036 33.478a1.01 1.01 0 0 0 .945 1.07c2.121.133 33.159-1.477 45.3-2.8a.762.762 0 1 0-.349-1.483Z" fill="#191919"></path><path d="M162.644 60.835a.625.625 0 0 0 .711-.155c.522-.561-.406-4.529-.8-4.9a.5.5 0 0 0-.767.162c-.234.414.112 4.47.856 4.893Z" fill="#191919"></path><path d="M185.7 58.568c.146-.795-.623-3.5-.842-4.361a.511.511 0 0 0-.99.162 17.977 17.977 0 0 0 .667 4.361.624.624 0 0 0 1.165-.162Z" fill="#191919"></path><path d="M42.807 118.907c-5.97-8.1-21.111-7.768-27.235 1.869-8.5 13.362 7.961 28.144 21.529 20.688 7.974-4.373 11.261-15.024 5.706-22.557Zm-27.023 4.4c4.363-9.723 19.561-12.035 25.859-3.538 5.052 6.815 1.744 16.533-5.414 20.432-10.671 5.835-26.042-4.417-20.445-16.89Z" fill="#191919"></path><path d="M17.584 140.959c-2.591-2.18-2.087-2.243-5.114.935a76.467 76.467 0 0 0-7.413 8.683c-.48.754 2.2 3.868 3.252 2.916a84.211 84.211 0 0 0 9.444-10.086c.878-1.115 1.052-1.421-.169-2.448Z" fill="#191919"></path><path d="M114.39 95.06a13.456 13.456 0 0 1 .748 7.12c2.087-.548 2.909 1.016 2.834 3.009s-.7 7.793 2.361 11.587c.923 1.146 2.349.779 1.869-1.613-1.058-5.04 5.962-10.167 4.822-18.352-.872-6.074-9.936-7.426-12.634-1.751Z" fill="#191919"></path><path d="M95.459 125.622a20.665 20.665 0 0 0 2.2-6.13 3.555 3.555 0 0 0 3.115-1.065c.311-.405.068-1.009-.467-.785a4.221 4.221 0 0 1-3.819.256c-6.229-2.349-4.062-16.154-3.351-19.673.143-.723-.686-.972-.9-.249-1.483 5.114-3.221 19.2 4.148 21.286a44.714 44.714 0 0 1-1.868 5.955.511.511 0 0 0 .942.405Z" fill="#191919"></path><path d="M103.844 88.413c-9.6-1.179-12.428 6.23-11.606 7.787s8.9 2.716 12.634 2.442c-.517 4.666 2.915 9.911 3.538 8.292.268-.717 3.277-1.726 2.691 1.246a4.537 4.537 0 0 1-2.847 3.363c-.847.3-1.482 3.688-1.489 4.666 0 1.246 1.01.9 1.084.492a30.513 30.513 0 0 1 .885-3.843c2.8-1.059 4.572-4.361 3.538-6.691 3.906-5.693.984-16.597-8.428-17.754Z" fill="#191919"></path><path d="M166.55 119.137a6.139 6.139 0 0 0-1.184-2.037 30.779 30.779 0 0 0 1.352-4.117c-.031-.623-2.865-1.39-3.308-1.421s-1.806 1.769-2.46 3.408a7.138 7.138 0 0 0-2.934.392c-.835-1.1-2.274-2.791-2.573-2.678s-2.86 1.121-2.916 1.713c-.043.417 1.2 2.454 1.956 3.737a6.511 6.511 0 0 0-.959 2.074c-1.321.038-4.018.655-4.037.979s.056 3.625.349 3.737a41.085 41.085 0 0 0 4.853.43 8.452 8.452 0 0 0 1.04 1.14c-.623 1.128-1.607 3.289-1.5 3.738.15.623 3.009 1.738 3.57 1.595.405-.106 1.42-2.087 1.974-3.433a7.057 7.057 0 0 0 2.274-.224c.829 1.439 2.081 3.507 2.455 3.507.529 0 3.114-1.538 3.183-1.95s-1.246-2.554-2.025-3.918a6.208 6.208 0 0 0 .9-1.626 24.274 24.274 0 0 0 4.405-.324 11.091 11.091 0 0 0 0-4.249c-.291-.41-3.094-.573-4.415-.473Zm-6.441-.405c4.049-.168 4.952 5.6.23 5.925-3.669.252-4.639-5.744-.23-5.925Z" fill="#191919"></path><path d="M55.3 91.784c5.4-3.17 9.817-8.379 6.086-13.456-2.274-3.1-7.021-1.919-7.176-6.18 0-1.968.56-3.276 0-5.706-2.237-9.917-14-12.459-21.941-9.544-.89.324-.7 1.77.206 1.464 7.606-2.547 20.975.206 20.557 11.294-.068 1.8-.43 3.738.679 5.3 1.807 2.554 5.962 2.062 7.158 5.2 1.308 3.427-1.819 7.551-4.492 9.345-9.967 6.578-22.332 6.229-31.234-2.3a17.1 17.1 0 0 1-2.8-21.573.562.562 0 0 0-.885-.691c-4.778 5.824-3.688 15.206.716 20.962 7.794 10.177 22.242 12.273 33.126 5.885Z" fill="#191919"></path><path d="M48.265 83.8c-2.419 2.029-7.644 1.869-8.1-1.532a.368.368 0 0 0-.7 0c-.716 4.4 6.093 5.152 9.569 2.317 3.737-3.04 3.619-8.721-.835-8.553-.623 0-.916 1.072-.174 1.2 3.275.568 2.767 4.445.24 6.568Z" fill="#191919"></path><path d="M117.424 169.963c-6.659.441-20.177.723-28.494-.092-.517-.05-.691.952-.168 1.176 3.738 1.639 24.395.954 28.656.524.996-.106 1.053-1.677.006-1.608Z" fill="#38a1ff"></path><path d="M96.68 150.764c.358.567 1.383.093 1.084-.541-.455-.948-.928-1.869-1.4-2.817a12.672 12.672 0 0 1 3.607-1.5 67.988 67.988 0 0 0 3.4 7.127.488.488 0 0 0 .86-.43c-.486-1.669-5.158-11.873-5.893-13.4-1.358-2.809-7.382-1.321-5.775 2.9a43.063 43.063 0 0 0 4.117 8.661Zm1.869-7.967.878 1.944a16.406 16.406 0 0 0-3.632 1.532c-.286-.623-.567-1.246-.853-1.869a11.718 11.718 0 0 1 3.607-1.604Z" fill="#38a1ff"></path><path d="M101.863 159.884c-.328-.471-1.1 0-.517 1.246.829 1.782 3.88 4.137 5.47 5.482 2.1 1.782 2.142.972 1.706-1.445-.274-1.489-.548-2.984-.841-4.479-.155-.791-.859-1.3-1.028-.623a8.434 8.434 0 0 0 .244 3.171l-1.483.81a28.641 28.641 0 0 1-3.551-4.162Z" fill="#38a1ff"></path><path d="M108.067 63.757c-1.775-.116-11.368.374-12.153 1.146-.5.486.193 8.254.442 9.214.361 1.414 5.607 6.41 6.852 7.643.38.374 1.165.343 1.334.081a59.634 59.634 0 0 0 4.715-7.83c.617-1.34-.224-10.191-1.19-10.254Zm-2.149 13.275a16.172 16.172 0 0 0-4.728.511q-1.426-1.589-2.865-3.171c1.787-.293 7.475-1.009 9.531-.5q-.979 1.602-1.938 3.16Z" fill="#38a1ff"></path><path d="M97.334 53.416a45.18 45.18 0 0 1 2.554 7.874.317.317 0 0 0 .623-.118 29.8 29.8 0 0 0-1.869-7.572 11.636 11.636 0 0 0 4.025-.48 17.465 17.465 0 0 0 .274 7.725.486.486 0 0 0 .947-.194 24.4 24.4 0 0 1 .162-8.029c2.005-.854 5.095-3.009 4.161-5.333-.418-1.04-3.669-2.137-5.245 4.467a10.67 10.67 0 0 1-4.828.5c-.573-1.37-1.57-3.818-3.115-4.018-2.778-.36-2.959 4.062 2.311 5.178Zm8.989-5.526c.9-.431.922.069.623.829a5.264 5.264 0 0 1-2.535 2.38c.33-1.091.778-2.662 1.912-3.209Zm-11.256 1.62c.673.268 1.214 1.663 1.588 2.43a3.559 3.559 0 0 1-2.137-1.64c-.436-.908.187-.933.549-.79Z" fill="#38a1ff"></path><path d="M18.344 127.6c-1 2.2-.909 2.953.991 4.554 7.07 5.961 15.43 4.254 20.046-2.156 1.352-1.869 1.433-2.223-.156-4.548-5.382-7.889-17.109-6.156-20.881 2.15Zm.53 2.136c3.737-9.481 15.249-11.094 20.015-1.688-5.856 8.245-13.089 7.747-20.015 1.685Z" fill="#38a1ff"></path><path d="M24.935 127.927c-.33 6.467 10.989 5.1 7.88-1.645-1.815-3.943-7.615-3.569-7.88 1.645Z" fill="#38a1ff"></path><path d="M195 131.266c-.037-.511-.923-3.738-1.632-3.787a20.251 20.251 0 0 0-3.5 1.114 8.1 8.1 0 0 0-3.532-2.1c-.038-1.608-.274-3.644-.586-3.869-.473-.336-4.566-.361-4.871 0a17.744 17.744 0 0 0-.33 3.819 8.049 8.049 0 0 0-2.991 1.676 15.8 15.8 0 0 0-3.432-1.707c-.467.056-2.23 3.053-2.224 3.657 0 .342 1.551 1.345 3.021 2.218a9.063 9.063 0 0 0-.336 3.675c-1.346.623-2.747 1.426-2.841 1.788-.168.623 1.152 3.924 1.832 4.093a10.455 10.455 0 0 0 3.3-1.215 10.692 10.692 0 0 0 2.367 2.068 40.253 40.253 0 0 0 .436 4.173c.138.343 3.825.437 4.3.4.286 0 .778-1.9 1-3.451a8.568 8.568 0 0 0 3.538-1.67 13.482 13.482 0 0 0 3.239 1.627c.679-.069 1.788-2.916 1.956-3.352.1-.268-1.04-1.315-2.149-2.217a9.431 9.431 0 0 0 .623-4.61c1.473-.847 2.812-1.996 2.812-2.33Zm-16.483 3.563c.517-7.712 10.011-6.354 9.743.33-.312 7.339-10.161 5.576-9.768-.33Z" fill="#38a1ff"></path><path d="M20.188 57.309c1.833 2.371 2.093 7.021 6.086 7.787 5.115.985 6.853-5.382-.286-9.219a18.549 18.549 0 0 0-9.095-2.106c-.586 0-.542.623-.368 1.016.312.797 2.175.6 3.663 2.522Z" fill="#38a1ff"></path><path d="M31.968 63.95a.455.455 0 0 0-.5.748c1.943 1.607 3.943 3.114 5.918 4.722a5.691 5.691 0 0 1-3.034 2.84c-1.607-2-3.345-4.56-4.834-6.229-.318-.361-.86.081-.661.486C30.211 69.258 41.562 83.424 43.8 83.8a.487.487 0 0 0 .623-.574c-.05-.18-8.36-8.864-9.344-10.023a6.591 6.591 0 0 0 3.245-2.921 69.145 69.145 0 0 1 9.245 9.861c.473.623 1.5-.044 1.028-.673-3.254-4.307-11.627-13.339-16.629-15.52Z" fill="#38a1ff"></path><path d="M58.425 91.541c-.4-.248-1.016.2-.723.623 1.638 2.354 3.233 4.267 4.853 6.783-.972-.274-6.853-4.541-7.881-5.207-.454-.3-.859.342-.467.685a67.606 67.606 0 0 0 6.741 4.983c2.8 1.782 3.544.555 2-1.943-.636-1.04-3.529-5.309-4.523-5.924Z" fill="#38a1ff"></path></svg>