<svg xmlns="http://www.w3.org/2000/svg" width="432" height="432" viewBox="0 0 432 432" fill="none"><g clip-path="url(#clip0_1391_402)"><path d="M346.272 136.449C344.479 133.028 343.072 129.418 342.075 125.686C343.097 123.445 344.397 121.34 345.943 119.422C344.028 116.911 341.818 114.64 339.36 112.657C338.699 112.478 333.402 117.776 332.545 118.945C334.462 120.927 335.859 123.353 336.61 126.006C336.303 129.759 335.608 133.47 334.536 137.08C338.381 136.18 342.353 135.967 346.272 136.449Z" fill="#3B85F8"></path><path d="M113.165 238.881C123.472 243.166 131.648 242.173 137.473 255.487C139.119 259.405 140.188 263.98 141.011 265.805C141.62 267.123 144.022 267.041 143.793 265.315C143.412 263.394 142.861 261.51 142.147 259.686C137.441 245.184 131.218 240.808 113.774 236.971C112.787 236.736 112.013 238.403 113.165 238.881Z" fill="#3B85F8"></path><path d="M42.1502 266.004C44.0208 261.993 44.3383 247.193 58.212 242.767C61.817 241.613 65.651 241.233 69.2734 240.084C69.5465 239.95 69.7651 239.726 69.8922 239.45C70.0193 239.174 70.0471 238.862 69.9709 238.568C69.8947 238.274 69.7192 238.014 69.474 237.835C69.2288 237.655 68.929 237.565 68.6254 237.581C64.6272 238.371 60.5945 239.093 56.6784 240.281C47.4941 243.063 41.8651 253.284 40.5173 265.769C40.3726 266.613 41.783 266.79 42.1502 266.004Z" fill="#3B85F8"></path><path d="M104.976 251.834C109.313 248.162 111.164 235.278 110.57 233.732C109.976 232.185 105.008 227.986 104.153 229.221C103.298 230.457 95.1005 236.874 91.6445 236.907C88.1885 236.939 80.7818 232.155 78.4793 229.221C77.6887 228.234 72.5371 234.915 72.4313 235.393C71.9539 237.352 75.5741 246.469 79.9178 251.966C81.4665 253.94 90.5839 239.985 92.4933 239.985C94.4028 239.985 103.205 253.329 104.976 251.834Z" fill="#3B85F8"></path><path d="M91.6553 242.849C90.7005 245.335 91.3097 254.96 91.5235 258.155C91.7698 261.742 94.8154 262.794 94.3315 255.668C94.135 253.1 93.8866 244.542 93.1478 242.767C93.0797 242.621 92.9696 242.499 92.8317 242.417C92.6938 242.334 92.5343 242.295 92.3738 242.304C92.2133 242.313 92.0592 242.369 91.9311 242.466C91.8031 242.563 91.707 242.697 91.6553 242.849Z" fill="#3B85F8"></path><path d="M213.08 151.721C199.353 152.293 194.417 164.987 194.877 172.804C194.992 174.729 196.968 175.338 197.379 173.973C198.57 170.388 200.869 167.274 203.943 165.079C207.018 162.884 210.71 161.722 214.488 161.76C222.718 162.123 230.239 166.534 232.362 171.059C233.652 163.944 228.977 151.06 213.08 151.721Z" fill="#3B85F8"></path><path d="M309.405 43.7097C310.976 43.6096 312.54 43.9989 313.881 44.824C315.222 45.649 316.274 46.8693 316.894 48.317C317.758 50.8852 318.838 64.1346 320.944 64.0526C323.05 63.9705 326.162 50.4899 326.078 46.6732C334.405 46.0019 342.769 45.8973 351.11 46.36C352.19 52.1358 355.553 61.5664 357.346 61.5664C359.139 61.5664 363.355 48.5481 362.284 44.7184C363.323 44.3539 364.425 44.1998 365.524 44.2651C366.624 44.3304 367.699 44.6137 368.688 45.0986C369.708 45.7898 368.373 39.2558 359.569 38.4026C362.861 35.439 367.073 33.184 368.967 33.184C370.861 33.184 363.93 27.7214 348.034 31.8513C349.456 28.3779 351.864 25.3973 354.961 23.2782C356.607 22.4142 339.442 18.915 325.568 34.6658C316.367 29.5962 310.526 32.6246 312.176 33.4151C314.639 35.1654 316.537 37.5961 317.639 40.4092C312.286 39.8584 306.21 43.9408 309.405 43.7097Z" fill="#3B85F8"></path><path d="M384.34 235.591C382.704 233.932 356.908 223.361 355.422 222.199C353.935 221.037 351.75 211.453 350.961 210.68C350.6 210.352 345.2 211.304 340.988 211.328C336.267 211.328 331.294 210.52 331.115 211.146C330.882 212.315 328.629 220.495 328.307 221.892C327.985 223.29 302.73 231.01 298.205 235.52C293.054 240.671 283.837 279.873 285.744 287.461C286.157 289.105 298.434 290.604 309.675 291.181C310.006 280.94 309.593 270.69 308.439 260.509C308.405 260.282 308.461 260.051 308.596 259.865C308.73 259.679 308.931 259.553 309.157 259.514C309.383 259.475 309.616 259.526 309.805 259.656C309.993 259.787 310.124 259.986 310.167 260.211C311.982 270.478 312.869 280.888 312.816 291.315C316.726 291.505 320.645 291.466 324.551 291.2C326.927 284.256 335.593 281.755 342.241 283.284C341.419 264.564 340.603 245.844 339.792 227.124C336.358 227.018 333.028 225.927 330.197 223.981C330.045 223.881 329.933 223.73 329.881 223.556C329.829 223.381 329.84 223.194 329.913 223.027C329.985 222.86 330.115 222.724 330.278 222.643C330.441 222.562 330.627 222.541 330.804 222.584C333.68 223.565 336.665 224.194 339.692 224.458C339.383 221.282 339.421 218.081 339.807 214.913C339.867 214.708 340.007 214.535 340.195 214.433C340.383 214.33 340.604 214.307 340.809 214.367C341.608 214.605 341.405 215.086 342.321 224.474C345.137 224.332 347.901 223.663 350.469 222.499C351.935 221.828 353.201 223.981 351.721 224.707C348.821 226.096 345.681 226.916 342.472 227.124L345.267 284.349C346.178 284.771 347.022 285.324 347.771 285.993C353.514 280.316 368.211 281.994 370.812 292.131H375.304C374.73 285.779 373.954 268.499 375.684 262.755C375.946 261.915 377.196 261.932 377.231 262.837C377.557 272.713 377.475 282.191 378.594 292.049C386.43 291.833 397.159 291.261 397.159 289.548C397.274 277.245 389.826 241.162 384.34 235.591ZM349.631 241.056C350.981 242.224 349.646 245.7 347.883 244.348C346.121 242.996 347.589 239.291 349.631 241.056ZM351.423 260.263C351.927 261.822 350.667 263.9 348.97 262.814C346.486 261.265 350.309 256.798 351.432 260.26L351.423 260.263ZM349.136 276.046C349.713 274.596 352.428 274.514 352.115 277.197C351.62 280.588 348.132 278.549 349.091 276.046H349.136Z" fill="#3B85F8"></path><path d="M361.759 358.299C354.73 360.482 347.21 360.522 340.159 358.413C337.869 357.739 337.295 360.255 339.079 361.221C345.2 364.629 356.737 363.856 363.055 361.485C365.133 360.703 363.828 357.661 361.759 358.299Z" fill="#3B85F8"></path><path d="M370.019 300.812C360.567 303.283 335.675 305.042 325.832 302.309C325.58 302.249 325.316 302.272 325.079 302.376C324.843 302.479 324.646 302.657 324.519 302.882C324.392 303.107 324.342 303.367 324.377 303.623C324.412 303.879 324.529 304.117 324.711 304.301C329.912 309.964 363.882 306.046 370.973 304.301C371.203 304.238 371.417 304.131 371.605 303.985C371.792 303.84 371.949 303.659 372.067 303.452C372.185 303.246 372.261 303.019 372.29 302.783C372.32 302.547 372.303 302.308 372.24 302.079C372.178 301.85 372.07 301.636 371.925 301.448C371.779 301.261 371.598 301.103 371.392 300.986C371.186 300.868 370.958 300.792 370.723 300.763C370.487 300.733 370.248 300.75 370.019 300.812Z" fill="#3B85F8"></path><path d="M97.0034 32.8816C97.5974 32.7844 98.2217 33.6549 97.5953 34.0329C94.3056 36.0914 88.1323 38.8562 83.3263 41.7851C87.5577 44.2043 98.2865 51.4122 101.958 55.7409C103.719 54.2764 115.042 28.4039 109.495 19.1548C103.948 9.90568 66.7051 6.994 54.4601 17.3771C45.3881 25.1294 54.0281 48.5157 57.7519 58.523C65.7331 50.8852 85.9982 34.6874 97.0034 32.8816ZM59.2833 37.4565C62.2101 32.5166 80.4513 21.4098 85.3675 22.2998C86.0436 22.4294 86.5361 23.4186 85.8449 23.6822C71.0337 29.1448 62.6227 37.7848 60.5491 38.9037C59.6441 39.3983 58.8038 38.2622 59.2833 37.4565Z" fill="#3B85F8"></path><path d="M114.318 339.258C104.229 353.082 81.8467 349.741 72.9086 340.574C32.9335 349.646 26.4988 377.966 25.5614 401.039C31.7498 405.039 42.7917 407.277 55.9742 408.296C53.6537 401.907 52.7171 395.097 53.2267 388.318C53.3412 387.238 55.0195 387.083 55.1707 388.219C55.6027 391.511 57.7627 406.553 59.549 408.523C83.0498 409.923 112.212 407.832 132.773 405.231C134.024 398.254 134.829 390.025 136.41 383.415C136.626 382.478 137.825 382.791 137.94 383.597C138.255 390.693 137.702 397.802 136.294 404.765C143.054 403.975 149.756 402.744 156.356 401.08C158.949 391.484 160.673 381.674 161.507 371.768C152.28 349.823 129.097 340.079 114.318 339.258ZM97.038 371.226C96.7183 372.146 95.4914 371.902 95.1458 371.226C93.9856 364.747 93.4346 358.174 93.4999 351.592C93.6017 351.323 93.7831 351.091 94.0198 350.928C94.2565 350.764 94.5374 350.677 94.8251 350.677C95.1127 350.677 95.3936 350.764 95.6303 350.928C95.867 351.091 96.0483 351.323 96.1502 351.592C96.6081 354.579 97.9538 368.578 97.0358 371.218L97.038 371.226ZM102.107 354.046C102.579 353.921 103.079 353.968 103.519 354.179C103.959 354.39 104.309 354.75 104.507 355.196C104.705 355.641 104.738 356.143 104.6 356.611C104.462 357.078 104.162 357.481 103.753 357.748C101.267 359.962 99.6213 354.925 102.105 354.037L102.107 354.046ZM103.244 366.552C101.598 366.552 100.652 362.949 103.244 363.081C103.672 363.126 104.069 363.328 104.358 363.648C104.647 363.968 104.807 364.384 104.807 364.815C104.808 365.246 104.649 365.662 104.361 365.982C104.073 366.303 103.677 366.506 103.248 366.552H103.244Z" fill="#3B85F8"></path><path d="M251.031 287.086C251.441 288.025 253.072 287.664 252.791 286.626C250.439 277.854 245.83 259.224 247.508 241.417C248.156 234.455 248.957 233.515 244.333 233.023C239.987 232.561 241.501 233.829 241.041 235.902C237.749 250.32 231.66 266.218 214.298 265.527C195.29 264.768 189.242 245.892 186.319 236.675C185.561 234.338 185.514 233.682 184.015 234.142C180.28 235.31 177.908 234.142 178.567 238.339C181.859 258.427 179.647 268.654 175.079 287.464C174.716 288.963 176.872 289.84 177.383 288.304C182.404 271.674 183.452 254.099 180.444 236.991L184.116 236.28C187.589 252.59 197.562 267.419 214.218 267.551C233.442 267.749 240.006 251.538 243.462 235.064L245.996 235.507C243.378 246.65 246.499 276.737 251.031 287.086Z" fill="#101828"></path><path d="M224.189 188.916C221.845 191.618 218.653 193.446 215.136 194.1C214.33 194.266 211.844 194.231 211.22 195.417C210.233 197.376 215.203 204.468 220.94 200.141C222.616 198.847 223.959 197.171 224.858 195.253C225.757 193.335 226.185 191.231 226.107 189.114C226.066 187.961 225.31 187.654 224.189 188.916ZM212.76 196.108C214.898 196.129 217.015 195.69 218.969 194.821C220.923 193.952 222.666 192.673 224.083 191.071C223.344 196.882 216.6 203.662 212.76 196.108Z" fill="#101828"></path><path d="M221.616 177.133C219.972 177.697 221.022 182.414 222.372 182.068C224.106 181.79 223.795 176.381 221.616 177.133Z" fill="#101828"></path><path d="M207.36 177.593C205.813 177.342 204.662 181.989 206.686 182.727C208.405 183.336 208.872 177.837 207.36 177.593Z" fill="#101828"></path><path d="M220.733 171.653C222.421 171.848 224.023 172.509 225.357 173.563C227.15 175.209 227.431 172.936 226.437 171.686C225.761 170.887 224.934 170.231 224.002 169.755C223.071 169.278 222.054 168.992 221.011 168.912C219.35 168.953 218.691 170.994 220.733 171.653Z" fill="#101828"></path><path d="M214.825 190.462C215.778 190.462 220.914 189.788 219.892 187.946C219.186 186.628 214.479 190.365 211.088 187.797C209.706 186.76 209.179 190.43 214.825 190.462Z" fill="#101828"></path><path d="M203.666 174.845C204.791 173.611 206.359 172.871 208.027 172.787C210.561 172.245 209.92 169.661 207.846 170.022C206.2 170.32 202.908 171.668 202.202 174.269C201.807 175.586 203.152 175.392 203.666 174.845Z" fill="#101828"></path><path d="M271.767 285.276C271.789 285.553 271.912 285.812 272.113 286.005C272.314 286.197 272.579 286.309 272.857 286.32C273.135 286.33 273.407 286.238 273.622 286.061C273.837 285.884 273.979 285.635 274.022 285.36C274.188 271.665 271.719 239.44 250.076 235.987C249.335 235.855 249.186 236.972 249.86 237.252C268.46 244.92 271.817 266.859 271.767 285.276Z" fill="#101828"></path><path d="M174.455 240.79C174.712 240.684 174.921 240.488 175.043 240.237C175.165 239.987 175.191 239.701 175.116 239.433C175.041 239.165 174.87 238.934 174.636 238.784C174.402 238.633 174.12 238.574 173.845 238.617C156.997 241.153 150.805 271.138 153.142 283.219C153.306 284.083 154.639 283.843 154.639 283.02C154.671 266.367 157.537 247.825 174.455 240.79Z" fill="#101828"></path><path d="M254.059 174.696C262.896 174.55 261.038 162.058 253.549 159.967C260.511 156.444 257.91 145.634 249.912 146.359C254.372 140.022 249.286 132.633 242.423 136.385C245.231 128.585 235.248 122.034 228.699 129.112C227.975 119.96 214.05 118.398 213.639 127.861C210.743 118.299 194.199 122.66 197.182 132.322C190.434 125.161 177.12 134.41 183.045 142.508C174.321 139.612 168.495 153.74 175.269 158.52C165.707 158.52 166.381 171.571 174.956 172.789C169.541 173.284 168.372 185.643 177.703 184.607C172.124 193.478 181.127 200.176 186.263 196.474C184.751 206.941 197.042 204.291 199.971 200.653C201.568 203.488 203.528 206.102 205.803 208.429C205.178 211.021 207.747 230.103 188.209 233.593C187.255 233.757 187.551 235.321 188.49 235.239C200.85 234.317 208.239 223.027 208.075 210.289C210.481 211.669 213.258 212.265 216.018 211.994C218.778 211.723 221.386 210.598 223.478 208.777C222.754 217.004 226.886 234.747 237.879 234.632C238.127 234.598 238.355 234.475 238.52 234.286C238.685 234.096 238.776 233.854 238.776 233.603C238.776 233.352 238.685 233.109 238.52 232.92C238.355 232.731 238.127 232.608 237.879 232.574C225.783 232.213 226.029 211.723 225.288 206.703C226.276 205.419 227.162 204.06 227.938 202.638C234.522 208.563 244.693 206.062 240.611 197.191C245.763 203.116 255.835 194.063 249.795 187.002C258.751 189.493 261.144 178.366 254.059 174.696ZM191.305 177.148C193.117 176.589 194.679 178.228 195.979 179.207C194.888 183.277 194.934 187.569 196.113 191.616C191.784 192.389 188.888 177.889 191.305 177.148ZM224.221 204.848C220.616 210.164 212.702 211.874 208.159 207.727C203.146 202.953 199.581 196.861 197.873 190.151C196.113 182.794 198.521 179.438 197.625 178.021C196.382 176.535 194.729 175.448 192.873 174.895C188.495 141.947 238.773 139.296 234.904 172.986V173.051L232.47 174.696C231.606 171.141 230.049 171.917 230.001 172.871C229.653 178.794 236.021 187.469 224.221 204.848ZM232.839 191.456C233.782 186.678 233.778 181.761 232.829 176.984C240.298 169.56 240.624 185.231 232.848 191.458L232.839 191.456Z" fill="#101828"></path><path d="M97.349 188.06C95.7031 188.438 96.3295 192.653 97.349 192.553C98.3686 192.454 98.8632 187.704 97.349 188.06Z" fill="#101828"></path><path d="M92.2147 200.552C92.2957 200.392 92.3218 200.211 92.289 200.035C92.2562 199.859 92.1663 199.699 92.0333 199.58C91.5732 199.148 89.4413 199.415 88.033 198.461C89.6326 196.345 90.7556 193.908 91.3248 191.318C91.3646 191.134 91.3359 190.941 91.244 190.777C91.1522 190.613 91.0035 190.487 90.8259 190.425C90.6483 190.362 90.454 190.367 90.2794 190.437C90.1048 190.508 89.9619 190.639 89.8776 190.808C89.014 193.415 87.6979 195.85 85.9896 198.001C84.3977 199.597 90.8971 202.675 92.2147 200.552Z" fill="#101828"></path><path d="M96.066 203.12C91.9858 206.414 89.1367 203.284 88.8559 205.686C88.0999 211.775 99.4875 214.542 99.3406 202.878C99.2909 199.187 97.1849 202.215 96.066 203.12ZM90.6336 206.41C91.9271 206.543 93.2342 206.395 94.4648 205.975C95.6954 205.554 96.8202 204.872 97.7616 203.975C97.9733 209.736 90.6336 210.669 90.6336 206.41Z" fill="#101828"></path><path d="M135.629 226.39C137.283 222.214 141.011 219.262 137.274 214.194C133.538 209.127 127.565 212.27 128.734 206.313C129.967 200.049 137.061 195.549 127.088 189.361C125.075 188.437 123.364 186.965 122.15 185.112C120.638 181.524 125.952 178.217 121.934 172.368C117.917 166.519 111.467 170.279 110.201 167.744C109.493 166.329 111.138 163.728 109.575 160.568C106.168 153.82 97.6601 154.38 92.9426 159.514C91.921 158.079 90.6267 156.86 89.1337 155.925C87.6408 154.99 85.9783 154.359 84.2413 154.067C82.5042 153.775 80.7267 153.828 79.0102 154.223C77.2936 154.618 75.6717 155.347 74.237 156.369C61.709 165.225 75.4229 178.967 64.8324 180.053C58.7844 180.68 52.9524 189.007 58.5468 194.741C60.7997 197.046 60.8839 198.379 60.1906 201.504C59.4972 204.63 57.0326 203.809 54.7452 205.01C52.855 206.016 51.4028 207.685 50.6674 209.696C49.9319 211.707 49.9649 213.919 50.76 215.907C51.7298 218.244 54.1814 219.808 54.0497 222.491C53.5248 229.863 48.06 225.781 43.781 229.567C42.2646 230.835 41.2794 232.627 41.0202 234.587C40.761 236.546 41.2467 238.532 42.3814 240.151C42.5054 240.288 42.6726 240.378 42.8551 240.407C43.0375 240.435 43.2243 240.4 43.3841 240.308C43.544 240.215 43.6674 240.071 43.7337 239.899C43.8 239.726 43.8053 239.536 43.7486 239.361C42.3662 236.153 43.254 231.725 46.8742 230.492C50.166 229.355 54.4622 230.096 55.9094 226.064C58.4777 218.953 54.3802 218.525 53.0798 214.41C52.7748 213.327 52.7779 212.181 53.0889 211.099C53.3999 210.018 54.0064 209.044 54.8402 208.289C58.1321 205.375 61.6702 208.52 62.9878 201.262C64.3853 193.592 58.7088 193.486 59.022 189.741C59.3382 187.456 60.5149 185.379 62.3117 183.933C65.3076 181.596 69.6038 184.311 71.496 178.353C72.8287 174.107 70.3447 169.878 71.2649 165.609C73.5523 155.043 86.9832 153.628 91.327 161.873C91.4245 162.089 91.5725 162.278 91.7585 162.425C91.9445 162.572 92.1631 162.673 92.3959 162.718C92.6286 162.763 92.8689 162.751 93.0963 162.684C93.3238 162.617 93.5318 162.497 93.703 162.333C99.6278 154.812 108.607 158.417 108.004 164.493C107.823 166.437 107.214 168.342 108.762 169.923C111.838 173.033 116.644 169.275 119.871 173.707C123.098 178.14 118.323 181.311 119.64 185.624C120.874 189.607 125.22 190.709 127.967 193.327C132.905 198.033 123.591 204.155 126.321 210.276C128.148 214.309 133.665 212.631 135.702 216.86C137.739 221.089 131.127 224.925 132.708 230.036C134.091 234.447 139.981 233.738 141.957 237.596C142.548 238.788 142.692 240.153 142.363 241.442C142.033 242.731 141.253 243.859 140.162 244.622C138.815 245.659 140.525 247.683 141.808 246.646C142.674 245.999 143.404 245.188 143.956 244.259C144.508 243.33 144.872 242.302 145.026 241.232C145.181 240.163 145.123 239.073 144.856 238.026C144.589 236.979 144.119 235.994 143.472 235.129C140.441 231.135 133.648 231.394 135.629 226.39Z" fill="#101828"></path><path d="M84.4949 180.885C82.7348 181.282 81.186 182.321 80.1511 183.799C79.6068 184.686 80.1511 186.151 81.2031 184.9C82.2946 184.086 83.5739 183.56 84.9226 183.371C86.6355 183.058 85.7131 180.77 84.4949 180.885Z" fill="#101828"></path><path d="M83.9527 188.045C82.3068 188.069 82.6697 192.752 83.8382 192.488C85.0068 192.225 85.549 188.019 83.9527 188.045Z" fill="#101828"></path><path d="M96.336 180.952C95.6254 183.069 98.4744 182.598 99.9562 183.946C101.438 185.293 101.881 184.226 101.602 183.298C101.265 181.954 97.2 178.33 96.336 180.952Z" fill="#101828"></path><path d="M112.951 186.168C112.131 185.792 111.214 185.682 110.329 185.853C109.443 186.024 108.633 186.468 108.013 187.123C106.648 171.664 97.5067 167.467 91.0138 171.223C86.7629 166.64 75.8592 170.472 74.5394 187.188C72.481 185.097 68.0875 185.065 67.9558 188.603C67.8067 192.8 69.0746 201.995 73.1894 203.99C73.5916 204.192 74.0354 204.298 74.4855 204.298C74.9355 204.298 75.3793 204.192 75.7814 203.99C77.1466 209.241 79.5161 215.33 83.8296 218.804C83.1535 223.297 81.8856 226.439 81.3931 229.418C81.2938 230.094 83.2853 233.829 85.6051 220.005C87.5511 221.072 89.7438 221.608 91.9626 221.559C94.1815 221.51 96.3484 220.878 98.2455 219.726C99.2823 232.742 101.801 230.504 101.142 226.176C100.747 223.543 100.516 220.877 100.187 218.244C104.291 214.54 105.98 209.01 106.883 203.662C111.551 206.148 118.485 188.784 112.951 186.168ZM70.1611 190.462C69.9451 186.004 72.1354 187.616 74.4811 189.443C74.2584 193.691 74.5851 197.951 75.4531 202.116C71.3059 203.459 69.9451 190.462 70.1611 190.462ZM104.073 207.546C102.33 214.328 97.2432 221.223 89.2599 219.331C79.3865 216.955 75.6324 199.055 76.0947 190.512C76.7902 182.65 78.7471 171.835 86.6441 171.75C91.2535 171.701 88.5125 175.422 91.8432 173.396C93.4034 172.407 95.2734 172.029 97.0955 172.332C98.9175 172.636 100.564 173.601 101.719 175.042C108.343 182.52 106.369 198.578 104.064 207.546H104.073ZM108.335 201.606C107.79 202.038 107.875 201.474 107.363 201.325C107.644 197.392 107.94 193.458 108.227 189.542C116.208 182.332 112.549 198.288 108.326 201.606H108.335Z" fill="#101828"></path><path d="M184.788 65.5324C186.227 77.0516 193.018 80.5249 192.689 77.1683C192.573 75.9824 189.017 74.6346 187.602 66.6685C186.829 62.3075 187.685 59.6075 192.277 60.4628C192.376 69.9107 196.787 88.4413 204.654 94.3014C204.258 99.831 202.908 107.693 203.008 108.421C203.027 108.611 203.12 108.786 203.267 108.907C203.415 109.029 203.604 109.087 203.794 109.069C205.617 108.901 206.386 97.1893 206.481 95.3641C209.007 96.3112 211.713 96.6815 214.401 96.4479C217.089 96.2144 219.691 95.3828 222.016 94.0141C222.016 98.7056 222.378 104.581 224.634 108.827C224.726 108.985 224.871 109.106 225.043 109.169C225.215 109.233 225.403 109.234 225.576 109.174C225.749 109.113 225.896 108.995 225.991 108.838C226.086 108.682 226.124 108.497 226.098 108.315C224.646 102.885 224.09 97.2541 224.452 91.6446C230.096 84.2725 231.364 66.3726 229.852 57.6592C231.07 56.7952 232.876 55.3069 234.377 56.5576C237.669 59.3051 233.982 70.3815 231.679 72.7575C230.841 73.6216 232.206 75.1336 233.325 74.2868C236.863 71.5544 239.589 59.3267 236.319 55.2788C235.558 54.3824 234.476 53.82 233.305 53.7122C232.134 53.6043 230.967 53.9597 230.055 54.7021C231.522 48.531 232.509 29.078 232.245 22.6758C231.932 15.1871 226.156 14.5628 224.757 20.1918C225.234 15.9776 216.659 11.1392 215.253 19.088C214.955 12.5044 205.101 12.5044 204.736 20.2739C204.191 16.01 194.86 12.7139 194.86 22.5289C192.24 17.3449 186.384 18.5286 186.384 24.7667C187.415 35.97 189.3 47.0781 192.024 57.994C187.998 56.5792 184.101 60.0179 184.788 65.5324ZM195.832 40.0228C204.813 38.5878 213.918 38.0862 223.003 38.5259C225.439 47.7426 228.977 59.7716 228.403 69.038C228.042 74.87 226.297 87.141 221.821 91.4545C218.529 94.7442 211.155 94.7442 207.684 93.3985C202.746 91.5042 197.612 77.6154 196.411 73.0405C192.804 59.3612 195.264 53.1901 195.832 40.0228Z" fill="#101828"></path><path d="M211.401 73.3342C213.803 73.4962 217.408 71.6883 216.337 69.7464C215.812 68.7593 214.972 70.3059 213.786 70.8653C212.786 71.3126 211.674 71.4487 210.596 71.2561C209.517 71.0635 208.522 70.5511 207.738 69.7853C206.61 68.1502 204.949 72.8979 211.401 73.3342Z" fill="#101828"></path><path d="M199.271 56.3004C200.645 54.648 201.509 54.1274 204.932 53.5853C205.164 53.5158 205.38 53.4012 205.568 53.2482C205.755 53.0951 205.911 52.9066 206.026 52.6933C206.141 52.4801 206.212 52.2463 206.237 52.0054C206.261 51.7644 206.237 51.5211 206.168 51.2892C205.135 47.8332 197.515 51.9847 197.361 55.1772C197.312 56.16 198.575 57.1363 199.271 56.3004Z" fill="#101828"></path><path d="M220.633 72.6602C215.374 80.4881 207.386 76.9154 211.345 81.6782C217.177 88.3937 224.938 80.9697 222.718 73.2024C222.311 71.82 221.197 71.8221 220.633 72.6602ZM212.62 80.1144C215.823 79.3256 218.721 77.6042 220.946 75.168C221.504 81.9569 215.302 84.2789 212.62 80.1144Z" fill="#101828"></path><path d="M200.588 63.4587C200.899 64.2104 202.964 63.2427 204.539 63.6229C205.74 63.9037 206.727 63.1304 205.708 62.3075C203.904 60.8927 200.038 62.1325 200.588 63.4587Z" fill="#101828"></path><path d="M159.805 164.724C161.454 151.787 161.337 133.816 172.873 125.224C179.604 120.288 188.311 120.435 198.679 113.095C207.22 120.418 222.007 119.448 230.31 113.013C240.449 119.277 256.329 115.054 264.034 125.541C269.711 133.261 271.966 149.027 274.253 154.31C274.322 154.524 274.468 154.704 274.662 154.816C274.857 154.928 275.086 154.964 275.305 154.916C275.524 154.869 275.718 154.742 275.849 154.56C275.98 154.377 276.039 154.153 276.013 153.93C276.013 146.822 269.86 127.814 265.203 122.563C256.973 113.363 242.687 115.979 232.073 110.912C230.606 110.22 229.768 109.875 228.928 110.566C222.115 116.128 207.861 117.806 199.552 110.845C199.419 110.687 199.256 110.558 199.072 110.466C198.888 110.375 198.687 110.322 198.481 110.311C198.276 110.3 198.07 110.332 197.878 110.404C197.685 110.476 197.509 110.587 197.361 110.73C186.024 118.547 177.252 118.053 171.029 122.843C161.309 130.365 156.218 152.63 158.309 164.646C158.455 165.497 159.706 165.497 159.805 164.724Z" fill="#101828"></path><path d="M216.026 52.8098C217.309 53.272 220.32 52.8098 221.655 54.8013C222.674 56.3003 224.78 54.6047 223.53 52.7774C222.774 51.7887 221.826 50.9628 220.743 50.3493C219.659 49.7357 218.464 49.3472 217.227 49.2069C216.778 49.1383 216.319 49.2307 215.931 49.4677C215.543 49.7047 215.252 50.0712 215.108 50.5023C214.964 50.9334 214.978 51.4014 215.146 51.8236C215.314 52.2459 215.625 52.5951 216.026 52.8098Z" fill="#101828"></path><path d="M220.897 61.8127C221.018 61.8919 221.164 61.9229 221.307 61.8994C221.449 61.8759 221.578 61.7996 221.667 61.6858C221.756 61.572 221.799 61.4288 221.788 61.2847C221.776 61.1406 221.711 61.006 221.605 60.9076C219.959 58.8189 215.795 60.3158 216.667 61.8472C217.16 62.586 219.084 60.8256 220.897 61.8127Z" fill="#101828"></path><path d="M346.032 165.957C345.112 166.285 344.848 168.476 346.198 168.508C347.896 168.333 349.602 168.758 351.019 169.709C352.665 170.813 353.259 169.299 352.516 168.277C351.708 167.388 350.695 166.712 349.564 166.307C348.433 165.903 347.22 165.783 346.032 165.957Z" fill="#101828"></path><path d="M331.426 176.31C330.657 176.835 330.916 177.956 332.29 177.494C333.113 177.248 333.77 177.757 334.742 178.17C335.714 178.582 335.91 177.906 335.39 177.09C334.965 176.464 334.31 176.031 333.568 175.885C332.826 175.739 332.056 175.892 331.426 176.31Z" fill="#101828"></path><path d="M346.19 177.165C346.629 176.958 347.108 176.85 347.594 176.85C348.079 176.85 348.559 176.958 348.998 177.165C350.294 177.66 350.33 176.623 349.736 176.029C349.19 175.459 348.439 175.13 347.65 175.113C346.86 175.097 346.097 175.394 345.527 175.941C344.57 176.889 345.267 177.478 346.19 177.165Z" fill="#101828"></path><path d="M334.964 167.29C329.689 166.642 326.048 172.69 330.011 171.191C331.488 170.37 333.162 169.972 334.85 170.039C336.364 170.122 336.515 167.482 334.964 167.29Z" fill="#101828"></path><path d="M342.321 183.468C343.185 183.287 342.699 181.987 341.876 182.153C340.796 182.393 339.687 182.47 338.584 182.382C338.8 180.293 341.334 175.8 340.347 175.552C338.785 175.191 336.595 182.136 337.055 183.304C337.515 184.473 341.433 183.6 342.321 183.468Z" fill="#101828"></path><path d="M345.695 185.149C337.958 188.065 334.202 184.172 336.71 189.378C339.459 195.055 346.948 195.484 347.771 186.924C347.976 184.896 347.976 184.095 345.695 185.149ZM337.729 188.11C340.595 188.434 343.496 188.015 346.153 186.892C345.399 193.607 339.721 193.031 337.729 188.11Z" fill="#101828"></path><path d="M372.637 161.432C358.318 123.859 310.278 139.411 308.947 175.37C307.843 203.612 324.039 228.135 326.752 219.609C327.015 218.745 329.221 210.442 329.435 209.274C329.698 207.842 331.97 209.058 335.051 208.961C335.182 207.317 335.496 204.025 335.629 202.379C337.388 203.409 339.4 203.924 341.436 203.865C343.473 203.807 345.452 203.177 347.149 202.049C347.263 204.271 347.378 206.509 347.477 208.732C349.436 208.732 352.661 207.827 353.007 209.045C353.99 212.926 355.25 216.731 356.776 220.432C357.64 221.37 380.048 231.146 381.832 231.509C383.104 208.699 379.598 179.699 372.637 161.432ZM323.132 173.96C323.078 178.412 323.659 182.849 324.86 187.136C318.278 182.088 317.438 171.422 323.136 173.956L323.132 173.96ZM351.538 194.713C347.306 200.683 341.893 204.835 334.949 199.651C326.424 193.249 324.862 181.12 325.369 171.212C325.519 168.316 325.946 165.419 326.233 162.538C333.128 157.008 347.974 156.203 355.512 160.991C359.247 172.714 358.573 184.784 351.538 194.709V194.713ZM357.331 186.486C358.75 181.977 359.45 177.272 359.405 172.545C367.682 166.994 364.392 184.358 357.331 186.481V186.486Z" fill="#101828"></path><path d="M337.943 80.9871C336.414 81.1167 337.353 83.011 341.336 83.2249C344.626 83.389 348.68 81.4645 348.445 77.5808C348.425 77.323 348.304 77.0835 348.108 76.915C347.912 76.7465 347.657 76.6627 347.399 76.6822C347.141 76.7017 346.902 76.8228 346.733 77.0188C346.565 77.2149 346.481 77.4699 346.501 77.7277C346.667 82.4192 338.915 80.9029 337.943 80.9871Z" fill="#101828"></path><path d="M344.479 57.1731C346.007 57.1854 347.505 57.5996 348.823 58.3741C350.138 59.2791 350.305 57.9637 349.546 56.8923C348.286 55.5979 346.63 54.7616 344.84 54.5163C343.194 54.3414 342.576 56.9917 344.479 57.1731Z" fill="#101828"></path><path d="M328.251 123.381C328.519 123.56 328.833 123.655 329.155 123.655C329.477 123.655 329.791 123.56 330.059 123.381C333.351 120.303 336.036 116.798 339.36 113.804C342.615 116.436 345.509 119.487 347.967 122.876C349.447 124.883 358.845 114.301 360.506 112.655C361.396 113.346 378.609 119.748 383.895 122.53C389.18 125.312 390.921 139.892 393.638 145.571C393.949 146.245 395.282 146.195 395.068 145.29C394.526 141.571 390.131 126.036 388.107 123.271C385.299 119.502 366.219 112.277 361.776 111.339C362.301 110.747 360.638 108.607 358.599 106.402C356.56 104.196 354.434 101.464 353.119 102.863C350.959 105.25 342.684 111.093 339.014 110.944C334.309 109.908 329.895 107.833 326.095 104.87C325.188 104.147 323.017 105.497 320.829 106.929C318.641 108.361 316.451 109.84 317.241 111.635C311.021 113.741 294.313 121.066 290.531 126.628C287.824 132.712 285.755 139.06 284.358 145.571C284.368 145.735 284.431 145.892 284.537 146.018C284.643 146.144 284.786 146.233 284.946 146.272C285.106 146.31 285.275 146.297 285.426 146.233C285.578 146.169 285.705 146.058 285.79 145.917C288.142 142.18 289.691 132.125 292.177 128.092C295.237 123.155 312.978 115.24 318.229 113.404C320.923 117.322 324.321 120.705 328.251 123.381ZM354.007 104.702C356.144 106.382 358 108.393 359.504 110.659C356.29 114.236 352.784 117.539 349.021 120.534C346.771 117.537 344.098 114.881 341.086 112.65C345.434 111.888 351.043 107.894 354.007 104.702ZM325.337 106.529C328.785 109.514 332.9 111.626 337.336 112.685C334.424 115.297 331.773 118.185 329.417 121.308C325.444 118.334 321.914 114.809 318.935 110.84C320.814 109.057 322.978 107.6 325.337 106.529Z" fill="#101828"></path><path d="M321.337 78.2719C322.324 83.3636 324.771 88.0581 328.38 91.7827C327.625 95.7064 327.407 99.7147 327.732 103.697C327.791 103.825 327.881 103.936 327.993 104.02C328.106 104.105 328.238 104.159 328.377 104.179C328.516 104.199 328.658 104.183 328.79 104.134C328.921 104.084 329.038 104.003 329.13 103.896C330.07 102.496 330.184 95.2063 330.299 93.4459C332.891 95.5129 336.059 96.7265 339.369 96.9199C342.678 97.1133 345.967 96.277 348.782 94.5259C349.142 96.9019 349.43 99.7596 349.862 102.131C350.013 102.87 351.853 102.673 351.838 101.9C351.724 99.0036 351.115 95.6361 350.974 92.7158C355.294 88.4865 357.046 82.4472 357.886 76.6216C364.47 76.3905 368.137 65.3313 366.444 61.2165C366.284 60.7513 366.022 60.3278 365.677 59.9771C365.332 59.6265 364.912 59.3576 364.45 59.1902C363.987 59.0228 363.493 58.9612 363.003 59.0098C362.514 59.0584 362.041 59.2161 361.621 59.4712C360.88 59.9486 361.621 61.1172 362.426 60.7219C363.958 60.0739 364.764 62.3678 364.751 63.4219C364.751 67.0269 362.394 73.9389 358.167 74.1031C358.595 70.7196 358.771 67.3088 358.692 63.8992C358.685 63.761 358.652 63.6253 358.593 63.5001C358.534 63.3748 358.451 63.2624 358.348 63.1692C358.246 63.076 358.126 63.004 357.996 62.9571C357.866 62.9102 357.727 62.8894 357.589 62.8959C357.451 62.9024 357.315 62.9361 357.19 62.9951C357.065 63.054 356.952 63.1371 356.859 63.2395C356.766 63.3419 356.694 63.4616 356.647 63.5919C356.6 63.7221 356.579 63.8603 356.586 63.9986C357.374 103.2 332.26 99.3319 325.201 83.4667C321.695 75.5848 323.127 70.4332 322.138 66.515C321.959 65.7417 320.887 65.9404 320.708 66.515C320.134 69.6278 320.195 72.8245 320.887 75.9132C318.963 75.7166 316.313 70.565 315.803 69.1653C315.293 67.7656 313.451 60.5426 316.742 61.2165C317.531 61.3807 318.14 60.2294 317.434 59.7348C314.438 57.646 311.293 61.7587 313.401 69.215C314.146 71.8351 317.881 79.192 321.337 78.2719Z" fill="#101828"></path><path d="M333.4 57.2399C334.934 57.1082 334.569 55.0022 333.517 54.8639C330.767 54.4838 326.045 57.8577 327.685 59.1083C328.728 59.8708 330.145 57.5186 333.4 57.2399Z" fill="#101828"></path><path d="M346.043 62.9986C344.019 63.1844 344.591 67.7053 346.155 67.4763C347.719 67.2473 347.801 62.8388 346.043 62.9986Z" fill="#101828"></path><path d="M332.052 67.7375C333.698 67.8498 333.847 63.0978 332.052 63.2792C330.258 63.4607 330.324 67.6208 332.052 67.7375Z" fill="#101828"></path><path d="M338.455 76.2308C339.375 76.2135 343.179 75.7534 341.991 73.9088C341.63 73.3342 338.338 74.5179 336.182 74.1399C336.614 72.6927 337.046 71.2434 337.465 69.7962C338.42 66.5043 336.694 66.3229 335.521 69.7962C334.059 74.1572 332.18 76.3366 338.455 76.2308Z" fill="#101828"></path><path d="M360.195 314.39C359.349 313.417 358.285 312.657 357.089 312.174C355.893 311.691 354.6 311.498 353.316 311.61C351.67 311.874 351.307 313.256 352.938 313.747C355.023 314.003 357.023 314.735 358.78 315.887C360.623 317.319 361.584 316.008 360.195 314.39Z" fill="#101828"></path><path d="M341.63 311.081C340.061 311.172 338.541 311.654 337.207 312.484C335.873 313.314 334.768 314.466 333.994 315.833C333.599 316.723 334.536 317.479 335.096 316.723C337.336 313.759 340.792 313.958 342.008 313.232C342.197 313.101 342.344 312.919 342.432 312.707C342.521 312.495 342.547 312.262 342.507 312.036C342.467 311.81 342.363 311.599 342.208 311.43C342.053 311.261 341.852 311.14 341.63 311.081Z" fill="#101828"></path><path d="M348.132 289.604C337.005 281.377 324.333 288.468 325.996 300.631C340.543 302.605 359.044 301.668 368.785 299.166C371.272 283.582 352.048 282.96 348.132 289.604Z" fill="#101828"></path><path d="M319.896 367.597C299.523 367.813 294.684 387.1 294.931 403.311C294.931 404.175 296.412 404.413 296.479 403.492C297.235 391.016 300.583 369.209 319.931 369.82C321.386 369.868 321.337 367.582 319.896 367.597Z" fill="#101828"></path><path d="M326.227 391.511C324.035 391.362 321.835 391.362 319.643 391.511C319.707 389.766 319.524 388.021 319.101 386.327C318.838 385.422 317.304 385.486 317.304 386.409C317.304 394.39 317.088 408.132 316.779 414.601C316.501 420.196 318.838 419.373 319.017 414.847C319.315 407.853 319.412 400.859 319.609 393.848C321.801 393.99 324 393.99 326.192 393.848C327.097 393.634 327.329 391.675 326.227 391.511Z" fill="#101828"></path><path d="M352.525 328.51C352.248 327.588 350.879 328.164 350.996 329.052C351.093 330.78 346.155 331.588 345.235 328.659C344.676 326.899 342.189 329.169 344.954 331.389C347.045 333.085 353.769 332.64 352.525 328.51Z" fill="#101828"></path><path d="M358.005 332.69C358.005 331.901 356.903 331.456 356.508 332.066C353.002 337.481 348.773 334.962 349.019 336.789C349.283 338.978 358.005 336.936 358.005 332.69Z" fill="#101828"></path><path d="M364.228 389.93C357.644 390.699 340.988 391.576 334.835 391.725C333.971 391.725 333.971 393.157 334.835 393.371C339.587 394.818 359.815 392.993 364.457 392.383C365.921 392.232 365.66 389.763 364.228 389.93Z" fill="#101828"></path><path d="M358.515 321.84C358.211 321.552 357.85 321.333 357.455 321.196C357.06 321.059 356.64 321.009 356.224 321.048C355.808 321.087 355.405 321.215 355.042 321.423C354.68 321.63 354.365 321.913 354.121 322.253C353.596 322.976 353.972 324.03 354.985 323.436C355.885 322.995 356.912 322.89 357.882 323.14C358.776 323.309 358.962 322.438 358.515 321.84Z" fill="#101828"></path><path d="M338.388 323.87C338.887 323.715 339.412 323.662 339.932 323.716C340.451 323.769 340.955 323.928 341.412 324.182C342.546 324.888 343.058 323.903 342.513 322.998C342.236 322.64 341.888 322.342 341.491 322.125C341.094 321.907 340.656 321.774 340.205 321.734C339.753 321.693 339.299 321.746 338.869 321.889C338.439 322.032 338.044 322.263 337.707 322.566C337.005 323.177 337.053 324.363 338.388 323.87Z" fill="#101828"></path><path d="M381.838 386.705C381.838 385.685 380.192 385.899 379.929 386.804C379.748 387.677 379.643 388.564 379.614 389.455C378.33 389.55 375.993 389.239 374.957 389.947C373.92 390.655 374.957 391.954 376.749 391.971H379.614C379.741 400.311 380.902 408.603 383.07 416.658C383.53 418.057 385.446 417.738 385.091 416.198C383.318 408.659 382.594 399.788 381.838 386.705Z" fill="#101828"></path><path d="M337.714 362.891C336.563 363.226 334.949 364.34 333.072 364.93C332.281 365.193 330.374 365.442 330.696 366.576C331.29 368.896 338.202 365.079 338.777 364.751C339.805 364.208 339.444 362.39 337.714 362.891Z" fill="#101828"></path><path d="M380.668 366.28C379.996 366.139 379.665 367.416 380.372 367.679C401.008 375.432 401.175 394.127 404.499 410.782C404.546 411.034 404.69 411.257 404.901 411.403C405.111 411.55 405.37 411.607 405.623 411.564C405.875 411.521 406.1 411.381 406.25 411.173C406.4 410.965 406.462 410.707 406.423 410.454C404.203 396.744 401.514 370.637 380.668 366.28Z" fill="#101828"></path><path d="M371.797 395.312C376.453 384.368 382.1 350.877 370.909 327.473C373.146 324.181 375.847 311.807 369.969 311.986C370.445 310.143 370.534 308.221 370.233 306.342C367.33 307.265 364.36 307.959 361.349 308.416C362 310.48 363.064 312.39 364.474 314.032C365.463 325.339 364.653 339.213 356.411 345.548C351.95 348.989 346.125 347.821 341.744 344.792C332.547 338.373 330.819 327.281 330.752 316.814C331.938 314.222 332.944 311.552 333.763 308.822C331.106 308.532 328.479 308.01 325.914 307.26C325.645 310.164 325.755 313.09 326.242 315.965C321.205 317.045 322.127 325.659 326.046 329.428C316.17 351.959 325.963 386.832 328.661 393.381C324.81 400.077 330.013 407.305 330.653 411.88C331.292 416.455 327.821 426.116 332.035 418.144C336.249 410.171 336.036 397.952 331.147 392.537C332.07 390.215 324.711 356.465 332.398 336.481C334.298 341.021 337.602 344.834 341.827 347.36C341.963 350.433 341.731 353.51 341.135 356.528C341.302 358.173 344.28 357.005 344.049 348.462C346.042 349.438 348.25 349.892 350.466 349.783C352.682 349.674 354.834 349.004 356.722 347.838C356.807 350.148 357.032 352.45 357.396 354.733C357.94 357.301 360.063 358.519 359.519 354.733C359.197 351.798 359.021 348.852 358.992 345.896C362.375 342.722 364.678 338.567 365.576 334.016C376.866 354.225 368.077 391.304 368.455 394.267C363.519 402.233 368.023 413.342 371.501 418.163C373.661 421.127 372.751 418.444 372.127 414.871C370.859 407.64 374.581 402.965 371.797 395.312ZM325.963 318.719C327.1 317.485 328.167 318.719 329.255 319.097C329.245 322.569 329.559 326.034 330.193 329.448C325.272 327.277 323.81 321.058 325.963 318.719ZM366.597 328.439C367.233 324.131 367.277 319.757 366.727 315.438C367.88 315.438 369.213 313.397 370.531 314.12C372.816 315.263 371.172 326.782 366.597 328.428V328.439Z" fill="#101828"></path><path d="M366.744 366.001C369.263 366.511 370.151 364.798 368.39 364.209C367.553 363.979 366.734 363.691 365.939 363.344C363.478 362.092 363.375 365.28 366.744 366.001Z" fill="#101828"></path><path d="M115.947 286.049C117.307 277.106 110.236 268.704 102.105 265.823C84.348 259.52 70.1935 275.402 71.7574 286.576C71.8567 287.252 72.9907 287.466 73.2046 286.708C74.3407 282.496 74.4725 279.714 77.0235 275.88C88.0675 259.306 114.875 267.369 113.756 285.835C113.751 286.113 113.851 286.382 114.036 286.589C114.22 286.797 114.476 286.927 114.753 286.954C115.029 286.981 115.305 286.903 115.527 286.735C115.748 286.567 115.898 286.322 115.947 286.049Z" fill="#101828"></path><path d="M101.265 282.133C98.9625 282.461 98.5672 285.046 100.937 285.211C102.697 285.396 104.403 285.928 105.957 286.774C107.603 287.466 108.59 285.967 107.503 284.666C106.706 283.821 105.737 283.157 104.66 282.72C103.584 282.282 102.426 282.082 101.265 282.133Z" fill="#101828"></path><path d="M73.4033 307.921C72.7514 303.928 72.6293 299.867 73.0404 295.842C73.051 295.627 72.9766 295.415 72.8333 295.254C72.6899 295.093 72.4889 294.994 72.2735 294.979C72.0581 294.964 71.8454 295.034 71.6811 295.174C71.5168 295.314 71.4139 295.513 71.3945 295.728C70.5879 300.073 70.5098 304.522 71.1634 308.893C66.4243 307.675 64.0872 295.479 67.3294 294.97C68.0703 294.838 69.1891 295.728 69.5196 294.607C70.2583 291.991 62.5082 290.591 63.4457 300.532C63.8582 304.729 66.9514 311.163 71.6753 311.412C74.587 321.698 78.1553 319.492 77.3518 317.676C76.2329 314.868 74.5503 314.576 73.4033 307.921Z" fill="#101828"></path><path d="M117.593 294.376C117.594 294.506 117.625 294.634 117.684 294.751C117.743 294.867 117.828 294.968 117.933 295.046C118.037 295.125 118.158 295.178 118.287 295.201C118.415 295.225 118.547 295.219 118.673 295.183C119.753 294.751 121.405 292.516 122.262 294.507C124.023 298.689 120.895 306.459 116.567 308.038C117.309 303.624 117.192 299.109 116.221 294.741C115.975 293.602 114.247 293.816 114.428 294.985C116.074 307.15 111.432 315.278 111.581 316.857C111.581 317.533 113.111 319.233 114.642 315.032C115.184 313.585 115.562 312.103 116.024 310.638C118.459 311.61 124.418 305.701 125.027 298.622C125.259 297.471 125.232 296.283 124.947 295.145C124.662 294.006 124.128 292.945 123.381 292.039C121.623 290.52 117.329 291.874 117.593 294.376Z" fill="#101828"></path><path d="M84.4797 293.391C82.8338 293.423 82.8338 297.849 84.4797 297.752C86.1257 297.654 86.0933 293.356 84.4797 293.391Z" fill="#101828"></path><path d="M117.048 292.123C119.072 292.205 119.485 289.045 117.444 288.98C109.067 288.649 78.2244 287.217 70.2605 290.246C70.0712 290.325 69.9131 290.464 69.8105 290.642C69.7079 290.819 69.6664 291.026 69.6924 291.229C69.7184 291.433 69.8104 291.622 69.9544 291.768C70.0984 291.915 70.2863 292.009 70.4894 292.039C71.492 292.171 72.5022 292.237 73.5134 292.237C75.5201 302.951 74.3774 304.087 83.0736 304.333C91.0224 304.549 89.1972 303.379 94.595 293.667C98.1007 303.789 97.1136 303.856 103.645 304.135C112.979 304.567 111.348 301.78 112.83 291.954L117.048 292.123ZM83.6892 301.337C76.3992 300.987 78.57 301.141 76.3452 292.14C81.5611 291.62 86.8036 291.416 92.0441 291.529C87.7694 299.644 89.1194 301.599 83.6892 301.337ZM103.561 301.026C98.8697 300.771 99.8093 300.45 96.5822 291.546C100.832 291.329 105.091 291.428 109.326 291.842C108.49 299.346 109.495 301.346 103.57 301.026H103.561Z" fill="#101828"></path><path d="M80.136 331.143C79.5399 333.321 79.2412 335.569 79.2482 337.826C79.0171 341.233 80.9762 341.513 81.5853 338.172C81.8489 336.707 82.6653 332.294 81.864 331.16C81.7647 331.025 81.6354 330.915 81.4862 330.839C81.3369 330.762 81.172 330.721 81.0043 330.72C80.8366 330.718 80.6709 330.756 80.5202 330.829C80.3694 330.902 80.2379 331.01 80.136 331.143Z" fill="#101828"></path><path d="M81 284.798C79.8789 285.967 80.6868 287.548 82.1512 286.839C83.9044 285.994 85.8348 285.582 87.7802 285.638C90.7912 285.539 90.2145 282.264 87.5167 282.247C85.1202 282.344 82.8255 283.242 81 284.798Z" fill="#101828"></path><path d="M109.164 331.258C109.109 331.009 108.974 330.786 108.781 330.622C108.587 330.457 108.345 330.36 108.091 330.345C107.837 330.331 107.586 330.399 107.374 330.54C107.163 330.682 107.004 330.888 106.92 331.128C106.607 332.316 107.084 339.638 108.994 339.226C110.046 339.01 109.642 337.351 109.585 336.593C109.495 334.813 109.296 333.035 109.164 331.258Z" fill="#101828"></path><path d="M97.6622 307.608C100.181 306.556 98.9453 303.411 96.9537 305.469C96.3057 306.178 93.0657 306.078 92.2795 305.798C91.6925 305.558 91.1392 305.243 90.6336 304.86C89.1864 303.923 88.9898 306.621 91.3593 307.627C88.5436 307.568 85.7447 308.076 83.1297 309.122C81.6177 310.293 76.5461 323.393 78.6369 325.581C85.7477 333.614 103.324 332.839 109.659 325.268C111.469 323.095 107.784 312.563 105.924 309.599C105.192 308.465 101.695 307.824 97.6622 307.608ZM102.583 312.546C103.663 320.43 91.1455 322.914 89.7458 314.191C94.0945 314.718 98.5058 314.154 102.583 312.552V312.546Z" fill="#101828"></path><path d="M102.168 297.784C103.913 297.94 103.814 293.464 102.399 293.488C100.984 293.512 100.77 297.659 102.168 297.784Z" fill="#101828"></path><path d="M261.068 361.245C255.583 358.508 249.847 356.304 243.94 354.663C243.698 354.575 243.432 354.586 243.199 354.693C242.966 354.8 242.784 354.994 242.693 355.234C242.601 355.474 242.608 355.74 242.712 355.975C242.816 356.21 243.008 356.394 243.246 356.488C248.333 358.728 253.515 360.703 258.552 363.07C272.592 369.654 272.557 373.177 275.322 387.757C276.402 393.45 277.083 399.278 278.219 404.989C278.45 406.125 280.407 406.192 280.359 404.907C280.008 398.682 279.214 392.489 277.983 386.376C275.305 372.468 274.393 367.8 261.068 361.245Z" fill="#101828"></path><path d="M249.121 326.376C249.849 325.687 249.253 323.894 248.182 324.138C244.38 325.028 242.985 326.13 238.589 326.493C239.084 323.68 239.397 320.838 239.527 317.984C239.723 311.565 238.54 314.133 240.862 311.204C244.022 307.236 246.966 315.092 241.618 321.788C239.626 324.289 241.222 326.298 243.937 322.561C250.718 313.23 244.76 304.934 240.35 308.703C242.112 303.469 245.946 291.736 241.158 287.103C233.241 279.465 213.803 286.116 207.155 292.978C206.165 291.873 204.918 291.03 203.523 290.525C202.128 290.02 200.63 289.869 199.163 290.084C190.933 292.006 195.262 305.504 197.072 311.098C187.937 309.288 191.428 324.758 197.452 327.143C198.454 327.555 199.344 326.255 198.422 325.598C196.941 324.534 195.737 323.128 194.912 321.501C194.087 319.874 193.666 318.072 193.683 316.248C193.484 312.613 196.843 312.546 198.621 313.913C198.302 318.727 198.819 323.561 200.148 328.199C194.406 328.415 191.292 326.553 190.128 327.292C187.806 328.642 192.316 333.284 199.631 335.159C194.694 358.843 213.888 368.485 218.709 397.073C218.856 397.995 220.221 398.602 220.815 397.65C233.189 378.08 242.209 357.575 238.356 333.893C242.318 331.97 245.951 329.433 249.121 326.376ZM199.569 311.057C198.154 306.876 193.841 294.104 199.716 292.542C200.833 292.36 201.98 292.488 203.03 292.911C204.08 293.334 204.994 294.037 205.673 294.944C207.485 296.901 211.302 291.553 219.281 288.464C224.96 286.261 233.632 284.284 239.03 288.464C243.607 292.052 239.376 305.863 237.961 310.174C235.486 307.578 233.689 304.412 232.727 300.957L234.801 300.594C236.218 300.348 235.937 298.125 234.505 298.391C227.048 299.704 214.343 301.154 206.792 299.64C203.815 299.035 205.096 307.033 199.569 311.051V311.057ZM222.756 321.704C223.083 322.873 223.973 323.168 222.756 324.27C221.54 325.372 216.924 326.147 215.434 324.717C214.626 323.924 214.872 322.577 214.924 321.557C214.924 319.911 212.488 320.799 212.849 323.842C209.679 325.869 206.157 327.281 202.465 328.007C201.294 323.081 200.741 318.028 200.82 312.965C203.863 310.677 205.757 305.23 206.958 301.856C212.436 303.121 225.318 302.022 230.82 301.229C231.893 305.721 234.214 309.818 237.516 313.047C237.732 317.58 237.394 322.123 236.509 326.575C232.689 326.549 228.93 325.606 225.549 323.827C226.344 320.397 222.208 319.723 222.756 321.698V321.704ZM192.672 329.264C196.182 330.292 199.88 330.509 203.486 329.899C207.092 329.289 210.513 327.868 213.49 325.743C215.581 328.674 222.312 327.949 224.551 325.48C228.681 329.281 238.835 329.117 244.3 327.856C235.904 334.552 228.696 334.666 219.892 329.303C219.46 329.039 219.052 328.594 218.557 328.957C210.412 334.8 200.143 335.82 192.672 329.266V329.264ZM223.085 333.545C221.91 334.31 220.538 334.717 219.136 334.717C217.735 334.717 216.363 334.31 215.188 333.545C216.546 332.865 217.822 332.031 218.989 331.059C220.197 332.123 221.584 332.963 223.085 333.545ZM220.551 394.075C215.25 368.978 198.746 357.096 201.526 335.552C205.599 336.246 209.785 335.802 213.622 334.269C215.974 338.844 223.495 337.332 225.355 334.269C228.9 335.376 232.682 335.479 236.282 334.567C237.438 361.128 234.427 371.215 220.551 394.075Z" fill="#101828"></path><path d="M195.733 355.752C193.46 356.288 182.023 361.858 179.718 362.895C162.834 370.563 163.706 386.655 160.661 400.944C160.445 401.918 161.698 402.59 162.06 401.637C167.227 387.664 162.883 374.315 181.382 365.28C185.069 363.47 194.342 359.832 196.934 357.99C198.266 357.031 197.208 355.398 195.733 355.752Z" fill="#101828"></path><path d="M211.993 314.753C210.345 315.055 210.019 318.488 211.993 318.736C213.343 318.915 213.373 314.496 211.993 314.753Z" fill="#101828"></path><path d="M229.636 307.824C228.48 306.957 227.064 306.51 225.621 306.556C223.562 306.835 223.152 309.148 225.621 309.254C226.842 309.281 228.025 309.683 229.01 310.405C230.558 311.608 232.101 309.647 229.636 307.824Z" fill="#101828"></path><path d="M226.854 318.306C228.617 318.051 228.731 314.012 227.051 313.986C225.094 313.978 225.111 318.559 226.854 318.306Z" fill="#101828"></path><path d="M212.453 307.197C211.422 307.293 210.431 307.644 209.569 308.219C208.707 308.793 208.002 309.574 207.518 310.489C206.941 311.854 208.092 312.712 208.833 311.824C209.89 310.724 211.313 310.05 212.833 309.93C214.199 309.716 214.46 307.018 212.453 307.197Z" fill="#101828"></path><path d="M93.6619 62.29C92.988 60.3331 88.7241 58.6375 85.8859 58.9982C84.1428 59.1969 83.9937 61.7803 86.1019 62.29C88.2101 62.7998 89.6897 62.2901 91.6488 63.936C91.8875 64.12 92.1815 64.2179 92.4829 64.2136C92.7844 64.2093 93.0755 64.1031 93.3088 63.9123C93.5422 63.7215 93.7041 63.4573 93.7682 63.1627C93.8323 62.8682 93.7949 62.5606 93.6619 62.29Z" fill="#101828"></path><path d="M82.9807 123.677C81.7954 130.931 81.3877 138.291 81.7646 145.632C81.9439 147.278 84.4128 146.882 84.4625 145.416C84.6785 138.702 84.9074 130.604 84.5769 124.032C84.5294 123.135 83.1492 122.703 82.9807 123.677Z" fill="#101828"></path><path d="M88.2641 71.9518C89.7631 71.8352 89.6313 67.6318 88.2641 67.2279C85.8945 66.5281 86.1581 72.116 88.2641 71.9518Z" fill="#101828"></path><path d="M56.9786 119.185C49.721 119.861 37.6898 125.999 33.3288 131.939C30.0369 136.449 28.391 146.537 27.6329 152.446C27.187 154.955 27.0419 157.507 27.2009 160.05C27.3002 161.004 28.6826 160.937 28.9634 160.149C31.1515 154.157 31.5554 140.087 35.7113 134.095C40.0313 127.831 50.5224 123.891 57.5986 122.031C57.9656 121.939 58.2822 121.707 58.4812 121.384C58.6803 121.062 58.7463 120.675 58.6652 120.306C58.5841 119.936 58.3623 119.612 58.0467 119.403C57.7311 119.194 57.3466 119.115 56.9743 119.185H56.9786Z" fill="#101828"></path><path d="M56.2054 78.9459C56.0153 76.3539 53.5723 74.4099 54.4277 67.8046C55.2658 61.4672 58.9205 62.0288 59.2337 63.625C58.1493 71.3093 57.4514 79.0432 57.1428 86.7975C56.7799 91.9146 55.3003 105.641 56.2788 109.935C57.6612 116.124 63.4219 119.729 69.2647 120.865C82.1945 122.543 105.553 121.422 107.497 108.503C109.389 95.9473 101.028 68.7421 101.358 60.1194C108.994 57.469 108.022 68.7097 106.294 73.911C104.797 78.2871 106.425 78.231 108.434 74.749C110.594 70.9971 110.836 60.5794 106.689 57.7974C103.397 55.6374 98.7898 57.9961 98.658 59.4433C97.9171 68.1999 98.213 79.5313 95.1523 88.491C92.4372 96.4398 86.3633 96.7206 78.151 96.3577C73.2154 96.1611 70.3015 94.5973 68.3597 89.923C62.5277 75.9025 63.8345 63.8864 61.6118 61.4348C58.0565 57.5014 49.8938 60.0027 51.6391 72.5437C52.799 81.201 56.363 81.0865 56.2054 78.9459Z" fill="#101828"></path><path d="M63.8237 58.3741C74.2114 54.538 85.5225 53.9638 96.2453 56.7282C97.349 57.0414 98.0726 55.0822 97.0207 54.5401C89.1691 50.3432 69.0422 51.6262 63.1087 56.8102C62.4585 57.4194 62.9834 58.6506 63.8237 58.3741Z" fill="#101828"></path><path d="M134.806 128.533C129.25 121.221 116.934 118.115 108.238 116.633C108.03 116.601 107.818 116.646 107.641 116.759C107.464 116.872 107.334 117.045 107.275 117.247C107.217 117.448 107.234 117.664 107.323 117.854C107.412 118.044 107.568 118.196 107.76 118.279C116.353 121.917 127.081 122.509 132.875 130.721C138.339 138.441 140.651 147.936 142.947 156.956C143.067 157.315 143.319 157.615 143.652 157.795C143.984 157.976 144.372 158.024 144.739 157.93C145.105 157.837 145.423 157.608 145.628 157.29C145.832 156.972 145.909 156.588 145.843 156.215C143.398 146.686 140.869 136.512 134.806 128.533Z" fill="#101828"></path><path d="M73.1073 85.7521C80.3973 91.7266 93.7289 85.4237 91.2103 82.4602C89.8909 80.8736 88.1926 79.6456 86.2725 78.8897C87.6398 77.6067 87.0307 75.829 85.6245 76.7837C80.5896 80.0756 77.6325 76.1573 76.4596 76.9306C75.7015 77.4404 76.343 78.313 76.721 78.8249C75.6734 79.6198 70.9668 84.3265 73.1073 85.7521Z" fill="#101828"></path><path d="M74.088 72.7919C76.0125 72.982 75.7339 67.8563 73.7921 68.0529C72.2023 68.1652 72.1677 72.6018 74.088 72.7919Z" fill="#101828"></path><path d="M74.1766 59.616C72.7876 59.7189 71.4415 60.1432 70.2446 60.8554C69.0477 61.5676 68.0327 62.5483 67.2797 63.72C66.6727 65.016 67.8737 66.0571 69.0574 65.219C70.6024 63.8172 72.5487 62.9362 74.6215 62.7004C77.6326 62.0935 76.991 59.4151 74.1766 59.616Z" fill="#101828"></path></g><defs><clipPath id="clip0_1391_402"><rect width="432" height="432" fill="white"></rect></clipPath></defs></svg>