<svg xmlns="http://www.w3.org/2000/svg" width="432" height="432" viewBox="0 0 432 432" fill="none"><g clip-path="url(#clip0_1391_964)"><path d="M317.624 246.704C314.366 250.504 302.098 264.835 298.832 267.872C333.683 275.797 356.374 289.256 356.374 306.415C356.374 346.788 239.585 370.93 146.83 351.689C141.728 356.901 131.63 351.905 131.196 347.89C120.345 344.99 109.856 340.874 99.9281 335.621C100.402 336.598 100.621 337.68 100.563 338.765C100.506 339.849 100.174 340.902 99.5992 341.824C99.0244 342.745 98.2252 343.506 97.2764 344.035C96.3276 344.564 95.2601 344.844 94.1738 344.848C93.0938 344.848 78.9761 353.553 71.9258 354.512C60.5297 356.061 59.1127 344.522 71.7098 339.854C74.641 338.774 84.739 333.992 87.2359 327.151C79.745 320.745 75.6194 313.798 75.6194 306.305C75.6194 264.691 199.26 251.627 278.757 263.969C284.837 258.323 298.629 244.313 299.603 243.123C278.56 239.603 257.305 237.499 235.98 236.827C236.628 242.039 230.116 248.553 229.247 236.611C221.471 236.416 212.52 236.28 204.71 236.503C203.517 241.281 195.7 248.445 197.763 236.719C93.096 240.192 10.8 273.305 10.8 313.584C10.8 356.136 102.868 390.671 216 390.671C329.132 390.671 421.2 356.035 421.2 313.584C421.2 285.029 379.4 260.064 317.624 246.704ZM93.1997 267.872C101.559 267.872 101.559 280.956 93.1997 280.899C84.8405 280.843 84.8448 267.877 93.2062 267.877L93.1997 267.872Z" fill="#3B85F8"></path><path d="M280.599 281.122C266.051 296.648 257.366 285.029 262.902 276.778C210.773 267.3 126.971 275.085 126.971 301.968C126.971 319.991 166.067 334.104 216 334.104C265.933 334.104 305.029 319.991 305.029 301.968C305.029 292.738 295.257 285.9 280.599 281.122ZM216 315.431C189.292 315.431 167.577 308.483 167.577 299.795C167.577 281.053 264.423 281.182 264.423 299.795C264.423 308.372 242.708 315.431 216 315.431Z" fill="#3B85F8"></path><path d="M230.005 298.277C230.005 294.041 222.407 292.522 216 292.522C209.485 292.522 201.995 294.034 201.995 298.277C201.995 306.631 230.005 306.647 230.005 298.277Z" fill="#101828"></path><path d="M214.806 215.978C212.246 220.564 201.995 239.974 201.887 240.19C201.995 240.082 199.824 240.516 199.39 240.516C199.39 240.3 205.578 221.076 206.12 216.631C206.276 215.851 205.105 215.492 204.492 216.415C203.297 220.65 198.629 233.243 197.869 235.306C196.871 238.217 195.443 240.961 193.633 243.449C190.146 247.478 186.412 251.286 182.451 254.85C181.477 255.614 182.127 256.699 184.298 255.93C189.512 254.094 193.959 252.888 199.171 251.152C200.148 250.826 201.234 250.391 202.211 250.072C202.211 250.398 202.211 252.787 203.189 252.787C205.034 252.679 205.902 248.443 206.12 248.227C207.097 246.815 205.472 244.972 204.708 243.775C204.161 242.911 203.822 242.354 204.276 241.494C204.798 240.507 214.482 222.169 217.197 217.393C217.328 217.202 217.398 216.977 217.398 216.745C217.398 216.514 217.328 216.288 217.197 216.097C217.106 215.86 216.949 215.654 216.744 215.504C216.538 215.355 216.294 215.269 216.04 215.256C215.786 215.244 215.534 215.305 215.315 215.433C215.096 215.562 214.919 215.751 214.806 215.978Z" fill="#101828"></path><path d="M241.08 254.956C239.044 251.191 237.511 247.176 236.52 243.013C236.952 235.738 238.583 216.413 238.583 216.305C238.151 215.544 236.868 215.33 236.738 216.413C236.131 221.4 233.915 240.497 233.915 240.734C233.915 240.734 231.634 240.408 231.308 240.408C231.289 237.977 231.145 235.549 230.876 233.133C230.522 227.048 230.116 220.864 229.364 214.773C229.254 213.909 228.169 214.125 227.852 214.773C227.852 214.883 227.744 214.883 227.744 214.989C227.418 220.851 227.625 226.932 227.852 232.794C228.153 235.534 228.226 238.294 228.068 241.045C227.462 243.106 226.586 245.078 225.463 246.91C225.31 247.211 225.259 247.554 225.318 247.886C225.377 248.219 225.542 248.524 225.789 248.754C225.681 249.08 225.463 253.098 226.765 253.206C228.068 253.314 228.828 250.817 228.925 250.491C232.256 252.244 235.515 254.128 238.697 256.137C240.864 257.887 242.08 256.789 241.08 254.956Z" fill="#101828"></path><path d="M133.16 140.739C131.205 139.659 128.276 140.424 126.103 140.631C122.511 140.972 113.925 141.346 104.17 142.694C103.41 142.798 103.628 144.104 104.386 144.104C109.508 144.104 116.247 143.945 126.418 143.024C130.09 142.692 131.745 143.011 133.149 141.944C133.592 141.603 133.704 140.955 133.16 140.739Z" fill="#101828"></path><path d="M93.528 186.881C92.448 186.773 92.448 188.393 93.528 188.609C106.976 190.19 120.607 188.514 133.272 183.723C135.021 183.2 136.671 182.393 138.158 181.334C139.147 180.47 138.05 179.271 137.078 179.379C134.136 179.941 117.979 189.343 93.528 186.881Z" fill="#101828"></path><path d="M155.52 179.39C155.464 188.294 147.379 194.268 140.21 197.955C123.282 206.662 102.922 205.098 83.862 203.059C66.9449 201.249 60.9962 193.521 62.478 175.917C62.5774 174.72 60.6312 174.504 60.4152 175.591C59.4112 179.821 59.1915 184.2 59.7672 188.51C61.2792 197.655 67.7722 203.059 76.8139 205.23C76.3943 207.194 76.5834 209.239 77.3561 211.092C78.5796 212.854 80.3882 214.123 82.4602 214.676C83.0023 248.441 83.5013 282.327 84.739 316.081C84.6491 318.473 84.7213 320.867 84.955 323.248C85.1082 323.877 85.4486 324.445 85.9313 324.877C85.5868 327.248 84.5695 329.471 83.0002 331.281C82.5682 331.713 82.0238 332.145 81.5875 332.577C79.6598 330.824 77.4109 329.461 74.965 328.562C74.101 328.236 73.44 329.545 74.101 330.074C75.8795 331.39 77.5835 332.804 79.205 334.31C78.54 334.711 77.8511 335.072 77.1422 335.39C75.6832 333.834 74.0838 332.417 72.3643 331.156C72.1322 331.02 71.8565 330.977 71.5941 331.038C71.3316 331.099 71.1025 331.258 70.9538 331.482C70.7843 331.685 70.7007 331.946 70.7209 332.209C70.7411 332.473 70.8634 332.718 71.0618 332.893C72.2759 334.107 73.4348 335.374 74.5351 336.692H74.4271C69.3252 338.865 60.372 342.116 61.0718 349.179C61.1684 350.234 61.5408 351.245 62.1518 352.11C61.7393 356.646 70.3598 361.182 81.9115 354.389C90.8626 349.119 104.19 348.557 102.324 340.928C102.246 340.611 102.098 340.316 101.892 340.064C102.086 339.489 102.148 338.879 102.073 338.277C101.998 337.675 101.788 337.098 101.46 336.588C100.38 335.076 98.8675 334.634 98.4182 332.571C98.2033 331.059 98.2033 329.523 98.4182 328.011H99.6127C99.8123 328.015 100.011 327.978 100.196 327.904C100.381 327.829 100.549 327.718 100.69 327.577C100.832 327.436 100.943 327.267 101.017 327.082C101.092 326.897 101.129 326.699 101.125 326.499C101.125 321.471 102.637 312.561 103.84 286.755C103.851 286.528 105.568 232.146 105.568 231.926C105.784 231.874 111.739 230.455 112.625 230.198C114.662 251.667 115.459 273.236 115.014 294.797C114.495 321.123 112.933 321.41 114.253 322.918C114.407 323.093 114.59 323.24 114.795 323.35C114.625 329.201 107.462 331.422 108.717 338.116C106.216 340.842 107.095 346.017 112.517 347.453C117.463 348.762 119.366 346.937 125.546 351.469C128.803 353.858 131.842 356.789 135.86 358.091C137.987 358.753 140.258 358.799 142.41 358.223C144.562 357.647 146.507 356.472 148.018 354.836C148.213 354.629 148.329 354.36 148.344 354.076C152.058 350.773 152.2 345.436 147.696 340.939C144.297 337.539 139.158 336.543 135.752 333.99C136.512 333.558 137.264 333.23 137.925 332.91C139.125 332.511 140.288 332.005 141.398 331.398C142.592 330.966 141.942 329.238 140.75 329.119C139.414 329.024 138.074 329.246 136.84 329.767C135.522 330.313 134.251 330.967 133.041 331.722C132.614 331.317 132.215 330.884 131.846 330.426C132.999 329.668 134.195 328.979 135.43 328.363C135.842 328.109 136.275 327.892 136.726 327.715C137.374 327.499 137.92 326.851 137.59 326.203C137.158 325.009 135.095 325.339 134.225 325.659C132.704 326.246 131.278 327.051 129.989 328.048C128.516 326.082 127.479 323.824 126.95 321.425C127.058 321.425 127.058 321.425 127.166 321.317C128.142 320.885 128.794 320.453 129.01 319.362C129.01 319.146 140.627 212.734 140.627 209.272C140.737 209.272 140.737 209.272 140.843 209.164C142.243 208.895 143.574 208.341 144.75 207.535C145.708 206.42 146.212 204.986 146.163 203.517C146.325 201.784 146.325 200.039 146.163 198.305C146.163 198.197 146.055 198.089 146.055 197.979C152.893 193.527 159.516 186.797 157.998 178.654C158.023 177.336 155.535 177.768 155.52 179.39ZM89.7307 272.763C90.7157 271.683 92.4545 273.51 93.3142 274.059C93.9622 274.491 98.4161 276.337 96.2453 277.206C94.9153 277.405 93.5591 277.096 92.4458 276.342C91.4695 275.91 88.4369 274.182 89.7307 272.763ZM98.7422 338.014C99.2952 338.766 99.0684 339.206 98.5262 339.958C95.58 343.643 90.612 343.567 80.3952 348.209C77.3763 349.78 74.1055 350.809 70.7314 351.251C68.0162 351.447 63.4889 351.035 64.651 347.233C65.543 344.308 68.8954 342.587 71.3837 341.371C73.1031 340.537 74.8401 339.741 76.5936 338.982C77.4425 340.254 78.4685 341.816 79.8509 341.261C80.0913 341.125 80.2771 340.91 80.3764 340.653C80.4757 340.396 80.4824 340.112 80.3952 339.85C80.0665 339.09 79.6666 338.364 79.2007 337.679C79.3087 337.569 80.8294 336.815 81.4795 336.383C82.1102 337.012 83.0563 338.446 84.1946 338.446C84.4485 338.456 84.6974 338.374 84.8957 338.215C85.0941 338.057 85.2286 337.832 85.2746 337.582C85.6008 336.502 84.6266 335.422 83.8642 334.651C85.1332 333.647 86.1898 332.4 86.9726 330.983C87.7554 329.567 88.2488 328.009 88.4239 326.4C90.6918 327.505 93.1761 328.095 95.6988 328.128C95.3834 331.748 95.2387 334.286 97.4268 337.031C97.9171 337.283 98.3618 337.615 98.7422 338.014ZM127.624 330.305C126.158 331.648 124.879 333.182 123.822 334.865C123.174 335.841 124.686 336.928 125.451 336.161C126.215 335.394 127.068 334.627 127.84 333.99C129.524 332.595 129.352 332.562 129.352 332.796L130.648 334.092C129.663 335.079 128.789 336.171 128.043 337.349C127.395 338.543 128.991 339.822 129.887 338.759C130.812 337.76 131.831 336.852 132.929 336.046C137.596 339.934 143.23 340.446 146.282 344.514C150.345 349.929 144.249 356.376 135.315 350.702C130.41 347.587 127.202 343.064 121.42 341.256C118.016 340.194 112.92 341.118 112.082 337.349C112.093 336.372 112.3 335.407 112.692 334.511C113.083 333.616 113.651 332.808 114.361 332.137C116.533 329.809 117.737 326.742 117.729 323.559C119.791 323.235 121.854 323.017 123.917 322.695C124.133 323.24 124.241 323.89 124.459 324.324C125.295 326.426 126.356 328.432 127.624 330.305ZM122.085 273.847C121.772 272.866 122.839 272.536 123.498 272.119C124.362 271.564 125.995 269.622 127.189 270.708C128.829 272.611 122.824 276.15 122.085 273.847ZM142.932 202.407C142.824 203.386 143.148 204.796 142.171 205.23C124.582 213.047 97.3382 213.771 86.7996 212.071C84.6456 211.918 82.5774 211.166 80.8294 209.898C79.6219 208.818 79.7494 207.293 79.6349 205.883C90.2042 207.41 100.874 208.132 111.553 208.043C122.484 207.894 133.243 205.299 143.04 200.448C143.055 201.103 143.019 201.758 142.932 202.407Z" fill="#101828"></path><path d="M92.448 80.3735C93.8916 80.8613 95.3845 81.1887 96.8998 81.3499C96.8998 81.5659 96.39 90.4586 97.7638 94.595C98.3721 96.4484 99.47 98.103 100.942 99.3836C102.413 100.664 104.203 101.523 106.123 101.87C108.202 102.157 110.319 101.827 112.211 100.92C114.104 100.012 115.687 98.5686 116.765 96.7679L118.061 96.4418C119.905 95.8411 121.593 94.8377 123.001 93.5044C124.41 92.1711 125.504 90.5412 126.204 88.7327C127.71 84.5289 128.268 80.0445 127.84 75.5999C127.658 70.4901 127.041 65.405 125.995 60.4C125.779 59.4215 124.483 59.752 124.366 60.616C124.256 64.9576 124.256 69.3014 124.256 73.535C124.256 80.4945 124.384 89.1043 117.96 91.9922C113.64 93.9362 112.344 91.666 110.143 91.666C109.924 91.6824 109.711 91.745 109.518 91.8496C109.325 91.9542 109.156 92.0985 109.023 92.2729C108.89 92.4474 108.795 92.648 108.745 92.8617C108.695 93.0754 108.69 93.2973 108.732 93.5128C109.056 95.2408 111.337 96.3359 112.966 96.6599C111.947 97.7094 110.634 98.4265 109.2 98.7171C107.766 99.0077 106.278 98.8584 104.931 98.2886C97.0423 95.0227 101.364 81.5896 99.3946 79.2806C99.089 78.9635 98.7147 78.7207 98.3005 78.5709C97.8864 78.4211 97.4434 78.3683 97.0056 78.4166C95.161 78.3086 91.9577 77.9846 92.0117 75.3775C92.0657 72.7703 95.161 71.902 97.3318 71.794C97.8079 72.9819 98.3516 74.1416 98.9604 75.2673C99.1195 75.5339 99.3626 75.7401 99.6515 75.8536C99.9405 75.9671 100.259 75.9815 100.557 75.8946C100.855 75.8076 101.116 75.6241 101.298 75.373C101.481 75.1219 101.575 74.8173 101.565 74.507C101.565 63.154 101.103 62.2231 101.781 60.9357C102.984 58.6526 107.378 59.266 123.496 57.7886C126.264 57.7436 128.982 57.0362 131.421 55.7258C132.474 55.0968 133.347 54.2067 133.956 53.1415C134.564 52.0763 134.887 50.8721 134.894 49.6454C134.644 41.8802 124.861 37.4414 118.826 46.0619L118.5 46.7099C118.284 46.4939 118.068 46.1656 117.852 45.9496C116.267 44.5867 114.297 43.7505 112.216 43.557C110.134 43.3634 108.044 43.8222 106.235 44.8696C105.083 45.7846 104.248 47.038 103.846 48.4531C102.901 47.7427 101.804 47.2613 100.641 47.0467C99.4784 46.8321 98.2817 46.8902 97.1452 47.2163C96.0087 47.5425 94.9633 48.1278 94.0913 48.9264C93.2193 49.7249 92.5444 50.7148 92.1197 51.8183C90.7243 55.7063 91.8238 62.5557 92.88 66.4761C93.2018 67.6706 93.4222 69.2992 94.392 70.0595C93.2216 70.1854 92.1228 70.6846 91.2581 71.4834C90.3935 72.2822 89.8089 73.338 89.5908 74.4948C89.3728 75.6516 89.5329 76.8478 90.0475 77.9066C90.562 78.9653 91.4037 79.8303 92.448 80.3735ZM121.977 46.7164C123.489 44.5564 127.079 42.9191 129.36 44.1093C130.598 44.8035 131.588 45.8667 132.192 47.1506C132.798 48.474 132.987 49.9507 132.734 51.3842C132.622 52.1445 131.87 52.4642 131.106 52.4642C130.784 52.4046 130.488 52.2488 130.256 52.0174C130.025 51.786 129.869 51.4899 129.81 51.1682C129.824 49.872 129.487 48.5961 128.833 47.4767C127.423 45.4809 125.224 46.9475 122.969 47.9087C122.81 47.9609 122.639 47.964 122.478 47.9178C122.318 47.8716 122.175 47.7782 122.068 47.6496C121.961 47.5211 121.895 47.3633 121.879 47.1969C121.863 47.0305 121.897 46.8631 121.977 46.7164ZM110.685 45.8524C111.641 45.5799 112.655 45.5769 113.613 45.8437C114.571 46.1105 115.437 46.6367 116.115 47.3644C116.873 48.2284 117.96 50.9479 115.899 50.9479C114.923 50.9479 114.489 49.8679 113.944 49.2199C113.627 48.7177 113.171 48.3175 112.632 48.067C112.093 47.8165 111.494 47.7264 110.905 47.8072C110.473 47.9174 110.041 47.3752 109.929 46.9432C109.892 46.6988 109.95 46.4495 110.09 46.246C110.231 46.0426 110.443 45.9003 110.685 45.8481V45.8524Z" fill="#101828"></path><path d="M180.062 113.162C172.904 101.408 152.779 89.2512 129.794 89.7113C129.529 89.7234 129.279 89.8374 129.095 90.0295C128.912 90.2216 128.809 90.477 128.809 90.7427C128.809 91.0083 128.912 91.2638 129.095 91.4559C129.279 91.648 129.529 91.7619 129.794 91.7741C147.457 91.9533 176.332 104.795 179.412 123.15C182.22 139.89 173.67 154.39 159.972 164.19C157.356 166.156 154.556 167.864 151.613 169.292C151.351 169.292 151.44 169.338 151.181 169.076C147.046 163.374 143.378 157.346 140.214 151.053C144.685 143.953 149.219 138.002 150.854 134.985C151.502 135.849 152.267 136.929 153.351 137.048C154.935 137.225 155.749 135.575 153.567 133.03C152.919 132.27 152.373 131.401 151.721 130.641C144.809 121.437 144.882 120.658 140.756 114.899C140.212 114.139 138.802 114.573 139.244 115.547C141.774 121.448 144.942 127.055 148.69 132.268C145.385 138.434 140.502 144.364 138.702 148.446C137.906 146.977 137.074 145.529 136.205 144.102C135.557 143.022 133.7 143.999 134.358 145.182C139.758 154.92 142.201 162.659 149.124 171.891C149.772 172.755 150.746 173.934 152.055 173.519C153.135 173.176 153.135 172.439 152.816 171.564C154.422 170.958 155.982 170.236 157.483 169.404C172.355 161.87 184.35 145.891 183.758 128.148C184.047 122.896 182.76 117.678 180.062 113.162Z" fill="#101828"></path><path d="M77.4619 176.567C76.3819 177.647 75.2803 178.837 74.2046 180.043C74.0393 180.228 73.9449 180.467 73.9381 180.716C73.9313 180.964 74.0126 181.207 74.1675 181.402C74.3224 181.597 74.5411 181.731 74.785 181.78C75.0289 181.829 75.2823 181.791 75.5006 181.671C78.4258 179.827 81.0603 177.558 83.3177 174.938C89.132 168.525 93.5008 160.938 96.1286 152.69C96.8853 151.026 97.1836 149.189 96.9926 147.37C96.7507 146.29 95.0486 145.742 94.3877 146.722C92.893 148.515 93.1198 150.667 92.1067 152.695C88.0654 148.204 77.8378 140.772 75.4963 139.015C78.853 136.404 83.4883 125.058 82.445 119.791C82.2485 118.809 81.0324 119.031 80.717 119.791C79.5334 123.343 80.1641 125.997 75.397 134.339C74.5857 135.341 73.8935 136.435 73.3342 137.596C69.6227 134.881 65.8586 132.239 62.0438 129.671C61.0697 129.023 59.8687 130.535 60.7478 131.3C76.1249 144.619 80.3002 146.293 89.3009 155.293C89.7329 155.725 90.1649 156.272 90.5969 156.706C87.8678 163.683 83.8121 170.065 78.6542 175.498C78.6031 175.432 78.5376 175.378 78.4629 175.341C78.3881 175.303 78.3058 175.283 78.2222 175.282C74.5448 174.739 70.9626 173.679 67.5821 172.133C65.3486 171.053 61.7501 169.949 55.2053 166.813C46.0577 162.428 40.7333 158.451 36.7481 149.768C29.7086 134.432 35.1108 114.661 59.441 101.561C70.8202 95.776 82.9523 91.6101 95.485 89.1843C95.7086 89.1168 95.9016 88.9731 96.0304 88.7781C96.1591 88.5832 96.2156 88.3493 96.1899 88.1171C96.1643 87.8848 96.0581 87.6689 95.8899 87.5068C95.7217 87.3447 95.502 87.2466 95.269 87.2295C83.1614 88.2964 71.3504 91.5656 60.4174 96.8761C50.8854 100.991 42.6356 107.593 36.5321 115.992C31.7087 122.76 29.4047 131.002 30.0194 139.291C30.634 147.579 34.1284 155.391 39.8974 161.374C45.4097 167.149 56.9268 172.241 64.543 174.619C68.7852 175.639 73.1076 176.291 77.4619 176.567Z" fill="#101828"></path><path d="M110.361 88.1906C114.011 89.4067 118.204 84.5921 116.223 83.0866C114.495 81.7733 111.879 86.67 110.795 84.7152V84.8254C110.289 84.0242 109.924 83.1425 109.715 82.2182C109.406 81.4514 108.296 81.5702 107.868 82.2182C107.625 82.7722 107.496 83.3698 107.49 83.975C107.485 84.5801 107.602 85.18 107.835 85.7385C108.068 86.297 108.412 86.8023 108.846 87.2238C109.28 87.6453 109.796 87.9742 110.361 88.1906Z" fill="#101828"></path><path d="M119.372 78.8529C119.705 78.7078 119.997 78.4835 120.223 78.1997C120.449 77.9158 120.602 77.5809 120.668 77.2243C120.908 76.2631 120.655 76.0147 117.845 69.1912C117.769 69.0142 117.631 68.8709 117.457 68.7883C117.283 68.7056 117.085 68.6892 116.899 68.7422C116.714 68.7951 116.554 68.9138 116.45 69.0759C116.346 69.2381 116.304 69.4327 116.333 69.6232C116.456 70.3231 117.197 75.8872 117.197 76.0276C116.333 76.4596 114.158 77.4403 115.026 78.7427C115.626 79.2607 116.387 79.5548 117.18 79.5749C117.972 79.5949 118.747 79.3398 119.372 78.8529Z" fill="#101828"></path><path d="M109.056 72.2304C109.535 72.214 109.988 72.0124 110.321 71.668C110.654 71.3237 110.84 70.8635 110.84 70.3847C110.84 69.9058 110.654 69.4456 110.321 69.1013C109.988 68.7569 109.535 68.5553 109.056 68.5389C108.578 68.5553 108.124 68.7569 107.791 69.1013C107.459 69.4456 107.273 69.9058 107.273 70.3847C107.273 70.8635 107.459 71.3237 107.791 71.668C108.124 72.0124 108.578 72.214 109.056 72.2304Z" fill="#101828"></path><path d="M107.646 63.0007C106.885 63.3269 105.691 64.4134 105.918 65.2817C105.997 65.5055 106.149 65.6963 106.35 65.8239C106.998 66.15 107.326 65.6079 107.76 65.2817C108.521 64.8497 109.173 65.3897 109.933 65.4977C111.268 65.8973 112.668 64.1347 110.797 62.8906C110.687 62.8906 110.687 62.7826 110.581 62.7826C110.914 63.1152 110.434 62.4564 109.069 62.4564C108.574 62.5774 108.096 62.7603 107.646 63.0007Z" fill="#101828"></path><path d="M402.525 223.687C400.944 221.311 400.896 221.614 400.704 221.186C401.019 221.063 403.682 221.186 403.285 219.026C402.967 216.98 402.232 215.021 401.125 213.272C401.034 213.106 400.91 212.961 400.762 212.844C400.614 212.727 400.444 212.64 400.262 212.589C400.08 212.539 399.89 212.525 399.702 212.549C399.515 212.572 399.334 212.633 399.17 212.728C394.555 215.218 390.522 218.66 387.336 222.826C387.208 222.625 387.017 222.473 386.793 222.394C385.065 221.314 382.765 222.808 381.365 223.69C378.847 225.286 364.753 234.33 360.197 237.369C356.994 225.937 354.85 214.234 353.793 202.409C355.442 201.573 357.035 200.629 358.56 199.584C359.755 198.824 359.005 196.461 357.48 197.087C342.001 203.431 330.48 207.442 312.965 207.185C316.261 168.003 320.194 136.22 319.371 134.985C318.769 133.73 318.002 132.561 317.09 131.509C321.324 128.125 329.473 124.932 334.679 123.258C335.543 125.321 336.407 127.276 337.394 129.231C334.52 129.881 331.864 131.265 329.685 133.248C329.56 133.392 329.489 133.573 329.482 133.763C329.476 133.953 329.534 134.14 329.649 134.291C329.763 134.443 329.926 134.551 330.11 134.597C330.295 134.643 330.489 134.624 330.661 134.544C339.919 129.341 344.565 131.907 349.771 139.864C371.771 173.491 369.999 176.597 377.022 190.892C377.132 191 373.114 195.56 372.788 196.104C371.41 197.86 369.884 199.494 368.228 200.99C365.528 195.305 355.679 181.982 351.834 177.103C345.796 169.317 339.151 162.023 331.962 155.287C331.784 155.15 331.562 155.084 331.339 155.098C331.115 155.113 330.905 155.209 330.746 155.367C330.588 155.526 330.492 155.736 330.478 155.96C330.463 156.183 330.53 156.405 330.666 156.583C340.314 167.457 349.236 178.954 357.374 191C358.901 193.277 360.325 195.657 361.826 197.949C362.815 199.461 364.649 203.813 366.712 203.921C366.836 204.051 366.99 204.149 367.161 204.206C367.331 204.263 367.513 204.277 367.69 204.247C370.361 203.364 372.706 201.7 374.421 199.469C376.418 197.411 378.1 195.07 379.415 192.521C380.05 191.102 379.099 188.935 378.767 187.419C375.514 172.685 361.772 150.934 352.382 137.583C349.261 133.145 346.01 129.187 340.44 128.79C340.45 128.532 340.414 128.274 340.332 128.03C339.252 125.315 337.943 122.818 336.64 120.213C336.443 119.916 336.162 119.685 335.833 119.55C335.504 119.414 335.142 119.38 334.794 119.452C334.019 119.701 333.259 119.989 332.515 120.316C332.67 118.24 333.106 116.195 333.811 114.236C335.727 110.147 340.291 107.415 340.651 102.293C340.667 100.669 340.266 99.0669 339.487 97.6413C338.708 96.2157 337.576 95.0137 336.2 94.15C333.228 92.3867 329.714 91.772 326.32 92.422C320.026 93.4178 316.01 98.2713 312.096 102.846C310.945 103.942 309.991 105.227 309.273 106.646C309.029 107.371 309.046 108.159 309.322 108.873C309.599 109.587 310.116 110.181 310.785 110.553C311.433 110.985 312.513 111.201 312.74 112.065C312.956 114.009 308.383 119.53 312.092 122.813C313.331 123.765 314.878 124.226 316.436 124.109C318.067 124.132 319.699 124.06 321.322 123.893C322.402 123.766 323.155 122.178 321.97 121.612C319.779 120.567 317.282 121.452 315.021 120.636C311.304 119.295 318.924 113.031 314.589 108.693C314.263 108.367 312.429 107.715 312.429 107.397C312.829 106.898 313.262 106.426 313.725 105.985C316.982 102.077 320.242 97.4159 325.233 95.8888C332.744 93.5906 338.593 98.0121 337.72 103.162C337.402 104.533 336.811 105.826 335.982 106.963C335.005 104.248 328.67 104.684 328.925 107.611C329.02 108.691 330.869 108.492 331.748 108.59C336.193 109.084 329.359 111.737 329.467 112.497C329.467 113.517 330.746 113.566 331.748 113.361C331.152 113.361 330.275 120.081 331.964 120.418C328.005 121.739 324.156 123.373 320.455 125.304C318.228 126.415 316.149 127.801 314.267 129.429C314.06 129.625 313.895 129.86 313.782 130.122C313.669 130.383 313.611 130.665 313.611 130.95C313.611 131.235 313.669 131.516 313.782 131.778C313.895 132.039 314.06 132.275 314.267 132.471C315.131 133.447 316.114 134.415 317.09 135.402C314.44 146.418 311.096 179.079 310.252 187.19C305.669 189.114 300.904 190.57 296.028 191.534C295.052 191.642 293.747 192.076 292.989 191.423C292.341 190.991 292.01 190.013 291.576 189.361C290.725 188.281 286.757 183.423 285.606 182.412C292.944 179.592 299.185 174.493 303.411 167.864C307.169 161.6 308.595 153.74 312.965 138.117C312.993 137.926 312.952 137.732 312.848 137.57C312.744 137.407 312.584 137.289 312.399 137.236C312.213 137.183 312.015 137.199 311.841 137.282C311.667 137.365 311.529 137.508 311.453 137.685C309.619 142.869 307.74 147.995 306.022 153.211C302.927 162.616 300.895 167.966 293.211 174.275C290.053 176.867 286.263 178.509 283.224 181.224C278.011 179.712 270.948 182.192 266.721 185.35C266.543 185.455 266.413 185.625 266.358 185.824C266.302 186.023 266.326 186.236 266.424 186.418C266.522 186.601 266.686 186.738 266.883 186.801C267.08 186.865 267.293 186.85 267.479 186.76C270.051 185.642 272.749 184.84 275.515 184.371C277.027 184.142 282.666 182.969 283.55 184.263C285.934 187.668 288.469 190.965 291.149 194.143C292.445 195.655 294.618 195.195 296.361 194.903C300.94 194.14 305.419 192.865 309.714 191.104C309.796 191.092 309.872 191.053 309.93 190.994C309.385 196.966 308.876 202.941 308.301 209.017C308.302 209.535 308.509 210.031 308.875 210.398C309.241 210.764 309.738 210.97 310.256 210.971C313.621 211.025 316.987 210.971 320.352 210.755C312.023 229.372 274.62 263.28 257.815 276.877C257.572 277.131 257.394 277.442 257.299 277.781C257.204 278.12 257.195 278.478 257.271 278.821C257.271 278.932 257.381 279.037 257.381 279.148C256.352 279.564 255.3 279.924 254.232 280.228C252.936 280.465 240.579 272.607 237.73 268.827C236.33 266.972 233.842 267.747 234.472 272.627C235.153 277.944 241.039 285.057 244.894 288.805C245.445 289.338 246.849 290.533 247.067 290.749C246.79 290.909 246.55 291.127 246.363 291.388C246.177 291.649 246.049 291.946 245.987 292.261C245.661 293.557 248.147 298.233 249.461 298.449C252.322 297.982 255.102 297.104 257.714 295.844C260.282 294.584 262.688 293.016 264.879 291.177C266.892 292.689 267.633 292.473 269.33 291.393C270.4 290.717 271.503 290.097 272.588 289.438C293.707 276.493 312.804 260.507 329.262 241.993C332.627 238.194 345.993 220.504 347.393 218.432C347.825 217.784 349.121 218.216 348.803 218.976C347.891 221.422 346.84 223.814 345.656 226.141C344.421 228.398 336.537 239.931 336.211 240.473C336.319 240.689 338.504 244.482 339.358 246.119C342.233 251.629 344.997 258.848 351.626 260.559C358.461 262.323 365.42 258.183 370.952 254.586C377.783 250.149 383.991 244.818 389.409 238.736C389.616 238.505 389.756 238.222 389.813 237.918C389.871 237.613 389.844 237.299 389.735 237.008C390.139 237.008 391.634 234.954 395.055 238.52C399.426 242.652 402.707 247.799 404.609 253.504C405.041 255.016 407.542 255.133 407.758 253.504C410.985 243.432 408.082 232.023 402.525 223.687ZM262.252 280.688C288.019 260.332 296.413 253.459 322.183 221.733C324.279 219.154 326.192 215.857 328.914 214.024C329.562 213.592 330.543 214.35 330.21 215.002C329.434 216.791 328.371 218.442 327.063 219.888C308.984 242.896 287.176 266 262.896 281.664C262.468 282.096 261.706 281.117 262.252 280.688ZM346.829 211.745C332.273 233.492 295.853 271.119 268.114 287.202C268.044 287.258 267.962 287.299 267.874 287.32C267.786 287.342 267.695 287.345 267.606 287.329C267.517 287.313 267.433 287.278 267.359 287.227C267.285 287.175 267.222 287.108 267.176 287.031C267.129 286.954 267.1 286.867 267.089 286.777C267.079 286.688 267.088 286.597 267.115 286.511C267.143 286.425 267.188 286.346 267.249 286.279C267.309 286.212 267.384 286.158 267.466 286.122C285.161 275.46 321.188 242.903 345.097 210.557C345.879 209.485 347.481 210.768 346.829 211.745ZM350.302 225.642C351.847 231.675 353.901 243.41 359.858 242.797C361.937 242.227 363.889 241.269 365.612 239.974C368.777 238.155 371.766 236.015 374.84 233.893C379.754 230.5 382.119 227.899 385.48 226.618C385.912 226.403 386.456 227.051 386.128 227.483C384.53 229.543 382.582 231.308 380.374 232.695C375.213 236.721 369.73 240.316 363.979 243.443C363.157 244.09 362.198 244.542 361.175 244.762C360.152 244.983 359.092 244.967 358.076 244.715C357.061 244.464 356.115 243.984 355.313 243.312C354.511 242.64 353.873 241.794 353.447 240.838C351.213 236.067 349.747 230.974 349.104 225.746C349.218 225.208 350.194 225.098 350.302 225.642ZM385.046 238.887C380.993 242.123 376.712 245.062 372.235 247.681C368.358 250.331 364.008 252.211 359.422 253.219C357.317 253.685 355.12 253.496 353.125 252.677C348.291 250.329 344.421 242.263 343.68 236.498C343.554 235.524 344.894 235.081 345.192 236.066C345.988 238.68 347.081 241.193 348.449 243.557C352.769 250.936 355.361 251.305 360.608 249.856C367.012 248.087 374.028 243.067 379.616 239.324C381.573 237.945 383.424 236.421 385.152 234.764C386.126 234.019 387.141 233.331 388.193 232.701C388.951 232.269 390.053 233.254 389.489 233.997C388.327 235.893 386.82 237.555 385.046 238.896V238.887Z" fill="#101828"></path><path d="M319.142 115.225C318.944 115.689 318.879 116.199 318.955 116.698C319.031 117.197 319.246 117.665 319.574 118.048C321.421 120.208 327.067 118.806 328.37 116.536C328.476 116.348 328.531 116.135 328.53 115.918C328.528 115.702 328.47 115.489 328.361 115.302C328.251 115.115 328.095 114.96 327.907 114.853C327.719 114.745 327.506 114.689 327.29 114.689C325.844 115.033 324.454 115.581 323.164 116.318C322.62 116.534 321.535 116.862 321.004 116.534C320.46 116.102 320.896 115.238 320.14 114.905C319.794 114.791 319.248 114.791 319.142 115.225Z" fill="#101828"></path><path d="M381.24 204.688C380.21 203.978 378.98 203.616 377.73 203.655C376.48 203.694 375.275 204.131 374.291 204.904C373.373 205.806 372.7 206.927 372.336 208.161C372.01 209.241 372.12 210.876 371.04 211.527C370.935 211.597 370.856 211.699 370.813 211.818C370.77 211.937 370.767 212.066 370.804 212.187C370.84 212.308 370.915 212.414 371.016 212.49C371.117 212.565 371.24 212.606 371.367 212.607C373.864 212.933 374.16 209.44 375.058 207.939C375.28 207.454 375.609 207.026 376.021 206.688C376.432 206.349 376.916 206.108 377.434 205.984C378.514 206.062 379.54 206.48 380.367 207.179C381.663 207.958 383.07 208.611 384.383 209.241C385.741 210.081 387.255 210.635 388.835 210.87C389.018 210.851 389.194 210.79 389.35 210.691C389.505 210.592 389.636 210.458 389.731 210.3C389.826 210.142 389.882 209.964 389.897 209.78C389.911 209.597 389.882 209.412 389.813 209.241C388.668 207.518 386.517 207.386 381.24 204.688Z" fill="#101828"></path><path d="M393.189 205.883C395.442 202.93 387.325 201.539 385.696 201.539C385.431 201.553 385.179 201.657 384.983 201.835C384.786 202.013 384.656 202.253 384.616 202.515C384.463 204.044 386.467 203.694 390.586 206.099C391.45 206.533 392.53 206.744 393.189 205.883Z" fill="#101828"></path><path d="M397.315 200.448C397.099 198.603 393.63 198.355 392.321 198.061C391.241 197.817 387.394 196.86 387.217 198.493C387.076 199.789 389.377 200.122 390.258 200.437C392.777 201.398 397.624 203.15 397.315 200.448Z" fill="#101828"></path><path d="M381.888 194.698C384.882 194.698 393.187 195.024 394.917 195.024C396.213 195.024 398.066 195.35 399.043 194.264C399.161 194.156 399.237 194.01 399.256 193.852C399.276 193.693 399.239 193.533 399.151 193.4C398.287 192.205 396.654 192.205 395.243 192.104C390.702 191.938 386.156 192.227 381.672 192.968C380.592 193.104 380.92 194.698 381.888 194.698Z" fill="#101828"></path><path d="M286.68 200.88C286.68 201.094 286.743 201.303 286.862 201.481C286.981 201.659 287.151 201.797 287.348 201.878C287.546 201.96 287.764 201.981 287.974 201.938C288.183 201.896 288.376 201.792 288.526 201.64C291.959 197.497 289.539 191.549 283.64 192.413C279.259 193.567 275.442 196.266 272.892 200.012C272.676 200.66 273.54 201.202 274.087 200.876C276.575 198.404 279.526 196.449 282.772 195.121C285.342 194.257 287.688 195.048 287.224 197.837C286.97 198.837 286.788 199.854 286.68 200.88Z" fill="#101828"></path><path d="M274.845 192.745C274.27 192.616 273.671 192.654 273.117 192.853C271.687 193.465 268.654 195.687 269.425 197.305C270.14 198.8 272.281 196.039 274.095 195.132C275.242 194.439 275.964 193.491 274.845 192.745Z" fill="#101828"></path><path d="M273.326 188.728C271.254 189.085 269.288 189.901 267.572 191.117C267.403 191.221 267.273 191.379 267.205 191.566C267.137 191.753 267.134 191.957 267.197 192.146C267.26 192.335 267.385 192.497 267.551 192.606C267.718 192.714 267.916 192.764 268.114 192.745C268.722 192.626 269.306 192.407 269.842 192.097C270.603 191.881 271.354 191.555 272.231 191.337C273.108 191.119 274.62 190.905 274.391 189.708C274.389 189.573 274.359 189.44 274.303 189.317C274.248 189.193 274.168 189.082 274.068 188.991C273.969 188.899 273.852 188.829 273.724 188.783C273.597 188.738 273.461 188.719 273.326 188.728Z" fill="#101828"></path><path d="M324.028 105.019C324.113 104.605 324.042 104.174 323.831 103.808C323.619 103.442 323.28 103.166 322.879 103.033C322.477 102.9 322.041 102.919 321.653 103.086C321.264 103.253 320.95 103.556 320.771 103.939C319.326 106.101 323.421 108.058 324.028 105.019Z" fill="#101828"></path><path d="M229.679 115.344C228.815 115.899 227.951 117.189 226.856 117.072C226.532 117.072 225.992 116.53 225.776 117.072C225.715 117.229 225.686 117.396 225.692 117.564C225.697 117.732 225.737 117.897 225.808 118.049C225.879 118.201 225.98 118.338 226.105 118.45C226.231 118.562 226.377 118.647 226.537 118.701C227.249 118.919 228.01 118.921 228.724 118.709C229.439 118.496 230.074 118.078 230.552 117.506C231.746 116.307 230.662 114.696 229.679 115.344Z" fill="#101828"></path><path d="M244.771 113.052C244.339 108.601 243.577 103.825 239.451 101.328C232.597 97.1763 221.117 100.896 218.605 109.361C215.352 120.329 213.84 121.522 214.488 122.498C215.568 124.127 222.631 123.794 225.888 122.93C226.231 123.64 226.308 124.449 226.104 125.211C225.77 127.272 221.108 128.36 221.108 128.36C216.836 129.428 212.856 131.433 209.456 134.231C206.056 137.029 203.322 140.55 201.452 144.536C196.212 154.945 196.424 166.46 195.806 177.867C195.479 180.427 195.479 183.017 195.806 185.576C195.972 186.815 196.461 187.989 197.222 188.98C197.984 189.971 198.993 190.744 200.148 191.223C201.012 191.449 202.003 190.348 201.444 189.594C200.161 187.842 198.793 186.888 198.402 184.708C198.171 182.649 198.207 180.569 198.51 178.52C199.396 168.175 197.456 149.509 209.911 137.154C212.983 133.967 216.839 131.645 221.093 130.423C222.173 130.101 226.187 129.114 227.392 126.948C228.359 125.207 228.472 120.671 225.111 120.217C218.918 119.383 225.655 110.229 225.871 109.793C228.821 109.723 231.77 109.978 234.665 110.553C234.449 111.633 231.608 119.455 231.517 120.651C231.383 122.379 233.796 122.822 234.014 122.93C231.522 130.408 231.824 128.714 236.619 130.313C237.164 130.423 238.021 129.553 238.131 128.902C238.231 128.358 234.766 127.606 234.44 127.492C234.548 127.276 235.416 124.124 235.52 123.582C236.062 123.798 244.639 125.31 245.4 124.559C246.726 123.476 245.324 118.8 244.771 113.052ZM233.697 103.283C233.049 104.147 231.742 103.931 230.766 104.041C229.761 104.223 228.778 104.513 227.835 104.905C225.926 105.73 224.107 106.748 222.407 107.944C221.975 108.268 221.428 107.512 221.862 107.184C224.143 104.591 227.12 102.707 230.44 101.755C231.043 101.603 231.669 101.567 232.286 101.647C232.831 101.747 233.582 101.755 233.798 102.406C233.805 102.738 233.915 103.064 233.697 103.283Z" fill="#101828"></path><path d="M251.72 177.219C252.696 175.707 240.864 180.801 236.52 183.408C232.531 181.034 229.44 177.408 227.727 173.094C227.485 172.663 227.335 172.187 227.287 171.696C227.239 171.205 227.293 170.709 227.446 170.24C227.599 169.77 227.848 169.338 228.176 168.97C228.505 168.601 228.906 168.305 229.355 168.1C231.731 166.553 242.056 164.408 242.056 164.408C241.285 162.14 240.148 160.012 238.691 158.11C237.611 156.913 246.927 147.586 246.508 146.709C245.807 145.625 245.007 144.608 244.119 143.67C242.624 141.679 241.602 139.372 241.132 136.927C240.662 134.481 240.756 131.961 241.406 129.557C241.497 129.19 241.48 128.804 241.355 128.447C241.231 128.09 241.005 127.777 240.705 127.547C240.406 127.316 240.045 127.178 239.668 127.149C239.291 127.12 238.914 127.202 238.583 127.384C237.55 127.846 236.597 128.469 235.76 129.231C230.818 133.399 233.88 130.356 224.035 139.218C223.82 135.821 223.784 132.414 223.925 129.012C224.016 126.842 220.234 126.515 219.257 128.036C214.432 135.551 205.377 146.778 210.788 155.505C211.869 157.212 213.316 158.658 215.024 159.738C210.824 179.142 204.26 197.957 195.48 215.762C195.333 216.028 195.258 216.327 195.261 216.63C195.264 216.933 195.346 217.231 195.498 217.493C195.651 217.755 195.868 217.974 196.13 218.127C196.392 218.28 196.689 218.363 196.992 218.367C212.514 217.227 251.502 215.408 255.403 215.002C255.801 214.994 256.181 214.832 256.463 214.55C256.744 214.268 256.906 213.888 256.915 213.49C257.014 202.029 256.85 187.747 251.72 177.219ZM219.907 153.224C219.365 153.116 217.521 153.44 217.302 152.576C217.274 152.483 217.265 152.386 217.278 152.29C217.29 152.194 217.323 152.101 217.375 152.019C217.426 151.937 217.495 151.867 217.576 151.814C217.657 151.761 217.749 151.726 217.845 151.712C222.091 150.383 224.86 153.591 223.165 153.991C221.953 154.271 220.825 153.224 219.907 153.224Z" fill="#3B85F8"></path><path d="M244.229 131.294C249.489 131.649 254.52 133.577 258.669 136.83C263.021 140.402 266.46 144.757 266.812 150.511C267.52 162.13 258.243 171.053 248.247 175.265C243.581 177.23 236.784 178.399 235.434 184.168C235.371 184.39 235.385 184.626 235.474 184.838C235.562 185.051 235.718 185.227 235.919 185.34C236.12 185.453 236.352 185.495 236.58 185.459C236.807 185.424 237.016 185.313 237.172 185.144C238.834 183.046 241 181.402 243.469 180.367C247.182 178.868 258.539 176.114 265.501 165.819C268.723 161.231 270.257 155.668 269.842 150.077C269.482 147.195 268.535 144.417 267.06 141.914C265.584 139.412 263.612 137.238 261.265 135.527C256.466 131.622 250.402 129.613 244.22 129.881C244.033 129.882 243.854 129.958 243.722 130.091C243.591 130.224 243.517 130.404 243.518 130.592C243.52 130.779 243.595 130.958 243.728 131.09C243.862 131.221 244.042 131.295 244.229 131.294Z" fill="#101828"></path><path d="M238.691 176.675C239.453 176.353 240.667 175.474 240.319 174.515C239.81 173.092 237.827 173.768 236.846 174.189C235.583 174.764 234.44 175.575 233.481 176.578C232.721 177.338 229.897 181.464 232.068 182.006C233.507 182.717 234.066 178.632 238.691 176.675Z" fill="#101828"></path><path d="M229.897 176.133C230.658 175.701 231.308 175.053 232.057 174.621C233.713 174.162 235.344 173.618 236.943 172.992C237.108 172.875 237.243 172.721 237.336 172.541C237.428 172.362 237.477 172.163 237.477 171.961C237.477 171.759 237.428 171.56 237.336 171.38C237.243 171.201 237.108 171.046 236.943 170.929C234.74 169.417 229.925 172.327 228.04 174.297C227.124 175.256 228.048 177.057 229.897 176.133Z" fill="#101828"></path><path d="M227.943 170.052C228.807 169.856 229.789 169.188 230.332 169.076C234.567 167.921 235.926 169.234 236.738 167.78C237.28 166.802 236.306 165.933 235.442 165.607C233.042 164.54 229.178 166.642 226.975 168.106C226.748 168.251 226.582 168.476 226.51 168.735C226.438 168.995 226.464 169.273 226.584 169.514C226.705 169.756 226.91 169.944 227.16 170.044C227.411 170.143 227.69 170.146 227.943 170.052Z" fill="#101828"></path><path d="M239.451 165.493C241.072 165.331 242.639 164.817 244.041 163.986C245.443 163.156 246.646 162.029 247.566 160.684C248.487 159.34 249.103 157.81 249.37 156.203C249.638 154.596 249.551 152.949 249.115 151.379C248.819 150.293 248.342 149.265 247.702 148.338C247.054 147.474 246.19 146.394 245.097 146.394C244.665 146.394 244.121 146.826 244.233 147.258C244.449 149.042 247.927 152.159 246.622 157.138C246.13 158.83 245.18 160.354 243.878 161.542C242.575 162.729 240.97 163.534 239.239 163.868C238.365 163.972 238.475 165.609 239.451 165.493Z" fill="#101828"></path><path d="M202.755 182.755C199.947 182.377 201.459 188.922 203.515 189.488C203.686 189.534 203.865 189.545 204.041 189.52C204.216 189.495 204.385 189.435 204.537 189.344C204.689 189.253 204.821 189.132 204.925 188.989C205.029 188.845 205.104 188.682 205.144 188.51C205.468 187.43 204.384 186.566 204.064 185.579C203.949 184.602 204.17 182.952 202.755 182.755Z" fill="#101828"></path><path d="M205.36 181.995C205.051 183.535 205.361 185.134 206.224 186.447C206.872 187.311 209.732 189.058 210.023 186.991C210.146 186.127 209.265 185.363 208.727 184.818C208.191 184.252 207.849 183.529 207.751 182.755C207.643 182.213 207.639 181.459 207.103 181.243C206.941 181.165 206.764 181.122 206.584 181.118C206.403 181.114 206.225 181.148 206.059 181.22C205.894 181.291 205.745 181.397 205.625 181.531C205.504 181.665 205.414 181.823 205.36 181.995Z" fill="#101828"></path></g><defs><clipPath id="clip0_1391_964"><rect width="432" height="432" fill="white"></rect></clipPath></defs></svg>