<svg xmlns="http://www.w3.org/2000/svg" width="116" height="38" viewBox="0 0 116 38" fill="none"><path d="M28.867 29.7694C28.867 21.798 22.4049 15.3359 14.4335 15.3359L14.4335 20.9303C19.3152 20.9303 23.2726 24.8877 23.2726 29.7694H28.867Z" fill="#79A6FF"></path><path d="M5.59436 15.3358C5.59436 20.2175 9.55175 24.1749 14.4334 24.1749V29.7692C6.46207 29.7692 0 23.3072 0 15.3358C0 7.36442 6.46207 0.902344 14.4334 0.902344C22.4048 0.902344 28.8669 7.36442 28.8669 15.3358C28.8669 17.9648 28.164 20.4296 26.936 22.5525C25.9076 20.7748 24.5109 19.2367 22.8503 18.0427C23.1245 17.1896 23.2725 16.28 23.2725 15.3358C23.2725 10.4541 19.3151 6.4967 14.4334 6.4967C9.55175 6.4967 5.59436 10.4541 5.59436 15.3358Z" fill="#3B85F8"></path><path d="M40.0398 29.5848C38.4734 29.5848 37.0767 29.2454 35.8497 28.5666C34.6487 27.8617 33.6958 26.8957 32.991 25.6687C32.3122 24.4417 31.9728 23.0319 31.9728 21.4394V8.79053H37.3378V20.6562C37.3378 21.9615 37.7163 23.0058 38.4734 23.789C39.2566 24.5722 40.3009 24.9638 41.6063 24.9638C42.4939 24.9638 43.2902 24.7941 43.9951 24.4547C44.7261 24.0892 45.3265 23.5802 45.7964 22.9275V8.79053H51.1614V29.1932H45.7964V27.5484C44.23 28.906 42.3112 29.5848 40.0398 29.5848Z" fill="#3B85F8"></path><path d="M53.9587 29.2154V1.80304L59.3237 0.902344V10.4575C60.9424 9.17827 62.8482 8.53865 65.0412 8.53865C66.9731 8.53865 68.7223 9.00857 70.2887 9.94842C71.8551 10.8883 73.0952 12.1545 74.0089 13.747C74.9488 15.3134 75.4187 17.0756 75.4187 19.0337C75.4187 20.9917 74.9488 22.767 74.0089 24.3595C73.0691 25.9259 71.8029 27.1791 70.2104 28.1189C68.6178 29.0327 66.8425 29.4895 64.8845 29.4895C63.8664 29.4895 62.8743 29.3459 61.9083 29.0588C60.9424 28.7716 60.0547 28.3539 59.2454 27.8056V29.2154H53.9587ZM64.1796 24.9469C65.3022 24.9469 66.3074 24.6858 67.195 24.1637C68.1087 23.6416 68.8267 22.9367 69.3488 22.049C69.871 21.1614 70.132 20.1563 70.132 19.0337C70.132 17.9111 69.871 16.9059 69.3488 16.0183C68.8267 15.1046 68.1087 14.3997 67.195 13.9036C66.3074 13.3815 65.3022 13.1204 64.1796 13.1204C63.1876 13.1204 62.2738 13.2901 61.4384 13.6295C60.6291 13.9428 59.9242 14.4258 59.3237 15.0785V23.028C59.8981 23.6285 60.603 24.0984 61.4384 24.4378C62.2999 24.7772 63.2137 24.9469 64.1796 24.9469Z" fill="#3B85F8"></path><path d="M78.2158 29.2488V8.84619H83.5808V29.2488H78.2158Z" fill="#3B85F8"></path><path d="M107.81 8.78508V36.1975L102.445 37.0981V27.543C100.826 28.8222 98.9207 29.4618 96.7277 29.4618C94.7958 29.4618 93.0466 28.9919 91.4802 28.0521C89.9138 27.1122 88.6737 25.846 87.7599 24.2535C86.8201 22.6871 86.3502 20.9248 86.3502 18.9668C86.3502 17.0088 86.8201 15.2335 87.7599 13.641C88.6998 12.0746 89.966 10.8214 91.5585 9.88158C93.151 8.96783 94.9263 8.51096 96.8843 8.51096C97.9025 8.51096 98.8946 8.65455 99.8605 8.94173C100.826 9.22891 101.714 9.64662 102.523 10.1949V8.78508H107.81ZM97.5892 13.0536C96.4666 13.0536 95.4615 13.3147 94.5739 13.8368C93.6601 14.3589 92.9422 15.0638 92.42 15.9515C91.8979 16.8391 91.6368 17.8442 91.6368 18.9668C91.6368 20.0894 91.8979 21.0945 92.42 21.9822C92.9422 22.8959 93.6601 23.6008 94.5739 24.0969C95.4615 24.619 96.4666 24.8801 97.5892 24.8801C98.5813 24.8801 99.495 24.7104 100.33 24.371C101.14 24.0577 101.845 23.5747 102.445 22.922V14.9724C101.871 14.372 101.166 13.9021 100.33 13.5627C99.4689 13.2233 98.5552 13.0536 97.5892 13.0536Z" fill="#3B85F8"></path><path d="M110.635 29.2154V1.80304L116 0.902344V29.2154H110.635Z" fill="#3B85F8"></path></svg>