<svg xmlns="http://www.w3.org/2000/svg" viewBox="0 0 200 200" height="800" width="800"><path d="M79.414 111.28c.969-.249 2.137-.585 3.106-.825a3.454 3.454 0 0 1-.072.384 5.727 5.727 0 0 0 2.186 6.445c.372.286-.4 2.873-.177 4.331a7.988 7.988 0 0 0 2.73 4.891 6.136 6.136 0 0 0 6.525.961c.136.28.344.656.488.937a93.738 93.738 0 0 0-10.255 8.2c-6.113 6.344-13.01 11.422-21.423 14.394A40.239 40.239 0 0 0 55 154.966a73.486 73.486 0 0 0-6.028 4.395 13.527 13.527 0 0 0-4.187 4.523l-1.849 2.1a53.458 53.458 0 0 0-6.149-2.018c-.768-.48-.768-1.305-.808-2.033-.281-5.141-2.983-10.224-8.094-20.991a1.86 1.86 0 0 1 .256-1.977c2.491-3.745 5.406-7.87 8.238-12.7a4.974 4.974 0 0 0 .312-1.593 5.281 5.281 0 0 0-1.248.985 957.851 957.851 0 0 0-7.069 10.383 22.046 22.046 0 0 0-1.193 2.073 4.334 4.334 0 0 0-.008 4.067c2.141 4.461 4.4 8.871 6.42 13.385.728 1.626 1.374 6.085 1.481 6.485a1.476 1.476 0 0 1-.616 1.745c-.921-1.289-1.828-2.584-2.77-3.859-.112-.152-.424-.168-.641-.248a1.317 1.317 0 0 0-.1.689c.176.939.048.572 2.506 4.327-.328.3-.656.58-.985.876-5.858-5.8-4.466-4.54-5.6-5.267-.1.08-.193.168-.281.248.734 1.362-.492-.048 4.868 5.924-.361.384-.721.776-1.081 1.161-1.681-1.225-3.362-2.458-5.044-3.683a7 7 0 0 1-.272.232c.16.3.649.576.881.777 1.3 1.126 2.233 2.3 3.554 3.4-2.017 1.809-1.3 1.82-3.9.641-4.509-2.045-7.894-5.428-11.032-9.175a35 35 0 0 1-5.075-7.605 25.722 25.722 0 0 1-2.562-9.286c-.767-11.969 3-22.55 10.1-32.031 1.409-1.88 3.1-3.556 4.683-5.315a3.2 3.2 0 0 1 .536-.385c.721.929 1.467 1.833 2.162 2.778a1.4 1.4 0 0 0 2.177.425c.874-.584 1.706-1.217 2.554-1.826.16.289.312.577.472.865-.432.817.014 1.49.385 2.145a28.208 28.208 0 0 0 5.243 6.565 8.26 8.26 0 0 0 4.187 2.37 3.49 3.49 0 0 0 1.145-.2 5.89 5.89 0 0 0 2.105.536 7.334 7.334 0 0 1 2.931.544c1.016.267 2.354.521 2.986-.352a17.8 17.8 0 0 1 2.41-2.583 8.4 8.4 0 0 1 1.041-.968 1.761 1.761 0 0 0 .977-1.634c-.031-.544-.769-1.224-.769-1.224l-.216-.313c-.624-.152-1.249-.318-1.881-.448a19.472 19.472 0 0 1-9.015-5 3.159 3.159 0 0 1 .977.248 9.272 9.272 0 0 0 7.677 1.209 3.35 3.35 0 0 0 2.562-2.666c.08-.6.112-1.233-.616-1.529a4.776 4.776 0 0 0-1.049-.305c-6.681-.323-6.556-1.834-10.2-2.858-.849-.238-1.777-.608-2.642.049-.576-.3-1.145-.617-1.721-.921a18.811 18.811 0 0 0 1.465-2.042 5.263 5.263 0 0 0 .328-1.537 62.2 62.2 0 0 1 12.492-2.492c8.871-.84 11.054-.226 17 .576a.969.969 0 0 1 .592.657c.312 1.5.5 3.13.753 4.643-.841.28-1.615.654-2.442.968a2.958 2.958 0 0 0-.777.353c.385.136.557.463.917.416.944-.123 1.865-.376 2.794-.584.232.576.46 1.152.692 1.737-1.04 1.008-1.393 1.585-2.625 2.954.6-.224.417.09.736-.112.828-.524 1.617-1.113 2.418-1.673.472.744.936 1.489 1.409 2.225-1.177 1.3-2.61 2.434-3.1 4.211.112.1.224.2.328.3 1.1-1.121 2.081-2.538 3.178-3.65.352.5.849 1.433 1.193 1.937-1.161 1.785-2.226 3.555-3.386 5.34l.24.208a21.792 21.792 0 0 0 2.081-1.953 27.717 27.717 0 0 0 1.769-2.706c.393.336.9.736 1.3 1.072-.592 1.906-1.289 3.755-1.881 5.66.112.048.232.1.344.152.8-.912.175.529 2.386-5.275.648.048 1.465.056 2.105.1-.029 1.27-.268 3.012-.248 4.267a4.042 4.042 0 0 0 .312 1.305l.521-.072c.131-1.954.259-3.891.395-5.828Z" fill="#38a1ff"></path><path d="M115.935 88.36c-1.5 1.441-1.769 2.425-3.866 4.627-.265.176-.993.736-.489-.5a13.575 13.575 0 0 1 .8-1.385c1.335-1.981 2.538-3.811 3.874-5.708-.808-.913-1.657-1.874-2.569-2.9a13.234 13.234 0 0 1-5.932 3.122 6.8 6.8 0 0 1-.745.184c-1.129.149-1.443-.2-1.177-1.3a17.65 17.65 0 0 0 .256-8.358 12.529 12.529 0 0 0-7.893-9.2 14.434 14.434 0 0 0-6.1-1.425c-3.595.16-8.164 2.452-9.4 6.717-.041.143-.136.272-.08.168a13.923 13.923 0 0 1-3.586-.2 4.844 4.844 0 0 1-2.428-1.863c-2.146-3.438-2.716-7.118-.753-10.831.928-1.754 2.178-3.339 3.347-5.108a7.3 7.3 0 0 1-1.209-7.493c1.343-3.859 4.954-5.56 7.389-7.029-.48-.824-1.041-1.633-1.449-2.514a13.333 13.333 0 0 1-.993-8.341 24.191 24.191 0 0 1 3.459-9.279 6.025 6.025 0 0 0 1.233-4.427 5.664 5.664 0 0 1 2.73-5.652 3.874 3.874 0 0 1 5.115.7 31.322 31.322 0 0 0 17.188 9.991c1.745.383 3.514.7 5.268 1.056 1.569.168.848.855.232 1.025a5.052 5.052 0 0 1-1.417.16c-2.114-.368-1.714-.048-2.426 1.569-.521 1.185-.961 2.4-1.465 3.659 3.587-.545 4.115-.352 5.38 2.946 1.6-.665 3.192-1.318 4.771-2a1.1 1.1 0 0 0 .52-.6 7.314 7.314 0 0 0-3.9-8.566c-2.068-.873 1.585-1.444-1.025-5.676-2.473-4.011-6.38-5.82-10.727-6.949a18.065 18.065 0 0 0-11.208.8c-.777.295-1.578.517-2.378.76-.208.064-2.562-.28 2.122-1.945a19.079 19.079 0 0 1 15.394.064 16.287 16.287 0 0 1 7.782 5.988 6.838 6.838 0 0 1 1.193 5.876c3.466 2.258 5.059 5.38 4.347 9.455 5.008-.644 8.161-1.532 11.055.44a4.529 4.529 0 0 1 2.058 3.7c.155 2.666-1.2 4.7-2.722 6.676-.876 1.132-.615.68-.769 1.065a19.306 19.306 0 0 1 3.435.737 18.3 18.3 0 0 1 4.3 2.233c3.537 2.707 3.125 7.5-.7 9.871-.3.184-.6.344-.985.56a7.256 7.256 0 0 1 2.754 5.292 8.519 8.519 0 0 1-1.585 5.66c14.626-.616 28.572 1.145 40.692 10.183-6.292-2.834-12.584-5.686-19.4-7.133a74.642 74.642 0 0 0-20.731-1.462c0 .408.006.785 0 1.153a23.913 23.913 0 0 1-4.283 12.729c-4.155 6.4-8.189 8.537-13.69 9.254-2.883.376-5.788.649-8.614-.576ZM105.12 31.44a27.6 27.6 0 0 1 4.243-2.425c1.857-.64 3.914-5.652 4.491-6.821a31.411 31.411 0 0 1-17.732-9.086c-.377 1.857-.457 1.977-1.313 2.089a16.529 16.529 0 0 0-.12-1.985 2.657 2.657 0 0 0-1.57-2.338 2.593 2.593 0 0 0-2.994 1.3 6.03 6.03 0 0 0-.664 4.619 1.906 1.906 0 0 1-.1 1.337C86.7 21.246 85.48 25 84.642 28.9a11.753 11.753 0 0 0 1.513 9.126c.9 1.409.648 1.25 2.169.672 10.516-3.998 11.776-2.012 12.713-3.063.59-.659 1.121-1.377 1.513-1.865a1.843 1.843 0 0 1 2.57-2.33Zm29.412 39.2c.208.417.008.617-.3.289-3.346-2.1-5.628-5.5-8.95-7.71-.328 1.025-.04 1.69-.7 2.81-.616.7-.68-.136-.672-.184a17.673 17.673 0 0 0-1.761-9.494c-.162-.32 2.225-.281 1.937-3.187a12.6 12.6 0 0 1 3.763 4.163c.482 1.032.192 1.587-.937 1.521a14.738 14.738 0 0 1-2.362-.5c.16 1.121.633 1.457 2.138 1.5 2.065.055 3.01-1.289 1.913-3.026-.849-1.345-1.883-1.888-2.938-3.106-.81-.936-1.321-1.033-1.473-1.369-.1-.225-.1-1.8-.777-2.562a2.2 2.2 0 0 0-2.321-.5 2.288 2.288 0 0 0-1.473 1.977 3.717 3.717 0 0 1-.5-1.177c-5.276 1.023-6.212-2.967-7.653-3.762-.185-.1-.568.344-.944.592a8.912 8.912 0 0 1-2.586.977c-1.817.489-3.419-.256-5.02-1.121a10.722 10.722 0 0 1-3.6 6.028 21.827 21.827 0 0 1 .884 2.901 25.824 25.824 0 0 1 .1 3.042 1.206 1.206 0 0 0 .273.585c3.287 4.61 6.137 9.176 10.319 11.824 1.465.928 2.93 2.005 4.851 1.721a9.677 9.677 0 0 0 4.811-2.418c.344-.288.9-.648 1.353-1.024.978-.808.625.2.673.232-.464.944-.464.944-.937 1.9 1.417 1.265 2.844 2.583 4.331 3.835.722.607.67 1.1.064 1.737-.828.869-1.593 1.785-2.449 2.754 2.161 2.025 4.243 3.979 6.316 5.924 6.765-3.258 12.128-15.379 11.72-19.926a26.154 26.154 0 0 0-8.806 2.338c.632.882 1.169 1.651 1.713 2.411Zm-9.358 16.732a1671.836 1671.836 0 0 0-4.62-4.371c-1.224 1.369-2.513 2.794-3.914 4.347a23.169 23.169 0 0 0 8.534.019Zm-3.683-5.348c.434.679-.53-.336 4.747 4.884a.528.528 0 0 0 .417.144c.722-.2 1.433-.448 2.129-.665a4273.71 4273.71 0 0 1-6.02-5.724c-.384.42-.817.876-1.273 1.356Zm-10.9-8.9a24.067 24.067 0 0 1-.833 2.322c-.39.857-1.025.961-1.649.256a19.83 19.83 0 0 1-2.2-6.637c-.35-1.905-.856-1.753-.856-.992a30.729 30.729 0 0 0 .64 3.842 21.434 21.434 0 0 0 1.345 3.859 2.085 2.085 0 0 0 2.106 1.241c1.479-.141 1.719-2.064 2.137-3.13.23-.607-.213-1.913-.693-.768Z" fill="#191919"></path><path d="M154.186 132.422c-.136.929.544 1.473 2.57.184 2.89-1.465 5.415-2.241 5.479-1.953-3.925 4.086-1.692 2.023-8.405 8.078a7.1 7.1 0 0 0-1.069 1.269 1.021 1.021 0 0 0 1.016 1.441 29.023 29.023 0 0 0 2.987-.377l-1.153 1.345a1.088 1.088 0 0 0-.841 1.537c.29.76.985.722 1.641.553.833-.215 1.649-.473 2.474-.713-.2 1.361-.432 1.71 1.761 1.6 1.665-.082 5.22-1.064 6.389-2.61a7.04 7.04 0 0 0 1.345-.424c8.905-4.843 10.962-10.94 15.338-19.269a30.2 30.2 0 0 1 5.38 11.832c.567 2.33-1.073 2.882-2.274 3.915a4.119 4.119 0 0 0-1.489.408c-1.659 1.3-3.29 2.642-4.875 4.027-6.307 5.509-20.318 17.708-21.111 18.348-.5-.832-.89-1.568-1.353-2.249a48.026 48.026 0 0 1-8.782-25.6c-.209-5.764.685-11.235 4.588-15.827a5.323 5.323 0 0 0 .6-1.425c-.072-.072-.144-.152-.216-.224a3.41 3.41 0 0 0-1.177.432 15.862 15.862 0 0 0-2.162 2.3c-2.774 3.792-3.637 8.19-3.818 12.769a43.975 43.975 0 0 0 4.107 20.03 32.723 32.723 0 0 0 4.595 7.837c.905 1.073 1.746 2.193 2.658 3.25a1.522 1.522 0 0 0 1.9.489c1.042-.525 2.025-1.169 3.106-1.81.641 1.161 1.313 2.394 2.082 3.787-2.242.368-4.347.755-6.461 1.065-5.667.831-11.328 1.675-17.012 2.409-3.442.445-6.845 1.4-10.367 1.049-2.911-.289-6.072-4.8-10.007-2.994-.144-.6-.3-1.209-.44-1.809.9-.5.68-1.377.672-2.138-.016-1.529-.153-3.058-.184-4.595a1.128 1.128 0 0 1 .521-.816c2.116-1.173 6.816-2.868 8.437-6.4a15.561 15.561 0 0 0 1.345-7.645 3.874 3.874 0 0 0-.432-1.065c-.216.272-.44.545-.656.817-.3-.264-.6-.537-.9-.8l.064-.008-.192-.512c-.352-.352-.376-1.409-1.281-.6a20.42 20.42 0 0 1-2.514-.88c-.248-.809-.488-1.617-.736-2.426a6.876 6.876 0 0 0 4.051-.9 14.036 14.036 0 0 0 5.187-5.635c1.768-3.228 2.727-6.622 1.761-10.328-.215-.824-.464-1.633-.7-2.465a76.051 76.051 0 0 1 13.5-4.435 65.266 65.266 0 0 1 20.014-1.4c.232.024.488-.168.729-.265q2.641 1.214 5.291 2.442a7.34 7.34 0 0 1-.344.673c-4.155 6.5-10.48 8.785-16.123 11.8-1.848.987-3.579 2.129-4.307 4.259a1.57 1.57 0 0 0-.207.652Z" fill="#38a1ff"></path><path d="M93.72 127.475a6.152 6.152 0 0 1-6.525-.961 8.3 8.3 0 0 1-2.97-4.9c-.2-1.381.635-3.947.208-4.275-2.233-1.719-2.735-3.986-2.113-6.6a.824.824 0 0 0 .008-.192c.224-.592.434-1.192.68-1.785a5.2 5.2 0 0 1 4.46-3.37 1.041 1.041 0 0 0 .92-.945c.4-4.186 5.252-6.316 7.862-5.652l.624.216c1.633-2.9 3.827-3.979 7.317-3.578.016 0 .024 0 .032-.016 1.249-1.585 2.738-2.786 4.964-2.6a4.992 4.992 0 0 1 3.714 1.713.854.854 0 0 0 .681.288c3.826-.39 6.092 1.745 5.916 5.6.024.04.048.072.072.112 4.275 1.7 7.474 7.873 3.618 11.816-.008.008-.016.032-.008.04a4.632 4.632 0 0 1 .609 3.883c-.137.481 1.9 1.419 5.427 3.843.712.489 3.629 3.294-2.7-.36-1.457-.842-2.866-1.762-4.427-2.722.032.64-.018 1.137.056 1.617.172 1.129-.809 1.209-1.113.144-.3-.7-.5-1.449-.737-2.178a14.328 14.328 0 0 0-3.074-4.691 4.032 4.032 0 0 1-.616-.672c-.4-.75.024-.761.44-.5.168.1.464.313.544.24a1.722 1.722 0 0 0 1.473-1.7c-.056-1.577-.664-2.689-1.881-3.122-.7-.248-1.306-.12-1.561.641a7.532 7.532 0 0 0-.248 2.065c.023.5.056.945-.448.448-.265-.3-.473-.536-.681-.776-4.2 2.722-7.885 1.089-11.512-1.425a.035.035 0 0 0-.056.016c-.907 2.7-2.337 4.843-5.628 4.867a.039.039 0 0 0-.032.056c1.746 2.774 1.361 5.292-1.129 7.485a.034.034 0 0 0 .008.056 5.905 5.905 0 0 1 3.147 3.419c.1.3.3.632.248.912-.008 1.626.561 1.784 1.369 2.362 6.164 4.411 10.351 7.043 17.668 4.691 1.721-.553 4.022-1.985 3.37-8.309-.242-2.346.758-.657.993.824a12.068 12.068 0 0 1-.673 6.613.029.029 0 0 0 .016.04c1.706 1.129 3.475 1.8 5.1 3.266.528.368.5.814-.264.672a4.776 4.776 0 0 1-1.329-.512 30.932 30.932 0 0 1-3.426-1.913 1.256 1.256 0 0 0-1.826.088 5.952 5.952 0 0 1-.84.568 10.247 10.247 0 0 1 4.139 9.039 11.189 11.189 0 0 1-2.914 7.044c-1.513 1.684-3.467 2.72-4.564 4.243-2.53 3.515-5.211 6.885-8.574 9.287-.016.008-.016.024-.016.04.657 2.185 1.337 4.253 1.914 6.356a.039.039 0 0 0 .072 0c1.638-6.54 1.71-6.855 1.969-7.685.253-.81.977-1.265.905.136-.872 6.143.035 3.334-5.436 24.2-.615 2.346-1.432 4.643-2.049 6.989-.344 1.305-1.137 1.16-.921-.257 1.089-5 1.987-10.054 3.394-14.954 1.387-4.827.546-9.305-.96-13.858-.034-.1-.019.022-2.93 1.257a7.159 7.159 0 0 1-4.892.232 1.124 1.124 0 0 0-1.465.569c-.964 1.423-2.02 2.783-3 4.195-.066.1-.762 1.26-.464-.32.427-2.265 1.321-3.355 2.65-5.036a.039.039 0 0 0-.008-.056c-1.739-.912-3.259-1.673-3.907-3.611-.064-.48-.264-1.593 1.489.481 2.626 2.017 5.507 3.1 8.862 2.353a9.75 9.75 0 0 0 5.036-3.194c2.952-3.267 5.7-6.722 8.525-10.095a1.014 1.014 0 0 0 .137-.912c-3.063-5.389-.556-10.02-.7-10.528-4.431.765-8.459 2.007-12.1.072a.036.036 0 0 0-.04 0c-2.65 2.13-5.524 3.819-9.207 3.491a1.7 1.7 0 0 1-.744 1.121 3.746 3.746 0 0 1-.368-.889c-.717-2.139-2.258-2.386-4.043-.6a2.437 2.437 0 0 0-.689 1.409c-.276 2.187.649 3.57 3.026 4.371.016.008.032.024.024.04-.912 3.49-1.529 7.012.12 10.543a2.912 2.912 0 0 1-1.953-1.905 2.733 2.733 0 0 0-2.257-1.866 46.769 46.769 0 0 0-9.9-1.673.037.037 0 0 0-.04.032 52.011 52.011 0 0 1-.457 7.061 31.266 31.266 0 0 1-7.949 14.978 13.405 13.405 0 0 1-5.564 3.955 5.006 5.006 0 0 1-1.017.264.523.523 0 0 1-.416-.288c-.039-.1.112-.353.24-.424a25.076 25.076 0 0 0 8.454-8.182c4.568-6.732 5.686-11.873 5.34-17.556 0-.024-.016-.04-.04-.032-6.822.525-16.067.383-28.028 10.047-.744.6-1.393 1.313-2.113 1.953-.513.456-1.657 1.073-1.217-.28 1.385-2.778 4.107-4.354 6.4-6.236a34.74 34.74 0 0 1 3.859-2.714A40.131 40.131 0 0 1 62.522 151c8.415-2.968 15.31-8.05 21.423-14.394 2.675-2.776 5.354-5.595 8.758-7.537.464-.265.953-.512 1.425-.761a12.445 12.445 0 0 1 5.716-1.072.037.037 0 0 0 .024-.064c-.561-.574-1.941-1.874-1.985-2.594-.133-2.161-1.434-3.418-3.187-4.331-1.105-.576-1.175-1.111-.088-1.8 2.517-1.6 1.82-5.686-.448-8.014-.32-.328-.072-.4.328-.328.865.16 2.5 1.3 4.091.36 1.65-.968 3.028-2.337 2.85-4.435a5.388 5.388 0 0 1 .088-1.449c.166-.876.608-.256.849.144a5.737 5.737 0 0 0 1.649 1.857c2.122 1.248 4.347 2.282 6.9 1.658a5.538 5.538 0 0 0 3.818-2.53 2.486 2.486 0 0 1 3.018-1.041 4.454 4.454 0 0 1 2.955 4.475 4.16 4.16 0 0 1-1.674 3.018c-.016.016-.008.032.008.056a11.067 11.067 0 0 0 2.906 3.339 1.615 1.615 0 0 0-.248-2.3c-.768-1.009-.321-1.618.36-2.3a3.807 3.807 0 0 0 .993-3.89 7.422 7.422 0 0 0-3.843-4.892 1.905 1.905 0 0 1-1.184-1.993 3.5 3.5 0 0 0-4.547-3.787c-1.5.52-1.624-1.132-3.211-1.729a4.017 4.017 0 0 0-4.915 1.721c-.366.522-.76.871-1.425.713-2.656-.632-4.582.519-5.9 2.682a1.512 1.512 0 0 1-2.138.7 4.276 4.276 0 0 0-4.059.713 6.242 6.242 0 0 0-2.273 4.083 1.915 1.915 0 0 1-1.7 1.7 4.735 4.735 0 0 0-2.362 1.12c-2.614 2.774-2.236 6.256.833 8.478.576.417.522.754.232 1.281a5.8 5.8 0 0 0-.7 1.657c-.688 3.718 2.93 7.27 6.805 6.685 1.12-.157 1.436.219 1.056 1.276Z" fill="#191919"></path><path d="M37.937 96.541a5.474 5.474 0 0 1-.328 1.537 18.811 18.811 0 0 1-1.465 2.042c-5.447 4.91-2.228 1.97-7 6.492-.848.609-1.687 1.244-2.554 1.826a1.393 1.393 0 0 1-2.177-.425c-.688-.945-1.441-1.857-2.162-2.778-1.048-1.865-2.153-3.7-3.13-5.595a57.753 57.753 0 0 1-5.892-27.868c.36-9.478 2.89-18.26 8.79-25.8C28.8 37.293 37.407 31.256 48.36 28.991a39.954 39.954 0 0 1 5.724-.569 1.385 1.385 0 0 0 1.329-.824 15.791 15.791 0 0 1 4.547-5.6 15.328 15.328 0 0 1 8.006-2.882c1.273-.1 2.538-.313 3.811-.449 3.025-.321 4.6-2.958 10.983-7.613a7.985 7.985 0 0 1 4.764-1.8c1.272.011.92.857.088.889-4.151.812-7.905 5.242-12.241 8.5-2.037 1.532-5.5 1.7-7.693 1.914a13.286 13.286 0 0 0-9.855 5.756c-.456.632-.9 1.273-1.337 1.889 9.334 1.547 14.078 1.957 18.053 4.8a1.115 1.115 0 0 0 .792 0c1.756-.463 3.488-1.028 5.26-1.425 1.569-.351 1.2.81.376 1.025-1.665.434-3.234 1.186-4.883 1.673a1.9 1.9 0 0 0-1.484 1.664c-.518 3.115-.449 6.117 1.521 8.823 1.673 1.865 1.65 2.479 1.168 2.249-4.535-2.162-5.651-7.773-3.61-13.025A16.721 16.721 0 0 0 68.15 31.8c-3.57-.715-7.157-1.431-10.775-1.826a31.086 31.086 0 0 0-14.026 2.034 44.439 44.439 0 0 0-15.195 9.63 39.875 39.875 0 0 0-10.847 16.813c-4.2 12.607-2.645 27.62 2.674 39.027.19.409.608 1.169.608 1.169a35.79 35.79 0 0 0 5.34 8.47c.68-.521 1.344-.946 1.929-1.473 1.895-1.708 5.846-5.338 5.94-5.42a5.219 5.219 0 0 0 2.042-5.572c-1.279-6.461.127-12.7 2.714-18.693 3.946-9.137 11.209-15.64 20.126-19.878 1.128-.536 1.521-.416 2.025.265-1.185.672-2.377 1.338-3.546 2.025C50.47 62.3 44.892 67.352 41.252 74.3a33.043 33.043 0 0 0-3.811 20.3 17.65 17.65 0 0 0 .496 1.941Z" fill="#191919"></path><path d="M121.635 166.91c3.936-1.805 7.146 2.727 10.007 2.994 3.516.329 6.917-.6 10.367-1.048 5.677-.731 21.231-3.1 23.473-3.475-.769-1.393-1.441-2.626-2.082-3.786-1.081.64-2.064 1.284-3.106 1.809a1.52 1.52 0 0 1-1.9-.489c-.914-1.063-1.761-2.185-2.658-3.25a32.85 32.85 0 0 1-4.595-7.837 43.936 43.936 0 0 1-4.107-20.03c.177-4.571 1.037-8.969 3.818-12.769a16.8 16.8 0 0 1 2.162-2.3c.282-.262 2.905-1.449.793 1.217-3.741 4.722-4.8 10.063-4.588 15.827a48.085 48.085 0 0 0 8.782 25.6c.463.681.849 1.409 1.353 2.25.8-.641 1.53-1.193 2.218-1.794 6.305-5.509 22.1-19.292 23.768-20.582.375-.29 2.986-1.841 1.2.657-2.2 3.7-16.876 15.947-21.062 19.589a.812.812 0 0 0-.217 1.217 38.151 38.151 0 0 1 2.674 4.939c.417 1.73-.36 2.37-1.7.857-.12-.056-.184-.248-.272-.384-4.1 1.449-8.4 1.921-12.649 2.562-6.42.968-12.855 1.812-19.293 2.673-.729.1-1.465.072-2.2.112a4.652 4.652 0 0 1-3.3-1.3 9.06 9.06 0 0 0-6-2.4c-.59.013-1.062-.09-.886-.859Z" fill="#191919"></path><path d="M127.167 182.857c-.5.112-1 .216-1.5.328a19.842 19.842 0 0 1-6.541 1.217c-.688-.071-1.609-.632-.5-.912 2.738-.9 5.244-1.05 7.83-1.73a15.137 15.137 0 0 1 8.6.313c2.185.7 4.356 1.456 6.565 2.073 10.3 2.874 16.29 5.2 27.027 1.641a35.414 35.414 0 0 0 14.282-8.854 32.01 32.01 0 0 0 6.356-10.287c2.3-5.4 2.113-10.9 1.017-16.491a20.781 20.781 0 0 1-.3-2.466.814.814 0 0 1 .352-.593c.08-.055.4.136.536.289a2.4 2.4 0 0 1 .44.736 25.929 25.929 0 0 1 .273 18.669c-1.6 4.356-3.577 8.5-6.8 11.9a36.147 36.147 0 0 1-15.683 9.783c-1.234.387-2.6.735-3.883 1.161-.44.04-.872.047-1.3.12a31.519 31.519 0 0 1-11.056.072 63.408 63.408 0 0 1-14.794-4.851c-6.847-3.133-9.848-2.134-10.921-2.118Z" fill="#191919"></path><path d="M84.425 100.248c-.92 2.386-1.278 4.969-2.473 7.221-.524.987-.7.5-.609-.24-.016-.392 1.3-5.372 1.922-7.7-3.315-2.313-4.564-6.012-5.6-9.966-2.53 2.986-3.961 6.142-6.413 9.014-.409.479-1.016.624-.624-.4.12-.393 4.344-6.916 6.34-10.023a4.426 4.426 0 0 0 .441-.929c.737-2.083-.4-3.1.928-6.028a4.519 4.519 0 0 1-2.073-5.372 4.354 4.354 0 0 1 6.188-2.37 1.444 1.444 0 0 1 .592.609c.537 1.041-.5 1.488-.984 1.017a2.48 2.48 0 0 0-3.146-.1A2.578 2.578 0 0 0 77.6 77.56a2.7 2.7 0 0 0 2.049 2.3c.392.128.793.224 1.177.336a22.376 22.376 0 0 1 1.737-2.882c.49-.591 1.441-.264 1.121.641-.876 2.479-3.056 4.89-1.857 9.038.384 1.329 1 1.548 2.305 1.137a21.371 21.371 0 0 1 2.778-.673c2.026-.349 3.423.661 4.547 2.21a2.508 2.508 0 0 0 .817.736c3.17 1.441 1.545 6 1.449 6.461a1.915 1.915 0 0 1-1.532 1.736 4.031 4.031 0 0 0-3.074 2.466c-2.082.791-4.139-.594-4.692-.818Zm1.049-8.206a4.467 4.467 0 0 0 1.593 3.547 2.1 2.1 0 0 0 2.49.408 10.3 10.3 0 0 0 2.378-1.7 1.692 1.692 0 0 0-.417-2.666 5.2 5.2 0 0 1-1.064-1 3.47 3.47 0 0 0-2.938-1.305c-1.306.066-1.968 1.116-2.042 2.716Z" fill="#191919"></path><path d="M130.393 182.689c2.754.016 5.2 1.089 7.67 2.154a69.385 69.385 0 0 0 14.794 4.851 31.729 31.729 0 0 0 11.055-.072c2.72-.454.913.264.665.368-2.234.937-4.426 2.022-6.733 2.73a52.9 52.9 0 0 1-6.732 1.361c-1.385.234-2.786.328-4.187.432a1.59 1.59 0 0 1-.985-.216q-7.792-5.778-15.547-11.608Z" fill="#38a1ff"></path><path d="M169.853 112.6c1.272.584.7.968-1.265.32a61.509 61.509 0 0 0-19.478 1.345 76.132 76.132 0 0 0-13.5 4.435c.24.832.494 1.649.7 2.465.953 3.7.008 7.093-1.761 10.328a13.985 13.985 0 0 1-5.187 5.636 6.9 6.9 0 0 1-4.051.9c-.921-.528-.368-.807.184-1.065a15.965 15.965 0 0 0 3.346-1.6 15.06 15.06 0 0 0 5.8-14.674c-.22-1.549-1.875-2.642-.248-3.394a66.165 66.165 0 0 1 18.645-5.676c4.707-.658 9.427-.977 14.13.072a23.882 23.882 0 0 1 2.685.908Z" fill="#191919"></path><path d="M154.362 131.774c1.143-3.519 4.949-4.332 11.352-7.91a24.278 24.278 0 0 0 9.078-8.149c.136-.217.232-.449.344-.673 4.119-6.293 3.48-10.056 3.683-10.407a7.232 7.232 0 0 1 .456-.632c.16.208.426.392.472.624a9.7 9.7 0 0 1-.352 5.02 26.847 26.847 0 0 1-7.957 12.2 45.92 45.92 0 0 1-9.023 5.556c-2.545 1.321-4.979 2.842-7.461 4.291-.584.664-.626.183-.592.08Z" fill="#191919"></path><path d="M101.717 167.359a7.521 7.521 0 0 1-1.144 2.425 12.955 12.955 0 0 1-5.692 5.524c-3.867 1.889-7.476.488-9.271-3.45-1.584-3.475-1.335-7.037-.568-10.624.3-1.425.781-2.827 1.217-4.219.095-.3.928-1.873.768.393-.97 5.8-2.369 9.882.248 14.482a5.066 5.066 0 0 0 7.47 1.881 19.653 19.653 0 0 0 5.547-5.62c.266-.375.577-.712.873-1.073.36-.578.68-.478.552.281Z" fill="#191919"></path><path d="M183.71 123.1c-4.41 8.435-6.55 14.538-15.338 19.269-2.53 1.362-1.192-.359-.953-.552 1.535-1.241 3.156-2.384 4.651-3.675 6.016-5.191 8.463-12.158 11.376-17.74a9.58 9.58 0 0 1 2.041-2.5c-.008 1.96-1.36 3.417-1.777 5.198Z" fill="#191919"></path><path d="M130.874 143.27c.216-.272.44-.545.656-.817a3.64 3.64 0 0 1 .432 1.065 15.525 15.525 0 0 1-1.345 7.645c-1.582 3.452-6.244 5.215-8.437 6.4a1.1 1.1 0 0 0-.521.816c.034 1.529.168 3.058.184 4.595.289 3.843-1.514 2.786-1.537.377-.017-1.786-.207-3.563-.272-5.348-.024-.656.361-.976.913-1.313 2.2-1.343 4.408-2.694 6.492-4.2 2.881-2.09 2.939-5.604 3.435-9.22Z" fill="#191919"></path><path d="M48.312 183.642a17.911 17.911 0 0 1-6.756-3.082c-2.812-2.031-5.523-4.205-8.294-6.293-1.2-.905-3.487-2.441-4-2.97-.69-.719-.429-1.517.577-.848 1.723 1.146 3.523 2.192 5.163 3.442 5.172 3.941 8.181 6.986 15.331 8.9 1.926.226 3.106 1.942-2.021.851Z" fill="#191919"></path><path d="M36.792 163.972a57.809 57.809 0 0 1 6.149 2.018 16.815 16.815 0 0 0 3.41-.008 7.135 7.135 0 0 1 5.828 1.088c1.594 1.112 2.69 1.98 4.691 2.026 1.337.03 2.81 1.409-1.537.936a19.811 19.811 0 0 1-3.987-1.777 5.385 5.385 0 0 0-4.446-.855 9.4 9.4 0 0 1-6.932-1.041c-.912-.459-1.875-.814-2.786-1.265-.43-.216-1.022-.481-.39-1.122Z" fill="#191919"></path><path d="M114.478 118.693a.2.2 0 0 1 .232-.208 4.153 4.153 0 0 1 1.561.5 7.029 7.029 0 0 1 3.267 3.53 3.15 3.15 0 0 1-2.042 4.427 7.977 7.977 0 0 1-2.593.289 1.131 1.131 0 0 1-1.033-1.81 8.753 8.753 0 0 0 .7-4.987c-.049-.516-.054-1.029-.092-1.741Zm1.065.968a9.286 9.286 0 0 1-.576 5.957.2.2 0 0 0 .2.288 14.24 14.24 0 0 0 1.553-.168 1.922 1.922 0 0 0 1.609-2.538c-.475-1.44-2.754-3.5-2.786-3.539Z" fill="#191919"></path><path d="M95.1 96.886c3.633-3.716 7.085-6.92 8.518-10.424.272-.912 1.161-1.393.832.7-1.457 4.707-5.908 8.462-7.845 10.615-1.372 1.214-2.477.229-1.505-.891Z" fill="#191919"></path><path d="M21.47 98.1c-.247.233-.913-.081-.641-.9a24.205 24.205 0 0 1 9.951-8.28 4.471 4.471 0 0 1 3.162-.616c.9.52.056.672-.32.824a28.611 28.611 0 0 0-9.1 5.692c-.29.273-2.247 2.519-3.052 3.28Z" fill="#191919"></path><path d="M50.106 180.552a14.632 14.632 0 0 1-6.8-3.707 2.079 2.079 0 0 1-.432-.5c-.29-.608-.008-1.041.592-.585a34.522 34.522 0 0 0 3.643 2.258 17 17 0 0 0 6.292 1.865c1.299.179 3.005 1.605-3.295.669Z" fill="#191919"></path><path d="M102.414 117.1c.616.5 5.389 4.628 7.189 6.156a2.311 2.311 0 0 0 .664.376c.589.229 1.222.272 1.185-.56-.028-.625.67-1.643 1.257.032a1.573 1.573 0 0 1-2.009 1.969 6.4 6.4 0 0 1-2.57-1.393c-1.912-1.778-5.836-6.068-5.98-6.316-.473-.585-.112-.745.264-.264Z" fill="#191919"></path><path d="M124.974 179.087c-.833.407-1.482.568-2.33.952-3.167 1.436-6.452 1.654-9.311-.28-.544-.512-.592-1.321.433-.848 3.009.782 3.553 1.5 7.173.4 1.209-.368 2.473-.577 3.714-.841.433-.152 1.009.28.321.617Z" fill="#191919"></path><path d="M55.485 177.934A21.193 21.193 0 0 1 45.751 174c-.521-.608-.313-1.473.416-.808a30.737 30.737 0 0 0 10.823 3.874c.71-.005 1.874.676-1.505.868Z" fill="#191919"></path><path d="M93.72 89.993c-1.5 0-1.3-.849-.833-1.241.008-.024 2.27.3 4.756-8.19.153-.525.744-1.281.648.128-1.905 7.149-3.226 8.735-4.571 9.303Z" fill="#191919"></path><path d="M156.764 141.116a38.108 38.108 0 0 0 4.178-2.946 24.708 24.708 0 0 0 2.522-2.786c.424-.424 1.233-.888.649.457a13.418 13.418 0 0 1-2.258 3.138 32.132 32.132 0 0 1-4.587 3.378c-2.218 1.169-2.242-.216-.504-1.241Z" fill="#191919"></path><path d="M127.167 182.737c-.207.664-.44-1.055 2.458 10.543.456 1.828 0 2.162-.377 1.193a88.268 88.268 0 0 1-3.178-11.408c-.578 0-.791.092 1.097-.328Z" fill="#191919"></path><path d="M110.4 147.177a22.633 22.633 0 0 1-2.489 7.253c-.6 1.16-1.394 2.2-2.85 2.289-.393.023-1.072-.216-1.161-.488-.207-.633.465-.631.889-.833.585-.278 1.327-.561 1.609-1.065.989-1.771 1.833-3.626 2.706-5.459.32-.673.584-1.377.872-2.066.283-.552.424-.496.424.369Z" fill="#191919"></path><path d="M122.884 176.781c-.913.176-1.817.425-2.738.52a12.434 12.434 0 0 1-8.438-1.849c-.288-.192-.858-1.677.425-.872 3.819 2.395 8.041 1.471 10.687 1.625.785-.04.921.216.064.576Z" fill="#191919"></path><path d="M153.83 138.731c1.633-1.473 3.3-2.915 4.891-4.435 1.216-1.161 2.322-2.449 3.514-3.643.841-.841 1.253-.64.228 1.313a20.235 20.235 0 0 1-2.2 2.6c-1.426 1.3-3.033 2.411-4.483 3.682-2.497 2.19-3.263 1.491-1.95.483Z" fill="#191919"></path><path d="M160.07 143.214c2.75-2.095 3.658-2.7 6.452-4.651 1.2-.837 1.162.184.761.608a17.963 17.963 0 0 1-6.212 4.555c-1.361.674-1.871.147-1.001-.512Z" fill="#191919"></path><path d="M28.419 101.569c.919 2.07.064 1.977-.673 1.177q-1.945-2.871-3.794-5.82c-.192-.305.141-1.045.76-.673.877.527 3.23 4.247 3.707 5.316Z" fill="#191919"></path><path d="M95.385 77.856a3.16 3.16 0 0 0-2.826-1.681 17.04 17.04 0 0 0-1.793.2c-.881.209-.689-.432-.32-.7a4.135 4.135 0 0 1 6.244 1.329c.392 1.109-.873 1.645-1.305.852Z" fill="#191919"></path><path d="M30.292 91.666c.08-.112.216-.432.3-.416a1.2 1.2 0 0 1 .7.352q.947 1.261 1.8 2.586a10.576 10.576 0 0 1 1.665 2.786c.2.744-.432 1.385-1 .712a40.312 40.312 0 0 1-3.362-5.54 4.017 4.017 0 0 1-.103-.48Z" fill="#191919"></path><path d="M82.28 40.014c-1.6 1.217-3.29 2.3-4.9 3.483-.849.624-1.233-.561-.8-1.057 1.7-1.161 3.45-2.25 5.22-3.322.976-.418 1.1.423.48.896Z" fill="#191919"></path><path d="M27.266 161.8c-1.009-1.329-.969-2.114.456-.921 1.593 1.561 3.17 3.138 4.755 4.707a2.943 2.943 0 0 1 .929 1.193c.24.665-.752.7-1.089.456a48.267 48.267 0 0 1-5.051-5.435Z" fill="#191919"></path><path d="M75.827 38.693c-.512-.036-.456-.808-.224-.912a11.428 11.428 0 0 1 2.13-.353 5.7 5.7 0 0 0 2.906-1.785c.175-.193 1.1-.4.592.609a6.946 6.946 0 0 1-5.404 2.441Z" fill="#191919"></path><path d="M100.236 158.408a2.584 2.584 0 0 1-4.146-1.024 3.308 3.308 0 0 1 .8-3.275c.352-.336 1.144-.48.793.465-.83 2.231-.068 3.344 1.985 3.714.144.026.288.056.568.12Z" fill="#191919"></path><path d="M123.845 173.611c-2.41 1.144-4.876 1.913-7.55.824-.9-.448-1.3-1.329.241-.864 4.432 1.05 5.439-.309 7.293-.376.36-.013.64.119.016.416Z" fill="#191919"></path><path d="M102.558 142.821c.528-.88 1.4-.912 2.137-1.056a4.25 4.25 0 0 1 3.675 1.113c.376.376.689.929.152 1.3a1.305 1.305 0 0 1-1.241-.152 4.711 4.711 0 0 0-3.762-1.209c-.312.022-.641.004-.961.004Z" fill="#191919"></path><path d="M30.484 99.407c-1.193-1.407-2.374-2.826-3.466-4.315-.425-.578-.369-1.592.752-.52a37.694 37.694 0 0 1 3.266 4.011c1.185 1.717.697 2.482-.552.824Z" fill="#191919"></path><path d="M33.454 164.705c-2.2-3.366-2.38-3.543-2.65-4.263-.262-.7.288-1.377.873-.5a117.256 117.256 0 0 1 2.77 3.859 3.437 3.437 0 0 1 .632 1.257c.288.6-.152 1.305-.84.656-.409-.461-.281-.361-.785-1.009Z" fill="#191919"></path><path d="M29.491 168.391a59.392 59.392 0 0 1-4.435-4.179c-.1-.352-.136-.568.272-.232 1.682 1.225 3.363 2.458 5.044 3.683a9.926 9.926 0 0 1 .857.872c.488.745-.118.844-.545.617s-.8-.505-1.193-.761Z" fill="#191919"></path><path d="M102.934 148.858c-.9.016-1.425-.425-1.161-1.249a3.429 3.429 0 0 1 1.6-1.793 1.3 1.3 0 0 1 1.168.216 1.363 1.363 0 0 1 .16 1.177 2.377 2.377 0 0 1-1.767 1.649Z" fill="#191919"></path><path d="M79.438 111.288c-.136 1.937-.264 3.874-.4 5.812-.112.856-.665.464-.785-.056-.423-1.271-.033-2.955.024-5.4.24-1.469.905-2.182 1.161-.356Z" fill="#191919"></path><path d="m126.054 140.452.5.216a3.957 3.957 0 0 1 .92 4.491 2.527 2.527 0 0 1-.6.953c-.186.166-.545.144-.825.208-.016-.264-.136-.576-.032-.777.778-1.5 1-2.967-.12-4.4-.089-.124.103-.451.157-.691Z" fill="#191919"></path><path d="M74.194 109.887a11.567 11.567 0 0 1-3.85 4.659c-.433.32-.561.2-.361-.32 1.161-1.786 2.314-3.571 3.475-5.356 1.193-1.257 1.257-.296.736 1.017Z" fill="#191919"></path><path d="M76.34 111.5c-.577 1.513-1.137 3.026-1.745 4.531-.793 1.561-1.353 1.153-.793-.024.592-1.905.953-3.207 1.585-5.1.671-2.007 1.505-1.14.953.593Z" fill="#191919"></path><path d="M101.4 85.166c.016-.369.024-.745.064-1.113.143-1.3.021-2.482-1.249-3.242-.175-.106-.361-1.166.545-.905a3.274 3.274 0 0 1 1.777 3.7 7.856 7.856 0 0 1-.44 1.554c-.297.766-.628.526-.697.006Z" fill="#191919"></path><path d="M128.56 141.34c.9-.8.929.249 1.281.6l.192.512-.064.008a5.692 5.692 0 0 1-.472 3.883 2.652 2.652 0 0 1-1.1.905c.563-2.001.964-3.938.163-5.908Z" fill="#191919"></path><path d="M98.587 83.468a1.074 1.074 0 0 1 .937.04.9.9 0 0 1 .216.825 2.973 2.973 0 0 1-1.14 1.889.749.749 0 0 1-1.233-.5 6.879 6.879 0 0 1 1.22-2.254Z" fill="#191919"></path><path d="M93.376 79.049c.016 1.273-.986 2.574-1.786 2.45a1.367 1.367 0 0 1-.9-.865c-.16-.7 1.176-2.059 1.825-2.145.62-.082.855.144.861.56Z" fill="#191919"></path><path d="M112.253 149.066c-.225-.063-.593-.184-.6-.3-.106-1.562 3.3-1.364 4.083.224.088.176.1.632.056.6a5.714 5.714 0 0 0-3.539-.524Z" fill="#191919"></path><path d="M69.359 110.471c-.328.5-.725.5-.568-.056.5-1.774 1.921-2.906 3.1-4.211.68-.288.921-.067.688.625a47.774 47.774 0 0 1-3.22 3.642Z" fill="#191919"></path><path d="M68.054 105.652c-.321.206-2.073 1.3-1.121-.152 1.337-1.3 1.962-1.674 3-2.682 1.642-.737 1.4.264.777 1.016-.046.073-1.826 1.285-2.656 1.818Z" fill="#191919"></path><path d="M69.243 101.081a27.408 27.408 0 0 1-2.794.584c-.865.2-1.87-.546-.2-1 .856-.233 2.586-.856 2.618-.848 1.853-.257 1.468 1.005.376 1.264Z" fill="#191919"></path><path d="M106.857 111.64a2.44 2.44 0 0 0-2.089 1.489c-.408 1.017-.841.056-.841-.216a2.549 2.549 0 0 1 1.553-2.042 2.235 2.235 0 0 1 2.45.056c.096.056 1.233.773-1.073.713Z" fill="#191919"></path><path d="M98.915 119.533a2.3 2.3 0 0 1 1.233-2.345c1.105-.441.833.689.649.824a2.364 2.364 0 0 0-.881 2.2c.022 1.129-.691.7-.84.1a9.817 9.817 0 0 1-.161-.779Z" fill="#191919"></path><path d="M109.323 115.731c-.278 1.432-2.683.572-2.474-.681a1.325 1.325 0 0 1 .857-.88c.784-.145 1.617.352 1.617 1.561Z" fill="#191919"></path><path d="M103.583 122.351a1.156 1.156 0 0 1-1.241-1.289 1.169 1.169 0 0 1 .776-.72c.633-.087 1.511.838 1.385 1.409a.857.857 0 0 1-.92.6Z" fill="#191919"></path><path d="M111.524 144.663c-.2.024-.265-.473-.184-.633a9.742 9.742 0 0 1 1.081-1.657c.071-.089.581-.409.672.128s-.864 2.399-1.569 2.162Z" fill="#38a1ff"></path><path d="M157.052 140.9c-.1.064-.192.12-.288.184.088-.064.192-.12.288-.184Z" fill="#38a1ff"></path><path d="M30.668 108.23a31.266 31.266 0 0 0 7.525 8.581c4.467 1.754 1.593 1.818 1.241 1.754a8.285 8.285 0 0 1-4.187-2.37A26.784 26.784 0 0 1 30 109.63c-1.339-2.466-.669-3.058.668-1.4Z" fill="#191919"></path><path d="M49.906 105.139a13.083 13.083 0 0 1-6.221-1.264c-1.505-.673-3.059-1.255-4.563-1.938-.457-.207-3.2-2.6 1.025-1.193 3.983 1.328 3.894 2.8 10.559 3.122.352.018 3.226.734-.8 1.273Z" fill="#191919"></path><path d="M51.347 113.089c-4.2.213-6.719-2.058-10.023-4.563a2.822 2.822 0 0 1-.753-.985c-.312-.624-.072-.841.584-.632a19.554 19.554 0 0 0 9.007 5c3.818.507 1.489 1.164 1.185 1.18Z" fill="#191919"></path><path d="M99.516 33.9c-1.008.8-2.2 1.568-3.443 1.3-2.753-.6-1.232-1.135-1.008-1.137 3.646-.023 5.856-2.839 9.975-6.725 1.617-1.7 1.532-.67.616.617a69.9 69.9 0 0 1-6.14 5.945Z" fill="#191919"></path><path d="M47.136 118.821c-2.25.384-4.129-.644-5.9-1.873a5.672 5.672 0 0 1-1.785-1.794c-1.054-1.811-.777-1.557-.28-1.184a34.982 34.982 0 0 0 3.875 2.721 41.947 41.947 0 0 0 4.179 1.786c.367.072.223.352-.089.344Z" fill="#191919"></path><path d="M42.66 113.489a32.463 32.463 0 0 0 3.523 1.946c1.2.482 2.525.641 3.755 1.1.339.128.448.57-1.57.377a8.724 8.724 0 0 1-5.2-2.162c-1.211-1.35-1.02-1.65-.508-1.261Z" fill="#191919"></path><path d="M117.608 69.042a4.166 4.166 0 0 1-3.61-.016c-.664-.289-.845-.654-.432-1.337 1.105-1.827 2.416-3.515 3.466-5.371.376-.665.733-1.563 1.105-2.234.142-.257.671-.728.984.024 1.379 3.309.679 7.904-1.513 8.934Zm-3.1-1.12a3.288 3.288 0 0 0 3.571-.489 6.365 6.365 0 0 0 .56-5.86l-4.129 6.349Z" fill="#191919"></path><path d="M107.513 54.953c-.008-.737.369-.577.529 0 .84 2.193 1.588 5.538 2.449 7.725a2.772 2.772 0 0 0 2.218 1.889c.777 0-.072 1.313-2.065.056a5.4 5.4 0 0 1-1.473-2.545 51.334 51.334 0 0 1-1.658-7.125Z" fill="#191919"></path><path d="M113.822 50.55c-.513 0-.785.015-1.057 0a2.734 2.734 0 0 0-2.794 1.248c-.512.689-.839-.119-.824-.3a2.71 2.71 0 0 1 2.137-1.833 2.154 2.154 0 0 1 2.538.885Z" fill="#191919"></path><path d="M113.918 55.961c-.1.481-.44.57-.809.633-.624.106-1.348-.857-1.3-1.6.03-.505.169-.95.809-.961.682-.013 1.3.687 1.3 1.928Z" fill="#191919"></path><path d="M107.529 61.093c-.334 1.194-2.284-.24-2.177-1.185a1.109 1.109 0 0 1 .664-.8c.578-.108 1.484 1.024 1.513 1.985Z" fill="#191919"></path><path d="M102.846 57.667a1.454 1.454 0 0 1-.1-1.674A3.4 3.4 0 0 1 104.1 54.5c.955-.476.969.537.953.585-.157.457-1.009.609-1.393.888a2.3 2.3 0 0 0-.814 1.694Z" fill="#191919"></path><path d="M90.382 34.859a4.6 4.6 0 0 1 1.08-6.693c.192-.1 1.186-.255.665.512-1.622 2.388-1.7 4.451-.024 6.725.697.734-.868.388-1.721-.544Z" fill="#191919"></path><path d="M105.384 22.994a5.74 5.74 0 0 0-3.971-2.233c-.528-.062-.88-.608-.048-.929 1.721-.52 4.641 1.216 5.372 3.162.133.354-.217 1.436-1.353 0Z" fill="#191919"></path><path d="M101.461 25.06c-.056 1.161-1.621 2.274-2.546 1.833a1.072 1.072 0 0 1-.512-.712 2.044 2.044 0 0 1 2.45-1.834.994.994 0 0 1 .608.713Z" fill="#191919"></path><path d="M89.245 94.38a2.776 2.776 0 0 1-2.458-3.458c.264-.635 1.081-1.025 1.065.12.187 1.634.411 1.978 2.153 2.6.737.265.128.674-.76.738Z" fill="#191919"></path></svg>