<svg xmlns="http://www.w3.org/2000/svg" viewBox="0 0 200 200" height="800" width="800"><path d="m192.561 70.585-.129-2.719a13.759 13.759 0 0 0-.119-2.311c-.118-.57-.688-.645-1.182-.667-2.237-.114-42.783-.007-42.994 0a2.806 2.806 0 0 0-1.032.129c-.628.3-.405.627-.72 6.4-.021.376-.1.784.237 1.042a2.2 2.2 0 0 0 1.289.215c2.711.05 10.5.427 17.66.409 6.215 0 24.818-.357 25.323-.377.463-.021 1.161.065 1.527-.279.419-.402.162-1.348.14-1.842Z" fill="#38a1ff"></path><path d="M27.174 68.446c-.182-.109-.333.129-.215.269.46.553 1.515 1.5 1.515 2.063-2.453-.192-9.392-.241-11.522-.193q-.032-6.82-.742-13.608a.284.284 0 0 0-.279-.279 51.754 51.754 0 0 0-8.061.2c-.205.032-.14.333.043.344 1.877.106 2.554-.079 7.76.011.462 4.525.688 9.072.709 13.618a.3.3 0 0 0 .291.29c2.337-.075 9.318-.021 11.64.14-.218.436.042-.164-.827 1.623-.172.344.354.656.526.3 1.08-2.2 1.237-2.341 1.064-2.762a5.127 5.127 0 0 0-1.902-2.016Z" fill="#38a1ff"></path><path d="M27.174 78.077c-.181-.11-.333.129-.215.268a8.643 8.643 0 0 1 1.483 1.871c-.969.03-6.261.276-12.167.118a.3.3 0 0 0-.29.29 84.82 84.82 0 0 1-.7 10.426c-3.774.065-6.324-.062-7.771.043-.183.011-.258.323-.043.344a76.661 76.661 0 0 0 8.061.183.277.277 0 0 0 .269-.2 81.464 81.464 0 0 0 .752-10.491c5.211.088 11.727-.172 11.856-.172-.1.272-.075.092-.924 1.838-.172.344.354.656.526.3 1.08-2.2 1.237-2.341 1.064-2.762a5.029 5.029 0 0 0-1.901-2.056Z" fill="#38a1ff"></path><path d="M27.174 89.8c-.181-.11-.333.129-.215.269a15.08 15.08 0 0 1 1.354 1.6 54.623 54.623 0 0 0-6.083-.01.272.272 0 0 0-.269.268c-.2 5.727-.1 15.655-.011 17.746a.161.161 0 0 0 .322 0c.375-4.989-.031-9.819.215-17.509a49.958 49.958 0 0 1 5.987-.054c.011.345-.143.456-.988 2.193-.172.344.354.656.526.3 1.08-2.206 1.237-2.341 1.064-2.763a5.077 5.077 0 0 0-1.902-2.04Z" fill="#38a1ff"></path><path d="M21.09 60.5c2.419.183 4.837.011 7.266-.011a.172.172 0 0 0 .129-.043c-.011.331-.134.383-.989 2.139-.172.344.355.656.527.3 1.08-2.205 1.237-2.341 1.064-2.762a5.108 5.108 0 0 0-1.887-2.049c-.182-.108-.333.129-.215.268A12.782 12.782 0 0 1 28.356 60c-2.332-.022-4.665.161-7-.022-.284-7.658.154-11.979-.237-17.036a.161.161 0 0 0-.322 0c-.108 3.063-.054 6.137-.086 9.211-.032 2.687-.011 5.375.129 8.072a.247.247 0 0 0 .25.275Z" fill="#38a1ff"></path><path d="M191.84 73.057a.183.183 0 0 0-.365 0 24.016 24.016 0 0 0-.086 2.773c0 .957.172 23.754.2 25.829-1.766-.063-47.258 0-44.38 0a.2.2 0 0 0 0 .408c1.515.011 44.52 0 44.52 0a.208.208 0 0 0 .29-.2c-.307-24.055.008-27.147-.179-28.81Z" fill="#191919"></path><path d="M154.823 67.231a1.573 1.573 0 0 1-.839-.72 2.223 2.223 0 0 1-.215-1.118 4.734 4.734 0 0 1 1.1-2.525c.139-.194-.129-.441-.323-.323a3.649 3.649 0 0 0-1.494 3.128c.043.9.559 2.128 1.612 2.182a.336.336 0 0 0 .159-.624Z" fill="#191919"></path><path d="M162.809 67.231a1.593 1.593 0 0 1-.839-.72 2.234 2.234 0 0 1-.215-1.118 4.75 4.75 0 0 1 1.1-2.525c.139-.194-.129-.441-.323-.323a3.651 3.651 0 0 0-1.494 3.128c.043.9.559 2.128 1.613 2.182a.339.339 0 0 0 .158-.624Z" fill="#191919"></path><path d="M170.72 67.231a1.593 1.593 0 0 1-.839-.72 2.223 2.223 0 0 1-.215-1.118 4.742 4.742 0 0 1 1.1-2.525c.139-.194-.129-.441-.323-.323a3.649 3.649 0 0 0-1.494 3.128c.043.9.559 2.128 1.612 2.182a.339.339 0 0 0 .159-.624Z" fill="#191919"></path><path d="M178.19 67.231a1.573 1.573 0 0 1-.839-.72 2.234 2.234 0 0 1-.215-1.118 4.75 4.75 0 0 1 1.1-2.525c.14-.194-.129-.441-.323-.323a3.651 3.651 0 0 0-1.494 3.128c.043.9.559 2.128 1.613 2.182a.336.336 0 0 0 .158-.624Z" fill="#191919"></path><path d="M185.983 67.231a1.589 1.589 0 0 1-.839-.72 2.223 2.223 0 0 1-.215-1.118 4.741 4.741 0 0 1 1.1-2.525c.14-.194-.129-.441-.322-.323a3.649 3.649 0 0 0-1.494 3.128c.043.9.559 2.128 1.612 2.182a.339.339 0 0 0 .158-.624Z" fill="#191919"></path><path d="m69.34 56.139-36.161.193c-.555 0-.491.56.01.559 2.34 0 33.433-.019 36.248-.31.476-.049.391-.444-.097-.442Z" fill="#191919"></path><path d="M40.437 68.435c-.914.066-6.595.117-6.771.141-.609.08-.549.579-.086.579.107.014 4.819-.047 6.363-.182 1.394-.104 1.71-.538.494-.538Z" fill="#191919"></path><path d="M33.663 75.12c-.671.078-.543.582.019.583.923 0 6.478-.093 7.115-.259.4-.106.573-.48.077-.493-.101-.003-7.11.157-7.211.169Z" fill="#191919"></path><path d="M40.437 81.516c-.735.053-6.727.134-6.745.136-.722.065-.515.584-.112.584.107.014 4.819-.047 6.363-.182 1.396-.104 1.722-.538.494-.538Z" fill="#191919"></path><path d="M40.437 88.062c-.568.041-6.077.131-6.733.143-.55.01-.721.575-.042.579.644 0 4.841-.059 6.281-.185 1.395-.099 1.723-.537.494-.537Z" fill="#191919"></path><path d="M33.569 95.65c.106.014 4.827-.048 6.363-.182 1.369-.1 1.748-.538.5-.538-.582.042-6.793.143-6.814.147-.561.098-.483.573-.049.573Z" fill="#191919"></path><path d="M72.221 48.723c0-.246.1-.463-.43-.463-6.8 0-36.926.183-41.188.183a.268.268 0 0 0-.226.419c-.117 20.884 0 54.961 0 54.861a.249.249 0 0 0 .29.322c6.541 0 37.022-.183 41.317-.183a.269.269 0 0 0 .226-.419v-.828c-.172-.043-.344-.1-.516-.139 0 .309.021.827.021.827-1.085 0-40.283.233-40.865.3.064-.642.068-.581-.011-54.57.657 0 40.189-.222 40.866-.3-.085.851-.043 1.888-.043 42.779a1.116 1.116 0 0 1 .58-.483c.039-41.95.101-41.369-.021-42.306Zm-41.565 55.354c.011 0 .033-.011.043-.011-.021 0-.032 0-.043.011Z" fill="#191919"></path><path d="M124.082 90.007a36.319 36.319 0 0 0-1.247-8.813 3.137 3.137 0 0 0-2.375-2.655 12.647 12.647 0 0 0-4.837-.323c-1.268.1-2.537.108-3.805.14l-5.02.344c.461 0-2.837.083-3.579.129-3 .185-4.747 1.045-5.267 4A16.908 16.908 0 0 0 98 86.923c.108 1.526.269 3.052.473 4.579a7.972 7.972 0 0 0 1.054 3.815c1.439 1.889 4.819 1.769 7.19 1.645 3.165-.169 6.286-.42 9.491-.731 2.654-.26 5.731-.264 7.2-2.365a6.523 6.523 0 0 0 .674-3.859Zm-4.514 1.623c-.924 1.353-2.895 1.384-4.5 1.538-2.333.218-3.938.354-6.277.472-1.569.09-3.735.124-4.622-1.16a5.436 5.436 0 0 1-.634-2.43 50.057 50.057 0 0 1-.3-2.88 10.917 10.917 0 0 1-.032-2.58 2.735 2.735 0 0 1 2.442-2.549c1.111-.211 9.163-.54 9.263-.546 2-.133 3.809.033 4.331 1.967a23.245 23.245 0 0 1 .807 5.836 4.1 4.1 0 0 1-.478 2.332Z" fill="#38a1ff"></path><path d="M106.433 97.478c1.19 2.56 7.031 2.724 8.029-.463-1.408.097-6.804.409-8.029.463Z" fill="#38a1ff"></path><path d="M97.576 115.567c-.348-5.125-.253-10.892 4.5-12.837a16.746 16.746 0 0 1 4.379-.91c7.615-.993 16.412-1.567 16.66-1.591a12.642 12.642 0 0 1 3.17.011 16.7 16.7 0 0 0-3.686-2.762 11.3 11.3 0 0 0-4.493-.162c-1.01.065-2.021.14-3.031.215-.243.1-.14.344-.72.957a5.2 5.2 0 0 1-3.623 1.569 5.694 5.694 0 0 1-3.869-.967c-.15-.129-.828-.7-.828-.7-4.939.526-6.2.688-7.395 1.054-2.336.709-3.514 2.257-4.234 4.611a7.962 7.962 0 0 0-.355 2.139c3.651 1.331 3.567 5.938.086 6.932.207 3.39 2.5 24.02 2.612 24.84 1.214-.333 2.268-.623 3.246-.913-.013-.1-2.395-21.181-2.419-21.486Z" fill="#38a1ff"></path><path d="M78.487 99.692a13.092 13.092 0 0 0 .989-3.579 3.02 3.02 0 0 0-.043-1.634 2.031 2.031 0 0 0-1.053-.879 20.111 20.111 0 0 0-5.729-1.87c-.226-.043-.463.247-.248.43 1.118.967 2.258 1.913 3.365 2.9.586.524.427.9.2 1.989-.118.655-.247 1.311-.366 1.956-1.5-.258-3.009-.527-4.514-.785l-.064-4.965a.26.26 0 0 0-.484-.13 25.715 25.715 0 0 0-2.408 7.234.274.274 0 0 0 .183.323q3.144 1.032 6.374 1.784a2.658 2.658 0 0 1 .763-2.021 3.282 3.282 0 0 1 3.035-.753Z" fill="#38a1ff"></path><path d="M95.932 111.085a2.756 2.756 0 0 0-.452-3.2 5.472 5.472 0 0 0-2.149-1.236c-1.054-.2-2.118-.376-3.16-.666a31.582 31.582 0 0 1-11.147-5.718 2.876 2.876 0 0 0-3.138.58 2.055 2.055 0 0 0-.495 1.462 4.631 4.631 0 0 0 .183.806 6.323 6.323 0 0 0 1.236 1.8 21.154 21.154 0 0 0 7.642 4.708 62.006 62.006 0 0 0 9.051 2.912c.01.011.01.022.021.033a3.031 3.031 0 0 0 2.408-1.481Z" fill="#38a1ff"></path><path d="M151.007 95.629A27.318 27.318 0 0 0 148.6 88.4a.261.261 0 0 0-.483.129l-.065 4.966c-1.5.258-3.009.527-4.514.785-.107-.592-.544-2.869-.559-3.042-.055-.7.038-.613 3.762-3.805.215-.183-.022-.462-.247-.43a20.17 20.17 0 0 0-5.729 1.87c-1.272.62-1.289 1.171-1.1 2.515a12.9 12.9 0 0 0 .989 3.58 3.374 3.374 0 0 1 3.053.741 2.68 2.68 0 0 1 .763 2.021q3.225-.757 6.374-1.784a.247.247 0 0 0 .163-.317Z" fill="#38a1ff"></path><path d="M140.119 95.65a31.438 31.438 0 0 1-11.662 5.848 8.357 8.357 0 0 1 2.4 4.9q1.933-.645 3.837-1.419a20.956 20.956 0 0 0 7.642-4.708 6.289 6.289 0 0 0 1.236-1.8 3.222 3.222 0 0 0 .183-.806 2.09 2.09 0 0 0-.5-1.462 2.908 2.908 0 0 0-3.136-.553Z" fill="#38a1ff"></path><path d="M85.409 39.264c-.183-.108-.333.129-.215.269a13.689 13.689 0 0 1 1.344 1.59c-2.139.054-4.289.129-6.428.172a.282.282 0 0 0-.29.291c.193 7.846.043 15.7.226 23.56a32.112 32.112 0 0 1-6.965.172c-.258-.021-.323.419-.065.462a24.076 24.076 0 0 0 7.406-.1.289.289 0 0 0 .215-.291c-.2-7.835-.043-15.682-.226-23.528 2.1-.054 4.192-.118 6.3-.172a3.1 3.1 0 0 1-.387.86c-.194.4-.4.8-.592 1.193-.172.344.355.656.527.3.522-1.066.9-1.719 1.056-2.184a.84.84 0 0 0-.022-.741 7.638 7.638 0 0 0-1.884-1.853Z" fill="#38a1ff"></path><path d="M147.342 136.441c-1.7 4.065-7.355 5.678-11.05 7.126-10.1 3.944-24.693 9.525-34.771 11.9-2.375.559-4.848 1.408-7.309.978-2.355-.413-3.877-2.013-5.041-4.032-1.017-1.763-1.115-2.154-3.407-8.06a21.745 21.745 0 0 1-3.461.311 87.027 87.027 0 0 0 4.933 11.512 9.018 9.018 0 0 0 4.579 4.031c2.526.956 5.342.526 7.879-.129 2.977-.774 5.89-1.838 8.813-2.816 5.977-2.01 23.884-8.18 26.872-9.223 4.606-1.6 9.672-2.7 11.286-6.717a11.567 11.567 0 0 0 .677-4.881Z" fill="#191919"></path><path d="M70.576 104.969s-2.913-.01-3.289-.021c.839 2.236 3.407 9.061 3.848 10.232 1.139-.01 2.257-.032 3.354-.032a5307.97 5307.97 0 0 1-3.913-10.179Z" fill="#191919"></path><path d="M74.618 103.346c-.037-.18.095-.095-1.323-.44v.365a1.34 1.34 0 0 1-1.289 1.688c-.092 0-.736.017-.828.021.613 1.612 3.225 8.405 3.9 10.19 1.3-.011 5.546-.011 5.546-.011-1.053-2.805-2.117-5.6-3.171-8.405a9.936 9.936 0 0 1-2.835-3.408Z" fill="#191919"></path><path d="M133.659 111.666c-.041.2.733 1.41 2.214 6.03.828 2.547 1.43 5.6-.742 7.685-1.661 1.5-25.941 9.456-27.516 10.243a108.3 108.3 0 0 1-11.3 3.568c-1.4.377-2.945.925-4.386.4a4.418 4.418 0 0 1-1.73-1.2 5.993 5.993 0 0 1-.828 3.784 5.421 5.421 0 0 1-3.042 2.042c2.806 7.214 2.565 6.759 2.978 7.481 1.659 2.991 3.573 4.6 7.1 4.3a23.444 23.444 0 0 0 3.838-.763c11.921-3 21.765-6.7 36.9-12.619 3.762-1.472 9.448-3.16 10.061-7.846-.539-5.029-.24-2.936-10.233-29.623a62.512 62.512 0 0 1-5.052 1.978c.566 1.53 1.147 3.035 1.738 4.54Zm-13.479 31.7a3.947 3.947 0 0 1-4.407-2.107 3.767 3.767 0 0 1 2.352-5.333c2.12-.763 4.719.019 4.957 3.452a3.9 3.9 0 0 1-2.902 3.985Z" fill="#191919"></path><path d="M78.852 54.451c-1.928.678-5.39 1.874-5.492 1.924v5.375q2.757-1.016 5.514-1.978a869.411 869.411 0 0 1-.022-5.321Z" fill="#191919"></path><path d="M116.891 52.216c-1.175-2.982-2.959-6.764-6.116-7.4-1.805-.366-3.622.258-5.342.72-10.777 2.886-10.075 3.2-23.84 7.943 0 1.752.011 3.536.022 5.321 17.141-5.967 14.979-5.514 22.647-7.578 1.4-.376 2.945-.924 4.385-.4 2.032.742 3.074 3.085 3.816 4.912 1.548 3.859 7.062 18.434 8.341 21.841a4.143 4.143 0 0 1 2.848 3.322 36.941 36.941 0 0 1 1.225 7.513q2.21 5.851 4.407 11.694a27.384 27.384 0 0 0 5.041-1.988c-2.383-6.316-16.553-43.681-17.434-45.9Z" fill="#191919"></path><path d="M56.4 124.639a163.947 163.947 0 0 0 13.3 9.964 1.511 1.511 0 0 0 1.44.3 7.173 7.173 0 0 0 1.72-1.172 47.3 47.3 0 0 0 6.277-6.5q1.821-2.128 3.6-4.289a43.4 43.4 0 0 0 3.375-4.289.205.205 0 0 0-.323-.247c-1.1 1.128-2.021 2.461-3.02 3.687-4.8 5.806-8.033 9.763-11.351 12.059a1.037 1.037 0 0 1-1.3.1 152.618 152.618 0 0 1-13.253-9.921c-.154.093-.305.211-.465.308Z" fill="#38a1ff"></path><path d="M89.107 138.021c-.068-2.474-.551-15.871-.925-19.509a2.282 2.282 0 0 0-1.053-1.956 5.681 5.681 0 0 0-2.548-.322c-8.1-.1-16.23.032-24.334.247.021.226.032.462.043.688 1.954-.045 24.646-.388 25.764-.269a1.628 1.628 0 0 1 1.2.548 2.735 2.735 0 0 1 .333 1.333c.472 5.547.762 14.112.924 19.713a6.161 6.161 0 0 1-.193 2.085 3.431 3.431 0 0 1-2.15 1.935c-2.759.967-16.648.49-24.711.795a43.782 43.782 0 0 1-6.717-.118c-2.766-.318-3.383-1.35-3.7-3.633a45.642 45.642 0 0 1-.279-6.417c0-2.289-.011-7.019-.011-7.019-.183-.01-.365-.032-.548-.053-.022 1.375-.022 2.74-.022 4.116 0 16.681-.676 13.48 20 13.586 4.418 0 8.825-.021 13.242-.247 1.838-.1 3.913-.344 5.063-1.978a5.67 5.67 0 0 0 .622-3.525Z" fill="#38a1ff"></path><path d="M48.478 115.009a.881.881 0 0 0 .9 1.182.867.867 0 0 0 .656-1.183.906.906 0 0 0-1.556.001Z" fill="#38a1ff"></path><path d="M53.5 115.191a.9.9 0 0 0-1.567.02.883.883 0 0 0 .911 1.162.861.861 0 0 0 .656-1.182Z" fill="#38a1ff"></path><path d="M57.485 122.2a7.839 7.839 0 0 0 .279-9.426c-1.643-2.374-4.494-3.942-7.373-3.16A7.437 7.437 0 0 0 46.9 111.3c-4.811 3.909-3.777 10.957 1.376 13.156a7.864 7.864 0 0 0 9.209-2.256Zm-6.815-4.686a4.147 4.147 0 0 1-.3 1.73 1.766 1.766 0 0 1-1.258 1.011c-1.166.217-1.615-.643-1.085-.731.258-.032.441.129.709.14 1.382.054 1.34-1.783 1.365-3.075a1.483 1.483 0 0 1-2.311-1.365 1.5 1.5 0 0 1 1.281-1.288A1.4 1.4 0 0 1 50.713 115a1.443 1.443 0 0 1-.065.9c.033.527.032 1.075.022 1.613Zm.817 2.171c.258-.032.441.129.709.14 1.382.054 1.34-1.783 1.365-3.074a1.484 1.484 0 0 1-2.311-1.365 1.526 1.526 0 0 1 1.555-1.311 1.378 1.378 0 0 1 1.369 1.085 1.443 1.443 0 0 1-.065.9c.033.548.033 1.1.022 1.634a4.147 4.147 0 0 1-.3 1.73 1.762 1.762 0 0 1-1.258 1.01c-1.187.223-1.6-.657-1.086-.75Z" fill="#38a1ff"></path><path d="M107.25 88.008a1.1 1.1 0 0 0 .862.759 1.023 1.023 0 0 0 1.212-1.3 1.051 1.051 0 0 0-1.01-.763c-.65-.038-1.167.388-1.064 1.304Z" fill="#191919"></path><path d="M114.666 87.632a1.1 1.1 0 0 0 1.806.473 1.056 1.056 0 0 0-.852-1.788c-.62-.004-1.04.544-.954 1.315Z" fill="#191919"></path><path d="M131.154 111.569a58.553 58.553 0 0 0-1.182-6.546 10 10 0 0 0-.677-1.655 4.55 4.55 0 0 0-2.418-2.171 11.284 11.284 0 0 0-4.493-.162c-4.661.311-9.612.763-15.209 1.441-2.8.338-5.59.457-7.255 2.741a9.565 9.565 0 0 0-1.538 3.89c-.6 3.118-.182 6.3.172 9.416.441 3.837 1.806 16.069 2.086 18.348a94.672 94.672 0 0 0 6.513-2.2c1.4-.7 20.978-7.21 25.56-9.265a210.428 210.428 0 0 0-1.559-13.837Zm-6.148 5.191c-1.387.187-2.773.387-4.159.581a.275.275 0 0 1-.323-.183 10.757 10.757 0 0 0-.645-1.634c-.4.817-.8 1.634-1.182 2.451a.257.257 0 0 1-.441 0 13.106 13.106 0 0 1-1.01-1.827 28.808 28.808 0 0 0-1.516 7.18.243.243 0 0 1-.451.118c-1.526-2.719-3.052-5.439-4.332-8.287a40.5 40.5 0 0 1-1.762 5.2.234.234 0 0 1-.387.1c-.516-.548-1.032-1.107-1.548-1.655-.215.623-.43 1.247-.656 1.87a.179.179 0 0 1-.344-.1c.215-.752.452-1.494.7-2.246a.224.224 0 0 1 .365-.1c.527.548 1.043 1.1 1.57 1.644a43.167 43.167 0 0 0 1.773-5.5.245.245 0 0 1 .441-.053c1.236 2.826 2.719 5.524 4.224 8.211a29.693 29.693 0 0 1 1.655-7.137.252.252 0 0 1 .484 0 12.929 12.929 0 0 0 .978 1.924c.4-.827.806-1.666 1.2-2.493a.257.257 0 0 1 .441 0 11.878 11.878 0 0 1 .859 1.977l3.913-.548c.347-.041.486.463.153.507Z" fill="#38a1ff"></path><path d="M146.8 85.955a1.37 1.37 0 0 1 .5.2c-.043-8.912.071-12-.054-13.113a.183.183 0 0 0-.366 0 24.016 24.016 0 0 0-.086 2.773c-.001.961-.001 9.585.006 10.14Z" fill="#191919"></path><path d="m146.944 98.219.065 3.644a.22.22 0 0 0 .44 0c-.021-1.258-.032-2.5-.054-3.762-.15.043-.301.075-.451.118Z" fill="#191919"></path><path d="M189.616 92.867c-1.28-.118-2.58-.076-3.87-.086-1.258 0-8.674-.011-8.674-.011-.022-1.849-.054-9.437-.054-11.383 11.681 0 11.2.072 12.576-.043a.183.183 0 0 0 0-.365c-1.139-.106-1.068-.08-12.6-.1 0-6.4.072-6.045-.054-7.051-.022-.183-.323-.269-.355-.054-.134.947-.086 1.067-.086 7.105 0 0-10.286.043-14.349.075 0-6.161.073-6.122-.054-7.137-.021-.182-.322-.268-.354-.053a23.524 23.524 0 0 0-.086 3.267v3.923c-.849.011-8.266.086-11.125.129a.221.221 0 0 0 0 .441q5.562-.065 11.125-.108c0 1.892.053 9.5.086 11.415-.871.011-7.922.086-10.566.119.043.15.075.3.118.44q5.225-.065 10.458-.1.05 3.645.129 7.288a.221.221 0 0 0 .441 0q-.064-3.644-.1-7.3 7.191-.048 14.382-.054.048 3.677.129 7.352a.221.221 0 0 0 .441 0q-.066-3.677-.1-7.352c11.544 0 11.148.071 12.522-.043.256.03.256-.293.02-.314Zm-27.388 0c-.021-1.881-.053-9.491-.053-11.415q7.174-.049 14.349-.054c0 1.913.054 9.5.086 11.383-2.31.033.751-.035-14.382.086Z" fill="#191919"></path><path d="M173.589 83.784a6.612 6.612 0 0 0-1.461 1.365 45.477 45.477 0 0 0-3.676 4.558 30.963 30.963 0 0 0-3.44-3.386c-.14-.108-.408.032-.279.215a34.613 34.613 0 0 0 3.525 3.912.339.339 0 0 0 .516-.064c2.858-4.093 4.623-5.428 5.117-6.288a.226.226 0 0 0-.302-.312Z" fill="#38a1ff"></path><path d="M189.766 94.21a7.947 7.947 0 0 0-2.161 1.645c-3.725 3.267-3.217 3.276-3.6 2.966-.2-.163-1.564-1.657-2.7-2.58a.19.19 0 0 0-.269.269c.7.9 1.5 1.72 2.29 2.548.225.236.5.645.881.634.4-.011.72-.484.967-.731 1.694-1.648 2.718-2.507 3.623-3.289a5.437 5.437 0 0 0 1.182-1.139.207.207 0 0 0-.213-.323Z" fill="#38a1ff"></path><path d="M119.191 76.97a13.012 13.012 0 0 0-5.041-.323c-.344.022-2.117.118-4.245.226a33.653 33.653 0 0 0 1.612-3.9 1.229 1.229 0 0 0 1.121-.85 1.255 1.255 0 0 0-.326-1.353 1.178 1.178 0 0 0-1.923.419 1.164 1.164 0 0 0 .472 1.612c-1.3 3.575-1.083 2.789-1.547 4.095-3.279.162-7.17.355-8.083.419-3.126.2-4.918 1.222-5.4 4.343-.354 2.266.152 6.831.441 8.953.282 2.138.355 4 2.311 5a8.693 8.693 0 0 1-1.075-4c-.374-2.812-.486-4.763-.538-5.278a14.549 14.549 0 0 1 .011-3.611 5.187 5.187 0 0 1 1.978-3.5 7.788 7.788 0 0 1 3.981-1.122c.7-.043 13.693-.709 14.4-.709a9.358 9.358 0 0 1 3.482.569 3.6 3.6 0 0 0-1.631-.99Z" fill="#38a1ff"></path></svg>