<svg xmlns="http://www.w3.org/2000/svg" viewBox="0 0 200 200" height="800" width="800"><path d="M183.208 179.714c-51.9.206-104.258-.209-154.559.084-.7 0-.557 1.547.119 1.546 51.831-.122 102.469.159 154.593-.049.668-.003.539-1.584-.153-1.581Z" fill="#38a1ff"></path><path d="M94.929 110.475c-.156.7.365 1.372 1.254.877a4.611 4.611 0 0 1 2.186-.557.864.864 0 0 0 .752-1.393c-.571-.746-3.939-.05-4.192 1.073Z" fill="#38a1ff"></path><path d="M110.535 110.475c.761.237 1.391-1 .376-1.532-.886-.465-3.22-.8-4.178.2a.6.6 0 0 0 .174.955c.599.302 1.537-.275 3.628.377Z" fill="#38a1ff"></path><path d="M97.457 141.407c7.624-.982 11.4-1.58 19.29-.487.758.105 1.044-1.019.271-1.177-5.144-1.055-14.667-1.16-19.728.7-.499.179-.369 1.033.167.964Z" fill="#38a1ff"></path><path d="M138.007 120.7c-.462.507.269 1.265.752.766a10.554 10.554 0 0 1 16.907 2.242c3.65 6.782-.524 30.292-1.991 37.869-.161.828 1.095 1.2 1.274.362 1.679-7.88 5.8-31.7 1.9-38.892a11.661 11.661 0 0 0-18.842-2.347Z" fill="#38a1ff"></path><path d="M116.893 63.714c4.5.053 7.834-.092 12.3 1.483 8.976 3.167 12.373 11.548 14.783 20.013 2.777 9.752 5 19.916 4.979 30.083 0 .913 1.391 1.031 1.393.112.025-10.049-2.083-19.932-4.763-29.568-3.328-11.966-7.889-21.361-21.49-23.133a26.722 26.722 0 0 0-7.284-.042.53.53 0 0 0 .082 1.052Z" fill="#38a1ff"></path><path d="M151.676 174.61a17.913 17.913 0 0 0-.62 3.482.621.621 0 0 0 1.226.2 16.924 16.924 0 0 0 .543-3.8c.009-.481-1.007-.359-1.149.118Z" fill="#38a1ff"></path><path d="M94.929 159.527c9.707.427 20.445.083 30.209 0 .787-.007.926-1.232.111-1.24-9.819-.1-20.595-.2-30.361.216-.599.025-.558.997.041 1.024Z" fill="#38a1ff"></path><path d="M60.271 119.047c.418-4.436.537-8.893.933-13.336.885-9.917 3.807-29.446 12.493-36.023a21.365 21.365 0 0 1 12.486-3.927c.849-.015.955-1.38.091-1.337-9.221.454-15.523 3.844-19.554 12.284-3.935 8.238-5.632 17.475-6.574 26.5a134.869 134.869 0 0 0-.829 15.766.481.481 0 0 0 .954.073Z" fill="#38a1ff"></path><path d="M62.333 177.618a.5.5 0 0 0 .967-.23c-3.016-13.205-5.838-26.044-7.917-39.463-1.029-6.636-1.1-13.562 6.267-16.35 3.962-1.5 9.884-1.294 12.625 2.374.519.694 1.474-.242.961-.919-4.317-5.7-17.47-5.041-20.891 3.851-1.816 4.722-.548 10.132.251 14.93 1.941 11.656 4.716 24.344 7.737 35.807Z" fill="#38a1ff"></path><path d="M161.683 98.372c.933-.7 5.175-4.485 5.689-5.641.2-.438-.345-.8-.7-.634a40.786 40.786 0 0 0-5.8 5.328.634.634 0 0 0 .811.947Z" fill="#38a1ff"></path><path d="M163.25 110.078c1.022.27 6.908 1.894 7.66 1.754a.529.529 0 0 0 .352-.66c-.309-1.014-6.862-2.209-7.866-2.257-.703-.034-.767.999-.146 1.163Z" fill="#38a1ff"></path><path d="M165.067 103c1.08-.063 5.9-1.035 6.658-1.588.37-.27.111-.773-.258-.85-.94-.195-5.961 1.024-6.741 1.323a.593.593 0 0 0 .341 1.115Z" fill="#38a1ff"></path><path d="M34.687 107.689c2.316-.16 5.87-.3 6.58-.78a.494.494 0 0 0-.132-.849c-.752-.286-5.129.369-6.462.571-.873.132-.856 1.118.014 1.058Z" fill="#38a1ff"></path><path d="M43.433 113.734a12.314 12.314 0 0 0-4.707 2.005c-.516.432-.34 1.486.961.871.571-.271 3.05-1.177 4.178-1.741s.648-1.254-.432-1.135Z" fill="#38a1ff"></path><path d="M38.176 98.323c.85.507 5.48 2.667 6.573 2.514a.558.558 0 0 0 .314-.9c-.328-.307-5.568-2.225-6.435-2.521-.528-.179-.967.6-.452.907Z" fill="#38a1ff"></path><path d="M112.506 97.849c2.1-9.732-12.224-14.484-17.688-6.817-2.195 3.08-2.087 6.042.16 9.011 3.876 5.122 15.938 5.175 17.528-2.194Zm-15.5-7.743a18 18 0 0 1 5.083 2.688 17.263 17.263 0 0 1 3.6-4.046c.4-.32.913.258.606.648-1.1 1.394-2.249 2.6-3.28 4.066 1.393 1.073 5.689 4.552 6.365 6.184a.5.5 0 0 1-.808.536 63.9 63.9 0 0 0-6.267-5.661 52.719 52.719 0 0 0-3.405 7.04.474.474 0 0 1-.9-.272c.365-2.243 2.145-5.48 3.392-7.451-1.574-1.121-3.195-1.956-4.8-2.987-.417-.27-.024-.89.413-.745Z" fill="#38a1ff"></path><path d="M65.752 99.507c4.832.759 11.142 5.292 16.8 7.66.355-1.114 1.441-3.991 2.2-4.722.34-.327.739-.222.612.23-.462 1.652-1.2 3.566-1.7 4.931a15.437 15.437 0 0 0 4.178 1.016c2.291-3.809 4.875-4.248 7.542-2.785s11.838 1.323 14.909-.7 4.875-.94 8.182 1.233a40.369 40.369 0 0 0 6.393-3.879 32.044 32.044 0 0 0-3.2-4.714c-.355-.441.069-.78.529-.453a15.427 15.427 0 0 1 3.663 4.471c4.707-3.322 10.069-7.312 14.582-8.948-3.83-4.659-13.336-14.937-29.436-13.782-3.231 5.808-14.762 4.952-16.817.418-13.855-.083-24.935 10.01-28.437 20.024Zm27.464-8.357c3.357-5.755 11.774-6.765 17.11-2.527a9.436 9.436 0 0 1 2.785 11.246c-3.1 6.278-13.237 6.274-18 2.089a8.763 8.763 0 0 1-1.894-10.787Z" fill="#38a1ff"></path><path d="M65.821 52.147c.2.362.9.612 1.142.279a12.742 12.742 0 0 0 1.609-3.106c.571 1.044 3.635 6.726 4.29 7.235.376.292.9.209.849-.32-.086-.954-4.024-7.657-4.693-8.858a.76.76 0 0 0-1.33 0 13.315 13.315 0 0 1-1.247 3.154c-1.017-1.775-3.294-5.924-4.324-7.291-.312-.412-1.074-.118-.864.418a84.935 84.935 0 0 0 4.568 8.489Z" fill="#38a1ff"></path><path d="M129.713 49.194a14.851 14.851 0 0 1 5.014-.383 59.576 59.576 0 0 1-5.536 6.818.619.619 0 1 0 .87.87 78.727 78.727 0 0 0 6.441-7.743.7.7 0 0 0-.348-1.094 16.214 16.214 0 0 0-4.951-.1 74.318 74.318 0 0 1 4.875-5.787c.462-.5-.285-1.162-.78-.7a52.683 52.683 0 0 0-6.268 7.054.7.7 0 0 0 .683 1.065Z" fill="#38a1ff"></path><path d="M98.042 59.821a2.617 2.617 0 0 0-2.152 2.124c-.041.6.432.78.787.362a2.662 2.662 0 0 1 1.33-1.128c1.282-.397.571-1.4.035-1.358Z" fill="#191919"></path><path d="M99.268 63.9c-.332-1.777-1.717-1.025-1.477.313.309 1.693 1.757 1.192 1.477-.313Z" fill="#191919"></path><path d="M105.215 62.948c-.411-1.72-1.658-1.129-1.393.362s1.727 1.037 1.393-.362Z" fill="#191919"></path><path d="M105.4 60.336c.539.238.7-.223.425-.654a2.538 2.538 0 0 0-2.257-.892c-.891.209-.808 1.132 0 1.156a4.9 4.9 0 0 1 1.832.39Z" fill="#191919"></path><path d="M103.383 70.879c.154-.794.377-1.314-.578-1.246a7.591 7.591 0 0 1-3.878-.78c-.7-.425-1.231-.641-1.108.62.362 3.711 4.897 4.86 5.564 1.406Zm-.891-.292c-.307 2.562-3.294 1.344-3.572-.759a8.876 8.876 0 0 0 3.572.759Z" fill="#191919"></path><path d="M101.148 67.133c-.557.005-.954.888 1.01.884 1.19 0 1.515-.523 1.211-1.88a14.373 14.373 0 0 0-1.065-3.1c-.253-.525-.94-.09-.7.439a15.162 15.162 0 0 1 .87 3.523c-.107.162-.936.13-1.326.134Z" fill="#191919"></path><path d="M96.684 78.741a6.325 6.325 0 0 0-.285 1.393c0 .78.84.793 1.03.049.118-.46.156-.613.272-1.2.15-.756-.765-1.038-1.017-.242Z" fill="#191919"></path><path d="M103.063 49.745c-.85-1.289-5.244-2.243-7.284 2.576-3.628-1.518-6.566 1.878-4.561 7.5.342.96 1.392 3.391 1.81 4.874.738 5.376 1.582 9.932 4.743 11.142.7.268 1.03-.6.355-.933-3.043-1.5-3.482-7.381-4.088-11.239a13.832 13.832 0 0 0 .383-5.717c3.955 0 9.4-1.121 11.762-2.431a15.306 15.306 0 0 0 1.824 5.4c.23 4 .729 12.148-3.217 14.178-.446.23-.369 1.588 1.511.181a39.51 39.51 0 0 1 1.6 4.248c.337 1.085 1.273.794.814-.564a92.062 92.062 0 0 0-1.636-4.429c2.5-2.987 2.092-9.7 2.089-13.328 0-1.393.383-5.112-.146-7.319 2.089-1.156 4.279-4.706 2.667-6.63-2.079-2.478-7.38.332-8.626 2.491Z" fill="#191919"></path><path d="M110.277 53.79c-.013 2.02.529 3.113.7 7.041-.453.055-.745.174-.7.313a37.958 37.958 0 0 1-.132 6.643c-.176.55 4.954 1.142 5.1-3.746a3.058 3.058 0 0 0-2.89-3.162 33.126 33.126 0 0 0-1.114-7.207c-.167-.43-.96-.411-.964.118Z" fill="#191919"></path><path d="M89.414 63.874a3.429 3.429 0 0 0 1.268 6.267c.215 5.836 3.405 8.141 9.052 7.1 1.038 1.316 4.443.439 3.956-1.121-.446-1.428-3.482-1.177-4.081-.077-5.188.975-7.18-.8-7.771-5.78.738 0 1.26-.2 1.176-.376a33.048 33.048 0 0 1-.9-6.462c-.007-.278-.738-.334-1.595-.069-.8-3.482-2.648-9.619.613-12.535 2.79-2.495 9.479-3.958 13.1-3.3.794.144 1.169-1.056.362-1.218-4.145-.833-11.285.566-14.45 3.628-3.513 3.395-2.011 9.124-.73 13.943Z" fill="#191919"></path><path d="M111.747 105.746a7.027 7.027 0 0 1-2.856 1.393c-.877.139-.168 1.759 2.4.439 1.183-.608 1.449-1.074 2.242-.8 5.229 1.8 8.337 6.876 7.848 10.5a5.713 5.713 0 0 1-5.2 4.937.411.411 0 0 0-.041.815c3.08.506 5.779-2.221 6.4-5.139 5.634-.592 12.5-2.5 15.125-4.025 8.361-4.867 6.213-11.653 2.138-18.551-.409-.693-1.309-.216-.905.459 6.438 10.773 5.039 18.152-16.2 21.031.161-3.211-2-6.31-3.649-7.988 2.856-1.093 8.58-4.78 10.4-6.963a.39.39 0 0 0-.557-.544 43.285 43.285 0 0 1-10.794 6.658c-1.298-1.163-4.604-3.368-6.351-2.222Z" fill="#191919"></path><path d="M115.075 121.679c3.934-.757 4.879-3.987 4.3-4.721-.346-.441-1.2-.314-1.087.6.072.6-.94 1.908-1.7 2.388a8.192 8.192 0 0 1-3.753.905c-.594-.151-1.027 1.457 2.24.828Z" fill="#191919"></path><path d="M117.742 116.317a.654.654 0 0 0-1.267-.327c-.887 3.32-6.175 3.581-9.262 2.263a.432.432 0 0 0-.425.745c2.882 2.102 9.78 1.775 10.954-2.681Z" fill="#191919"></path><path d="M85.431 120.92c.822 3.67 4.589 4.875 7.966 4a.419.419 0 0 0-.16-.822c-1.943.063-6.572.488-6.7-4.923-.065-2.785 1.31-5.921 2.786-8.2.644-.994 2.332-2.863 3.307-3.176.7-.223 2.157.917 4.429.474.439-.085.592-.7.091-.843-4.431-.734-4.05-2.2-6.609.209-.814.767-1.5 1.651-2.263 2.479a22.332 22.332 0 0 1-8.767-2.869c-.277-.157-1.969.268 1.525 2.131a18.017 18.017 0 0 0 6.427 2.006 16.455 16.455 0 0 0-2.207 8.161c-5.571.258-14.166-.994-18.356-5.2-3.895-3.9-1.752-8.668.243-12.688.236-.474-.57-.905-.821-.438-3.928 7.294-4.465 12.718 3.579 16.775a32.137 32.137 0 0 0 15.53 2.924Z" fill="#191919"></path><path d="M102.492 118.88c.466-.818-.11-.994-.787-.474a7.347 7.347 0 0 1-4.986 2.089c-1.685.036-4.757-.856-5.432-2.472-.264-.633-1.449-.111-.975.94.793 1.756 3.634 2.645 5.954 2.786 2.527.151 5.292-1.232 6.226-2.869Z" fill="#191919"></path><path d="M90.173 121.066c-.478-.365-1.246.181-.647.864a6.2 6.2 0 0 0 5.786 1.2c.885-.228.905-.927.383-.905-1.401.065-3.795.161-5.522-1.159Z" fill="#191919"></path><path d="M111.21 117.856c4.053-.073 5.375-4.244 1.393-5.9-4.249-1.765-14.144-1.352-17.966 1.121-3.1 2.005-1.156 6.267 2.242 6.177s3.531-2.919 7.389-3.211c3.05-.228 2.883 1.886 6.942 1.813Z" fill="#191919"></path><path d="M129.309 119.757c-6.678.4-8.621 5.118-12.583 4.77s-6.33-3.872-11.783-3.8-8.8 5.71-12.256 5.975-5.494-1.975-10.445-2.152c-5.927-.212-9.854 4.394-10.731 12.925S76 163.733 77.666 169.1c5.975-.23 11.435-.411 14.415-.481 0-4.874-2.242-21.873 1.01-27 2.952-4.659 18.218-5.358 28.2-2.2 5.014 1.586 11.7 24.191 13.105 30.264 2.73-1.936 8.357-3.789 13.2-5.718-.787-11.534-3.596-45.087-18.287-44.208Z" fill="#191919"></path><path d="M92.221 170.278c-.343-.765-1.459-.1-1.122.7a14.422 14.422 0 0 1 .913 3.154c.641 3.7-1.059 3.131-3.942 3.036-4.29-.14-8.183-.223-12.534 0-2.285.118-6.716.577-6.894.035-.68-2.06 10.668-5.626 11.956-6.149a.58.58 0 1 0-.32-1.114c-2.3.611-15.182 4.674-13.161 7.981 1.108 1.814 8.081-.022 21.148.438 3.029.107 5.727.6 4.972-4.575a13.256 13.256 0 0 0-1.016-3.506Z" fill="#191919"></path><path d="M143.793 166.441c-.793.266-.481 1.543.321 1.275 1.391-.466 15.188-4.791 15.006-1.825-.125 2.048-8.351 6.624-10.194 7.66-1.987 1.117-9.087 5.192-11.421 4.1-1.809-.845-1.427-5.138-1.393-6.713.014-.592-.938-.759-1.058-.153-.476 2.41-.695 7.653 2.653 8.2 2.926.475 7.723-2.159 10.272-3.524s12.235-6.267 12.36-9.6c.192-5.116-14.672-.045-16.546.58Z" fill="#191919"></path><path d="M183.27 136.345c.226-.789 1.59-6 1.456-6.6-.09-.4-.961-1.072-1.358.578a31.373 31.373 0 0 0-1.087 5.926c.037.551.862.541.989.096Z" fill="#191919"></path><path d="M180.708 132.34a7.534 7.534 0 0 0-8.58 4.84.544.544 0 0 0 1.01.39 6.766 6.766 0 0 1 7.451-3.969c.811.111.895-1.094.119-1.261Z" fill="#191919"></path><path d="M194.893 144.039c-.594-.81-5.676-1.462-6.539-1.483a.585.585 0 1 0-.133 1.163c.829.167 5.961 1.343 6.47 1.114a.523.523 0 0 0 .202-.794Z" fill="#191919"></path><path d="M180.241 148.663a36.233 36.233 0 0 0-1.149 6.17c-.129 1.325.662 1.227.9 1.052.42-.312.379-1.086.474-1.776.244-1.775.523-3.539.745-5.313.075-.619-.811-.715-.97-.133Z" fill="#191919"></path><path d="M190.492 146.915c-1.082 3.925-4.874 4.318-8.28 4.422a.5.5 0 0 0-.153.961c3.781 1.031 8.623-1.023 9.665-5.007.21-.8-1.011-1.177-1.232-.376Z" fill="#191919"></path><path d="M177.442 150.362c-1.8-.962-4.654-1.843-5.035-6.859-.044-.585-.894-.522-.968 0-.72 5.08 4 8.146 5.7 7.925.561-.072.748-.828.303-1.066Z" fill="#191919"></path><path d="M185.6 134.081c5.751 1.593 5.489 4.819 5.78 6.846.056.39 1.3.828 1.212-1.344a6.937 6.937 0 0 0-6.832-6.47.5.5 0 0 0-.16.968Z" fill="#191919"></path><path d="M175.666 141.372a.524.524 0 0 0 .111-.891c-.732-.695-5.571-1.163-6.42-1.149a.592.592 0 1 0-.132 1.177c.94.167 5.75 1.091 6.441.863Z" fill="#191919"></path><path d="M122.847 26.528c-.967-.358-1.12 1.772-2.786 1.17-2.783-1.008.7-4.953 1.992-3.684.7.691 1.393-1.111-.3-1.483-1.851-.408-5.339 2.572-3.607 5.229 2.222 3.41 6.499-.568 4.701-1.232Z" fill="#191919"></path><path d="M92.165 29c.72-6.049-4.234-6.908-5.648-4.506-.975 1.658-.61 4.8.808 6.47 1.792 2.107 4.456 1.262 4.84-1.964Zm-4.123-4.318c1.667-.928 3.479 1.26 2.681 5.146-.258 1.261-1.838 1.261-2.66-.278s-1.189-4.217-.021-4.868Z" fill="#191919"></path><path d="M80.069 25.755c.564.042 1.135 0 1.7 0 .125 2.555.306 4.352.474 6.156a.7.7 0 0 0 1.323-.1c0-1.191-.407-4.763-.585-6.476-.068-.655-.425-.85-1.031-.8s-1.288.042-1.922.146a.551.551 0 0 0 .041 1.074Z" fill="#191919"></path><path d="M123.787 32.76c4.038-1.874 6.665-8.531 2.562-12.3-4.825-4.43-12.207-.522-12.91 5.348s6.211 8.873 10.348 6.952Zm.745-11.929c5.283 3.186 1.456 12.016-4.4 10.94-2.7-.5-5.389-2.367-5.411-5.195-.04-4.976 5.75-8.193 9.811-5.745Z" fill="#191919"></path><path d="M72.4 29.654c.5 0 1-.055 1.5-.083a8.477 8.477 0 0 0 .188 2.172c.153.335 1.187.8 1.149-.87-.011-.466-.056-.926-.083-1.393.981-.069 2.188.049 2.172-.766a.646.646 0 0 0-.654-.633l-1.623.132a11.561 11.561 0 0 0-.348-2.228c-.128-.489-.937-.488-.94.076-.005.829 0 1.428.063 2.256-.7.056-1.86.042-2.2.488s.047.895.776.849Z" fill="#191919"></path><path d="M97.353 30.859c3.909 1.386 5.348-4.874 3.1-7.618s-4.413-1-5.063.223c-.884 1.668-1.768 6.073 1.963 7.395Zm.264-7.618c3.433-.267 3.231 6.75.488 6.455-3.663-.396-2.041-6.334-.488-6.455Z" fill="#191919"></path><path d="M110.013 26.347c.368-4.179-2.67-5.481-4.179-4.422a4.623 4.623 0 0 0-1.9 3.482c-.398 5.719 5.556 6.866 6.079.94Zm-3.392-3.413c2.089-.368 2.29 3.041 1.853 4.541-.71 2.433-3.175 1.838-3.252-1.518-.028-1.205.689-2.897 1.399-3.023Z" fill="#191919"></path><path d="M45.014 147.138a37.278 37.278 0 0 1-8.788-6.267c1.553-2.744 3.9-6.338 5.2-9.248 1.875-4.2-2.414-.214-10.133 2.793a58.056 58.056 0 0 1-4.623-8.482c-1.024-2.262-2.167-3.482-2.64.557-.341 2.918-.39 5.7-.905 8.774-3.7-1.239-6.961-3.176-9.888-4.046-1.869-.555.815 5.607 2.145 9.561-2.967.279-5.926.614-8.9.85-1.323.105-2.3.917-.494 1.616 2.431.937 7.757 2.089 10.584 3.279a136.437 136.437 0 0 0-4.874 8.461.7.7 0 0 0 .842.94c3.879-1.622 7.563-3.433 11.637-4.874.752 1.567 5.369 7.91 6.371 9.248a.7.7 0 0 0 1.156-.356c.084-3.53.5-7 .878-10.5 4.108-.181 8.1-.729 12.214-1.239.857-.105.716-.816.218-1.067Zm-13.336 1.2c-.735.264-1.176 8.642-1.2 9.672-3.935-5.863-4.84-7.821-6.114-8.091-1.059-.224-8.656 3.314-10.606 4.122a53.406 53.406 0 0 1 3.879-7c.619-.929-.046-1.4-.9-1.832-2.08-1.054-7.068-2.089-8.258-2.451 2.862-.237 5.912-.39 7.054-.592 2.505-.443.377-2.984-1.553-9.227 1.393.5 6.958 2.833 9 3.761.389.176 1.142.229 1.267-.3.7-2.945.634-7.841 1.059-10.327.647 1.469 4.324 9.468 5.689 9.61 1.114.116 7.98-3.391 9-3.914-.954 2.25-5.528 8.746-5.167 9.645.405 1.009 6.372 4.937 7.841 5.815-3.602.578-10.269.856-10.991 1.114Z" fill="#191919"></path><path d="M33.552 67.446a33.274 33.274 0 0 0 4.255-1.971.627.627 0 0 0-.544-1.114 7.067 7.067 0 0 0-1.525.752 60.928 60.928 0 0 1-2.994-7.66.627.627 0 0 0-1.226.167 8.7 8.7 0 0 1-1.337 3.315c-.334.571.7 2.02 2.006-1.114a49.493 49.493 0 0 0 2.388 5.912 9.506 9.506 0 0 0-1.448.857c-.412.297-.092 1.055.425.856Z" fill="#191919"></path><path d="M48.426 46.179c-1.747.788-4.631 1.512-6.079 2.354-.815.474-.693 1.407.515 1.114a60.632 60.632 0 0 0 5.759-2.159c3.482 7.834 1.255 15.605-4.408 18.733a.516.516 0 0 0 .494.905c7.055-3.127 8.644-13.9 4.973-20.264-.354-.614-.453-1.044-1.254-.683Z" fill="#191919"></path><path d="M25.836 72.383c.822-.257.529-1.2-.341-.975-6.928 1.768-11.065-3.934-13.35-9.79 2.145-.9 4.178-1.8 6.337-2.869.648-.321.327-1.3-.348-1.031-1.763.694-3.482 1.434-5.257 2.18s-2.315.727-1.762 2.527c2.053 6.69 8.038 12.047 14.721 9.958Z" fill="#191919"></path><path d="M45.341 80.2a6.992 6.992 0 0 1-3.614-3.663c-2.717-6.131 4.2-8.016 1.671-19.8A26.831 26.831 0 0 0 40.85 49.7c-.6-1.124-.758-1.689-2.131-1.247-3.981 1.284-14.8 4.976-17.451 6.63-.433.27-.244 1.106.313.905 6.055-2.183 11.776-4.506 17.966-6.414 1.936 4.819 3.7 9.3 2.862 14.736-.8 5.209-4.341 7.76-1.894 12.966A8.979 8.979 0 0 0 44 81.158l-7.534 3.37a10.778 10.778 0 0 0 .821-7.744c-.921-3.356-2.932-3.786-5.821-4.735-7.551-2.48-8.914-9.379-11.142-16.016-.164-.487-1.018-.355-.912.181 1.375 6.967 4.142 14.606 11.483 17 2.348.767 4.3 1.13 5.083 3.941a8.829 8.829 0 0 1-.982 7.117c-1.14 1.8 0 2.2 1.678 1.546.969-.38 6.814-2.82 8.608-3.746 1.134-.583 1.178-1.245.059-1.872Z" fill="#191919"></path><path d="M156.509 50.622c1.6.358 3.224.655 4.833.982-.738 3.714-1.3 7.429-1.72 11.142-.157 1.393-.435 1.281 1.107 1.643a124.8 124.8 0 0 0 14.046 2.354c1.519.178 1.663.073 1.977-1.247a107.4 107.4 0 0 0 2.089-12.033c1.79.4 3.649.578 5.467.836a.806.806 0 0 0 .849-.7c.173-1.166-8.884-15.815-10.348-17.6-.883-1.08-1.092-1.168-2.235-.3-4.918 3.739-9.871 7.42-14.749 11.211-.466.363.105 1.115.627.829 3.614-1.977 10.835-8.635 15.264-11.365 3.419 5.488 6.79 10.251 9.923 16.49a32.464 32.464 0 0 0-4.456-.606c-1.247 0-1.575.209-1.755 1.574-.476 3.6-1.2 7.974-1.922 11.636-5.362-.564-10.376-1.608-14.561-2.284q.617-5.682 1.608-11.267c.163-.912.32-1.391-.814-1.56-1.665-.248-3.328-.519-5-.7-.564-.057-.787.843-.23.965Z" fill="#191919"></path><path d="M164.468 76.478c-.786-.225-1.58-.411-2.367-.62a25.652 25.652 0 0 0 .856-4.463c0-.509-.738-.537-.926-.14a28.453 28.453 0 0 0-1.163 4.353c-.264 1.086.119 1.265 1.087 1.525.7.186 1.427.41 2.151.557s1.059-1.012.362-1.212Z" fill="#191919"></path><path d="M158.946 74.264c.473-.6 1.838-2.048 1.936-2.716.07-.474-.463-.688-.822-.536-.489.206-2.6 3.064-3.057 3.628a28.739 28.739 0 0 0-1.288-4.624c-.222-.577-1.016-.18-.954.341a29.36 29.36 0 0 0 1.052 4.819c.687 2.876 2.296.151 3.133-.912Z" fill="#191919"></path><path d="M170.966 72.7c0-.55-.8-.845-.982-.265a25.935 25.935 0 0 0-.829 3.552c-.7 3.993 4.364 4.459 6.03 1.511.5-.877 1.009-3.6.7-4a.682.682 0 0 0-.787-.223c-.843.33-.156 2.831-1.469 4.178-.963.987-3.5 1.043-3.266-.954.142-1.268.537-2.507.603-3.799Z" fill="#191919"></path><path d="M179.788 73.491c-.891-.2-1.571-.317-1.956.7-.266.7-1.441 5.565-.286 5.808.941.2.78-1.393.836-2 1.525.167 4.087.3 4.45-1.65.321-1.733-1.072-2.409-3.044-2.858Zm1.769 2.646c-.174 1.184-2.138.62-3.022.522.111-.7.23-1.351.341-2.026 2.626.494 2.814.766 2.709 1.5Z" fill="#191919"></path><path d="M153.069 75.858c.78.183 1.107-1.03.32-1.211a10.9 10.9 0 0 0-2.026-.272c1.866-7.152.056-5.571-.07-5.014-.456 2.013-.872 3.649-1.33 5.474-.279 1.114 1.274.595 3.106 1.023Z" fill="#191919"></path></svg>