<svg xmlns="http://www.w3.org/2000/svg" viewBox="0 0 200 200" height="800" width="800"><path d="M155.866 16.354a8.945 8.945 0 0 0-13.312 8.5c.176 3.393 1.233 7.728-.61 11.6-.135.283.268.527.425.248 2.514-4.462.657-10.1.9-13.234a8.238 8.238 0 0 1 11.316-6.959 7.544 7.544 0 0 1 4.547 8.451 7.823 7.823 0 0 1-3.074 5.067c-1.956 1.56-3.953 2.146-5.863 3.039-2.348 1.1-4.463 2.813-4.634 5.414a.331.331 0 1 0 .662 0c.125-1.886 1.746-3.419 3.4-4.331 2.6-1.434 8.4-2.707 9.966-7.988a8.428 8.428 0 0 0-3.723-9.807Z" fill="#38a1ff"></path><path d="M148.219 13.848c.143.2.533.086.43-.182a20.241 20.241 0 0 0-.961-1.97c-2.552-4.961-2.442-5.159-3.066-5.71a.172.172 0 0 0-.29.12 5.412 5.412 0 0 0 .785 2.018c.336.664 2.508 4.892 3.102 5.724Z" fill="#38a1ff"></path><path d="M154.685 7.077c.035.649.227 5.242.26 5.916a.228.228 0 0 0 .455 0 32.924 32.924 0 0 0 .068-3.968 76.5 76.5 0 0 0-.133-2.921A2.13 2.13 0 0 0 155.1 5.1a.206.206 0 0 0-.35 0 4.547 4.547 0 0 0-.065 1.977Z" fill="#38a1ff"></path><path d="M165.6 12.519a5.109 5.109 0 0 0 1.607-1.362.181.181 0 0 0-.2-.262c-1.114.164-3.852 2.9-6.7 4.147-.246.108-.07.5.182.429 1.723-.506 3.111-1.571 5.111-2.952Z" fill="#38a1ff"></path><path d="M170.237 22.9c-.377-.247-.516-.221-6.03-.633-.681-.05-1.362-.06-2.045-.061-.256 0-.331.419-.063.463 1.3.2 1.779.276 7.131.687a4.568 4.568 0 0 0 .771-.008 1.108 1.108 0 0 0 .233-.092.207.207 0 0 0 .003-.356Z" fill="#38a1ff"></path><path d="M60.088 63.347a.788.788 0 0 0 1.318-.066.837.837 0 0 0-.287-1.121.8.8 0 0 0-1.031 1.187Z" fill="#191919"></path><path d="M62.753 66.755a2.087 2.087 0 0 0 .814.185 2.332 2.332 0 0 0 .75-.02 1.316 1.316 0 0 0 1.005-1.086 1.776 1.776 0 0 0-.188-.941 12.465 12.465 0 0 0-1-2.032 23.304 23.304 0 0 0-.981-1.54.238.238 0 0 0-.411.24c.461 1.012 1.112 1.92 1.528 2.957.243.611.619 1.206.125 1.564-.417.3-1.059-.074-1.455-.028a.38.38 0 0 0-.187.701Z" fill="#191919"></path><path d="M61.982 70.886a1.37 1.37 0 0 0 2.045.2 1.833 1.833 0 0 0 .561-1.33.313.313 0 0 0-.518-.137c-.273.26-.322 1.133-.957 1.133-.837 0-1.075-1.32-1.008-2.153.025-.3-.423-.337-.506-.069a2.646 2.646 0 0 0 .383 2.356Z" fill="#191919"></path><path d="M58.606 61.686a4.567 4.567 0 0 1 .194-1.011c.308-.9 1.152-.629 1.468-.979a.458.458 0 0 0 .022-.655c-.271-.261-.684-.106-1-.008a2.027 2.027 0 0 0-1.448 1.848 2.083 2.083 0 0 0 .125.89.326.326 0 0 0 .639-.085Z" fill="#191919"></path><path d="M65.326 74.894a11.527 11.527 0 0 1 7.6 3.038c2.973 2.657 4.453 6.4 5.352 10.245.337 1.451.318 1.632.4 1.935.062.228.157.451.23.674a.2.2 0 0 0 .4-.053 3.788 3.788 0 0 0-.06-1.224c-.945-6.022-3.481-11.827-9.07-14.318a8.971 8.971 0 0 0-4.851-.828.266.266 0 0 0-.001.531Z" fill="#191919"></path><path d="M61.516 151.585a.451.451 0 0 0-.618-.418.318.318 0 0 0-.456.073c-1.014 1.651-2.824 5.609-3.586 7.341a190.546 190.546 0 0 0-9.575 27.085c-.355 1.314-.739 2.631-1.006 3.965-.066.335-.076.684-.11 1.026a.314.314 0 0 0 .615.083 9.171 9.171 0 0 0 .629-1.927 190.217 190.217 0 0 1 9.852-28.922c1.086-2.5 3.4-7.617 3.427-7.685q.833 6.794 1.812 13.563c.273 1.884 2.944 19.277 3.683 21.955.084.3.6.257.568-.076-.251-2.855-2.751-14.806-5.235-36.063Z" fill="#191919"></path><path d="M154.281 23.233c-1.1-.542-2.346.676-3.114 1.625a4.624 4.624 0 0 1-1.8-.942 3.522 3.522 0 0 0-.338-2.177c-.537-.854-1.4-.871-1.756-.361-.48.676.382 1.467.791 1.935a9.8 9.8 0 0 0 .789.816 15.442 15.442 0 0 1-2.155 6.393c-2.3 4.559-2.377 4.813-3.019 5.96-.9-.219-.467-.143-1.352-.395-1.328-.38-2.123.409-1.879 1.266a1.259 1.259 0 0 0-.782 1.748 1.055 1.055 0 0 0-.533 1.021c.076.8.767 1.249 1.425 1.572a9.88 9.88 0 0 0 2.2.75 5.081 5.081 0 0 0 2.353.169.892.892 0 0 0 .523-1.395 1.155 1.155 0 0 0 .707-1.574 1.229 1.229 0 0 0-.228-2.243 9.837 9.837 0 0 0-.933-.429c.49-1.043.966-2.092 1.476-3.126a67.322 67.322 0 0 1 4.758-8.418c2.986.55 4.042-1.613 2.867-2.195Zm-6.475-1.016c-.143-.213-.3-.584.063-.671.3-.071.573.2.721.422a2.559 2.559 0 0 1 .313 1.515 13.263 13.263 0 0 1-1.097-1.266Zm-3.092 14.571q-.292-.1-.59-.189c.559-.947.968-1.818 1.566-3 2.032-4.023 3.239-5.842 3.625-9.1a4.818 4.818 0 0 0 1.523.776c-1.658 2.076-4.963 8.955-6.124 11.513Zm9.255-12.294a2.77 2.77 0 0 1-2.191.486c1.856-2.158 3.03-1.296 2.191-.486Z" fill="#191919"></path><path d="M133.237 31.34a3.192 3.192 0 0 0-4.1.967 3.479 3.479 0 0 0 2.272 5.787 3.4 3.4 0 0 0 3.6-2.683 3.756 3.756 0 0 0-1.772-4.071Z" fill="#38a1ff"></path><path d="M133.147 58.65a3.192 3.192 0 0 0-4.1.967 3.479 3.479 0 0 0 2.272 5.787 3.4 3.4 0 0 0 3.6-2.683 3.755 3.755 0 0 0-1.772-4.071Z" fill="#38a1ff"></path><path d="M131.138 122.245a3.4 3.4 0 0 0 3.6-2.683 3.758 3.758 0 0 0-1.78-4.072 3.193 3.193 0 0 0-4.1.968 3.479 3.479 0 0 0 2.28 5.787Z" fill="#38a1ff"></path><path d="M133.012 144.83a3.192 3.192 0 0 0-4.1.968 3.48 3.48 0 0 0 2.272 5.787 3.4 3.4 0 0 0 3.6-2.683 3.756 3.756 0 0 0-1.772-4.072Z" fill="#38a1ff"></path><path d="M132.987 172.407a3.193 3.193 0 0 0-4.1.968 3.48 3.48 0 0 0 2.272 5.787 3.4 3.4 0 0 0 3.6-2.683 3.755 3.755 0 0 0-1.772-4.072Z" fill="#38a1ff"></path><path d="M131.18 38.9c-.162 1.106-.148 4.982-.153 6.051-.059 11.683-.016 11.252.061 11.569l.009.025a.34.34 0 0 0 .666.015 2.225 2.225 0 0 0 .066-.658c.006-.441-.04-16.9-.038-16.921.022-.348-.559-.436-.611-.081Z" fill="#38a1ff"></path><path d="M131.18 67.046c-.162 1.107-.148 4.983-.153 6.052-.059 11.683-.016 11.252.061 11.568l.009.025a.34.34 0 0 0 .666.015 2.225 2.225 0 0 0 .066-.658c.006-.441-.04-16.9-.038-16.92.022-.345-.559-.433-.611-.082Z" fill="#38a1ff"></path><path d="m131.087 112.569.008.025a.34.34 0 0 0 .666.015 2.193 2.193 0 0 0 .067-.657c0-.442-.04-16.9-.039-16.921.02-.345-.562-.435-.612-.083-.167 1.14-.277 16.862-.09 17.621Z" fill="#38a1ff"></path><path d="M131.846 126.9c-.025-1.389-.06-2.2-.053-2.3.02-.344-.563-.434-.613-.083-.235 1.606-.168 16.652-.167 16.755a3.847 3.847 0 0 0 .075.865l.009.025a.34.34 0 0 0 .666.015 2.218 2.218 0 0 0 .066-.657c.006-.445.043-13.194.017-14.62Z" fill="#38a1ff"></path><path d="M131.18 152.809c-.162 1.107-.148 4.985-.153 6.051-.059 11.683-.016 11.252.061 11.569l.009.025a.34.34 0 0 0 .666.015 2.225 2.225 0 0 0 .066-.658c.006-.441-.04-16.9-.038-16.921.022-.344-.559-.433-.611-.081Z" fill="#38a1ff"></path><path d="M110.046 129.915a13.928 13.928 0 0 0-4.9-3.5c-1.158-.452-2.538-.723-3.5.068-.929.766-1.214 2.29-1.373 3.375a11.185 11.185 0 0 0 .107 4.215c.077.385.15 1.053.6 1.174a.351.351 0 0 0 .34-.09c2.206-2.24 5.636-3.522 8.629-4.571a.22.22 0 0 0 .15-.265.326.326 0 0 0-.053-.406Z" fill="#38a1ff"></path><path d="M110.508 142.358a3.106 3.106 0 0 0 1.615-3.676 3.411 3.411 0 0 0-3.282-2.478 2.9 2.9 0 0 0-2.775 2.571 3.167 3.167 0 0 0 4.442 3.583Z" fill="#191919"></path><path d="M122.527 146.514a6.314 6.314 0 0 0-.153-1.594 2.106 2.106 0 0 0-1.022-1.079 29.8 29.8 0 0 0-4.5-2.534 15.073 15.073 0 0 0-1.98-5.642 18.219 18.219 0 0 0-4.371-5.127c-.219-.167-.473.186-.289.373.726.727 1.464 1.448 2.132 2.231a15.836 15.836 0 0 1 3.856 8.458 13.843 13.843 0 0 1-.054 3.507 16.168 16.168 0 0 0-5.743 2.931 4.18 4.18 0 0 0-.51.461c-.15-.086-.308-.156-.466-.238a14.35 14.35 0 0 1-5.952-5.853 21.619 21.619 0 0 1-2.206-6.69.238.238 0 0 0-.466.064 17.509 17.509 0 0 0 5.425 11.132 8.377 8.377 0 0 0-.263 1.717 40.959 40.959 0 0 0-.138 3.345 2.8 2.8 0 0 0 .219 1.526 4.29 4.29 0 0 0 1.168 1.022c1.073.769 6.825 4.4 7.5 4.808a.351.351 0 0 0 .476-.476 60.738 60.738 0 0 1-5.016-9.819c.069-.1-.17.135.583-.426a16.541 16.541 0 0 1 5.594-2.824 47.557 47.557 0 0 1 2.234 3.432c1.213 2.074 2.576 4.772 3.184 6.113.152.335.637.14.648-.175.083-2.198.133-7.846.11-8.643Zm-8.679 11.419c-2.669-1.734-5.6-3.479-6.936-4.538-.474-.379-.4-.506-.4-1.136-.023-2.35.2-4.412.2-4.937a13.372 13.372 0 0 0 2.788 1.742 62.141 62.141 0 0 0 4.348 8.869Zm2.941-12.635a11.951 11.951 0 0 0 .136-3.317c.682.423 1.633.852 3.624 2.147.8.515 1.027.659 1.116.867.256.608.093 5.837.061 8.71a65.191 65.191 0 0 0-4.937-8.405Z" fill="#191919"></path><path d="m121.64 159 .085.036a.357.357 0 0 0 .516-.4 15.179 15.179 0 0 0-2.465-4.917.353.353 0 0 0 .149-.387 8.39 8.39 0 0 0-1.824-2.756 16.745 16.745 0 0 0-4.421-3 .393.393 0 0 0-.568.231 8.847 8.847 0 0 0 1.4 8.431.4.4 0 0 0 .688-.251c.108-.189.216-.378.326-.567a16.7 16.7 0 0 0 2.763 4.881.346.346 0 0 0 .584-.243c.009-.113.017-.225.024-.338q1.438 1.662 2.879 3.322a.354.354 0 0 0 .6-.248 10.259 10.259 0 0 0-.736-3.794Zm-4.6-3.646-.04.63a9.558 9.558 0 0 1-1.582-2.825l-.406.72a4.927 4.927 0 0 1-.963-3.247c.077.247-.059-.114.248-1.061a5.958 5.958 0 0 1 3.244 2.9.91.91 0 0 0-.286-.077 8.735 8.735 0 0 1 1.529 2.876l-.507-.217a5.125 5.125 0 0 1 .582 2.365q-.91-1.027-1.817-2.06Z" fill="#38a1ff"></path><path d="M146.864 74.643a.472.472 0 0 0-.662 0 146.462 146.462 0 0 1-14.469 14.7 102.769 102.769 0 0 1-9.432-6.964.374.374 0 0 0-.443-.043.4.4 0 0 0-.193.656 110.438 110.438 0 0 0 9.752 9.066.467.467 0 0 0 .647 0 433.92 433.92 0 0 0 14.8-16.758.482.482 0 0 0 0-.657Z" fill="#191919"></path><path d="M161.563 111.239c-.013-.159-.193-.33-.35-.521-1.019-1.246-5.872-6.692-6.4-7.211a.169.169 0 0 0-.17-.19l-.04 0a.157.157 0 0 0-.181-.021 9.2 9.2 0 0 0-1.244-.094c-.871-.045-11.563-.007-11.817 0a.22.22 0 0 0-.4.082c-.2.189.127 26.316.142 26.467a.209.209 0 0 0 .161.317c1.438.119 19.108.186 19.731.12.323-.034.836-.073.587-.4.177-2.635.068-17.375-.019-18.549Zm-.98-.433c-.76-.057-4.978-.116-5.723-.02.162-1.147-.119-5.473-.126-6.846a553.559 553.559 0 0 0 5.849 6.866Zm.671 18.862c-.877-.125-19.478-.016-19.833 0 .147-2.494.01-25.755 0-25.878.1 0 11.633.1 12.773-.06-.065.677.171 7.084.205 7.383a.155.155 0 0 0 .188.153c.161.023 5.718.149 6.524.071-.051.569-.152 18.275.143 18.331Z" fill="#38a1ff"></path><path d="M143.207 111.882a.216.216 0 0 0 .221.176c.578 0 1.154-.017 1.732-.027a12.1 12.1 0 0 0 1.693-.06.223.223 0 0 0 .247-.228c0-.827-.033-1.573-.027-2.154q.465-.442.91-.906c.126-.131.479-.468.439-.638-.094-.407-.788.452-1.352 1.006a3.063 3.063 0 0 0-.07-.781.185.185 0 0 0-.123-.255 12.112 12.112 0 0 0-1.715-.027c-.577 0-1.154 0-1.732.012a.227.227 0 0 0-.228.236 25.783 25.783 0 0 0 .005 3.646Zm3.42-3.464a8.179 8.179 0 0 0-.023 1.086q-.626.579-1.3 1.1c-.142-.177-.285-.351-.433-.525s-.323-.473-.548-.541a.115.115 0 0 0-.145.11.666.666 0 0 0 .172.34c.342.466.575.756.786 1.019a.192.192 0 0 0 .234.03 18.32 18.32 0 0 0 1.243-1.028c0 .52 0 1.041.01 1.561-.483-.038-.979 0-1.462 0-.508 0-1.018 0-1.526.008 0-.1-.032-2.83-.065-3.107.53 0 1.059-.017 1.591-.025.482-.005.981.02 1.466-.028Z" fill="#191919"></path><path d="M143.41 119.087c.1 0 3.016-.022 3.425-.086a.224.224 0 0 0 .247-.229c0-.1-.023-2.95-.073-3.327-.035-.271 0-.378-.15-.4-.411-.058-3.345-.017-3.448-.015-.2 0-.239.181-.265.38s-.039 3.385.046 3.5a.208.208 0 0 0 .218.177Zm3.2-3.642c-.035.326 0 3.056 0 3.156-.21-.017-2.887.007-2.987.008 0-.1-.032-2.831-.065-3.107.096-.002 2.8-.031 3.051-.057Z" fill="#191919"></path><path d="M143.446 126.561c.106 0 3.016-.023 3.426-.087a.223.223 0 0 0 .246-.228c0-.1-.022-2.951-.072-3.327-.036-.271 0-.378-.151-.4-.41-.057-3.344-.017-3.447-.015-.2 0-.239.181-.265.381s-.04 3.385.045 3.5a.211.211 0 0 0 .218.176Zm3.2-3.642c-.035.325-.005 3.056 0 3.156-.21-.017-2.887.007-2.987.008 0-.1-.033-2.832-.065-3.107.097-.001 2.806-.031 3.051-.057Z" fill="#191919"></path><path d="M147.733 111.807c.194 0 4.539.071 5.692-.027.471-.04.317-.265 0-.281-.363-.02-5.151-.041-5.731.071-.131.03-.094.23.039.237Z" fill="#191919"></path><path d="M158.284 118.836c.386-.012.611-.254.047-.278-1.734-.075-9.67-.059-10.6.041a.121.121 0 0 0 0 .242 642.04 642.04 0 0 0 10.553-.005Z" fill="#191919"></path><path d="M158.137 126.007c-1.8-.058-9.649-.012-10.369.066a.121.121 0 0 0 0 .241c1.254.014 10.028.007 10.359 0 .897-.03.694-.285.01-.307Z" fill="#191919"></path><path d="M121.159 65.712c-2.309-3.185-2.262-3.38-2.572-3.444a1.172 1.172 0 0 0-.649.237c-.145-.2-.938-1.306-1.074-1.505a10 10 0 0 0 2.8-12.708 11.769 11.769 0 0 0-9.732-5.825c-8.465-.22-12.822 9.145-8.769 15.433a.227.227 0 0 0 .038.2c3.538 4.742 10.083 6.434 14.919 3.417.06.085 1.055 1.411 1.111 1.466a.789.789 0 0 0-.29 1.037c.628 1.069 1.371 2.058 2.087 3.067.02.028 2.317 3.375 2.318 3.409.376.561.856.088 1.232-.2.22-.17.428-.353.638-.535.143-.123.4-.281.4-.5-.016-.2-.558-.926-2.457-3.549Zm-5.817-5.753c-3.773 2.261-9.429 1.2-12.415-2.5a.236.236 0 0 0-.043-.162 8.367 8.367 0 0 1 6.874-13.045 9.42 9.42 0 0 1 8.578 5.488 8.01 8.01 0 0 1-2.994 10.219Z" fill="#191919"></path><path d="M109.99 49.123a73.471 73.471 0 0 0-1.767 7.277 3.389 3.389 0 0 0-.087 1.069c.018.128.208.133.265.035.3-.53.247-1.043 1.432-6.216a16.327 16.327 0 0 0 .453-2.083c.014-.155-.234-.223-.296-.082Z" fill="#191919"></path><path d="M111.89 51.852c-.421 1.677-.6 3.214-1.361 6.193-.209.822-.391 1.225-.161 1.361.359.215.5-.731.551-.919a39.749 39.749 0 0 0 1.247-6.6.141.141 0 0 0-.276-.035Z" fill="#191919"></path><path d="M87.205 130.22c-.747-3.473-2.477-11.086-3.615-14.791a.265.265 0 0 0-.511.141c.337 1.509 4.289 17.124 4.47 20.339.1 1.777-.349 3.849-1.99 4.836-1.852 1.113-5.059.215-6.557.574-.152-1.5-.313-2.886-.48-4.056a8.175 8.175 0 0 0 1.153-.321.43.43 0 0 0 .315-.408 23.693 23.693 0 0 1-.091-2.979c3.16-4.319 3.224-9.5 1.667-14.661a8.5 8.5 0 0 0-.5-1.289c-.174-.356-.692-.1-.614.258a28.822 28.822 0 0 1 1.294 6.51 12.859 12.859 0 0 1-2.5 8.641 155.622 155.622 0 0 1-15.918.013c-21.348-.891-22.408-1.387-23.791-.358a6.4 6.4 0 0 1-2.321-1.554c-2.386-2.555-2.268-6.134-1.992-9.478.948-11.536 2.135-18.811 2.72-24.119.033-.3-.48-.374-.537-.073-1.165 6.09-2.375 17.227-2.972 23.8-.336 3.687-.532 7.5 2.016 10.374a5.581 5.581 0 0 0 2.6 1.724c-.365.874-.678 1.771-.993 2.666a.436.436 0 0 0 .418.548l.111-.013c-.447 1.591-8.47 44.423-8.815 46.929-.055.4-.078.8-.112 1.2-.032.387.584.463.674.091.084-.342 8.269-44.148 8.9-48.3 7.39-.817 14.923-.448 22.4.078a4.6 4.6 0 0 0-.137.68c-1.075 7.113-1.231 7.1-1.277 8.362a10.835 10.835 0 0 0-.049 1.208c.014.161.252.264.337.09a7.3 7.3 0 0 0 .343-.97c.1-.326.229-.64.3-.976.19-.891 1.268-7.5 1.221-8.341q.87.063 1.685.126c-.126.477-.125 1.224-.488 3.731a55.36 55.36 0 0 1-1.416 6.888 1.414 1.414 0 0 0-.137.472 5.521 5.521 0 0 0-.56.77c-.218.306.224.759.529.527a1.691 1.691 0 0 0 .71-.945 1.856 1.856 0 0 0 .449-.9c.255-.75.663-2.638.817-3.417a50.684 50.684 0 0 0 .829-6.318 1.37 1.37 0 0 1 .2-.734c6.462.515 10.251.963 12.965.561.129 3.3.433 6.695.674 9.985 1.768 24.022 1.646 38.784 1.9 40.947a.348.348 0 0 0 .695 0c.1-1.524-.905-28.479-.983-29.916-.173-3.195-.494-8.5-.906-13.383.3 0 2.518-.118 3.917-.254a8.539 8.539 0 0 0 .07 1.151c.48 4.968 1.825 5.457.747 7.582-.542 1.071-1.759 3.293-2 3.964-.127.352.38.517.571.241.321-.471 1.683-3.218 1.939-3.735 1.277-2.573.167-2.489-.571-7.943-.06-.44-.082-.889-.164-1.326a2.324 2.324 0 0 0 .531-.106.777.777 0 0 0 .346-.772 9.57 9.57 0 0 0-.175-1.872c2.24-.533 3.435-2.492 3.644-4.73.176-1.833-.346-4.002-.985-6.969Zm-15.375 6.255c-11.06-.736-21.84-2.078-32.713-.855.072-.2.708-2.025.708-2.238 1.045-.864 2.1-.462 22.2.446a159.229 159.229 0 0 0 17.072.057q-.029 1.166.032 2.335c-2.373.68-4.873.416-7.299.255Zm12.228 7.5c-3.426.2-4.278.132-4.793.15-.064-.728-.129-1.443-.2-2.137a40.167 40.167 0 0 0 4.967.039 16.251 16.251 0 0 1 .026 1.943Z" fill="#191919"></path><path d="M81.3 150.2a.278.278 0 0 0-.545.074c0 .683.068 1.71.1 1.93a1 1 0 0 0 .245.593.161.161 0 0 0 .226 0c.272-.34.16-.871.127-1.271a19.195 19.195 0 0 0-.153-1.326Z" fill="#191919"></path><path d="M106.055 86.933a17.154 17.154 0 0 0-6.846 0 1.567 1.567 0 0 0-.905.436.32.32 0 0 0 .224.54 36.951 36.951 0 0 1 3.676-.5c1.387-.051 2.208.066 3.781.054.288-.012.373-.475.07-.53Z" fill="#191919"></path><path d="M105.555 89.048a.215.215 0 0 0 0-.43 11.687 11.687 0 0 0-4.423.436 7.888 7.888 0 0 0-.7.218c-.245.094-.55.207-.621.487a.322.322 0 0 0 .141.348c.504.352 1.233-.588 5.603-1.059Z" fill="#191919"></path><path d="M105.7 90.28a12.531 12.531 0 0 0-3.355.706c-.718.235-.8.468-.992 1.179a6.361 6.361 0 0 1-.959 2.595c-.986 1.107-2.784 1.163-4.09 1.608a3.84 3.84 0 0 0-2.358 1.876 21.2 21.2 0 0 1-3.463-4.744c2.675-1.284 2.1-5.922 4.6-7.462a10.786 10.786 0 0 1 5.894-1.237 12.729 12.729 0 0 1 3.387.679 3.36 3.36 0 0 0 1.15.333.36.36 0 0 0 .252-.606 2.253 2.253 0 0 0-1-.518 12.717 12.717 0 0 0-9.472.255c-3.656 1.652-2.489 5.462-5.093 8.1l-.086-.138a.4.4 0 0 0-.532-.139c-.551.3-1.1.586-1.643.9a.453.453 0 0 0-.177-.1c-3.175-.864-7.055-.2-10.348.524.03-.287-.209-1.693-.589-4.294-.044-.3-.575-.233-.536.073a38.817 38.817 0 0 0 .594 4.34 35.453 35.453 0 0 0-11.71 4.661c-.808.536-.908.788-1.357.609-5.561-2.219-6.843-6.206-7.612-6.755a.268.268 0 0 0-.4.229c-.064 1.232 3.182 5.6 7.726 7.057a24.275 24.275 0 0 0-2.048 1.7 4.586 4.586 0 0 0-1.063 1.246.341.341 0 0 0 .535.411c.165-.132.334-.255.506-.378a28.551 28.551 0 0 1 3.681-2.979 39.363 39.363 0 0 1 15.385-5.58 17.013 17.013 0 0 1 6.672-.072 9.677 9.677 0 0 0 3.41 7.118 4.913 4.913 0 0 0 1.735 1.063c.082 1.237-1.253 3.258-1.985 4.238A29.22 29.22 0 0 1 46.01 108.5a37.423 37.423 0 0 1-5.63-8.451c-1.617-3.122-3.268-6.378-3.743-9.906A12.3 12.3 0 0 1 49.1 76.054a9.353 9.353 0 0 0 2.5 1.273c5.436 1.941 10.784-.4 11.567-1.535.136-.2-.048-.272-.4-1.285a5.868 5.868 0 0 0 2.381-.841c1.889-1.193 2.445-2.856 2.383-5.071A30.667 30.667 0 0 0 64.3 55.8a.676.676 0 0 0 .072-.08 5.555 5.555 0 0 0 .907-3.455 12.533 12.533 0 0 0-4.531-9.36c-6.142-4.991-16.119-2.586-21.377 2.642a16.315 16.315 0 0 0-2.8 19.926A14.47 14.47 0 0 0 49.8 72.539a9.9 9.9 0 0 1-.644 2.757 12.948 12.948 0 0 0-13.482 11.745c-.37 3.686.928 7.285 2.477 10.566 3.161 6.7 6.147 11.7 12.329 15.911a29.92 29.92 0 0 0 35.56-1.18c2.35-1.828 5.184-4.66 6.451-7.356.215-.457.9-2.2.721-2.59A11.877 11.877 0 0 0 95 99.365a.263.263 0 0 0-.119-.3 2.119 2.119 0 0 1-.227-.161 3.359 3.359 0 0 1 .905-1.185c1.678-1.112 4.895-.669 6.033-3.193a16.451 16.451 0 0 0 .685-2.346c.1-.34-.167-.165 1.676-.758.3-.1 1.51-.52 1.815-.621.264-.101.24-.554-.068-.521ZM50.142 74.935a10.275 10.275 0 0 0 .213-5.444 1.775 1.775 0 0 0 1.038-.566.4.4 0 0 0-.559-.558c-1.342 1.108-3.5-1.251-2.058-3.064 1.143-1.442 2.724-.1 2.825-.077a1.333 1.333 0 0 0 1.335-.469c.736-.891.286-2.287.748-4.514.469-2.268 1.565-3.209 3.856-4.354a6.719 6.719 0 0 1 5.078-.66c.572.186.987.333 1.19.9.242.671.487 1.34.725 2.012a1.689 1.689 0 0 0-1.434.2 1.369 1.369 0 0 0-.357.434.339.339 0 0 0 .346.509 2.984 2.984 0 0 1 .864-.188c.433.016.461.207.8.217a.555.555 0 0 0 .182-.023c.425 1.274.565 1.868.652 2.18a.778.778 0 0 0-.832-.288.836.836 0 0 0-.188 1.489.8.8 0 0 0 1.182-.571c.476 1.968 1.24 6.353.775 8.323-.523 2.192-2.979 3.865-6.258 3.077a11.908 11.908 0 0 1-4.438-2.33 7.5 7.5 0 0 0-1.395-1.032c-.29-.132-.694.158-.482.481a1.653 1.653 0 0 0 .563.609c2.254 1.861 4.73 3.458 7.673 3.328a3.1 3.1 0 0 0 .323.943 22.133 22.133 0 0 1-2.216 1.015 12.57 12.57 0 0 1-10.511-.921 1.124 1.124 0 0 0 .36-.658ZM92.7 101.976c-.1-.07-1.164-.845-1.342-.994a8.839 8.839 0 0 1-3.259-6.76c.51-.2 1.011-.412 1.512-.628a21.333 21.333 0 0 0 3.377 4.713 11.063 11.063 0 0 0 1.412 1.069 12.134 12.134 0 0 1-1.7 2.6Z" fill="#191919"></path><path d="M93.209 85.381a8.9 8.9 0 0 1 4.546-2.08c-.8-.32-6.211-2.5-6.974-2.776-1.366-.494-2.443-.165-2.784 1.292a1.612 1.612 0 0 0 .171 1.2 1.577 1.577 0 0 0 .934.668c1.661.663.15.031 4.107 1.696Z" fill="#191919"></path><path d="M111.012 90.4a24.849 24.849 0 0 0-1.863-2.534l-2.082-.835a1.114 1.114 0 0 1-.681 1.174 1.038 1.038 0 0 1-.117 1.382 1.082 1.082 0 0 1 .5 1.118c.285.1.57.2.856.305.13.045 2.13.011 3 .063a.45.45 0 0 0 .387-.673Z" fill="#191919"></path><path d="M167.894 167.243c-1.084-2.228-3.318-2.966-4.977-2.058l.07-1.239a.438.438 0 0 0-.645-.383c-2.152-.331-9.286.148-14.168-.042-1.811-.071-2.133-.144-2.566-.163a.508.508 0 0 0-.563.555c-.015.368-.017.739-.013 1.109-1.854-.718-3.744.417-4.623 2.223-1.372 2.817-.672 8.119 2.608 10.454a3.7 3.7 0 0 0 1.309.632 2.993 2.993 0 0 0 2.814-.962 8.424 8.424 0 0 0 5.82 4.705 9.119 9.119 0 0 1-1.384 4.954 9.362 9.362 0 0 0-1.668.162 1.686 1.686 0 0 0-1.354 1.308 11.043 11.043 0 0 0-1.582.182 1.858 1.858 0 0 0-1.033.5 3.876 3.876 0 0 0-.484 2.571 13.279 13.279 0 0 0 .15 1.616c.236 1.47 1.921 1.477 3.092 1.537a75.221 75.221 0 0 0 10.989-.257 4.473 4.473 0 0 0 2.045-.488 1.648 1.648 0 0 0 .663-.8 3.265 3.265 0 0 0 .093-1.317c-.2-3.727-1.1-3.64-2.954-3.64-.357-1.677-1.576-1.561-3.179-1.552a7.787 7.787 0 0 1-1.511-4.723c2.934-.378 4.79-2.467 5.939-5.182a.113.113 0 0 1 .012-.028 3.087 3.087 0 0 0 3.179 1.417c1.889-.423 4.473-3.239 4.569-7.584a7.552 7.552 0 0 0-.648-3.507Zm-24.716 7.634a6.027 6.027 0 0 1-1.463-2.745 4.846 4.846 0 0 1 .033-3.547 2.529 2.529 0 0 1 1.627-1.523 2.476 2.476 0 0 1 1.755.356 33.53 33.53 0 0 0 1.2 7.966 2.619 2.619 0 0 1-3.152-.507Zm4.173-3.939a13.579 13.579 0 0 1-.326-2.456 8.581 8.581 0 0 1 0-2.406c.065-.32.482-.248.58 0a10.574 10.574 0 0 1 .458 2.311 18.914 18.914 0 0 1 .311 2.413.521.521 0 0 1-1.023.138Zm3.712 7.492c-.047.409-.61.581-1.219-.148a6.639 6.639 0 0 1-1.232-2.188 2.392 2.392 0 0 1-.1-.829.288.288 0 0 1 .533-.145c.076.13.176.246.251.378s.115.265.19.421a9.656 9.656 0 0 0 1.41 2 .9.9 0 0 1 .167.511Zm15.529-6.3a6.019 6.019 0 0 1-1.464 2.745 2.439 2.439 0 0 1-3.635.123 33.506 33.506 0 0 0 1.265-7.32 2.811 2.811 0 0 1 2.174-.62 2.533 2.533 0 0 1 1.627 1.524 4.86 4.86 0 0 1 .033 3.55Z" fill="#38a1ff"></path></svg>