<svg xmlns="http://www.w3.org/2000/svg" width="432" height="432" viewBox="0 0 432 432" fill="none"><g clip-path="url(#clip0_1391_936)"><path d="M162.432 337.621C162.216 335.066 162.039 332.478 160.734 332.53C159.289 332.584 159.57 334.221 159.201 338.714C159.166 339.578 159.242 362.12 159.458 367.63C159.801 375.622 159.646 376.857 161.084 376.857C162.352 376.857 162.404 376.609 162.78 365.606C162.894 362.31 163.035 342.347 162.432 337.621Z" fill="#101828"></path><path d="M268.034 372.187C267.963 369.978 267.963 367.794 267.847 365.608C267.35 355.888 266.972 351.266 265.989 337.483C265.257 332.666 265.246 331.836 264.06 331.882C262.874 331.927 262.917 333.087 262.779 337.282C262.524 340.699 264.185 363.241 264.524 366.293C265.63 377.358 265.658 377.892 266.987 377.797C268.682 377.663 267.793 375.393 268.034 372.187Z" fill="#101828"></path><path d="M309.483 164.305C304.114 162.033 298.876 159.463 293.792 156.609C279.286 148.388 275.635 143.165 269.665 139.223C267.228 137.424 264.387 136.25 261.39 135.806C258.493 135.58 255.601 136.315 253.163 137.897C250.009 139.989 247.264 142.639 245.063 145.718C227.375 136.467 209.103 123.924 189.827 111.532C185.224 108.579 178.811 103.002 172.465 100.084C169.522 98.6115 166.247 97.9304 162.961 98.1073C159.427 98.657 156.046 99.9393 153.036 101.872C143.58 107.559 148.338 106.79 112.707 132.112C100.239 140.877 83.659 152.595 79.2828 155.635C79.1607 155.715 79.0557 155.819 78.9738 155.941C78.8919 156.062 78.8348 156.199 78.8056 156.342C78.7764 156.486 78.7758 156.634 78.8037 156.777C78.8317 156.921 78.8877 157.058 78.9685 157.18C79.0494 157.302 79.1535 157.407 79.2749 157.489C79.3963 157.571 79.5326 157.628 79.6762 157.657C79.8197 157.686 79.9675 157.687 80.1113 157.659C80.255 157.631 80.3919 157.575 80.514 157.494C84.348 155.077 88.2079 152.682 92.0419 150.243C129.356 126.416 146.474 110.694 152.222 106.682C155.482 104.153 159.3 102.44 163.356 101.684C166.937 101.624 170.452 102.645 173.444 104.613C177.666 106.972 213.138 132.693 244.875 148.245C245.156 148.365 245.471 148.38 245.761 148.286C246.052 148.192 246.299 147.995 246.456 147.733C248.885 145.008 251.74 142.695 254.91 140.884C256.728 139.764 258.844 139.229 260.976 139.35C263.406 139.768 265.706 140.746 267.693 142.208C273.888 146.394 278.061 152.198 292.239 159.572C297.532 162.26 303.009 164.569 308.627 166.484C308.914 166.588 309.231 166.579 309.511 166.459C309.792 166.339 310.017 166.116 310.139 165.836C310.197 165.693 310.226 165.539 310.224 165.384C310.222 165.229 310.19 165.077 310.129 164.934C310.068 164.792 309.979 164.663 309.868 164.555C309.757 164.447 309.626 164.362 309.483 164.305Z" fill="#101828"></path><path d="M203.539 134.609C201.541 133.547 199.573 132.431 197.636 131.261C189.765 126.71 183.475 122.379 173.973 117.176C172.417 116.384 170.951 115.425 169.603 114.316C168.977 113.841 167.335 112.329 167.443 111.551C167.45 111.262 167.517 110.978 167.642 110.718C167.766 110.457 167.944 110.226 168.165 110.039C168.389 109.851 168.53 109.581 168.556 109.289C168.582 108.997 168.491 108.707 168.303 108.482C168.222 108.365 168.118 108.267 167.998 108.194C167.877 108.121 167.742 108.074 167.601 108.056C167.461 108.039 167.319 108.051 167.184 108.092C167.048 108.134 166.923 108.203 166.817 108.296C165.988 108.786 165.317 109.504 164.886 110.365C163.842 112.724 165.387 115.173 167.281 116.942C168.822 118.248 170.496 119.386 172.277 120.338C179.349 124.189 187.419 129.41 193.104 132.378C196.197 134.004 199.405 135.421 202.608 136.724C202.886 136.834 203.196 136.832 203.473 136.718C203.749 136.604 203.971 136.388 204.091 136.114C204.212 135.84 204.221 135.53 204.118 135.25C204.014 134.969 203.808 134.739 203.539 134.609Z" fill="#101828"></path><path d="M299.277 195.711C294.252 195.238 288.155 195.789 282.191 194.944C278.761 194.79 275.508 193.375 273.056 190.97C272.542 190.335 272.795 188.862 272.94 188.251C273.163 187.078 273.202 185.878 273.056 184.693C272.838 183.709 272.299 182.826 271.523 182.183C266.237 177.647 258.779 174.586 252.161 172.165C250.72 171.629 249.255 171.165 247.86 170.653C246.443 170.167 245.04 169.64 243.652 169.074C243.387 168.933 243.077 168.902 242.789 168.989C242.502 169.076 242.261 169.274 242.119 169.538C242 169.803 241.984 170.102 242.074 170.377C242.165 170.652 242.355 170.884 242.607 171.027C245.097 172.505 247.665 173.847 250.301 175.046C255.956 177.567 263.84 180.23 269.199 184.902C269.711 185.367 269.594 186.019 269.477 186.669C269.261 189.121 268.568 191.167 270.292 193.27C272.525 195.702 275.515 197.307 278.776 197.826C285.658 199.364 293.987 197.901 299.184 198.012C299.486 198.025 299.782 197.92 300.008 197.718C300.234 197.516 300.371 197.234 300.391 196.932C300.402 196.623 300.291 196.322 300.083 196.094C299.875 195.866 299.585 195.728 299.277 195.711Z" fill="#101828"></path><path d="M364.701 162.028C363.757 161.132 363.005 162.028 359.098 165.607C358.045 166.753 356.832 167.74 355.495 168.536C353.533 169.194 351.418 169.243 349.428 168.674C346.002 168.264 345.138 168.396 344.892 169.255C344.58 170.605 347.36 171.631 348.68 172.046C350.021 172.572 351.456 172.817 352.896 172.765C354.335 172.713 355.748 172.365 357.048 171.744C358.803 170.804 360.339 169.505 361.558 167.931C362.206 167.212 362.837 166.352 363.556 165.398C364.716 163.767 365.63 162.825 364.701 162.028Z" fill="#101828"></path><path d="M183.475 282.539C185.451 283.515 187.449 284.444 189.495 285.234C201.848 290.241 222.91 291.336 238.449 283.63C240.339 282.691 242.178 281.651 243.957 280.515C244.208 280.343 244.388 280.085 244.461 279.789C244.534 279.493 244.495 279.181 244.352 278.912C244.184 278.65 243.921 278.463 243.618 278.389C243.315 278.316 242.996 278.361 242.726 278.517C240.967 279.473 239.15 280.319 237.287 281.05C220.815 287.638 205.422 286.301 188.728 281.724C187.263 281.329 185.823 280.958 184.358 280.493C184.084 280.382 183.776 280.383 183.502 280.496C183.228 280.609 183.01 280.825 182.894 281.098C182.792 281.367 182.795 281.665 182.902 281.932C183.01 282.199 183.214 282.416 183.475 282.539Z" fill="#101828"></path><path d="M253.8 280.701C259.809 282.683 265.965 284.19 272.21 285.208C283.703 287.269 295.553 285.141 305.612 279.212C312.092 275.19 315.306 265.52 315.073 255.526C314.794 246.322 311.632 236.93 305.798 231.746C304.083 230.404 302.111 229.427 300.005 228.875C297.898 228.324 295.701 228.209 293.548 228.539C287.267 229.042 271.631 233.865 267.142 235.349C262.587 236.837 258.124 238.464 253.534 240.114C253.26 240.231 253.039 240.445 252.914 240.716C252.79 240.987 252.771 241.294 252.86 241.579C252.955 241.867 253.159 242.106 253.428 242.246C253.698 242.385 254.011 242.413 254.301 242.324C258.829 240.827 263.378 239.393 267.946 238.023C271.186 237.049 287.669 232.362 293.792 231.956C295.484 231.69 297.212 231.766 298.873 232.182C300.535 232.597 302.095 233.342 303.463 234.373C308.578 239 311.226 247.413 311.435 255.619C311.606 262.818 309.796 272.434 303.672 276.139C293.995 282.169 283.735 283.092 272.618 281.904C266.462 281.182 260.36 280.064 254.349 278.556C254.065 278.482 253.764 278.521 253.508 278.665C253.253 278.808 253.062 279.044 252.977 279.325C252.92 279.613 252.971 279.913 253.121 280.166C253.271 280.419 253.509 280.608 253.789 280.696" fill="#101828"></path><path d="M172.664 281.273C172.617 281.131 172.542 281 172.444 280.888C172.346 280.776 172.226 280.684 172.091 280.62C171.957 280.555 171.811 280.518 171.661 280.51C171.512 280.503 171.363 280.526 171.223 280.577C164.227 282.971 156.764 285.643 149.234 287.41C144.353 288.628 139.342 289.252 134.311 289.269C131.965 289.443 129.611 289.073 127.431 288.189C125.615 287.207 124.026 285.853 122.769 284.215C121.511 282.578 120.613 280.693 120.133 278.685C118.465 272.231 118.031 265.519 118.854 258.904C119.06 255.458 119.87 252.075 121.247 248.91C121.615 248.02 122.187 247.229 122.919 246.603C123.65 245.977 124.519 245.533 125.455 245.307C126.431 245.091 127.198 245.864 127.779 246.678C128.58 247.849 129.195 249.138 129.6 250.497C131.03 255.328 132.08 260.264 132.738 265.259C133.209 269.024 133.572 275.875 131.972 279.299C131.576 280.297 131.108 281.273 130.112 281.344C129.723 281.325 129.343 281.228 128.991 281.061C128.64 280.893 128.326 280.658 128.066 280.368C125.77 277.268 124.198 273.694 123.463 269.907C122.671 266.006 122.457 259.438 124.533 258.146C125.75 259.496 126.557 261.164 126.859 262.956C126.933 263.237 127.111 263.48 127.356 263.635C127.602 263.791 127.897 263.848 128.183 263.794C128.325 263.769 128.461 263.715 128.58 263.635C128.7 263.554 128.802 263.45 128.878 263.327C128.955 263.205 129.005 263.068 129.026 262.925C129.046 262.783 129.037 262.637 128.997 262.498C128.739 260.918 128.237 259.388 127.509 257.962C127.148 257.219 126.624 256.567 125.975 256.055C125.648 255.788 125.258 255.609 124.842 255.536C124.426 255.463 123.998 255.498 123.599 255.638C119.303 257.008 119.342 265.678 120.251 270.559C121.031 274.542 122.986 280.895 126.388 283.53C127.509 284.472 128.949 284.947 130.41 284.856C131.347 284.754 132.241 284.411 133.007 283.861C133.772 283.311 134.383 282.573 134.78 281.718C137.223 277.398 136.912 269.715 136.313 264.818C135.595 259.64 134.5 254.521 133.037 249.502C132.475 247.314 131.391 245.296 129.876 243.62C129.7 243.429 129.514 243.247 129.319 243.076C133.993 241.664 138.862 241.003 143.744 241.119C149.258 241.233 154.475 241.466 160.108 241.767C163.711 241.931 167.314 242.117 170.986 242.488C171.134 242.513 171.286 242.507 171.433 242.47C171.579 242.434 171.716 242.368 171.836 242.276C171.956 242.185 172.056 242.07 172.129 241.938C172.203 241.807 172.249 241.662 172.264 241.512C172.289 241.362 172.283 241.209 172.246 241.062C172.21 240.915 172.144 240.776 172.053 240.655C171.962 240.534 171.847 240.433 171.715 240.357C171.584 240.282 171.439 240.234 171.288 240.216C168.14 239.571 164.97 239.036 161.784 238.613C155.442 237.883 150.757 237.727 143.856 237.52C137.959 237.279 132.078 238.301 126.608 240.518C122.15 242.624 120.079 243.393 118.04 247.275C116.475 250.859 115.547 254.69 115.296 258.593C114.486 265.679 114.982 272.854 116.761 279.761C117.401 282.221 118.552 284.519 120.138 286.505C121.724 288.492 123.71 290.122 125.967 291.291C128.612 292.355 131.47 292.785 134.311 292.546C139.599 292.428 144.852 291.662 149.954 290.267C157.424 288.153 164.779 285.647 171.986 282.759C172.271 282.65 172.502 282.433 172.629 282.155C172.756 281.877 172.769 281.56 172.664 281.273Z" fill="#101828"></path><path d="M182.771 241.704C184.118 241.168 185.514 240.728 186.909 240.261C202.748 235.246 218.486 233.49 240.393 238.239C240.685 238.306 240.991 238.255 241.247 238.1C241.503 237.944 241.688 237.695 241.764 237.405C241.839 237.115 241.799 236.807 241.652 236.547C241.504 236.286 241.261 236.093 240.974 236.008C220.48 229.589 198.677 231.638 187.49 236.751C185.526 237.628 183.616 238.622 181.77 239.728C181.519 239.865 181.328 240.091 181.234 240.362C181.14 240.632 181.15 240.928 181.261 241.192C181.325 241.326 181.416 241.446 181.527 241.544C181.639 241.642 181.769 241.718 181.909 241.765C182.05 241.813 182.199 241.832 182.347 241.821C182.495 241.811 182.638 241.771 182.771 241.704Z" fill="#101828"></path><path d="M175.938 240.589C175.824 244.564 175.893 248.538 176.055 252.536C176.196 256.789 176.45 261.068 176.703 265.321C177.12 271.782 177.446 278.245 177.515 284.66C177.528 284.964 177.42 285.262 177.216 285.488C177.011 285.714 176.727 285.851 176.422 285.869C176.113 285.878 175.812 285.766 175.583 285.558C175.354 285.35 175.213 285.062 175.191 284.753C174.806 279.266 174.318 273.788 173.727 268.319C173.379 264.647 173.079 260.976 172.798 257.325C172.34 251.144 172.208 244.944 172.403 238.749C172.427 238.311 172.61 237.896 172.919 237.584C173.227 237.271 173.639 237.082 174.077 237.051C175.962 236.881 177.33 237.105 179.282 237.028C179.528 237.023 179.771 237.069 179.999 237.161C180.226 237.253 180.433 237.39 180.606 237.563C180.78 237.737 180.917 237.943 181.009 238.171C181.101 238.398 181.146 238.642 181.142 238.887C181.037 242.381 181.014 245.877 181.073 249.372C181.347 259.073 181.956 266.559 181.956 274.011C181.885 276.357 182.142 278.763 182.187 281.124C182.207 282.187 182.168 283.249 182.071 284.308C182.058 284.604 181.929 284.884 181.711 285.086C181.494 285.288 181.205 285.397 180.909 285.388C180.614 285.37 180.337 285.239 180.136 285.023C179.935 284.807 179.825 284.521 179.829 284.226C179.809 283.246 179.731 282.268 179.598 281.297C179.364 278.901 178.9 276.484 178.734 274.136C178.282 267.365 177.839 259.783 177.617 253.007C177.431 248.871 177.384 244.756 177.431 240.641C176.934 240.619 176.436 240.602 175.938 240.589Z" fill="#101828"></path><path d="M247.307 237.9C247.248 238.572 247.224 239.247 247.236 239.922C247.236 240.138 247.108 237.386 247.724 273.022C247.724 276.463 247.724 279.901 247.655 283.366C247.645 283.669 247.519 283.957 247.302 284.169C247.086 284.381 246.795 284.501 246.492 284.504C246.189 284.507 245.896 284.393 245.676 284.185C245.455 283.978 245.323 283.693 245.307 283.39C245.177 279.534 243.633 251.078 243.633 239.922C243.617 238.562 243.695 237.203 243.866 235.855C243.922 235.427 244.128 235.034 244.448 234.744C244.767 234.455 245.178 234.288 245.609 234.274C247.109 234.284 248.606 234.377 250.096 234.552C250.545 234.595 250.962 234.805 251.263 235.142C251.565 235.478 251.728 235.915 251.722 236.367C251.335 250.191 253.422 254.96 252.258 276.16C252.141 278.251 251.955 280.344 251.91 282.459C251.898 282.751 251.776 283.028 251.569 283.235C251.363 283.442 251.086 283.563 250.793 283.576C250.647 283.577 250.502 283.55 250.367 283.494C250.232 283.438 250.11 283.355 250.008 283.251C249.906 283.147 249.826 283.023 249.773 282.886C249.72 282.75 249.695 282.605 249.7 282.459C249.515 280.344 249.469 278.23 249.329 276.137C248.834 249.918 248.502 253.457 248.236 243.92C248.162 241.937 248.124 239.953 248.119 237.969L247.307 237.9Z" fill="#101828"></path><path d="M123.595 236.54C120.798 226.209 118.885 215.659 117.878 205.003C116.853 194.371 116.876 183.663 117.947 173.035C117.974 172.562 117.818 172.095 117.51 171.734C117.203 171.372 116.769 171.142 116.297 171.091C115.836 171.049 115.376 171.188 115.016 171.478C114.656 171.769 114.423 172.189 114.368 172.649C113.113 183.365 111.182 193.895 108.905 204.355C105.419 220.082 101.088 235.632 96.768 251.23C96.65 251.679 96.7096 252.157 96.9344 252.564C97.1592 252.971 97.532 253.276 97.9754 253.416C98.8291 253.682 99.5821 254.201 100.135 254.904C102.138 257.686 103.365 260.95 103.691 264.362C103.877 265.795 103.923 267.241 103.827 268.682C102.467 267.145 100.917 265.786 99.2153 264.639C93.6284 250.884 89.2909 236.654 86.2553 222.121C84.3113 212.892 82.6524 203.526 81.3283 194.158C79.2828 179.863 77.935 165.545 76.9349 151.69C76.9087 151.231 76.7051 150.8 76.367 150.487C76.0289 150.175 75.5828 150.006 75.1226 150.016C74.6685 150.034 74.2373 150.221 73.9146 150.541C73.5918 150.861 73.4008 151.29 73.3795 151.744C72.6641 164.113 71.1809 176.426 68.9386 188.611C65.9729 205.675 61.9596 222.523 58.1148 239.602C55.7388 231.727 56.6028 223.949 58.0889 216.145C61.2727 201.325 66.3487 186.929 59.6916 173.593C55.1837 164.665 48.0946 159.924 40.446 156.136C32.9616 152.416 24.989 149.673 18.7358 144.256C13.5853 139.643 10.1041 133.457 8.8344 126.66C7.95087 122.488 7.79304 118.194 8.36784 113.968C8.39974 113.678 8.32227 113.386 8.15054 113.149C7.9788 112.913 7.72514 112.749 7.43904 112.689C7.1468 112.649 6.85013 112.723 6.61158 112.897C6.37302 113.07 6.21123 113.33 6.16032 113.62C5.2327 118.101 5.14627 122.716 5.90544 127.228C6.92131 134.84 10.6541 141.829 16.416 146.906C22.8312 152.554 31.104 155.483 38.88 159.341C45.8071 162.797 52.4081 167.035 56.4775 175.148C62.761 187.615 57.5921 201.044 54.8489 215.475C53.0215 225.612 52.7062 235.157 57.1234 244.465C57.0341 247.496 58.1031 250.448 60.1128 252.72C63.0206 256.286 66.7877 259.054 71.0597 260.764C76.2739 262.768 80.5248 261.57 85.4496 262.181C87.8458 262.479 90.1729 263.187 92.3292 264.274C97.0674 266.745 101.104 270.374 104.062 274.823C105.212 276.539 106.164 278.38 106.898 280.31C107.381 281.664 107.487 283.124 107.207 284.535C107.159 284.995 107.058 285.448 106.905 285.885C106.765 286.217 106.756 286.59 106.879 286.929C107.003 287.267 107.25 287.547 107.571 287.711C107.892 287.875 108.263 287.911 108.61 287.813C108.957 287.715 109.254 287.489 109.441 287.181C110.727 284.947 111.705 282.549 112.346 280.053C114.821 270.592 111.333 267.229 114.67 253.88C116.056 247.938 118.991 242.468 123.176 238.028C123.386 237.849 123.537 237.612 123.612 237.347C123.687 237.082 123.681 236.801 123.595 236.54Z" fill="#101828"></path><path d="M426.397 82.7496C426.214 82.502 425.94 82.3365 425.636 82.2888C425.332 82.2411 425.021 82.3151 424.77 82.4947C420.899 85.0306 417.181 87.7938 413.636 90.7696C411.165 92.8744 409.088 95.4004 407.499 98.2303C405.454 102.352 404.253 106.842 403.968 111.434C403.291 120.074 405.408 129.006 406.57 137.817C407.49 143.419 407.457 149.136 406.473 154.727C405.795 154.416 404.89 154.079 403.745 153.647C401.039 152.697 398.213 152.133 395.349 151.973C394.617 151.97 393.889 152.076 393.189 152.289C390.785 145.077 388.848 137.717 387.39 130.257C384.653 116.604 383.475 102.684 383.88 88.7652C383.893 88.3118 383.731 87.8708 383.428 87.5334C383.124 87.1961 382.703 86.9882 382.251 86.9529C381.788 86.921 381.331 87.0669 380.973 87.3608C380.614 87.6546 380.381 88.0743 380.322 88.534C378.688 105.635 376.002 122.62 372.28 139.391C368.625 156.154 363.898 172.664 358.128 188.821C357.984 189.194 357.972 189.605 358.095 189.986C358.218 190.367 358.467 190.695 358.802 190.914C358.871 190.958 358.944 190.997 359.018 191.033C357.589 193.139 356.318 195.348 355.214 197.642C352.19 191.767 349.382 185.633 346.734 179.362C343.574 171.723 340.833 163.916 338.526 155.978C333.669 140.202 331.201 123.788 331.204 107.281C331.219 107.056 331.189 106.83 331.117 106.617C331.044 106.404 330.93 106.207 330.78 106.038C330.631 105.869 330.45 105.732 330.247 105.634C330.044 105.536 329.824 105.479 329.599 105.466C329.135 105.427 328.674 105.571 328.314 105.866C327.954 106.161 327.723 106.585 327.67 107.047C325.515 127.449 321.587 147.624 315.932 167.344C310.37 187.055 302.367 205.994 292.108 223.72C291.932 224.016 291.85 224.358 291.87 224.702C291.89 225.045 292.013 225.375 292.222 225.649C292.426 225.927 292.705 226.14 293.027 226.264C293.349 226.388 293.699 226.416 294.037 226.346C295.343 226.114 296.68 226.114 297.987 226.346C305.297 227.562 313.729 234.926 317.118 243.361C319.352 249.088 319.614 255.396 317.861 261.289C317.752 261.596 317.745 261.93 317.841 262.241C317.937 262.553 318.132 262.825 318.395 263.017C318.643 263.228 318.951 263.357 319.276 263.386C319.601 263.415 319.927 263.343 320.209 263.179C325.688 260.157 330.68 256.325 335.016 251.813C339.281 247.198 342.731 241.892 345.22 236.123C348.497 228.614 349.706 220.594 352.171 212.948C354.121 205.682 357.397 198.84 361.835 192.765C364.266 189.302 367.403 186.394 371.04 184.233C374.632 182.183 378.483 180.624 382.488 179.598C389.528 177.736 400.62 175.859 406.896 164.08C409.046 159.978 410.32 155.474 410.64 150.854C411.337 142.184 409.292 133.259 408.013 124.403C406.851 115.979 406.315 107.62 410.221 99.6019C411.548 97.0404 413.327 94.7403 415.474 92.813C418.861 89.7963 422.424 86.9834 426.144 84.389C426.381 84.1946 426.537 83.92 426.584 83.6176C426.63 83.3151 426.564 83.0061 426.397 82.7496ZM399.416 167.817C397.475 163.696 395.737 159.484 394.206 155.194C394.651 155.323 395.088 155.41 395.442 155.496C402.406 156.632 401.516 156.721 403.514 156.961C404.363 157.082 405.156 157.19 405.832 157.218C405.293 158.997 404.583 160.721 403.71 162.363C402.621 164.426 401.166 166.274 399.416 167.817Z" fill="#101828"></path><path d="M289.183 344.753C288.203 338.536 285.196 332.816 280.629 328.484C276.325 324.722 270.82 322.619 265.103 322.555C265.705 314.481 265.078 306.362 263.244 298.475C261.846 292.721 259.195 287.347 255.478 282.738C255.395 282.621 255.29 282.523 255.168 282.449C255.046 282.375 254.91 282.326 254.769 282.306C254.627 282.286 254.483 282.295 254.345 282.332C254.207 282.369 254.079 282.433 253.966 282.522C253.73 282.698 253.572 282.96 253.528 283.252C253.485 283.544 253.558 283.841 253.733 284.079C256.857 288.642 258.981 293.815 259.965 299.257C261.627 307.468 262.128 315.872 261.451 324.222C261.428 324.475 261.463 324.729 261.551 324.966C261.64 325.204 261.781 325.418 261.963 325.594C262.136 325.776 262.345 325.92 262.577 326.016C262.809 326.112 263.059 326.158 263.311 326.151C268.75 325.799 274.108 327.612 278.214 331.197C282.206 334.971 284.824 339.969 285.654 345.399C286.362 349.538 286.723 353.728 286.734 357.927C286.734 364.319 286.2 370.758 285.757 377.173C285.536 380.424 284.12 383.479 281.782 385.75C279.443 388.02 276.348 389.345 273.091 389.47L268.637 389.617C268.59 389.359 268.454 389.126 268.254 388.957C268.054 388.788 267.802 388.694 267.54 388.69C267.395 388.687 267.252 388.713 267.118 388.766C266.983 388.818 266.861 388.897 266.757 388.998C266.653 389.098 266.57 389.218 266.513 389.35C266.456 389.483 266.425 389.625 266.423 389.77C266.207 398.44 261.194 402.974 254.383 405.415C250.183 406.78 245.83 407.623 241.423 407.925C241.207 407.944 194.219 410.659 186.343 409.221C174.435 406.741 171.638 404.253 169.026 401.062C166.612 398.157 165.215 394.54 165.05 390.766C165.057 390.526 165.015 390.288 164.927 390.066C164.84 389.843 164.708 389.64 164.54 389.47C164.359 389.304 164.146 389.177 163.913 389.097C163.681 389.018 163.435 388.986 163.19 389.005C160.879 389.13 156.278 390.048 151.824 390.772C150.135 391.035 148.409 390.959 146.749 390.548C145.09 390.137 143.528 389.4 142.156 388.379C140.764 387.361 139.595 386.069 138.72 384.584C137.844 383.098 137.281 381.45 137.065 379.739C135.875 368.012 134.369 350.89 139.575 340.131C141.159 336.808 143.602 333.969 146.65 331.905C149.698 329.842 153.242 328.63 156.915 328.393C158.281 328.228 159.655 328.135 161.03 328.115C161.238 328.12 161.445 328.081 161.637 328C161.829 327.92 162.002 327.8 162.145 327.648C162.295 327.502 162.411 327.324 162.483 327.127C162.556 326.93 162.583 326.719 162.564 326.51C162.495 325.976 162.447 325.43 162.378 324.883C162.192 323.721 162.028 322.536 161.842 321.373C160.877 313.857 165.182 294.183 171.465 288.226C171.581 288.124 171.675 287.999 171.741 287.858C171.807 287.718 171.843 287.566 171.847 287.411C171.852 287.257 171.824 287.103 171.767 286.959C171.709 286.815 171.623 286.685 171.513 286.576C171.413 286.464 171.293 286.373 171.157 286.308C171.022 286.244 170.876 286.207 170.726 286.201C170.576 286.194 170.427 286.218 170.287 286.271C170.147 286.323 170.018 286.404 169.91 286.507C162.823 292.987 157.948 313.373 158.868 321.745C158.985 322.862 159.216 323.976 159.356 325.093C158.417 325.117 157.48 325.189 156.548 325.309C152.329 325.546 148.249 326.908 144.734 329.254C141.219 331.599 138.395 334.844 136.557 338.649C131.004 349.758 132.157 367.809 133.533 380.212C133.818 382.39 134.537 384.489 135.646 386.384C136.756 388.28 138.234 389.934 139.993 391.25C141.752 392.565 143.757 393.514 145.889 394.042C148.022 394.569 150.238 394.664 152.407 394.321C164.568 392.293 160.196 393.049 161.635 392.809C162.162 396.678 163.756 400.324 166.238 403.339C169.368 407.192 172.815 410.134 185.648 412.752C194.337 414.491 241.592 411.335 241.808 411.312C246.488 410.918 251.094 409.894 255.5 408.268C262.628 405.46 267.95 400.563 268.611 391.964L273.184 391.986C277.13 391.932 280.921 390.445 283.852 387.802C286.785 385.101 288.608 381.405 288.967 377.434C289.57 370.954 290.198 364.416 290.246 357.931C290.275 353.516 289.919 349.107 289.183 344.753Z" fill="#101828"></path><path d="M186.458 387.029C178.286 386.625 174.439 379.754 172.813 372.105C171.987 368.023 171.69 363.852 171.93 359.694C172.241 353.516 173.255 347.394 174.954 341.446C176.232 336.444 178.649 331.804 182.016 327.889C185.383 323.974 189.609 320.89 194.363 318.876C203.865 315.248 214.185 314.315 224.184 316.181C233.507 317.643 239.341 321.41 243.013 326.616C248.545 334.333 249.277 345.468 249.661 357.577C250.053 362.116 250.092 366.677 249.778 371.222C249.501 374.553 248.221 377.722 246.106 380.311C241.672 385.087 233.693 385.305 227.675 385.96C219.514 386.824 211.658 387.688 203.71 387.819M203.662 385.169C211.473 384.867 219.283 383.873 227.325 382.869C232.455 382.251 240.14 381.858 243.596 378.056C245.222 375.972 246.178 373.444 246.339 370.805C246.608 366.444 246.546 362.069 246.154 357.718C245.735 346.373 245.29 335.915 240.086 328.685C236.902 324.149 231.766 321.015 223.584 319.76C214.272 317.975 204.647 318.812 195.782 322.177C191.51 323.976 187.713 326.74 184.688 330.253C181.664 333.765 179.494 337.931 178.349 342.423C176.726 348.111 175.705 353.954 175.303 359.856C175.019 363.743 175.183 367.651 175.792 371.501C176.932 378.125 179.922 384.214 186.857 384.867" fill="#101828"></path><path d="M242.136 336.902C241.84 336.812 241.521 336.842 241.247 336.986C240.973 337.129 240.766 337.374 240.672 337.669C239.515 341.048 237.235 343.928 234.211 345.829C229.373 348.974 222.482 349.983 216.715 350.199C211.03 350.303 205.344 350.014 199.698 349.335C195.862 349.091 192.085 348.269 188.495 346.894C186.196 346.016 184.197 344.499 182.732 342.522C182.656 342.4 182.556 342.293 182.439 342.209C182.321 342.126 182.189 342.066 182.048 342.033C181.908 342.001 181.762 341.997 181.62 342.021C181.478 342.045 181.342 342.097 181.22 342.174C180.974 342.329 180.798 342.573 180.729 342.855C180.659 343.137 180.702 343.435 180.848 343.686C182.242 346.328 184.406 348.484 187.054 349.868C190.928 351.636 195.099 352.662 199.351 352.892C205.149 353.592 210.99 353.887 216.829 353.776C222.895 353.775 228.872 352.324 234.263 349.544C236.373 348.348 238.225 346.743 239.708 344.824C241.191 342.904 242.278 340.708 242.903 338.364C242.982 338.069 242.948 337.754 242.806 337.483C242.663 337.212 242.424 337.004 242.136 336.902Z" fill="#101828"></path><path d="M374.544 92.8541C367.688 90.9965 360.899 88.8106 354.158 86.4627C347.976 84.3027 341.794 82.0001 335.727 79.6284C337.447 76.6085 338.189 73.1299 337.852 69.671C337.514 66.212 336.114 62.9424 333.843 60.3116C329.695 55.1428 323.861 51.5974 317.362 50.2956C318.751 46.6499 318.751 42.6208 317.362 38.9751C315.478 34.7805 312.097 31.4399 307.88 29.6072C304.231 27.8536 300.207 27.0233 296.162 27.1894C292.117 27.3555 288.174 28.5129 284.682 30.5597C283.45 27.8449 281.612 25.4496 279.307 23.5589C277.003 21.6683 274.294 20.3329 271.391 19.656C266.619 18.5118 261.656 18.4115 256.842 19.3621C252.028 20.3128 247.476 22.2918 243.497 25.164C239.507 28.342 236.587 32.6659 235.129 37.5538C233.512 43.8065 233.464 50.3619 234.991 56.6374C226.366 55.4991 220.044 60.3094 216.534 67.1912C214.816 70.6249 213.818 74.3737 213.603 78.2071C213.387 82.0405 213.957 85.8775 215.279 89.4824C214.727 89.7845 214.251 90.2067 213.885 90.7179C213.519 91.229 213.272 91.8158 213.164 92.4351C213.18 92.9586 213.308 93.4726 213.541 93.9419C213.774 94.4112 214.105 94.8248 214.512 95.1545C215.615 96.0513 216.855 96.7653 218.184 97.2692C220.936 98.3508 223.785 99.1681 226.692 99.71C231.946 100.558 237.249 101.071 242.568 101.244C250.541 101.57 258.582 101.313 266.231 101.105C283.664 100.57 301.098 100.058 318.503 99.1743C335.908 98.2908 353.37 97.0834 370.708 95.5952C370.982 95.5748 371.239 95.4528 371.429 95.2531C371.618 95.0534 371.726 94.7903 371.732 94.5152C372.453 94.7009 373.244 94.9104 373.939 95.0724C374.084 95.1165 374.237 95.1303 374.387 95.1127C374.538 95.0952 374.683 95.0468 374.814 94.9706C374.945 94.8944 375.059 94.7919 375.148 94.6697C375.238 94.5475 375.301 94.4081 375.335 94.2603C375.394 93.97 375.346 93.6682 375.201 93.41C375.056 93.1518 374.823 92.9545 374.544 92.8541ZM328.847 95.4461C320.478 95.773 312.117 96.0833 303.765 96.3771C291.166 96.7961 278.662 97.1914 266.155 97.5392C258.578 97.7552 250.536 97.9582 242.726 97.6558C237.538 97.4889 232.367 96.9839 227.245 96.1438C224.262 95.5994 221.353 94.7107 218.575 93.4956C218.049 93.2399 217.544 92.9446 217.063 92.6122C217.477 92.3793 217.904 92.1695 218.341 91.9836C218.572 91.8896 218.781 91.7478 218.953 91.5677C219.125 91.3875 219.258 91.173 219.342 90.9382C219.446 90.7058 219.494 90.4521 219.482 90.1977C219.47 89.9433 219.398 89.6953 219.272 89.4737C217.775 86.2178 217.045 82.6618 217.137 79.0793C217.23 75.4969 218.143 71.9834 219.806 68.809C222.944 62.6724 228.802 58.4885 236.844 60.6744C237.145 60.7593 237.462 60.7629 237.765 60.6849C238.067 60.607 238.344 60.4503 238.566 60.2308C238.788 60.0112 238.948 59.7367 239.029 59.4352C239.111 59.1337 239.111 58.816 239.03 58.5144C237.516 53.0717 237.12 47.3785 237.868 41.7787C238.628 36.3369 241.449 31.3947 245.748 27.972C251.672 23.6873 258.943 21.6813 266.227 22.3215C273.339 22.9695 279.917 26.3672 282.172 33.8278C282.239 34.114 282.386 34.3751 282.596 34.5809C282.806 34.7866 283.07 34.9285 283.357 34.9899C283.634 35.0766 283.928 35.0924 284.212 35.0357C284.496 34.9791 284.762 34.8519 284.984 34.6659C290.771 29.6979 299.767 29.5748 306.485 32.6895C309.93 34.1369 312.697 36.8392 314.226 40.2495C314.879 41.9716 315.16 43.8123 315.052 45.6508C314.943 47.4893 314.448 49.2841 313.597 50.9177C313.499 51.1516 313.455 51.4044 313.467 51.6578C313.479 51.9111 313.547 52.1586 313.667 52.3822C313.79 52.6129 313.97 52.8084 314.189 52.9505C314.409 53.0926 314.661 53.1765 314.922 53.1944C321.391 53.9102 327.319 57.1416 331.426 62.1908C333.519 64.5471 334.757 67.5406 334.938 70.6873C335.12 73.8339 334.235 76.9498 332.426 79.5312C332.309 79.7113 332.233 79.9153 332.205 80.1283C332.177 80.3413 332.196 80.5579 332.262 80.7624C332.419 81.1668 332.73 81.4928 333.126 81.6696C339.804 84.2077 346.53 86.618 353.3 88.8992C358.299 90.5494 363.226 92.1068 368.224 93.5237C355.117 94.3424 341.96 94.9234 328.851 95.4569L328.847 95.4461Z" fill="#101828"></path><path d="M32.0025 86.4346C32.6311 75.6734 39.3249 69.4656 46.5069 68.3748C53.784 67.2581 61.8948 71.3491 64.9879 81.6458C66.9848 81.0638 69.0832 80.9158 71.1421 81.2116C73.2009 81.5074 75.1727 82.2403 76.925 83.3611C78.6773 84.4818 80.1695 85.9644 81.3015 87.7094C82.4336 89.4544 83.1792 91.4214 83.4883 93.4783C85.0205 93.1526 86.6112 93.2322 88.1033 93.7091C89.5954 94.186 90.9373 95.0438 91.9965 96.1978C93.0767 97.4133 93.8036 98.9012 94.0987 100.5C94.3938 102.099 94.2457 103.749 93.6705 105.27C95.9018 106.013 98.064 106.756 100.202 107.454C101.969 107.989 103.712 108.523 105.525 108.966C105.811 109.053 106.054 109.244 106.205 109.503C106.356 109.761 106.404 110.067 106.339 110.359C106.308 110.509 106.247 110.652 106.159 110.778C106.071 110.904 105.958 111.01 105.827 111.091C105.697 111.172 105.551 111.225 105.399 111.248C105.247 111.271 105.092 111.262 104.944 111.223C104.479 111.13 104.015 111.007 103.527 110.897C103.413 110.945 103.296 110.984 103.177 111.013C66.3401 116.022 35.9705 116.517 28.4407 115.895C26.0058 115.767 23.6146 115.197 21.384 114.212C17.9906 112.655 17.3642 110.376 17.8286 108.285C18.6746 105.957 20.3914 104.048 22.6173 102.961C21.9276 101.308 21.6315 99.5171 21.7526 97.7301C21.8737 95.9431 22.4086 94.2088 23.315 92.664C24.257 91.0833 25.5152 89.7141 27.0108 88.6422C28.5064 87.5702 30.2073 86.8187 32.0069 86.4346M97.7616 109.261C95.6685 108.633 93.5539 107.965 91.5084 107.317C91.3198 107.267 91.1468 107.171 91.005 107.037C90.8631 106.903 90.757 106.736 90.6962 106.551C90.621 106.376 90.588 106.186 90.6 105.996C90.612 105.806 90.6687 105.622 90.7653 105.458C91.3801 104.292 91.6249 102.967 91.467 101.659C91.3092 100.35 90.7562 99.1212 89.8819 98.1353C88.9652 97.2109 87.7856 96.592 86.504 96.3631C85.2224 96.1342 83.9015 96.3066 82.7215 96.8566C82.5065 96.9578 82.2686 97.0004 82.0319 96.9799C81.7951 96.9594 81.568 96.8766 81.3737 96.7399C81.1687 96.6208 80.9973 96.4518 80.8753 96.2486C80.7533 96.0454 80.6847 95.8147 80.676 95.5778C80.6091 93.6852 80.0785 91.838 79.1307 90.1984C78.1829 88.5588 76.8469 87.1771 75.2402 86.1746C73.6335 85.1721 71.8051 84.5796 69.9158 84.449C68.0265 84.3185 66.134 84.6539 64.4047 85.4258C64.179 85.5092 63.9383 85.544 63.6982 85.528C63.4581 85.512 63.2241 85.4455 63.0115 85.333C62.7946 85.2214 62.6048 85.0635 62.4555 84.8706C62.3062 84.6776 62.2011 84.4542 62.1475 84.2162C59.9162 74.8958 53.2677 70.943 47.0837 71.9042C40.9709 72.8568 35.6011 78.5052 35.4866 87.9876C35.4811 88.4234 35.3179 88.8425 35.0272 89.1674C34.7365 89.4922 34.3381 89.7007 33.9055 89.7545C32.3745 89.9079 30.8999 90.4139 29.5973 91.2327C28.2946 92.0516 27.1994 93.161 26.3973 94.4741C25.6556 95.7772 25.2837 97.2582 25.3218 98.7572C25.3599 100.256 25.8064 101.716 26.6133 102.98C26.7487 103.216 26.8297 103.48 26.8503 103.751C26.8709 104.023 26.8307 104.295 26.7326 104.549C26.6345 104.803 26.481 105.032 26.2833 105.219C26.0855 105.406 25.8485 105.547 25.5895 105.63C23.979 106.106 22.5776 107.114 21.6151 108.49C21.3873 108.815 21.2803 109.209 21.3127 109.605C21.4531 110.164 21.9607 110.56 22.8938 110.976C24.7411 111.772 26.7166 112.229 28.7258 112.324C41.9191 113.432 83.7453 110.484 97.7616 109.281" fill="#101828"></path><path d="M243.32 178.453C242.647 177.218 241.727 176.135 240.617 175.271C239.507 174.408 238.23 173.783 236.868 173.435C237.015 171.971 237.367 167.368 237.41 164.756C237.411 162.845 237.294 160.936 237.06 159.039C236.75 156.207 235.874 153.467 234.485 150.981C233.095 148.495 231.22 146.314 228.971 144.567C224.422 141.174 218.877 139.383 213.203 139.476C210.9 139.492 208.601 139.671 206.323 140.011C197.629 141.288 189.192 144.567 180.451 144.636C179.114 144.645 177.78 144.5 176.476 144.204C174.316 143.772 172.2 143.087 170.178 142.53C169.839 142.446 169.483 142.457 169.15 142.564C168.818 142.67 168.521 142.867 168.294 143.132C168.085 143.406 167.96 143.734 167.936 144.077C167.911 144.42 167.988 144.763 168.156 145.063C169.374 147.586 170.871 149.964 172.619 152.153C173.502 153.222 174.431 154.267 175.362 155.267C173.433 155.174 171.456 154.917 169.597 154.663C169.233 154.616 168.864 154.682 168.54 154.853C168.216 155.023 167.952 155.289 167.785 155.615C167.604 155.937 167.528 156.308 167.57 156.675C167.611 157.042 167.767 157.387 168.016 157.661C169.35 159.079 170.813 160.371 172.385 161.521C173.2 162.102 174.014 162.683 174.919 163.249C174.083 163.225 173.269 163.203 172.502 163.156C172.141 163.122 171.778 163.202 171.465 163.385C171.153 163.569 170.905 163.846 170.759 164.177C170.611 164.511 170.565 164.882 170.627 165.242C170.689 165.602 170.856 165.936 171.107 166.201C173.824 168.879 176.986 171.065 180.451 172.662C183.407 174.078 186.51 175.165 189.704 175.902C189.717 176.054 189.732 176.208 189.75 176.362C189.716 176.368 189.683 176.377 189.65 176.388C188.148 176.795 186.775 177.579 185.661 178.665C184.546 179.751 183.727 181.103 183.28 182.593C182.806 184.123 182.702 185.743 182.977 187.32C183.251 188.898 183.898 190.387 184.861 191.665C185.691 192.645 186.672 193.485 187.767 194.154C188.855 194.736 189.99 195.226 191.16 195.618C191.086 196.538 191.071 197.461 191.115 198.383C191.193 200.435 191.426 202.479 191.812 204.496C192.191 208.736 193.612 212.817 195.949 216.376C197.551 218.46 199.773 219.983 202.295 220.724C202.917 226.292 203.202 227.513 203.409 229.604C203.445 229.912 203.598 230.194 203.836 230.393C204.074 230.592 204.379 230.692 204.688 230.673C204.838 230.667 204.985 230.63 205.12 230.565C205.255 230.5 205.375 230.408 205.473 230.295C205.571 230.181 205.645 230.049 205.69 229.906C205.734 229.763 205.749 229.612 205.734 229.463C205.673 226.301 205.317 223.551 205.317 219.514C205.322 219.172 205.213 218.837 205.007 218.563C204.801 218.289 204.509 218.092 204.178 218.002C201.967 217.452 200.022 216.134 198.692 214.283C196.752 211.144 195.598 207.584 195.329 203.904C195.032 202.025 194.831 200.132 194.726 198.232C194.659 197.021 194.721 195.805 194.912 194.607C194.969 194.19 194.877 193.766 194.652 193.41C194.426 193.055 194.082 192.79 193.681 192.663C192.274 192.246 190.911 191.694 189.611 191.013C188.871 190.607 188.216 190.062 187.682 189.408C187.049 188.575 186.615 187.607 186.414 186.58C186.212 185.552 186.249 184.492 186.52 183.481C186.682 182.436 187.088 181.444 187.707 180.586C188.326 179.728 189.139 179.029 190.08 178.546C190.283 179.699 190.542 180.853 190.83 182.002C191.844 185.557 193.047 189.056 194.432 192.484C196.142 197.064 198.194 201.509 200.569 205.781C202.244 208.672 204.283 211.336 206.636 213.708C207.724 214.752 209.151 215.371 210.656 215.451C213.546 215.48 216.428 215.144 219.234 214.451C219.468 214.398 219.681 214.277 219.847 214.104C220.012 213.93 220.123 213.711 220.165 213.475C223.198 209.494 225.977 205.324 228.485 200.992C229.672 198.919 230.73 196.775 231.651 194.571C231.885 199.079 231.311 203.594 229.956 207.9C228.818 211.26 226.406 214.04 223.24 215.641C222.982 215.778 222.766 215.982 222.614 216.231C222.462 216.481 222.38 216.766 222.376 217.058C222.487 220.575 222.592 220.946 223.122 228.146C223.151 228.449 223.295 228.731 223.523 228.933C223.751 229.136 224.048 229.245 224.353 229.239C224.663 229.22 224.954 229.081 225.162 228.851C225.371 228.621 225.481 228.318 225.469 228.007V218.035C229.063 216.15 231.823 212.992 233.209 209.179C234.939 203.82 235.618 198.177 235.209 192.56C236.899 192.051 238.466 191.198 239.81 190.053C241.154 188.909 242.246 187.499 243.017 185.911C243.609 184.765 243.943 183.504 243.995 182.216C244.047 180.927 243.817 179.643 243.32 178.453ZM221.832 151.28C221.761 151.414 221.664 151.532 221.546 151.627C221.428 151.722 221.291 151.792 221.145 151.832C220.999 151.873 220.847 151.883 220.697 151.862C220.546 151.842 220.402 151.79 220.272 151.712C218.319 150.81 216.231 150.237 214.091 150.016C209.654 149.745 205.204 150.2 200.915 151.364C196.731 152.511 192.42 153.128 188.082 153.2C186.371 153.082 184.683 152.739 183.062 152.179C182.78 152.114 182.533 151.944 182.372 151.703C182.211 151.462 182.149 151.168 182.198 150.883C182.228 150.736 182.287 150.598 182.372 150.475C182.456 150.352 182.565 150.247 182.69 150.167C182.816 150.086 182.956 150.032 183.103 150.006C183.25 149.981 183.401 149.985 183.546 150.019C184.809 150.08 186.076 150.049 187.335 149.926C191.662 149.653 195.952 148.952 200.141 147.833C204.843 146.502 209.773 146.178 214.609 146.88C217.019 147.4 219.312 148.361 221.372 149.716C221.514 149.778 221.642 149.871 221.744 149.987C221.847 150.104 221.923 150.241 221.967 150.391C222.011 150.54 222.022 150.697 221.998 150.85C221.975 151.004 221.918 151.151 221.832 151.28ZM230.768 159.512C229.904 159.922 228.353 158.637 228.189 158.432C227.818 158.042 227.491 157.613 227.213 157.153C226.565 155.641 226.908 154.526 227.258 154.248C227.838 154.079 228.456 154.098 229.024 154.302C229.592 154.507 230.081 154.886 230.42 155.386C230.727 155.817 230.977 156.286 231.163 156.781C231.243 156.989 231.677 158.963 230.774 159.512H230.768ZM239.803 184.38C239.189 185.629 238.298 186.721 237.196 187.572C236.095 188.423 234.814 189.01 233.451 189.289C234.138 187.021 234.779 184.728 235.31 182.423C235.827 180.297 236.24 178.16 236.548 176.01C238.152 176.805 239.427 178.137 240.151 179.775C240.407 180.526 240.509 181.321 240.45 182.112C240.391 182.903 240.174 183.675 239.81 184.38H239.803Z" fill="#101828"></path><path d="M164.259 288.328C164 288.156 163.686 288.089 163.379 288.141C163.073 288.193 162.798 288.359 162.609 288.606L162.307 288.98C154.263 291.745 143.664 294.697 134.089 294C130.955 293.942 127.868 293.229 125.026 291.909C122.184 290.588 119.649 288.687 117.584 286.33C117.42 286.131 117.214 285.972 116.981 285.863C116.748 285.754 116.493 285.699 116.236 285.701C115.98 285.706 115.728 285.765 115.496 285.873C115.264 285.981 115.057 286.137 114.888 286.33C107.715 294.981 101.993 304.738 97.9431 315.222C93.8488 325.716 91.6377 336.85 91.4112 348.112C91.2609 355.392 93.0501 362.581 96.5952 368.941C100.301 375.402 106.366 380.176 113.517 382.259C115.758 382.903 118.067 383.285 120.396 383.398C123.758 383.519 127.123 383.374 130.462 382.966C130.719 382.933 130.966 382.848 131.189 382.716C131.412 382.585 131.606 382.408 131.758 382.199C131.898 381.985 131.992 381.744 132.032 381.491C132.072 381.238 132.058 380.979 131.991 380.732C131.602 379.234 131.307 377.712 131.108 376.177C130.829 373.784 130.689 371.367 130.527 368.995C129.802 360.782 130.319 352.507 132.06 344.449C133.113 339.683 135.293 335.239 138.417 331.489C138.322 330.584 138.221 329.687 138.171 328.752C138.106 325.559 138.276 322.366 138.681 319.198C139.009 317.997 139.797 315.662 141.029 315.85C142.16 316.066 142.191 319.11 142.191 319.339C142.191 319.522 141.657 327.361 141.61 327.938L141.534 328.663C142.968 327.683 144.498 326.851 146.1 326.182C148.662 325.092 151.345 324.311 154.092 323.857C154.435 323.78 154.742 323.588 154.962 323.313C155.181 323.038 155.301 322.697 155.302 322.345C155.061 316.626 155.696 310.904 157.183 305.376C158.591 300.147 160.879 295.195 163.948 290.734C164.086 290.653 164.203 290.542 164.292 290.409C164.381 290.276 164.438 290.125 164.46 289.967C164.627 289.714 164.698 289.411 164.661 289.11C164.625 288.81 164.482 288.532 164.259 288.328ZM116.424 303.774C113.568 309.789 111.152 316.004 109.197 322.369C107.492 327.815 105.877 335.545 104.825 340.803C103.961 345.311 104.056 346.652 102.665 346.496C101.105 346.28 101.606 344.401 102.017 340.384C102.63 333.945 103.859 327.579 105.689 321.376C107.389 315.166 109.856 309.192 113.033 303.592C114.636 300.938 116.236 298.255 117.519 299.013C118.601 299.713 117.804 300.611 116.424 303.774Z" fill="#3B85F8"></path><path d="M334.048 330.769C331.119 318.196 324.076 305.363 318.799 296.903C317.173 294.275 315.363 291.767 313.384 289.395C311.334 287.034 309.052 284.885 306.573 282.979C306.207 282.707 305.751 282.584 305.298 282.636C304.844 282.687 304.428 282.91 304.132 283.258C299.812 288.349 292.626 290.44 285.234 290.65C278.058 290.869 270.94 289.295 264.524 286.072C264.19 285.89 263.805 285.82 263.428 285.874C263.051 285.929 262.701 286.103 262.431 286.373C262.172 286.643 262.003 286.988 261.949 287.359C261.895 287.73 261.958 288.109 262.129 288.442C264.386 293.023 265.863 297.948 266.499 303.016C267.19 308.138 267.354 313.319 266.987 318.475C266.961 318.702 266.986 318.932 267.058 319.148C267.13 319.365 267.249 319.563 267.406 319.73C267.546 319.899 267.719 320.038 267.915 320.138C268.111 320.238 268.325 320.296 268.544 320.311C270.148 320.411 271.733 320.708 273.264 321.194C274.839 321.688 276.374 322.304 277.854 323.037C277.761 322.7 277.666 322.358 277.582 322.006C277.482 321.453 276.467 315.166 276.467 314.662C276.467 313.517 276.569 311.435 277.698 311.269C278.778 311.096 279.688 313.276 279.858 314.057C280.436 316.653 280.833 319.286 281.044 321.937C281.099 322.885 281.081 323.835 280.99 324.78C286.325 328.071 290.165 333.314 291.693 339.394C294.501 349.853 292.229 362.476 291.183 373.911C291.139 374.113 291.155 374.323 291.229 374.516C291.276 374.803 291.429 375.062 291.657 375.242C291.885 375.423 292.172 375.512 292.462 375.492C301.592 375.137 310.539 372.831 318.704 368.729C324.208 365.728 328.782 361.273 331.929 355.851C336.023 348.669 336.096 339.768 334.048 330.769Z" fill="#3B85F8"></path></g><defs><clipPath id="clip0_1391_936"><rect width="432" height="432" fill="white"></rect></clipPath></defs></svg>