<svg xmlns="http://www.w3.org/2000/svg" fill="none" viewBox="0 0 200 200" height="800" width="800"><g id="start-up-team--work-start-up-team-job"><g id="rocket"><path id="vector" fill="#38a1ff" d="M78.622 143.718c-14.115 6.917-14.933 7.865-13.773 12.728.139.583-.463 1.328-1.186.865-6.74-4.316-12.763-10.098-18.076-16.086-3.214-3.622-3.756-3.939-3.076-5.288.405-.803 4.326.686 5.71-1.428 3.407-5.202 5.047-12.939 5.59-12.949.281-.005 8.023 12.084 24.269 21.655.181.141.402.221.543.503h-.001Z"></path><path id="vector_2" fill="#38a1ff" d="M128.226 85.85c-.099.563-.32.72-.865.483-8.639-3.763-18.526-17.155-22.238-19.041-.281-.143-.635-.32-.563-.744.181-1.062 14.598-4.428 21.032-3.941 2.634.199 4.067 1.548 4.303 4.222.576 6.534-.507 12.429-1.669 19.02Z"></path><path id="vector_3" fill="#38a1ff" d="M45.727 134.187c-3.659-.45-11.538-.795-18.76-2.714-1.065-.283-1.244-.702-.744-1.709 3.961-7.972 14.643-14.054 26.039-12.466 1.127.157 1.19.182.824 1.307-5.017 15.438-5.75 15.781-7.359 15.583v-.001Z"></path><path id="vector_4" fill="#38a1ff" d="M15.365 192.779c.563-5.288 5.172-13.57 6.575-16.548 1.533-3.255.556-2.507-2.071-1.247-1.492.716-2.613-.261-2.091-1.83 5.538-16.646 23.66-26.64 24.169-25.234.597 1.651-15.351 6.297-21.876 23.947-.185.501-.749 1.151-.402 1.488.377.367.945-.3 1.468-.442 6.66-1.812.198 6.464-2.694 14.457-.145.401-2.089 5.808-1.729 6.052.91.616 13.887-11.854 16.709-13.713.983-.647 1.824-.302 1.669 1.166-.334 3.156-1.992 4.726-1.367 5.228 1.405 1.129 9.689-7.964 13.572-14.477 3.094-5.189 4.265-10.745 5.147-10.516 1.128.292-.967 9.308-10.737 20.449-8.004 9.127-10.161 5.567-9.33 3.519 2.771-6.826.95-3.255-8.184 4.524-5.7 4.855-8.686 7.58-8.827 3.177h-.001Z"></path><path id="vector_5" fill="#38a1ff" d="M40.961 142.793c.724-3.82.643-3.762.804-3.82.401-.145.38.404 3.68 4.041 12.259 13.517 18.479 14.559 15.965 15.322-2.593.786-5.067.663-7.339-.985-4.463-3.238-8.387-7.076-11.923-11.3-1.026-1.226-1.247-1.769-1.186-3.257l-.001-.001Z"></path><path id="vector_6" fill="#38a1ff" d="M32.235 172.431c5.529-3.217 8.807-7.882 8.807-2.252 3.257-1.83 7.062-8.968 8.606-12.507.166-.38.24-1.144.804-.925 1.305.507-4.622 13.763-9.511 15.241-1.005.304-1.634-.302-1.468-1.327.078-.483.523-1.146.161-1.367-.462-.282-7.48 6.052-8.887 4.645-.483-.483-.333-.95 1.81-5.489 1.34-2.838.724-2.433-.724-2.453-1.528-.021-2.05-.924-1.287-2.232 2.476-4.241 9.895-8.708 14.135-11.2.668-.393.836.141.528.568-1.02 1.417-6.892 4.19-12.25 9.566-1.024 1.027-1.512 1.409-1.367 1.89.176.585 1.066.162 1.649.221 3.679.371-1.106 6.213-1.005 7.621h-.001Z"></path><path id="Subtract" fill="#38a1ff" fill-rule="evenodd" d="m103.582 90.13-.257.397-.005-.001c1.432.522 2.206 1.434 3.243 2.655.201.236.411.484.638.743 1.634 1.863-3.278.625-5.73-.322-1.508-.582-1.673-2.173-1.387-3.338.079-.322.282-.362.543-.402-2.826-6.634-2.25-10.078-1.963-11.792.088-.53.15-.895.073-1.137-4.202 2.01-7.701 2.534-9.229 2.03a33.636 33.636 0 0 1-3.093 1.552c.175.26.338.54.49.84.997 3.1-.391 7.538-1.754 11.168a12.065 12.065 0 0 1 2.197-.6c8.928-1.563 17.253 4.987 15.965 14.216-1.426 10.215-12.144 14.597-20.067 9.611-7.874-4.955-7.667-15.056-2.351-20.445-.773-1.313-2.369-4.73-2.336-9.265-1.93 3.599-5.85 6.369-10.194 6.495a7.453 7.453 0 0 1-.224.003c-.671.664-1.332 1.33-1.982 2 .331-.17.604-.284.698-.273.744.04 1.588.965 1.77 2.07-.466 3.754-.521 3.666-1.023 2.866-.474-.756-1.347-2.148-3.34-1.538l-.03.009c-.61.186-1.018.311-1.333.33-.225.247-.448.494-.67.741 3.233.296 5.815 2.516 6.519 6.309.452 2.431.903 6.743-.02 9.028-.41 1.016-.404 1.016.25 1.017.76.002 2.4.005 5.279 1.617l.002.001c2.182 1.223-3.278 1.95-4.987 1.95-2.272.202-2.76-.601-3.398-2.151-.182-.442-.12-.744.141-.945-2.574-2.111-4.966-6.655-5.469-9.45-2.243 4.565-5.525 6.599-8.998 6.737a51.92 51.92 0 0 0-.816 1.406c-.255.455-.466.803-.627 1.067-.278.457-.405.667-.347.755.049.074.23.061.567.036.398-.029 1.01-.074 1.875-.008 2.31.175 2.772.79 2.09 2.956-.411 1.31.045 1.826 1.408 3.358 8.59 9.65 16.314 15.853 23.244 20.308.953.612 1.552.35 2.045.135.8-.35 1.316-.576 2.6 3.283l.039.117c.135.408.204.618.332.664.136.049.338-.086.752-.364l.023-.015c20.846-13.961 35.042-32.67 42.225-56.722.206-.688.042-1.008-.523-1.307h-.001c-7.897-4.183-13.524-9.2-17.359-13.254.267 4.517-1.625 10.12-5.189 14.39-.013.015-.143.216-.306.468Z" clip-rule="evenodd"></path><path id="Subtract_2" fill="#38a1ff" fill-rule="evenodd" d="M81.418 99.476c-.184-.34-.311-.756-.427-1.259-.139-.604.101-.865.563-.965l-.012-.058a78.097 78.097 0 0 0-.13-.592c-1.253 1.311-2.238 2.809-2.71 4.248-2.941 8.972 5.188 18.095 14.639 15.502 13.934-3.822 10.877-24.92-4.966-23.606l-.001 0c-1.212.101-2.497.573-3.726 1.287l-.23.592a57.487 57.487 0 0 0-.924 2.463c1.822-1.613 4.185-2.782 6.468-2.834 7.6-.174 13.271 8.204 8.988 15.683v.001c-5.791 10.114-22.277 3.506-18.438-8.586a7.926 7.926 0 0 1 .906-1.876Z" clip-rule="evenodd"></path><path id="vector_7" fill="#38a1ff" d="M82.824 153.128c.304 8.606-6.058 17.082-9.873 19.443-.906.561-1.367.422-1.729-.563-2.168-5.893-3.852-11.921-5.107-18.076-.406-1.99-.629-1.861 12.426-8.545 2.753-1.41 2.944-1.772 3.277-.684.847 2.768.906 5.61 1.005 8.425h.001Z"></path></g><g id="stars"><path id="vector_8" fill="#38a1ff" d="M96.738 23.358c-.302-.06-.323-.322-.342-.543-.063-.724-.135-1.428-.141-2.15-.01-1.348-1.729-.182-1.87-1.026-.08-.483.422-.569.724-.563 1.992.04.383-2.183 1.287-2.272.926-.09-.403 2.37 1.468 2.031 1.226-.223 1.568.985.121.985-2.011 0-.08 3.338-1.247 3.54v-.002Z"></path><path id="vector_9" fill="#38a1ff" d="M166.007 8.137c-.302 1.086-2.413-.316-1.85 1.689.136.484-.005 1.087.08 1.629.038.242.059.576-.302.623-.403.053-.5-.12-.603-2.674-.059-1.448-1.739.081-1.79-1.066-.025-.563.583-.607 1.066-.603 1.267.01-.04-2.034.885-2.071.543-.022.41.724.402 1.146-.03 1.73 2.192.161 2.111 1.327h.001Z"></path><path id="vector_10" fill="#38a1ff" d="M126.778 10.61c.019 1.347.081 1.716-.302 1.749-.281.025-.323-.221-.342-.422-.3-3.195.1-2.928-1.468-2.956-.885-.016-.604-.881-.141-.844 2.251.178.744-2.246 1.548-2.312.443-.037.32.322.422 1.347.099.985.684.6 1.548.684.805.078.844.8.02.985-1.328.297-1.308.302-1.287 1.769h.002Z"></path><path id="vector_11" fill="#38a1ff" d="M149.318 52.372c0 .402-.261.402-.523.462-1.407.221-1.401.221-1.347 1.67.045 1.205.342 1.851-.201 1.89-.302.02-.382-.202-.422-.443-.322-3.499.061-2.869-1.568-2.976-.703-.046-.463-.757-.121-.744 2.351.09.805-2.207 1.588-2.332.362-.058.422.523.422.543-.201 2.594 1.95.664 2.172 1.93Z"></path><path id="vector_12" fill="#38a1ff" d="M180.363 31.662c-.302 1.267-2.389-.323-1.89 1.73.142.582.05 1.205.06 1.81.009.562-.571.764-.664.06-.44-3.354 0-2.886-1.548-2.957-.764-.035-.523-.79-.141-.784 2.313.04.844-2.243 1.609-2.292.402-.026.401.764.382.905-.275 2.03 1.91.302 2.192 1.528Z"></path><path id="vector_13" fill="#38a1ff" d="M135.524 93.712c.101-.422-.181-1.059.302-1.086.564-.032.42.664.422 1.025.01 1.408.824.885 1.669.985.684.081.744.786.02.945-.462.102-1.147-.202-1.347.241-.445.984.503 3.358-.342 3.298-.282-.02-.323-.28-.342-.523-.255-3.216-.041-2.726-1.146-2.855-.322-.038-.799.08-.865-.362-.149-1.007 2.131 0 1.629-1.669v.001Z"></path><path id="vector_14" fill="#38a1ff" d="M181.449 74.55c.342.06.458.683.442.865-.192 2.188 2.052.402 2.111 1.629.02.422-.341.468-.684.503-1.686.169-1.211-.1-1.126 2.956.019.684-.588.785-.664.06-.258-2.471.06-2.954-1.025-2.895-.382.02-1.044.18-1.066-.382-.019-.483.603-.435.985-.442 1.529-.03.322-2.312 1.025-2.292l.002-.002Z"></path></g><g id="person3"><path id="vector_15" fill="#191919" d="M79.95 33.03c-1.428-.187-1.9.121-2.072 1.567-.076.644-.287 1.412.261 1.97.02.02.06.04.101.04.684-.1-.122-1.448.563-2.574.723-1.187 1.094.376 1.65.844.491.415.1-1.77-.504-1.85v.002Z"></path><path id="vector_16" fill="#191919" d="M81.417 32.104c-.199.183-.261-.26-.704-.26-1.005 0-1.508.12-1.568.683-.02.101.563.02.684 0 1.528-.16 1.085 1.157 1.568 2.232.063.14.283.121.322-.04.296-1.243-.425-2.22-.02-2.353.2-.065.34.001.442.161.533.831-.014 1.77.08 2.393a.17.17 0 0 0 .302.08c1.226-1.469.09-3.99-1.106-2.895Z"></path><path id="Subtract_3" fill="#191919" fill-rule="evenodd" d="M93.199 42.459c-.182.684.163 1.144.563 1.629l.001-.001c.991 1.202 1.217 3.209.161 4.082-1 .827-.797 1.72-.631 2.449.194.853.337 1.48-1.561 1.512l-.007 0c-1.26.021-1.274.021-.878 1.267 3.354 10.553 2.252 16.43 1.24 21.82-.1.538-.2 1.072-.295 1.605-.168.946-3.147 2.45-5.556 3.524a6.62 6.62 0 0 0-.615-.699l.063-.027c2.452-1.063 5.095-2.207 5.283-3.421v.001c1.681-10.862.893-14.452-.586-21.181-.196-.892-.404-1.84-.62-2.867-.074-.353-.45-.49-1.011-.692-1.132-.41-3.015-1.092-4.679-4.375-1.913-3.774-2.339-6.397-2.598-7.992-.24-1.479-.337-2.074-1.343-1.881-1.266.243-1.543.342-1.548.905-.072 8.144 1.49 12.376 2.996 16.458 1.97 5.34 3.846 10.424 1.847 23.675a6.957 6.957 0 0 0-1.01-.29l.063-.589c.478-4.455 1.291-12.043-1.544-21.139l-.133-.428c-2.867-9.194-2.997-9.612-3.205-17.889-.017-.704.644-1.085 1.287-1.166.336-.042.624-.081.875-.115 1.175-.16 1.5-.203 1.799.095.156.58.31 1.182.465 1.794 1.249 4.9 2.683 10.53 7.437 12.442.282-1.367.24-1.444-.985-1.85-2.172-.72-2.308-2.144-2.427-3.38-.074-.779-.142-1.483-.71-1.888-1.045-.744-1.16-2.308-.422-3.338 1.42-1.982 3.879-.462 4.665.844.415.69 1.427.602 2.28.529.84-.072 1.528-.131 1.339.577Zm-1.29 6.716c-.178.035-.335.066-.379-.181l.001-.001c-.02-.11.22-.261.554-.471 1.007-.634 2.878-1.81 1.155-4.073-.624-.82-.672-1.327-.7-1.618-.023-.253-.031-.343-.386-.332-.173.005-.348.002-.522 0-.436-.007-.872-.014-1.288.101.378 2.108-.462 2.354-1.01 2.515-.268.078-.466.136-.418.38.072.37.48.43.91.492.738.106 1.544.223.839 1.941-.305.743-.474 1.528-.382 2.353.068.611.093.911.256 1.067.158.151.447.167 1.031.2 1.309.074 1.251-.217 1.076-1.096a11.528 11.528 0 0 1-.131-.754c-.083-.626-.363-.57-.605-.523Z" clip-rule="evenodd"></path><path id="vector_17" fill="#191919" d="M102.147 31.54c-1.588-.142-1.149 1.749-.824 1.288.838-1.191 1.269-.343 2.172 1.166.504.844.402-2.295-1.347-2.453h-.001Z"></path><path id="vector_18" fill="#191919" d="M104.218 31.34c-.704-1.005-1.387-.14-1.146.02.362.241.572-.204 1.106 1.247 1.166 3.17.844-.12.04-1.267Z"></path><path id="vector_19" fill="#191919" d="M101.383 67.13c-2.634.022-.908-1.78-6.454-16.004-.525-1.346 5.031-3.458 6.575-11.984.262-1.448.785-2.128 2.212-2.332.965-.138.96-.261.965.724.05 9.752-3.961 17.956-4.383 17.17-.422-.784-.345-1.212-.623-1.085-.67.306 2.014 5.709 3.539 10.355 1.531 4.664 1.513 3.236 1.227 1.93-1.858-8.472-4.952-9.775-2.714-11.662.142-.12 4.47-7.678 3.72-17.131-.105-1.327-.12-1.323-1.407-1.126-.402.062-.84.049-1.186.24-.794.443-1.123-.081-1.407-.622-1.534-2.923 1.61-1.006 1.267-1.75-.641-1.388-3.829-.253-2.071 1.61.8.848.602 1.508.322 2.433-1.477 4.883-3.017 7.84-6.454 11.964-1.307 1.568.223.93 4.283 16.508.44 1.69-.877.519-4.403 2.312-.585.298-.423.779.201.643 3.191-.691 10.382-3.32 12.507 2.855 2.905 8.442-3.84 13.934-3.479 17.17.02.122.161.162.241.08 7.158-8.544 7.58-22.376-2.473-22.298l-.005 0Z"></path><path id="vector_20" fill="#191919" d="M100.86 89.59c3.599 1.146 3.023.295 6.394 4.062 1.652 1.847-3.199.65-5.73-.322-1.509-.579-1.658-2.169-1.387-3.338.084-.36.382-.362.724-.402h-.001Z"></path><path id="vector_21" fill="#191919" d="M83.95 33.733c-.401-.105-.262.281-.322.462-.244.743-.621 1.435-1.347 1.71-.601.226-.483.663-.221.642 1.971-.156 2.555-2.64 1.89-2.815v.001Z"></path><path id="vector_22" fill="#191919" d="M105.826 33.733c-.04.141-.261.121-.261-.04-.121-1.347-.137-1.913-.543-2.393-.12-.142-.503-.26-.161-.503.543-.442 1.508 1.367.965 2.936Z"></path><path id="vector_23" fill="#191919" d="M91.832 44.651c-.664-.12-.643-.868-.181-.824.402.038.664.643.181.824Z"></path><path id="vector_24" fill="#191919" d="M98.79 76.661c-3.362 1.606-5.436 2.568-6.824 2.546-.168-.003-1.943-.307-.153-.894 2.748-.902 5.746-1.31 7.68-3.78.682-.87.726-.16.675.225-.212 1.6-1.39 5.66.591 13.203.961 3.661-3.287-3.013-1.97-10.697.09-.52.04-.483 0-.603Z"></path></g><g id="person2"><path id="vector_25" fill="#191919" d="M77.817 86.836c-.479-.406-2.234 1.966-5.067 3.398-4.246 2.145-7.677 1.266-7.862-.08-.592-4.325-2.104-8.017-3.861-12.024-.203-.462-.807-.381-.643.261 1.364 5.355 3.02 6.068 4.122 17.674.084.884-.422.946-.925 1.166-1.064.465-1.086.04-3.619-5.007-2.876-5.73-6.372-15.415-2.513-20.529 1.141-1.512 1.066.087 3.458-.08.825-.058 1.412-.502 1.548-1.267.29-1.627 1.046-3.056 1.81-4.484 3.539-6.615 6.183-11.617 7.138-9.49.299.665.387 1.388.28 2.111-.613 4.207-1.076 8.448-2.532 12.466-.919 2.536 2.859-.825 3.378-13.693.058-1.448-1.63-2.957-2.735-1.89-4.931 4.761-7.157 12.974-8.143 13.15-.462.083-1.507-1.648-1.267-2.071.525-.924.581-1.869.06-2.795-.666-1.185.462-2.245-.744-2.252-1.749-.01-2.956-1.968-4.826-1.93-3.177.064-5.499 3.234-4.564 6.233.244.783.122 1.389-.402 1.991-1.704 1.955-3.882 4.343-4.021 6.836-.182 3.257 4.551 3.759 4.745.322.094-1.669-.202-1.508-.101-1.669.14-.222 3.214 2.573 4.403-1.186.26-.825.523-1.005 1.247-.643.101.04.241.02.241.201-4.363 6.997.502 18.197 4.987 25.234 1.025 1.609 1.084 1.562 2.875 1.005 2.752-.855 3.318 1.95 3.659 1.97.201-.342.181-.704.08-1.086-.66-2.494-2.898-.885-2.815-2.755.059-1.327.02-2.654.02-4.001 6.595 2.835 13.62-4.211 12.587-5.087l.002.001ZM55.418 65.261c-.605-.236-.542-.899.201-.965 2.314-.204.164-2.528 1.267-3.217.383-.239 1.227 1.028 2.212.945.463-.039.764.06.563.523-.161 1.367 1.496 2.461-.201 4.082-.648.619.084-.062 2.252 3.338.141.221-.2.667-.623.804-.702.227-1.308-.077-1.93-.281-.242-.079-.144-.242-.101-.422.447-1.839-.528-3.645-2.353-4.323-.424-.157-.866-.318-1.287-.483v-.001Z"></path><path id="vector_26" fill="#191919" d="M74.359 79.456c-1.749-5.067-9.735-10.92-10.194-10.154-.445.742 2.264.526 9.724 10.358-1.126.724-5.837 4.132-4.919 5.004.567.539 4.403-6.092 12.004-5.831 9.55 1.488 2.574 12.004 2.252 17.212 1.709-.905 5.007-10.536 3.7-14.537-2.393-4.745-7.822-4.484-12.567-2.051v-.001Z"></path><path id="vector_27" fill="#191919" d="M88.474 99.443c-3.341-2.625-7.826-3.015-7.42-1.227.558 2.454 1.467 2.798 7.159 2.332.764-.063.96-.557.26-1.106v.001Z"></path><path id="vector_28" fill="#191919" d="M81.778 96.306c.24-.141.02-.322 0-.483-.06-.281-.084-.582-.201-.865-3.326-8.06-1.106-13.65-2.111-13.713-.905-.057-1.66 7.776 1.046 13.29.127.259.824 2.03 1.267 1.77l-.001 0Z"></path><path id="vector_29" fill="#191919" d="M72.61 52.513c.462.181 1.054-.304.784 1.046-.084.422-.345 1.005-.422 1.407-.167.863 1.5-.722 1.106-2.353-.37-1.526-2.031-.32-1.468-.1Z"></path><path id="vector_30" fill="#191919" d="M74.077 55.63c1.674-.814 1.4-3.468.483-2.795-.081.06-.06.141-.08.281.824.422-1.364 2.982-.402 2.513l-.001.001Z"></path><path id="vector_31" fill="#191919" d="M70.338 54.685c.626.152.18-1.68 1.126-1.568.904.108.341 2.19.885 1.75.622-.505.473-1.68.06-2.132-.144-.158-1.825-.893-2.232.865-.088.38-.28.98.161 1.086Z"></path><path id="vector_32" fill="#191919" d="M65.653 96.246c.237.625 1.327-.503 2.493 1.609.804-2.111-2.882-2.632-2.493-1.609Z"></path><path id="vector_33" fill="#191919" d="M66.919 94.436c-.844-.043-.865.764-.483.764.925 0 1.488.664 2.232 1.307-.161-1.106-1.005-2.033-1.75-2.07Z"></path><path id="vector_34" fill="#191919" d="M57.79 63.391c.443.08.484-.784-.22-.905-.563.201-.221.824.22.905Z"></path></g><g id="person1"><path id="vector_35" fill="#191919" d="M60.606 106.138c-6.856 13.914-23.295 4.236-25.455-10.958-.157-1.106-.64-2.013-1.206-2.916-.48-.766-1.65 1.208-3.599-.422-.865-.723.09-.899-1.649-1.91-.7-.408-.656-1.162-.302-1.85.226-.44.317-.74-.06-1.206-.63-.778-.239-1.944.744-2.252.504-.158.604-.402.764-.844.647-1.788 3.037-3.419 4.725-1.85 1.428 1.327-1.126 2.532.744 3.036 1.931.521 2.312.744 1.87 1.749-.503 1.146.382 1.407.261 2.815-.12 1.408-1.766 1.788-1.95 1.287-.119-.323.323-.318.543-.422 2.088-.991-.623-2.735.583-4.283-.764-.342-1.545-.487-2.192-.965-.22-.162-1.304.442-1.025 1.407.61 2.11-1.136.784-1.146 1.588-.003.241 2.243.767 2.011 3.137-.018.181-.08.342.04.483 1.307 1.367 1.303 3.218 1.77 4.886 2.41 8.612 9.41 15.688 15.924 15.02 5.65-.579 7.38-6.554 8.686-8.184.886-1.105.46.503.784 1.97 1.194 5.391 4.885 9.067 4.303 9.591-.624.562-4.484-5.188-5.167-8.907Z"></path><path id="vector_36" fill="#191919" d="M46.19 88.223c-.066 4.564-.782 4.456.321 4.886 11.411 4.446 11.301 6.735 9.792 5.87-18.47-10.57-19.249-5.036-19.866-5.87-.256-.346.905-.986 1.086-1.046 2.37-.776 2.822-7.038 2.775-9.511-.122-6.374-.643-6.654.523-6.796 1.951-.238 1.96-1.03 3.056 1.106 1.783 3.47 2.35 8.706 2.312 11.36Zm-6.656 3.197c4.182.1 5.45 1.749 5.55.623.465-5.228-.168-10.288-2.192-15.141-.336-.807-.784-.477-1.307-.422-.864.09-.615.482-.422 3.68.231 3.82.261 7.62-1.629 11.26Z"></path><path id="vector_37" fill="#191919" d="M68.608 114.261c-.945-2.413-.204-4.523-1.146-9.671-.787-4.302-6.366-8.214-15.02-.442-1.547 1.389-2.374 2.656-2.694 2.393-.707-.58 3.317-4.163 4.604-5.087 7.256-5.211 13.336-2.374 14.457 3.619.384 2.051 1.005 8.083-.2 9.189v-.001Z"></path><path id="vector_38" fill="#191919" d="M69.352 118.705c-2.272.201-2.756-.603-3.398-2.151-1.168-2.814 9.124-.986 8.807.844-.143.824-4.564 1.287-5.409 1.307Z"></path><path id="vector_39" fill="#191919" d="M42.107 99.624c5.91 1.438 10.862 1.368 10.757 1.89-.138.683-8.169.163-10.92-1.273-1.212-.631-.616-.807.163-.618Z"></path><path id="vector_40" fill="#191919" d="M39.554 70.65c-.192.873-.004 1.682.231 2.098.298.527.681.22.54-.285-.083-.297-.276-.816-.569-1.814-.04-.1-.179-.1-.201 0h-.001Z"></path><path id="vector_41" fill="#191919" d="M40.6 71.936c-.03.674.628.909.613.183-.016-.747-.413-2.188-.574-1.771-.225.582-.018 1.086-.04 1.588Z"></path><path id="vector_42" fill="#191919" d="M40.556 74.728c.434.45.033 1.063-.66.204-1.344-1.666-1.825-2.95-.565-1.658.825.845.713.92 1.225 1.455v-.001Z"></path><path id="vector_43" fill="#191919" d="M42.892 71.796c.02-.1.182-.1.201.02.231 1.446-.443 3.301-.824 3.177-.302-.098-.22-.16.623-3.197Z"></path><path id="vector_44" fill="#191919" d="M41.745 70.207c.137-1.026.966 2.632.02 2.393-.402-.102-.269-.524-.02-2.393Z"></path><path id="vector_45" fill="#191919" d="M34.91 87.358c-.725-.241-.705-1.166-.242-1.066.623.1.945 1.005.241 1.066Z"></path></g><g id="target"><path id="vector_46" fill="#38a1ff" d="M154.566 89.69c-14.055-.355-16.529-18.764-3.74-22.197 4.202-1.128 8.073-.374 11.441 2.493.282.24.806.444.342.945-1.141 1.23-2.131-2.702-8.545-2.674-11.119.048-14.336 15.16-3.72 19.443 9.47 3.82 18.56-5.907 13.15-14.557-.263-.421-.427-.61.141-.985.619-.41.699.063.885.362 4.854 7.785-1.066 17.396-9.953 17.17h-.001Z"></path><path id="vector_47" fill="#38a1ff" d="M150.142 71.394c-6.394 3.297-5.55 12.989 2.272 14.799 7.399 1.729 12.949-5.952 9.289-11.743-.509-.85-1.095-.11-.704.402.945 1.247 1.528 4.142.261 6.555-2.353 4.504-8.505 5.529-12.225 2.07-6.593-6.113 2.319-15.9 9.87-10.775.455.309 1.367-.103.787-.585-.988-.822-4.854-3.151-9.551-.723h.001Z"></path><path id="vector_48" fill="#38a1ff" d="M169.807 67.07c-1.166-.281-.925-.684-1.126-2.795-.221-2.252-1.97 4.042-3.74 5.309-2.44 1.759-8.349 6.99-8.987 7.39-.384.242-.578.232-.885.15-2.151-.644-2.755 2.594-.684 2.835.824.1 1.608-.603 1.568-1.528-.02-.522.161-.824.523-1.105 10.134-8.204 9.43-7.942 11.039-8.164 6.354-.865 5.811-1.247 2.292-2.091v-.001Z"></path><path id="vector_49" fill="#38a1ff" d="M149.74 77.968c.241-3.096 3.766-5.404 7.239-3.48.22.123.679.32.442.705-.246.399-.542.059-.804-.08-3.651-1.946-7.162 1.449-5.831 4.765 1.784 4.446 8.9 2.228 7.52-2.554-.139-.483-.362-.763.141-.925.744-.24 1.614 4.699-2.111 6.233-3.152 1.298-6.615-.945-6.595-4.665l-.001 0Z"></path></g><g id="idea"><path id="vector_50" fill="#38a1ff" d="M136.831 30.616c-.166 5.851-4.001 5.63-6.997 11.541-1.447 2.855-2.776 3.041-5.972 2.151-3.882-1.08-1.618-3.704-4.383-9.953-2.244-5.07.279-11.713 6.374-13.029 5.909-1.277 11.154 3.116 10.978 9.29Zm-17.031 0c-.024 3.72 1.655 3.321 2.353 9.611.096.865.126 1.804.784 2.513.426.46.724.483.925-.22 1.794-6.293 1.246-6.272.764-6.475-2.116-.894-1.548-3.899.201-4 1.347-.08 1.633 1.91 1.488 2.653-.078.403-.161.827.402.965.583.143.786-.2.925-.643.591-1.887 2.431-2.935 3.117-1.126.541 1.428-.483 2.89-2.051 2.976-.342.02-.706-.08-.844.402-.184.643-1.73 6.053-1.146 6.374.623.343 1.507-.865 1.87-1.508 4.473-7.928 5.788-5.45 6.776-10.375.722-3.6-1.774-7.907-5.167-8.927-5.275-1.586-10.36 2.252-10.395 7.781l-.002 0Zm7.178 6.394c.04-.824-.859-.743-.985.08-.811 5.313-2.11 6.23-1.046 6.515.966.258.563-.302 2.031-6.595Zm-1.592-3.318c-.008-.36-.06-.694-.499-.763-.441-.07-.686.422-.704.905-.023.643.543 1.468.965 1.327.334-.08.267-.19.237-1.469h.001Zm4.689.845c-.201-1.749-1.63.402-1.649 1.005-.022.704 1.669.201 1.649-1.005Z"></path><path id="vector_51" fill="#38a1ff" d="M125.209 51.246c-2.875-.221-5.199-.884-4.966-3.58.251-2.914.444-3.621 1.93-2.915 4.468 2.123 6.33.32 6.153 1.93-.144 1.307-.522 2.534-1.025 3.72-.401.945-1.367.704-2.091.844l-.001 0Zm2.252-4.343c-.061-.684-.586.21-4.082-.844-1.912-.577-1.908-.603-2.111 1.387-.279 2.735 2.755 2.57 3.559 2.714 1.207.216 1.546-.001 2.091-1.126.761-1.57-1.007.185-4.705-1.71-.2-.101-.522-.16-.402-.441.162-.382 5.789 1.569 5.65.02Z"></path></g><g id="money"><path id="vector_52" fill="#38a1ff" d="M159.346 30.342c.43 1.22 2.918 1.136 4.65 2.95 3.055 3.197 1.025 8.455-4.444 8.886-1.247.098-.935.602-1.146 2.252-.105.824-.926.724-.885-.02.099-1.79.241-2.107-.684-2.272-3.3-.589-4.625-2.956-4.102-3.398.523-.442 1.929 1.373 4.021 1.77 1.507.285.751-.16 1.347-7.54.084-1.046-.16-.929-2.332-1.67-3.376-1.15-3.134-7.166 2.011-8.103 1.308-.238.938-.805 1.206-2.513.098-.624.74-.623.764.08.051 1.468-.342 2.26 1.106 2.232 1.629-.03 3.5 1.288 3.157 1.83-.28.443-1.308-.487-3.499-.664-1.246-.1-.822.274-1.172 6.18h.002Zm.85 10.228c4.482-1.194 4.278-4.659 2.453-6.233-.766-.66-1.651-1.04-2.533-1.488-.706-.358-.986-.16-.985.603.01 6.233-1.409 7.777 1.066 7.118h-.001Zm-1.597-15.764c.054-.239.053-.443-.393-.34-3.923.893-4.345 4.913-.302 5.991.203.054.28.14.346-.396.072-.582.306-5.063.349-5.254Z"></path></g></g></svg>