<svg xmlns="http://www.w3.org/2000/svg" width="432" height="432" viewBox="0 0 432 432" fill="none"><g clip-path="url(#clip0_1391_500)"><path fill-rule="evenodd" clip-rule="evenodd" d="M176.491 60.3915C234.9 61.3721 234.855 62.1216 234.576 66.9233V66.9276C234.371 70.4484 233.004 101.077 232.075 121.986C234.349 121.995 237.01 122.018 240.127 122.047C246.506 122.101 254.791 122.174 265.568 122.172C282.163 122.167 282.318 122.174 285.237 122.286C286.623 122.34 288.639 122.42 293.345 122.533C301.469 122.727 307.545 122.839 312.109 122.926C324.043 123.146 325.657 123.176 326.607 123.984C326.756 124.114 326.888 124.256 327.041 124.425L327.084 124.474C327.471 124.898 327.702 129.518 327.823 136.948C330.705 137.421 333.729 137.869 336.889 138.255C337.997 138.391 338.07 138.156 338.215 137.687C338.411 137.056 338.738 136 341.919 134.864C344.712 133.866 347.347 132.918 349.829 132.021C321.261 80.1079 266.034 44.9302 202.591 44.9302C193.107 44.9269 183.639 45.7217 174.288 47.3062C175.074 51.8508 175.837 56.3933 176.491 60.3915ZM365.517 171.951C360.678 172.287 355.828 172.451 350.976 172.444C348.209 172.467 345.695 172.491 344.967 169.549C340.692 173.308 333.869 179.075 327.75 183.028C327.677 190.416 327.591 197.805 327.491 205.194C328.888 205.671 330.21 206.144 331.409 206.572H331.413L331.415 206.574L332.04 206.796L332.122 206.827C332.495 206.96 332.666 207.021 332.688 206.986C332.705 206.958 332.621 206.865 332.467 206.695C331.975 206.15 330.767 204.816 329.905 202.288C328.361 197.759 332.022 193.363 339.857 197.742C346.559 201.487 355.938 211.118 361.133 216.696C362.152 213.844 364.649 214.119 367.399 214.421L368.168 214.503C368.952 214.583 369.74 214.667 370.529 214.758C370.7 200.333 369.016 185.946 365.517 171.951ZM326.596 260.701L326.814 248.545L327.901 248.448C334.241 247.875 341.658 247.208 349.948 247.022C351.067 246.998 351.115 247.24 351.212 247.72C351.341 248.37 351.559 249.454 354.612 250.906C358.363 252.69 361.815 254.344 364.988 255.867C351.862 305.58 316.518 346.263 270.22 366.656C263.008 354.51 260.537 351.877 256.623 355.48C255.962 356.089 255.958 355.746 255.941 354.536C255.912 352.259 255.843 346.922 251.301 339.088L250.199 337.178C245.082 328.288 239.738 319 233.541 320.557L230.63 314.196L230.625 314.189C227.478 307.314 223.582 298.806 218.789 288.259C220.234 288.773 222.396 288.766 225.478 288.757C226.902 288.748 228.325 288.756 229.748 288.781C232.172 288.829 233.842 288.868 235.278 288.9C238.004 288.965 239.89 289.01 244.486 289.051C243.752 291.451 243.514 293.975 243.785 296.47C244.057 298.965 244.832 301.378 246.065 303.564C247.059 305.344 247.361 306.096 246.873 307.599C243.233 318.807 261.379 325.681 266.235 314.008C266.566 313.213 266.771 313.04 267.615 312.829C279.832 309.783 283.93 298.598 281.338 289.237L296.49 289.293L300.614 303.001C302.266 308.39 303.739 307.962 315.937 304.426C318.226 303.761 320.896 302.988 324.013 302.124H324.015C327.668 301.111 330.761 300.331 333.359 299.676C340.353 297.914 343.781 297.052 344.928 294.946C346.03 292.924 345.03 289.758 343.068 283.548C342.379 281.366 341.572 278.806 340.695 275.791C340.09 273.705 339.494 271.616 338.908 269.525C336.39 260.591 335.984 259.14 333.197 259.14H333.128C332.571 259.137 332.344 259.135 326.596 260.701ZM202.591 380.827C210.612 380.83 218.624 380.262 226.565 379.13C224.774 374.233 225.653 373.14 229.189 371.982C230.219 371.645 227.755 370.209 223.718 367.859C220.221 365.822 215.544 363.098 210.939 359.806C196.014 367.066 180.954 374.216 179.533 374.216C176.379 374.216 164.791 347.52 153.792 322.186C148.867 310.837 144.057 299.761 140.18 291.479C138.238 287.332 140.057 286.528 154.068 280.325C157.952 278.605 162.773 276.471 168.711 273.735C175.079 270.801 180.299 268.337 184.6 266.309C198.456 259.77 202.722 257.755 204.924 259.107C205.902 259.71 206.47 260.978 207.293 262.814L207.47 263.209C210.699 270.391 213.648 276.923 216.341 282.863C215.607 248.623 217.05 178.498 217.896 144.56C215.92 144.491 213.643 144.403 211.028 144.301C205.455 144.085 198.327 143.806 189.214 143.53C185.797 143.426 182.889 143.368 180.416 143.316C168.525 143.074 166.717 143.037 166.843 139.244C167.154 129.74 167.534 119.867 167.89 111.145L164.722 109.864C143.305 101.213 141.551 100.503 144.407 94.3488C146.848 89.0892 149.28 89.748 150.196 89.9964C150.442 90.0612 150.578 90.0979 150.578 89.9856C150.578 88.4088 150.472 86.8385 150.34 85.2077C146.47 86.8817 145.908 85.4151 136.054 59.6484L135.719 58.7715C96.1459 75.9651 64.4889 107.959 47.7317 147.763C61.6356 150.409 64.962 151.837 62.9057 156.749C62.5601 157.579 62.8841 157.466 64.0289 157.067C66.1759 156.319 71.2173 154.567 80.1295 156.166L82.3111 156.555C85.9701 157.198 89.6875 157.853 92.9707 158.728C92.5819 152.978 92.5279 149.008 93.0355 148.36L93.1543 148.206C93.2688 148.059 93.3703 147.925 93.4826 147.807C94.4676 146.772 96.3813 146.625 114.832 145.193C120.318 144.77 127.267 144.23 136.089 143.521C138.804 143.303 141.1 143.083 143.044 142.895C149.193 142.305 151.85 142.05 153.163 143.258C154.163 144.176 154.384 145.94 154.773 149.047L154.82 149.425C155.341 153.572 162.238 218.83 162.112 222.936L162.11 222.938C162.045 225.066 161.022 226.079 159.034 226.627C159.095 237.877 159.088 250.124 159.084 256.042V258.777L159.086 258.779C159.086 262.053 157.926 263.323 154.65 263.319C152.484 263.318 150.319 263.321 148.154 263.328H148.087C142.731 263.339 137.238 263.352 132.723 263.263C136.004 267.071 132.985 272.13 123.889 271.957C123.079 271.942 122.485 271.914 122.066 271.897C121.513 271.873 121.273 271.862 121.262 271.907C121.254 271.942 121.383 272.009 121.608 272.128C121.802 272.231 122.072 272.372 122.39 272.562C124.878 274.063 126.744 276.726 125.848 279.441C123.99 285.066 115.428 283.416 101.76 280.783C95.5022 279.577 88.1798 278.167 79.9394 277.152C78.8313 277.016 78.7579 277.253 78.6132 277.722C78.4188 278.353 78.0905 279.409 74.9088 280.545C70.7961 282.016 67.0248 283.377 63.5774 284.623C59.9292 285.948 56.2759 287.259 52.6176 288.557C80.2937 343.295 137.061 380.827 202.591 380.827ZM37.6596 244.739C46.7748 243.659 56.1449 242.97 65.0786 242.97L65.8519 242.965C68.6189 242.942 71.1309 242.918 71.8589 245.858C77.5829 240.827 87.8817 232.187 94.9298 229.133C97.1849 228.157 99.0619 227.802 100.559 227.891C100.304 226.72 100.161 225.208 99.9756 223.284C99.8395 221.854 99.6818 220.195 99.4399 218.277L99.3945 217.916C99.1051 215.637 97.8609 205.842 96.5217 194.286L96.2777 194.242C95.0486 194.018 94.0442 193.823 93.2364 193.668C91.2578 193.288 90.45 193.132 90.3787 193.296C90.329 193.409 90.6336 193.672 91.1477 194.121C92.4394 195.245 95.0594 197.526 96.7442 201.45C98.9172 206.515 94.0334 211.25 84.8837 207.196C76.1486 203.321 67.7894 196.342 62.4823 191.912C58.8967 188.918 56.7043 187.088 56.7367 188.171C56.9095 193.804 55.1599 193.657 38.8325 192.268H38.8303L38.7936 192.264L35.9251 192.022C35.0691 198.941 34.6406 205.907 34.6421 212.879C34.6421 223.772 35.6789 234.423 37.6596 244.739ZM104.896 231.451C105.047 232.451 104.872 233.565 104.373 234.652C103.261 237.082 101.926 238.291 101.382 238.784C101.211 238.937 101.12 239.019 101.133 239.049C101.153 239.086 101.328 239.043 101.71 238.946L101.796 238.924L102.33 238.792C107.363 237.542 114.573 235.751 120.34 235.663C120.347 233.734 120.344 231.904 120.34 230.174C118.418 230.366 116.69 230.55 115.128 230.716C110.259 231.237 107.047 231.578 104.896 231.451ZM139.195 123.567C138.113 126.565 108.179 140.147 107.585 140.398C106.207 140.977 103.747 140.476 102.615 138.227C100.881 134.78 99.3578 131.92 98.0834 129.518C94.5821 122.934 92.921 119.809 93.7224 117.565C94.4503 115.538 97.1892 114.232 102.406 111.745C104.116 110.929 106.095 109.985 108.359 108.847C110.504 107.765 112.646 106.674 114.782 105.574L114.785 105.572H114.789L114.793 105.568C126.528 99.5458 128.244 98.6645 130.611 103.455C132.002 106.27 133.186 108.648 134.19 110.665L134.196 110.681L134.201 110.687C139.476 121.282 139.789 121.917 139.195 123.563V123.567ZM191.573 154.364C190.821 154.792 190.553 154.801 189.758 154.451C168.981 145.288 152.844 173.232 170.556 186.965C182.151 195.955 198.99 189.095 201.115 174.977C201.418 172.962 201.64 172.182 202.947 171.295C212.695 164.672 202.56 148.107 191.573 154.364ZM111.028 331.307C111.873 331.471 112.082 331.636 112.458 332.422L112.456 332.424C122.25 352.914 152.697 342.237 148.215 320.281C145.282 305.908 128.049 300.145 117.228 309.457C115.683 310.785 115.009 311.232 113.437 311.055C101.727 309.731 98.6148 328.908 111.028 331.307Z" fill="#3B85F8"></path><path fill-rule="evenodd" clip-rule="evenodd" d="M211.162 120.99C210.6 120.932 210.066 120.887 209.563 120.852C209.529 120.204 209.33 119.576 208.984 119.027L211.239 119.122C211.609 119.137 212.255 121.103 211.162 120.99ZM172.079 112.845L169.962 111.985C169.595 120.757 169.236 130.054 168.929 139.314C168.88 140.817 169.275 140.83 172.688 140.938H172.772L217.953 142.379L218.002 140.413C216.842 140.381 215.631 140.35 214.395 140.32H214.393C209.948 140.208 205.202 140.087 201.522 139.884C188.801 139.177 181.347 139.072 176.988 139.007C170.895 138.92 170.854 138.92 170.932 137.495C171.428 128.41 171.796 120.195 172.079 112.845ZM218.208 132.747L218.164 134.292C214.73 134.27 212.172 134.218 211.591 134.175C210.792 134.117 210.764 133.92 210.868 133.371L210.881 133.298C210.93 133.039 210.967 132.849 211.071 132.717C211.352 132.369 212.121 132.412 214.92 132.572C215.799 132.622 216.879 132.682 218.208 132.747ZM218.441 125.379C218.413 125.935 218.391 126.491 218.376 127.047C214.406 127.038 208.073 127.021 207.364 126.989C206.261 126.937 206.295 126.77 206.39 126.308L206.392 126.293C206.416 126.181 206.423 126.062 206.429 125.947C206.453 125.531 206.477 125.159 207.297 125.185C212.607 125.345 216.119 125.369 218.441 125.379ZM228.128 121.99C228.55 113.644 229.105 101.671 229.902 84.5294L229.904 84.469L230.66 68.2171C230.744 66.4438 228.576 66.4416 219.89 66.4373C212.045 66.433 198.88 66.4265 177.252 65.1046L176.811 62.3635C178.889 62.3851 181.913 62.519 186.322 62.7199C189.43 62.8603 193.225 63.031 197.862 63.2146C201.193 63.3442 227.776 64.4609 231.066 64.9771L231.131 64.9901C231.485 65.0441 231.757 65.0873 231.965 65.2277C232.68 65.7158 232.589 67.3834 232.185 74.8116V74.8159C232.032 77.6671 231.828 81.3715 231.61 86.1818C231.08 97.8614 230.59 109.543 230.139 121.226V121.23L230.111 121.984C229.407 121.984 228.748 121.986 228.128 121.99ZM194.813 131.948H194.748C189.633 131.946 186.242 131.827 183.987 131.749C179.874 131.604 179.528 131.594 179.384 132.663C179.378 132.706 179.371 132.75 179.362 132.792C179.338 132.867 179.333 132.946 179.347 133.024C179.466 133.451 180.989 133.492 192.32 133.786L194.797 133.851C195.625 133.872 195.664 133.494 195.718 132.991L195.744 132.764C195.856 131.935 195.381 131.939 194.871 131.946H194.813V131.948ZM204.5 126.064V126.049C204.5 124.954 204.291 124.954 198.197 124.956C196.757 124.956 194.988 124.956 192.815 124.943C191.544 124.937 191.484 126.788 192.75 126.798C195.594 126.82 197.752 126.859 199.385 126.889C203.256 126.96 204.198 126.978 204.427 126.582C204.5 126.457 204.5 126.287 204.5 126.064ZM198.64 133.926C197.923 133.942 197.558 133.782 197.584 132.933V132.903C197.592 132.687 197.597 132.525 197.67 132.406C197.893 132.045 198.729 132.069 202.07 132.157C203.323 132.19 204.926 132.233 206.982 132.27C208.531 132.298 209.112 132.311 209.038 133.343C209.004 133.823 208.922 134.032 208.356 134.119C207.958 134.179 205.375 134.099 202.938 134.026C201.506 133.972 200.073 133.94 198.64 133.929V133.926ZM213.592 119.48C213.525 119.597 213.52 119.75 213.514 119.943V119.966C213.481 121.154 213.916 121.148 216.447 121.111C218.402 121.074 220.358 121.103 222.312 121.198C222.867 121.236 223.301 121.267 223.318 120.392C223.335 119.55 222.787 119.543 222.296 119.537L222.072 119.528L220.53 119.437C215 119.105 213.844 119.035 213.592 119.48Z" fill="#101828"></path><path fill-rule="evenodd" clip-rule="evenodd" d="M122.299 235.706C122.284 233.816 122.275 231.895 122.269 229.984C123.12 229.902 124.006 229.818 124.928 229.735L124.945 236.082C124.075 235.881 123.191 235.756 122.299 235.706ZM129.254 260.818C134.587 260.971 136.337 261.012 138.087 261.021C138.791 261.023 139.497 261.021 140.441 261.017C142.69 261.008 146.286 260.993 154.446 261.04H154.507C156.233 261.051 156.781 261.055 156.909 256.971C156.974 254.865 157.129 240.397 157.038 227.01C156.239 227.113 155.343 227.191 154.351 227.264C154.364 232.889 154.39 239.79 154.421 248.251V248.257L154.451 256.861V256.867C154.455 257.949 154.457 258.325 153.122 258.416C151.405 258.53 137.728 258.567 129.993 258.584C128.978 259.014 127.991 259.293 127.313 259.487C126.574 259.695 126.198 259.803 126.535 259.887C127.544 260.144 128.451 260.459 129.254 260.818ZM124.947 247.603V247.236C124.71 247.337 124.468 247.434 124.219 247.527C124.457 247.551 124.701 247.575 124.947 247.603Z" fill="#101828"></path><path fill-rule="evenodd" clip-rule="evenodd" d="M199.582 262.008C203.52 260.185 203.632 260.241 205.384 264.146C213.966 283.315 222.622 302.45 231.351 321.553C231.049 321.751 230.746 321.976 230.442 322.229C230.025 321.985 229.587 321.779 229.133 321.613C223.78 310.375 215.49 292.63 202.951 264.477C202.884 264.285 202.778 264.108 202.64 263.958C201.524 262.952 196.683 266.073 148.329 288.077C146.403 288.952 145.446 289.369 145.182 290.053C144.923 290.725 145.333 291.654 146.159 293.527C176.939 363.457 178.969 369.306 180.503 369.176C180.636 369.166 180.768 369.107 180.915 369.045H180.919C184.967 367.267 195.564 362.074 206.723 356.59C207.403 357.145 208.092 357.689 208.788 358.219C195.759 364.552 183.228 370.595 181.362 371.356C179.073 372.287 179.04 372.248 178.027 370.032C158.998 328.409 149.483 306.843 145.12 296.952C144.179 294.796 143.222 292.648 142.247 290.507C142.078 290.148 141.94 289.855 141.942 289.563C141.955 287.526 148.761 285.535 199.582 262.008Z" fill="#101828"></path><path d="M164.417 319.451C163.832 319.41 163.814 318.848 163.581 318.468C162.84 317.269 163.197 317.85 191.212 304.456C192.309 303.931 192.778 304.037 193.309 305.165C193.933 306.491 193.711 306.001 164.417 319.451Z" fill="#101828"></path><path d="M203.651 289.418C203.779 290.364 203.828 289.868 183.514 299.318C182.719 299.687 182.472 299.294 182.202 298.683C181.459 296.996 181.762 297.832 201.999 288.358C203.416 287.695 203.135 289.094 203.651 289.418Z" fill="#101828"></path><path d="M181.174 329.875C180.366 329.748 180.449 328.994 180.187 328.519C179.727 327.683 178.839 328.177 196.716 320.026C198.679 319.129 199.433 321.3 197.757 322.131C195.536 323.233 183.427 328.834 181.174 329.875Z" fill="#101828"></path><path d="M199.567 311.491C199.608 312.139 199.681 311.74 185.322 318.416C184.604 318.749 184.231 318.645 184.064 317.904C183.933 317.315 183.101 316.695 184.252 316.164C188.762 314.086 193.244 311.943 197.752 309.863C198.469 309.532 199.608 310.64 199.567 311.489V311.491Z" fill="#101828"></path><path d="M182.71 319.146C182.861 319.851 182.911 319.591 168.759 326.145C167.968 326.51 167.344 326.771 166.817 325.605C166.255 324.363 167.19 324.298 167.784 324.011C180.943 317.667 182.46 316.431 182.71 319.144V319.146Z" fill="#101828"></path><path d="M197.273 274.834C197.219 275.616 197.43 275.147 181.593 282.833C180.926 283.157 180.693 282.984 180.446 282.334C179.716 280.411 179.885 281.303 195.929 273.86C197.081 273.326 196.998 274.285 197.273 274.834Z" fill="#101828"></path><path d="M209.801 298.296C209.747 298.629 209.285 298.715 208.941 298.877C195.085 305.379 195.335 305.808 194.912 304.245C194.748 303.638 194.048 303.098 195.199 302.586C199.517 300.668 203.79 298.639 208.088 296.665C208.773 296.35 209.883 297.309 209.801 298.296Z" fill="#101828"></path><path d="M173.439 295.391C173.567 296.013 173.642 295.793 157.788 303.327C157.308 303.556 156.781 304.026 156.371 303.089C156.004 302.249 156.33 301.957 157.03 301.618C173.56 293.574 172.64 292.998 173.439 295.391Z" fill="#101828"></path><path d="M200.165 309.355C199.698 308.66 199.329 309.2 212.3 303.106C213.41 302.586 213.382 303.605 213.758 304.085C214.667 305.242 214.032 305.018 201.867 310.804C200.658 311.381 200.612 310.018 200.167 309.357L200.165 309.355Z" fill="#101828"></path><path d="M188.311 288.384C188.339 288.937 188.384 288.524 176.537 294.41C175.774 294.79 175.513 294.516 175.208 293.881C174.547 292.503 174.642 292.915 186.643 287.096C187.415 286.723 188.384 287.507 188.311 288.384Z" fill="#101828"></path><path d="M177.738 282.273C178.386 282.383 178.429 283.003 178.656 283.448C178.908 283.94 178.61 284.185 178.176 284.385C167.221 289.461 167.175 289.88 166.929 288.876C166.815 288.409 166.126 287.79 166.793 287.459C170.425 285.695 174.072 283.966 177.738 282.273Z" fill="#101828"></path><path d="M165.08 290.086C165.162 290.561 165.24 290.425 153.96 295.477C153.503 295.682 152.976 295.998 152.645 295.222C152.14 294.034 152.55 294.542 163.417 288.973C164.711 288.31 164.728 289.347 165.08 290.088V290.086Z" fill="#101828"></path><path d="M171.223 304.921C170.616 305.052 170.748 304.413 170.601 304.121C170.381 303.683 170.031 303.117 170.765 302.774C180.572 298.209 180.168 297.844 180.935 299.233C181.77 300.745 181.518 300.22 171.223 304.921Z" fill="#101828"></path><path d="M169.502 305.271C169.497 305.856 169.716 305.709 160.611 309.774C160.039 310.029 159.43 310.323 159.054 309.372C158.442 307.835 159.196 308.47 167.707 304.15C169.165 303.411 168.972 304.832 169.502 305.271Z" fill="#101828"></path><path d="M179.388 330.299C179.474 331.134 178.861 330.705 172.014 334.215C170.999 334.735 170.847 334.087 170.469 333.465C170.016 332.718 170.178 332.379 170.968 332.035C175.947 329.864 179.379 327.335 179.388 330.299Z" fill="#101828"></path><path d="M144.234 185.667C144.23 185.617 141.476 161.266 141.219 159.864C140.873 157.976 139.793 158.697 134.644 159.27C132.337 159.529 133.06 159.313 135.147 179.315C136.043 187.905 135.762 189.618 138.29 188.998C142.767 187.898 144.685 190.071 144.234 185.667ZM140.214 187.358C136.711 187.937 137.756 187.838 135.203 161.862C134.92 160.857 135.376 160.574 136.391 160.544C141.672 160.374 139.136 159.868 142.361 184.801C142.67 187.194 142.644 186.957 140.214 187.358Z" fill="#101828"></path><path d="M131.136 187.842C131.136 187.773 129.628 173.696 128.062 164.529C127.907 163.624 128.181 162.03 126.952 162.14C125.736 162.248 126.204 163.426 129.017 188.002C129.099 188.719 129.205 189.372 130.058 189.354C131.004 189.335 131.153 188.624 131.136 187.842Z" fill="#101828"></path><path d="M132.24 198.789C131.982 196.852 129.749 197.281 129.928 198.847C131.926 216.35 131.76 216.505 133.116 216.371C134.456 216.24 134.464 215.555 132.24 198.789Z" fill="#101828"></path><path d="M122.135 164.89C121.945 163.575 120.353 163.514 120.357 165.009C120.366 167.348 120.472 167.659 121.522 178.12C121.69 179.801 123.528 179.677 123.463 177.993C123.319 174.273 122.617 168.225 122.135 164.89Z" fill="#101828"></path><path fill-rule="evenodd" clip-rule="evenodd" d="M98.8567 194.735C100.812 212.641 102.963 229.26 104.25 229.165C110.307 228.714 112.311 228.567 114.314 228.394C117.238 228.144 120.159 227.843 135.696 226.478C141.059 226.007 145.228 225.672 148.468 225.411C159.734 224.504 159.773 224.5 159.823 222.864C159.924 219.601 153.617 159.058 153.31 156.114L153.3 156.004C153.071 154.164 152.887 152.617 152.736 151.317C151.986 144.876 151.943 144.521 150.191 144.67C101.498 148.774 94.9882 148.489 94.4395 150.163C94.3358 150.476 94.4417 150.859 94.5194 151.349C94.5626 151.621 94.7743 153.859 95.1113 157.412L95.3014 159.414C98.5262 160.473 101.129 161.834 102.522 163.752L102.311 161.903C102.135 160.389 101.964 158.875 101.796 157.36C101.753 156.87 101.721 156.496 101.859 156.205C102.604 154.621 108.339 155.384 144.608 152.563C146.169 152.442 146.189 152.673 146.543 157.287C146.737 159.786 147.029 163.568 147.718 169.275C148.645 177.019 149.432 184.779 150.077 192.551C150.234 194.378 150.358 195.804 150.459 196.791C152.079 212.414 153.356 216.179 152.174 217.261C151.762 217.639 151.051 217.691 149.947 217.806L149.949 217.808C142.258 218.609 139.823 218.823 137.674 219.011C135.942 219.162 134.391 219.298 130.423 219.713C123.33 220.454 118.56 221.059 115.35 221.465C108.732 222.305 108.732 222.305 108.626 220.923C108.248 215.952 107.25 206.278 106.127 195.951C103.691 195.624 101.266 195.219 98.8567 194.735ZM103.254 170.176C103.236 170.016 103.218 169.857 103.2 169.698C103.164 169.81 103.126 169.921 103.086 170.031L103.254 170.176Z" fill="#101828"></path><path d="M106.693 138.292C104.682 138.428 105.43 138.903 95.9623 119.863C94.9514 117.83 95.8198 117.707 109.38 110.886C127.637 101.704 126.997 101.319 128.563 104.471C137.979 123.418 138.478 122.513 134.758 124.42C129.719 127.006 111.912 136.087 106.693 138.292ZM135.028 121.813C134.352 120.36 130.393 112.951 126.887 106.002C126.04 104.326 126.345 105.026 113.286 111.663C98.0791 119.392 97.7724 118.686 98.6062 120.297C106.987 136.48 106.24 136.912 107.793 136.009C112.16 133.466 134.816 122.587 135.026 121.815L135.028 121.813Z" fill="#101828"></path><path d="M105.198 119.351C106.419 119.191 105.959 119.061 111.005 128.306C111.799 129.764 108.931 130.818 107.289 131.432C106.339 131.788 103.883 125.891 102.086 122.172C101.321 120.591 103.777 120.033 105.196 119.353L105.198 119.351Z" fill="#101828"></path><path d="M130.293 118.724C131.006 120.245 129.576 121.183 128.65 119.63C121.452 107.581 123.783 104.846 130.293 118.724Z" fill="#101828"></path><path d="M125.168 118.31C125.263 120.137 123.857 119.99 123.487 119.26C120.195 112.767 120.07 112.439 120.841 111.972C121.636 111.493 121.969 111.547 125.168 118.31Z" fill="#101828"></path><path d="M259.191 220.368C246.555 220.696 236.36 231.245 236.645 243.689C236.946 256.727 247.372 266.933 260.096 266.641C273.162 266.343 283.295 255.895 283.044 242.981C282.798 230.248 272.024 220.035 259.191 220.368ZM252.96 223.871C259.971 221.355 268.026 222.58 274.015 228.025C275.584 229.451 274.929 228.768 265.583 237.285C264.231 238.518 262.98 235.781 259.602 236.568C258.241 236.885 258.82 236.401 252.273 225.755C251.616 224.686 251.867 224.264 252.958 223.873L252.96 223.871ZM265.961 243.927C266.099 250.843 255.731 250.867 255.55 244.201C255.366 237.477 265.82 236.9 265.961 243.927ZM239.572 246.27C238.935 237.047 242.093 230.712 248.454 226.206C250.266 224.921 249.687 225.42 256.308 236.797C257.299 238.501 253.474 238.518 253.264 243.672C253.215 244.884 253.394 244.329 240.624 246.983C239.948 247.124 239.622 247.001 239.572 246.27ZM266.125 263.183C254.616 266.605 243.341 259.475 240.464 250.089C239.939 248.376 240.121 249.191 252.858 246.508C253.612 246.348 253.746 246.718 254.027 247.208C258.984 255.831 271.469 249.875 267.188 240.451C266.844 239.698 266.967 239.317 267.527 238.797C276.657 230.286 275.979 229.956 277.089 231.524C285.144 242.89 279.487 259.211 266.125 263.183Z" fill="#101828"></path><path d="M268.332 221.046C268.922 221.333 269.352 220.91 269.652 220.439C272.598 215.832 276.288 211.499 275.024 205.362C274.754 204.047 275.119 202.159 274.959 202.159C274.959 191.774 275.251 191.085 273.717 191.031C272.192 190.977 272.411 190.966 272.566 209.546C272.599 213.38 266.574 220.186 268.332 221.046Z" fill="#101828"></path><path d="M269.676 160.24C270.68 176.152 270.102 176.513 271.631 176.468C273.769 176.403 272.147 166.832 271.786 146.48C271.771 145.681 271.566 144.984 270.659 144.997C269.266 145.016 269.676 145.364 269.676 160.24Z" fill="#101828"></path><path d="M253.111 160.912C254.115 176.824 253.536 177.185 255.066 177.14C257.204 177.075 255.582 167.504 255.221 147.152C255.206 146.353 255.001 145.655 254.094 145.668C252.701 145.688 253.111 146.033 253.111 160.912Z" fill="#101828"></path><path d="M260.963 163.603C261.986 177.079 261.377 177.174 262.917 177.137C264.965 177.09 263.576 175.71 263.073 152.129C263.058 151.462 262.853 150.878 261.945 150.891C260.548 150.913 260.963 151.166 260.963 163.603Z" fill="#101828"></path><path d="M238.769 231.144C239.756 229.746 234.04 227.407 232.386 224.359C231.18 222.139 233.697 210.026 231.17 210.118C229.452 210.181 230.895 215.022 230.072 220.497C229.271 225.832 232.718 227.478 237.423 231.252C237.885 231.621 238.328 231.764 238.766 231.142L238.769 231.144Z" fill="#101828"></path><path d="M287.209 262.943C286.958 274.277 287.021 274.638 288.135 274.722C289.488 274.821 289.716 274.344 289.073 261.377C288.995 259.801 288.682 259.768 282.731 256.47C281.232 255.638 280.21 256.893 281.789 257.954C286.381 261.036 287.256 260.859 287.209 262.943Z" fill="#101828"></path><path d="M231.36 208.775C233.986 208.803 234.036 204.878 231.442 204.859C228.718 204.837 228.811 208.747 231.36 208.775Z" fill="#101828"></path><path d="M287.803 276.037C285.038 276.173 284.898 280.213 287.734 280.131C290.699 280.044 290.036 275.927 287.803 276.037Z" fill="#101828"></path><path d="M271.488 187.877C271.534 190.365 275.322 190.387 275.27 187.851C275.219 185.315 271.443 185.386 271.488 187.877Z" fill="#101828"></path><path d="M232.187 151.44C232.792 182.984 231.446 182.846 234.768 182.82C245.897 182.738 245.879 183.067 245.724 181.399C245.728 181.356 245.782 163.579 245.536 163.579C245.536 149.187 245.704 149.176 243.823 149.392C242.019 149.241 233.572 149.548 233.232 149.528C231.999 149.463 232.161 150.101 232.187 151.44ZM236.088 151.705C239.816 151.909 242.356 151.444 242.873 152.131C243.253 181.848 243.873 180.598 241.853 180.487C238.125 180.284 235.585 180.749 235.068 180.062C234.688 150.345 234.068 151.595 236.088 151.705Z" fill="#101828"></path><path fill-rule="evenodd" clip-rule="evenodd" d="M322.916 136.102L322.918 135.596C322.935 131.821 322.944 129.658 322.95 129.479C322.955 129.376 322.962 129.273 322.972 129.17C322.991 128.924 323.009 128.717 322.939 128.546C322.598 127.699 320.14 127.708 305.5 127.751C291.71 127.792 267.112 127.866 223.296 127.287C223.299 127.319 221.899 206.719 221.106 251.724L221.104 251.763L220.573 281.945V281.966C220.564 282.381 220.558 282.699 220.689 282.939C221.108 283.701 222.923 283.699 230.507 283.69C234.22 283.686 239.319 283.682 246.316 283.764L246.998 283.77C246.396 284.662 245.868 285.602 245.419 286.58C237.418 286.517 229.418 286.445 221.417 286.364C218.974 286.343 218.691 286.064 218.635 283.574C217.605 237.637 220.467 130.646 220.696 125.786C220.752 124.606 221.102 124.345 222.253 124.364C262.133 125.017 286.71 125.092 301.834 125.14C321.769 125.2 325.279 125.211 325.763 126.427C325.866 126.686 325.832 127.002 325.791 127.384L325.754 127.749C325.702 128.375 325.659 131.682 325.618 136.579C324.702 136.421 323.801 136.264 322.916 136.104V136.102ZM280.491 286.798L295.773 286.909L295.002 284.345L279.139 284.155C279.657 285.001 280.109 285.885 280.491 286.798ZM324.445 261.291L321.678 262.051C321.754 257.712 321.827 253.342 321.894 248.968C322.769 248.899 323.672 248.823 324.603 248.744L324.598 249.096V249.119C324.542 253.699 324.492 257.733 324.445 261.291ZM322.615 185.95C322.568 191.827 322.516 197.704 322.458 203.58C323.375 203.851 324.289 204.135 325.199 204.431L325.251 201.049C325.298 201.001 325.339 194.07 325.385 184.484C324.483 185.011 323.559 185.501 322.615 185.95Z" fill="#101828"></path><path d="M343.105 292.7C343.133 295.179 342.859 294.536 323.406 299.923C303.227 305.511 303.998 306.269 302.802 302.335L294.702 275.417C293.62 271.562 293.296 272.279 308.923 267.948C316.306 265.903 323.687 263.857 331.085 261.859C334.05 261.058 334.05 261.114 334.927 264.129C343.218 292.669 342.416 289.669 343.105 292.7ZM305.625 302.491C306.752 302.111 321.611 297.927 322.756 297.607C340.872 292.553 341.01 293.108 340.563 291.637C332.16 263.963 333.081 263.719 331.454 264.194C294.268 275.031 296.525 273.683 297.067 275.24C299.367 281.854 304.651 302.445 305.625 302.491Z" fill="#101828"></path><path d="M306.124 298.316C304.068 291.272 301.966 284.237 300.184 277.113C299.776 275.482 300.497 275.813 307.051 273.778C309.262 273.091 308.649 273.35 315.004 295.283C315.295 296.287 314.976 296.942 313.824 297.221C310.059 298.13 306.793 300.616 306.122 298.318L306.124 298.316ZM313.008 295.086C312.524 293.108 312.857 294.525 308.714 279.694C307.439 275.13 307.457 275.158 303.15 276.789C302.113 277.182 301.89 277.616 302.219 278.694C308.141 298.173 306.072 298.072 311.885 296.087C312.552 295.86 313.306 295.734 313.008 295.086Z" fill="#101828"></path><path d="M313.885 277.189C313.52 277.111 312.405 273.601 312.55 272.985C312.621 272.683 316.008 271.728 316.492 271.875C316.762 271.957 317.721 275.534 317.602 276.022C317.511 276.396 314.541 277.327 313.883 277.187L313.885 277.189Z" fill="#101828"></path><path d="M315.924 283.165C315.559 283.088 314.444 279.578 314.589 278.962C314.66 278.66 318.047 277.705 318.531 277.852C318.801 277.934 319.76 281.511 319.641 281.999C319.55 282.373 316.58 283.304 315.922 283.163L315.924 283.165Z" fill="#101828"></path><path d="M317.678 289.135C317.313 289.058 316.198 285.548 316.343 284.932C316.414 284.63 319.801 283.675 320.285 283.822C320.555 283.904 321.514 287.481 321.395 287.969C321.304 288.343 318.334 289.274 317.676 289.133L317.678 289.135Z" fill="#101828"></path><path d="M319.62 295.112C319.254 295.035 318.14 291.525 318.285 290.909C318.356 290.607 321.743 289.652 322.227 289.799C322.497 289.881 323.456 293.458 323.337 293.946C323.246 294.32 320.276 295.251 319.617 295.11L319.62 295.112Z" fill="#101828"></path><path d="M320.218 275.258C319.853 275.18 318.738 271.67 318.883 271.054C318.954 270.752 322.341 269.797 322.825 269.944C323.095 270.026 324.054 273.603 323.935 274.091C323.844 274.465 320.874 275.396 320.216 275.255L320.218 275.258Z" fill="#101828"></path><path d="M322.255 281.23C321.89 281.152 320.775 277.642 320.92 277.027C320.991 276.724 324.378 275.769 324.862 275.916C325.132 275.998 326.091 279.575 325.972 280.064C325.881 280.437 322.911 281.368 322.253 281.228L322.255 281.23Z" fill="#101828"></path><path d="M324.009 287.202C323.644 287.125 322.529 283.615 322.674 282.999C322.745 282.697 326.132 281.742 326.616 281.889C326.886 281.971 327.845 285.548 327.726 286.036C327.635 286.41 324.665 287.341 324.007 287.2L324.009 287.202Z" fill="#101828"></path><path d="M325.95 293.179C325.585 293.101 324.471 289.591 324.616 288.976C324.687 288.673 328.074 287.718 328.558 287.865C328.828 287.947 329.787 291.524 329.668 292.013C329.577 292.386 326.607 293.317 325.948 293.177L325.95 293.179Z" fill="#101828"></path><path d="M325.95 273.59C325.585 273.512 324.471 270.002 324.616 269.387C324.687 269.084 328.074 268.13 328.558 268.276C328.828 268.359 329.787 271.936 329.668 272.424C329.577 272.797 326.607 273.728 325.948 273.588L325.95 273.59Z" fill="#101828"></path><path d="M327.987 279.56C327.622 279.483 326.508 275.973 326.652 275.357C326.724 275.055 330.111 274.1 330.594 274.247C330.864 274.329 331.824 277.906 331.705 278.394C331.614 278.768 328.644 279.699 327.985 279.558L327.987 279.56Z" fill="#101828"></path><path d="M329.743 285.535C329.378 285.457 328.264 281.947 328.409 281.332C328.48 281.029 331.867 280.074 332.351 280.221C332.621 280.303 333.58 283.88 333.461 284.369C333.37 284.742 330.4 285.673 329.741 285.533L329.743 285.535Z" fill="#101828"></path><path d="M331.685 291.507C331.32 291.43 330.206 287.92 330.35 287.304C330.422 287.002 333.809 286.047 334.292 286.194C334.562 286.276 335.521 289.853 335.403 290.341C335.312 290.715 332.342 291.646 331.683 291.505L331.685 291.507Z" fill="#101828"></path><path d="M253.411 361.314C258.651 356.75 259.602 355.095 261.405 357.48C263.736 360.56 264.654 362.234 281.552 390.487C282.478 392.036 283.224 393.334 282.01 394.096C280.657 394.943 280.018 393.846 277.13 389.057C257.824 357.037 260.148 359.353 258.513 360.681C252.029 365.952 245.434 372.319 232.615 376.233C230.005 377.03 230.567 375.993 242.611 401.775C245.331 407.594 245.808 408.724 244.516 409.342C242.574 410.268 242.492 408.456 234.405 391.2C232.291 386.685 230.28 382.132 228.435 377.499C226.768 373.315 229.165 375.311 235.187 372.172C223.232 364.977 200.882 352.76 199.968 344.505C199.055 336.249 215.628 346.721 216.626 345.71C218.413 343.9 203.731 325.294 204.036 318.01C204.273 312.323 210.324 316.328 214.324 321.611C216.605 324.622 216.892 327.296 220.363 325.942C221.592 325.462 222.968 325.495 224.16 324.503C225.906 323.052 227.932 323.209 229.77 324.49C230.45 324.966 230.77 325.048 231.45 324.38C237.887 318.071 244.54 331.923 249.327 340.215C254.113 348.507 254.109 353.763 253.411 361.314ZM251.428 357.061C252.076 345.732 244.974 335.647 237.704 326.579C236.457 325.024 234.377 324.216 232.66 325.994C231.358 327.342 235.302 329.558 233.71 330.718C232.047 331.929 228.571 322.944 224.975 326.51C223.957 327.521 225.342 327.972 225.819 328.592C227.066 330.212 229.1 331.951 228.154 332.841C227.228 333.714 225.703 331.921 223.713 329.441C221.847 327.115 218.052 327.134 219.538 329.396C223.061 334.759 223.253 334.932 222.525 335.454C220.296 337.053 209.382 315.578 206.353 317.734C202.334 320.594 231.027 355.439 212.68 346.794C194.333 338.15 202.323 349.151 220.62 360.798C225.93 364.176 231.474 367.152 236.915 370.31C237.861 370.859 238.721 370.85 239.751 370.36C253.418 363.869 251.106 362.604 251.424 357.061H251.428Z" fill="#101828"></path><path d="M79.7429 158.436C88.7738 160.043 104.484 161.585 100.712 169.841C100.315 170.709 100.503 170.977 101.183 171.459C103.017 172.755 103.855 174.601 103.084 176.74C102.559 178.198 103.056 179.481 103.026 180.796C102.935 184.52 105.546 183.881 109.156 185C115.577 186.987 121.254 191.302 116.046 193.443C109.363 196.186 86.8039 188.76 85.7153 191.045C85.117 192.303 100.883 204.265 92.5279 206.295C84.173 208.323 65.1758 191.259 54.5184 182.613C53.6047 189.443 56.3501 190.918 51.8098 190.778C46.8306 190.61 41.8575 190.295 36.8971 189.832C18.239 188.132 16.1827 188.672 16.3987 186.505C16.5391 185.084 17.7142 185.138 24.1596 185.715C52.2569 188.231 51.7212 189.177 51.5808 186.406C50.922 173.502 54.2743 165.67 57.3782 156.762C58.0759 154.753 61.007 156.157 24.3562 148.928C18.751 147.822 17.6321 147.562 17.9561 146.059C18.2801 144.556 19.8245 144.936 21.505 145.26C53.1382 151.368 55.674 151.798 59.4 152.954C62.2728 153.844 61.0178 155.326 58.5187 161.788C64.8929 158.786 70.3598 156.775 79.745 158.44L79.7429 158.436ZM60.4778 163.38C57.2702 164.035 55.7561 166.361 54.6631 177.699C54.553 178.837 54.8359 179.643 55.6783 180.349C59.1689 183.272 82.5552 204.183 91.003 204.325C95.2927 204.399 89.0892 198.143 86.0458 195.119C71.7638 180.922 114.214 195.882 115.521 191.166C116.506 187.611 92.6143 184.606 93.3509 181.997C93.5971 181.125 93.9254 181.284 100.066 182.742C102.665 183.36 101.492 179.813 98.5997 178.833C95.7074 177.852 93.3746 177.01 93.893 175.813C94.4114 174.616 96.7399 175.938 98.6818 176.558C99.427 176.796 100.326 177.947 100.924 176.645C103.047 172.042 93.4114 171.85 93.9881 169.862C94.5346 167.981 97.969 170.916 98.7898 169.242C99.8374 167.104 98.4982 165.367 96.5239 164.698C70.7594 155.941 62.9186 162.883 60.4778 163.38Z" fill="#101828"></path><path d="M94.4957 242.501C101.952 242.3 126.932 233.107 127.477 241.227C127.887 247.367 110.19 246.795 105.913 250.916C108.801 250.592 131.25 247.398 131.922 253.288C132.294 256.541 125.379 257.787 122.122 258.098C89.437 261.224 123.794 258.751 130.395 264.019C133.296 266.334 131.436 269.799 123.93 269.674C93.2796 269.168 112.804 269.406 121.206 274.517C124.107 276.281 124.848 279.208 121.984 280.301C116.301 282.47 110.737 278.867 76.2026 274.393C76.8053 277.363 76.8334 277.437 74.1463 278.4C61.6658 282.874 39.0917 291.658 33.5599 291.388C25.313 290.987 66.4394 278.081 72.3751 276.327C75.3127 275.458 69.4181 268.665 67.8758 253.727C67.2538 247.709 67.7743 247.376 66.3638 247.478C22.477 250.616 18.5458 253.139 14.4742 251.612C17.2152 247.985 55.5768 245.121 67.7657 245.29C70.7724 245.331 69.053 247.45 70.3426 250.32C102.308 220.949 108.847 229.411 97.3555 239.483C94.2127 242.24 94.176 241.838 94.4957 242.501ZM129.961 253.379C121.34 248.564 102.585 256.12 101.211 251.642C100.081 247.964 120.353 244.352 123.893 242.797C126.891 241.481 127.023 237.79 104.527 242.765C99.8978 243.788 93.3422 246.123 92.0462 243.268C90.7481 240.412 97.9085 237.868 100.814 231.997C89.6076 234.98 80.5723 245.326 71.0186 251.897C69.323 253.063 74.2025 269.158 74.8526 271.108C75.4142 272.799 76.1357 271.808 80.622 272.309C106.142 275.169 113.484 279.046 120.195 278.426C121.835 278.275 121.707 277.491 120.617 276.813C115.608 273.709 111.743 273.687 106.536 271.961C101.701 270.359 102.738 266.935 107.257 266.954C127.866 267.036 127.76 267.38 129.401 266.151C124.289 261.554 105.03 264.222 104.589 259.591C104.064 254.068 124.729 258.334 129.961 253.379Z" fill="#101828"></path><path d="M322.332 172.912C314.876 173.113 289.896 182.306 289.351 174.187C288.941 168.046 306.638 168.618 310.915 164.497C308.027 164.821 285.578 168.016 284.906 162.125C284.535 158.872 291.449 157.626 294.706 157.315C327.391 154.19 293.034 156.663 286.433 151.394C283.532 149.079 285.392 145.614 292.898 145.74C323.549 146.245 304.024 146.007 295.622 140.897C292.721 139.132 291.98 136.205 294.844 135.112C300.527 132.944 306.091 136.547 340.626 141.02C340.023 138.05 339.995 137.974 342.682 137.013C355.162 132.54 377.736 123.755 383.268 124.025C391.515 124.427 350.389 137.331 344.453 139.087C341.515 139.955 347.41 146.748 348.952 161.687C349.574 167.705 349.054 168.037 350.464 167.936C389.619 165.136 396.971 162.825 400.991 163.443C401.477 163.521 401.728 164.35 401.131 164.618C393.911 167.849 360.32 170.277 349.062 170.124C346.056 170.081 347.775 167.964 346.486 165.091C314.52 194.465 307.981 186 319.473 175.93C322.615 173.176 322.652 173.576 322.332 172.912ZM286.867 162.035C295.488 166.849 314.243 159.291 315.617 163.771C316.747 167.45 296.475 171.061 292.935 172.616C289.937 173.932 289.805 177.623 312.301 172.649C316.93 171.625 323.486 169.29 324.782 172.146C326.078 175.001 318.92 177.546 316.014 183.416C327.221 180.434 336.256 170.087 345.81 163.516C347.505 162.35 342.626 146.256 341.976 144.305C341.414 142.614 340.692 143.606 336.206 143.104C310.686 140.245 303.344 136.365 296.633 136.987C294.993 137.138 295.121 137.923 296.212 138.601C301.221 141.705 305.085 141.726 310.293 143.452C315.127 145.055 314.09 148.478 309.571 148.459C288.963 148.377 289.068 148.034 287.427 149.263C292.54 153.859 311.798 151.191 312.239 155.822C312.764 161.346 292.097 157.08 286.865 162.035H286.867Z" fill="#101828"></path><path d="M339.196 210.665C335.791 207.148 333.12 204.66 332.059 201.55C330.307 196.422 337.303 193.298 362.197 221.275C363.779 218.529 362.258 216.272 365.262 216.534C390.118 218.689 412.668 225.016 416.966 227.411C418.074 228.029 418.04 228.63 416.45 228.584C414.137 228.519 408.612 227.364 399.174 225.18C388.338 222.672 377.393 220.75 366.442 218.849C363.779 218.387 367.93 220.231 356.994 245.113C355.862 247.689 356.685 245.73 391.636 262.358C397.725 265.255 396.274 267.013 391.37 265.172C379.067 260.552 367.433 254.47 355.594 248.841C353.017 247.616 353.05 247.543 353.951 244.65C319.075 245.642 313.267 248.677 307.809 245.938C304.625 244.339 305.724 239.784 315.945 238.185C318.436 237.797 320.92 237.395 323.406 236.997C321.501 235.339 305.398 236.462 301.011 233.449C298.151 231.483 299.348 228.236 305.612 227.431C314.356 226.308 320.574 227.763 323.782 226.575C315.522 224.776 299.54 223.052 300.629 218.054C302.251 210.602 334.619 221.441 324.605 216.871C315.641 212.78 312.202 212.54 308.619 210.356C305.32 208.345 304.951 204.824 309.925 203.932C317.926 202.498 337.958 212.684 339.196 210.661V210.665ZM327.19 227.081C326.287 231.658 307.413 227.044 301.849 231.12C303.357 232.509 303.296 232.155 323.801 234.14C328.292 234.574 329 238.082 324.015 239.192C318.555 240.41 314.807 240.026 309.519 242.609C308.368 243.171 308.148 243.94 309.774 244.259C316.598 245.594 323.279 242.441 349.762 242.145C354.272 242.095 354.901 243.145 355.625 241.527C356.465 239.648 362.934 224.126 361.364 222.795C352.534 215.318 344.542 204.088 333.716 200.003C335.982 206.047 342.93 209.308 341.304 212.097C339.677 214.883 333.651 211.9 328.931 210.347C307.003 203.129 306.856 206.852 309.658 208.438C313.025 210.343 332.837 215.948 331.335 219.512C329.502 223.865 311.669 214.408 302.566 218.357C307.254 223.789 328.262 221.653 327.19 227.081Z" fill="#101828"></path><path d="M149.556 80.1619C156.328 75.1507 163.933 72.8028 172.454 72.0727C174.301 71.915 173.331 73.4184 168.571 45.1548C164.989 23.881 165.123 24.4706 165.199 23.7125C165.346 22.2221 167.104 22.0493 167.437 23.4252C169.5 31.9356 174.288 60.0199 175.71 70.0294C176.243 73.7878 176.291 73.8266 172.649 74.3666C147.902 78.017 149.818 87.4627 147.357 81.8402C145.286 77.1055 145.048 76.4273 129.244 35.6227C127.84 32.0004 127.516 31.2682 128.699 30.8448C130.01 30.3761 130.08 30.9571 133.803 40.405C149.463 80.1533 148.938 79.069 149.556 80.1619Z" fill="#101828"></path><path d="M148.409 100.447C145.832 99.3731 144.878 98.0166 146.796 94.6815C148.988 90.8713 147.69 91.0959 164.29 97.9107C164.871 98.1483 165.931 98.1721 165.564 99.2089C165.177 100.302 164.225 100.012 163.454 99.6755C153.716 95.4095 153.915 94.742 153.224 96.5456C151.831 100.192 151.777 100.168 155.431 101.663C196.683 118.53 200.316 120.805 201.267 118.219C202.28 115.463 197.31 114.286 194.359 112.914C192.864 112.221 191.972 112.316 192.596 110.525C192.836 109.836 197.312 111.454 202.897 114.841C204.079 115.558 205.893 117.655 206.582 119.001C207.678 121.144 207.252 121.824 205.695 121.923C204.409 122.006 202.258 121.589 199.517 120.815C185.859 116.958 157.533 104.25 148.409 100.447ZM149.671 99.3558C150.813 99.7446 150.425 98.7747 150.621 98.3773C151.068 97.4766 151.457 96.5478 151.842 95.619C151.954 95.3447 152.28 95.0919 151.874 94.7053C150.742 93.6296 149.122 93.8694 148.481 95.3036C147.426 97.6559 147.195 98.5155 149.671 99.3558Z" fill="#101828"></path><path d="M183.198 106.888C184.542 108.227 185.989 109.465 187.419 110.715C189.488 112.53 191.601 110.458 186.592 102.01C184.728 98.8654 169.858 76.8745 171.798 75.6584C172.489 75.2221 172.899 75.8204 173.2 76.3366C185.509 97.4528 184.622 94.3597 188.527 101.149C195.275 112.88 189.188 114.914 186.311 112.543C179.492 106.922 176.707 103.363 167.64 100.518C163.65 99.2672 173.092 96.8199 183.196 106.886L183.198 106.888Z" fill="#101828"></path><path d="M155.609 92.867C152.127 92.4696 153.086 90.6746 152.483 83.4322C152.369 82.0476 154.343 80.3671 154.511 82.0843C154.861 85.6656 155.237 89.2426 155.609 92.867Z" fill="#101828"></path><path d="M279.899 294.678C279.629 302.398 274.596 308.735 267.062 310.612C265.537 310.993 264.747 311.641 264.125 313.124C260.377 322.082 246.3 316.751 249.044 308.306C249.834 305.876 249.139 304.389 248.057 302.454C243.894 295.009 246.32 285.286 253.338 280.563C265.125 272.627 280.342 281.995 279.899 294.678ZM262.749 309.183C270.51 309.416 277.327 302.979 277.556 295.207C277.806 286.71 271.672 279.953 263.416 279.634C255.604 279.331 248.568 285.779 248.286 293.494C247.974 301.979 254.385 308.932 262.749 309.183ZM256.718 315.401C260.922 315.397 263.31 311.284 261.5 311.152C253.495 310.567 251.916 305.482 251.199 308.165C250.26 311.669 253.113 315.405 256.718 315.401Z" fill="#101828"></path><path d="M262.863 305.295C248.454 305.012 248.838 283.263 263.244 283.645C269.279 283.805 274.072 288.812 273.912 294.784C273.752 300.756 268.726 305.411 262.866 305.297L262.863 305.295Z" fill="#101828"></path><path d="M132.697 340.829C125.081 342.105 117.867 338.444 114.519 331.441C113.843 330.024 113.048 329.376 111.467 329.065C101.937 327.19 104.35 312.33 113.175 313.327C115.716 313.615 117.031 312.636 118.711 311.189C125.174 305.623 135.186 306.055 141.216 311.984C151.349 321.944 145.215 338.729 132.697 340.829ZM115.055 326.923C116.381 334.575 124.049 339.973 131.706 338.641C140.085 337.183 145.474 329.823 144.137 321.674C142.871 313.958 135.151 308.351 127.531 309.617C119.156 311.008 113.625 318.68 115.055 326.923ZM107.758 322.259C108.605 326.376 113.113 327.901 112.879 326.102C111.849 318.14 116.517 315.576 113.748 315.408C110.125 315.187 107.032 318.73 107.758 322.261V322.259Z" fill="#101828"></path><path d="M118.895 326.259C116.292 312.088 137.672 308.113 140.18 322.302C141.229 328.247 137.283 333.947 131.404 334.979C125.524 336.012 119.956 332.029 118.895 326.257V326.259Z" fill="#101828"></path><path d="M168.931 161.268C173.874 155.332 181.729 153.412 188.836 156.544C190.274 157.179 191.298 157.149 192.696 156.356C201.15 151.572 208.997 164.406 201.66 169.404C199.547 170.843 199.184 172.444 198.854 174.636C197.584 183.071 189.704 189.268 181.269 188.702C167.093 187.752 160.806 171.022 168.929 161.27L168.931 161.268ZM191.372 160.313C185.382 155.375 176.049 156.278 171.107 162.283C165.702 168.849 166.411 177.943 172.737 183.252C178.727 188.279 188.235 187.497 193.19 181.572C198.638 175.057 197.828 165.637 191.372 160.317V160.313ZM199.943 159.097C196.616 156.527 192.212 158.309 193.56 159.522C199.528 164.894 197.662 169.873 199.869 168.197C202.759 166.002 202.794 161.302 199.943 159.097Z" fill="#101828"></path><path d="M188.89 163.318C200.102 172.372 186.477 189.324 175.325 180.196C170.655 176.373 169.934 169.478 173.718 164.86C177.5 160.242 184.328 159.635 188.89 163.318Z" fill="#101828"></path></g><defs><clipPath id="clip0_1391_500"><rect width="432" height="432" fill="white"></rect></clipPath></defs></svg>