<svg xmlns="http://www.w3.org/2000/svg" fill="none" viewBox="-0.5 -0.5 14 14" height="14" width="14"><g id="user-sync-online-in-person"><path id="Union" fill="#2859c5" fill-rule="evenodd" d="M6.5 6.5a1.393 1.393 0 1 0 0 -2.785A1.393 1.393 0 0 0 6.5 6.5ZM4.163 8.257A2.784 2.784 0 0 1 6.5 6.988c0.98 0 1.84 0.505 2.337 1.269 0.175 0.269 -0.046 0.588 -0.367 0.588H4.53c-0.32 0 -0.541 -0.319 -0.367 -0.588Z" clip-rule="evenodd" stroke-width="1"></path><path id="Union_2" fill="#8fbffa" fill-rule="evenodd" d="M5.179 1.568a5.096 5.096 0 0 1 4.305 0.787l-0.566 0.566A0.464 0.464 0 0 0 9.246 3.714h2.129a0.464 0.464 0 0 0 0.464 -0.464V1.121a0.464 0.464 0 0 0 -0.793 -0.328l-0.568 0.568A6.499 6.499 0 0 0 0.111 7.695a0.696 0.696 0 1 0 1.37 -0.257 5.106 5.106 0 0 1 3.698 -5.87Zm7.71 3.737a0.696 0.696 0 0 0 -1.37 0.257 5.106 5.106 0 0 1 -8.002 5.082l0.566 -0.566A0.464 0.464 0 0 0 3.753 9.286H1.625a0.464 0.464 0 0 0 -0.464 0.464v2.129a0.464 0.464 0 0 0 0.793 0.328l0.568 -0.568a6.499 6.499 0 0 0 10.367 -6.333Z" clip-rule="evenodd" stroke-width="1"></path></g></svg>